<?xml version="1.0" standalone="no"?><!DOCTYPE svg PUBLIC "-//W3C//DTD SVG 1.1//EN" "http://www.w3.org/Graphics/SVG/1.1/DTD/svg11.dtd"><svg t="1683684544710" class="icon" viewBox="0 0 1024 1024" version="1.1" xmlns="http://www.w3.org/2000/svg" p-id="2403" xmlns:xlink="http://www.w3.org/1999/xlink" width="200" height="200"><path d="M1000.6 904.6l-138.5-322c-6.2-14.3-20.2-23.6-35.8-23.6h-83.2c-8.8 0-17 4.7-21.4 12.4-0.1 0.2-0.2 0.4-0.3 0.5-9.5 16.5 2.4 37.1 21.4 37.1h50.6c15.6 0 29.7 9.3 35.8 23.6l95.5 222c11.1 25.7-7.8 54.4-35.8 54.4H135.1c-28 0-46.9-28.7-35.8-54.4l95.5-222C201 618.3 215 609 230.6 609h50.6c19 0 30.9-20.6 21.4-37.1-0.1-0.2-0.2-0.4-0.3-0.5-4.4-7.7-12.6-12.4-21.4-12.4h-83.2c-15.6 0-29.7 9.3-35.8 23.6l-138.5 322C12.3 930.3 31.2 959 59.2 959h905.6c28 0 46.9-28.7 35.8-54.4z" p-id="2404"></path><path d="M512 769s218-365.6 218-486c0-120.4-97.6-218-218-218s-218 97.6-218 218 218 486 218 486zM404 283c0-28.8 11.2-56 31.6-76.4C456 186.2 483.2 175 512 175c28.8 0 56 11.2 76.4 31.6C608.8 227 620 254.2 620 283c0 28.8-11.2 56-31.6 76.4C568 379.8 540.8 391 512 391c-28.8 0-56-11.2-76.4-31.6C415.2 339 404 311.8 404 283z" p-id="2405"></path></svg>