<?xml version="1.0" standalone="no"?><!DOCTYPE svg PUBLIC "-//W3C//DTD SVG 1.1//EN" "http://www.w3.org/Graphics/SVG/1.1/DTD/svg11.dtd"><svg height="600" node-id="1" sillyvg="true" template-height="600" template-width="600" version="1.1" viewBox="0 0 600 600" width="600" xmlns="http://www.w3.org/2000/svg" xmlns:xlink="http://www.w3.org/1999/xlink"><defs node-id="71"><linearGradient gradientUnits="objectBoundingBox" id="linearGradient1" node-id="73" spreadMethod="pad" x1="0.92518216" x2="0.40792233" y1="0.98800004" y2="1"><stop offset="0" stop-color="#e0e5ef" stop-opacity="0"></stop><stop offset="1" stop-color="#e0e5ef"></stop></linearGradient><linearGradient gradientUnits="objectBoundingBox" id="linearGradient-1" node-id="5" spreadMethod="pad" x1="0.92518216" x2="0.40792233" y1="0.98800004" y2="1"><stop offset="0" stop-color="#e0e5ef" stop-opacity="0"></stop><stop offset="1" stop-color="#e0e5ef"></stop></linearGradient><linearGradient gradientUnits="objectBoundingBox" id="linearGradient-2" node-id="8" spreadMethod="pad" x1="0.92039144" x2="0.4089598" y1="0.98800004" y2="1"><stop offset="0" stop-color="#e0e5ef" stop-opacity="0"></stop><stop offset="1" stop-color="#e0e5ef"></stop></linearGradient><linearGradient gradientUnits="objectBoundingBox" id="linearGradient-3" node-id="11" spreadMethod="pad" x1="1.4458808" x2="0.29515958" y1="0.670017" y2="0.6741977"><stop offset="0" stop-color="#e0e5ef" stop-opacity="0"></stop><stop offset="1" stop-color="#e0e5ef"></stop></linearGradient><linearGradient gradientUnits="objectBoundingBox" id="linearGradient-4" node-id="14" spreadMethod="pad" x1="1.4458808" x2="0.29515958" y1="0.6441399" y2="0.64768434"><stop offset="0" stop-color="#e0e5ef" stop-opacity="0"></stop><stop offset="1" stop-color="#e0e5ef"></stop></linearGradient><linearGradient gradientUnits="objectBoundingBox" id="linearGradient2" node-id="104" spreadMethod="pad" x1="0.5" x2="0.5" y1="1" y2="-0.268682"><stop offset="0" stop-color="#a2abb9"></stop><stop offset="1" stop-color="#e7eaf0"></stop></linearGradient><linearGradient gradientUnits="objectBoundingBox" id="linearGradient-5" node-id="17" spreadMethod="pad" x1="0.5" x2="0.5" y1="1" y2="-0.268682"><stop offset="0" stop-color="#a2abb9"></stop><stop offset="1" stop-color="#e7eaf0"></stop></linearGradient><linearGradient gradientUnits="objectBoundingBox" id="linearGradient-6" node-id="20" spreadMethod="pad" x1="0.5" x2="0.5" y1="1" y2="-0.112257995"><stop offset="0" stop-color="#a2abb9"></stop><stop offset="1" stop-color="#e7eaf0"></stop></linearGradient><linearGradient gradientUnits="objectBoundingBox" id="linearGradient-7" node-id="23" spreadMethod="pad" x1="0.5" x2="0.5" y1="1" y2="0"><stop offset="0" stop-color="#a2abb9"></stop><stop offset="1" stop-color="#e7eaf0"></stop></linearGradient><linearGradient gradientUnits="objectBoundingBox" id="linearGradient-8" node-id="26" spreadMethod="pad" x1="0.17258924" x2="0.72424835" y1="0.8375797" y2="0.25539282"><stop offset="0" stop-color="#a2abb9"></stop><stop offset="1" stop-color="#e7eaf0"></stop></linearGradient><linearGradient gradientUnits="objectBoundingBox" id="linearGradient-9" node-id="29" spreadMethod="pad" x1="0.5" x2="0.5" y1="1" y2="-0.268682"><stop offset="0" stop-color="#a2abb9"></stop><stop offset="1" stop-color="#e7eaf0"></stop></linearGradient><linearGradient gradientUnits="objectBoundingBox" id="linearGradient-10" node-id="32" spreadMethod="pad" x1="0.5" x2="0.5" y1="1" y2="-0.112257995"><stop offset="0" stop-color="#a2abb9"></stop><stop offset="1" stop-color="#e7eaf0"></stop></linearGradient><linearGradient gradientUnits="objectBoundingBox" id="linearGradient-11" node-id="35" spreadMethod="pad" x1="0.5" x2="0.5" y1="1" y2="-0.112257995"><stop offset="0" stop-color="#ffffff"></stop><stop offset="1" stop-color="#e7eaf0"></stop></linearGradient><linearGradient gradientUnits="objectBoundingBox" id="linearGradient-12" node-id="38" spreadMethod="pad" x1="0.5" x2="0.5" y1="0" y2="1.112258"><stop offset="0" stop-color="#ffffff"></stop><stop offset="1" stop-color="#e7eaf0"></stop></linearGradient></defs><g node-id="158"><path d="M 314.40 66.00 L 324.60 66.20 L 334.70 66.90 L 344.60 68.00 L 354.30 69.50 L 363.90 71.40 L 373.40 73.70 L 382.70 76.40 L 391.90 79.50 L 400.80 83.00 L 409.50 86.80 L 420.30 92.10 L 430.60 97.90 L 440.60 104.20 L 450.20 111.00 L 432.60 111.20 L 430.50 111.80 L 428.40 112.80 L 425.10 115.60 L 422.80 119.50 L 422.20 121.60 L 422.00 125.00 L 422.20 127.40 L 422.80 129.50 L 423.80 131.60 L 426.60 134.90 L 430.50 137.20 L 432.60 137.80 L 435.00 138.00 L 480.20 138.00 L 486.50 145.10 L 492.40 152.40 L 498.10 159.90 L 503.40 167.80 L 524.90 167.80 L 527.40 168.00 L 529.80 168.60 L 531.90 169.70 L 533.90 171.10 L 535.60 172.70 L 537.00 174.70 L 538.00 176.90 L 538.60 179.20 L 538.90 181.80 L 538.30 186.60 L 537.60 188.50 L 536.00 191.00 L 534.00 193.20 L 531.50 194.90 L 528.80 196.00 L 509.00 196.00 L 506.10 196.30 L 503.40 197.00 L 500.90 198.20 L 498.70 199.80 L 496.80 201.70 L 495.20 203.90 L 494.00 206.40 L 493.30 209.10 L 493.00 217.00 L 493.30 219.90 L 494.00 222.60 L 495.20 225.10 L 496.80 227.30 L 498.70 229.20 L 500.90 230.80 L 503.40 232.00 L 506.10 232.70 L 509.00 233.00 L 576.90 233.00 L 581.20 234.80 L 583.10 236.10 L 586.20 239.50 L 588.30 243.70 L 589.00 248.50 L 588.70 252.30 L 588.00 255.00 L 586.80 257.50 L 585.20 259.70 L 583.30 261.60 L 581.10 263.20 L 578.60 264.40 L 575.90 265.10 L 573.00 265.40 L 537.80 265.40 L 538.60 276.10 L 538.90 287.00 L 538.60 297.50 L 537.90 307.80 L 536.70 317.90 L 535.10 327.90 L 532.90 337.70 L 530.40 347.40 L 527.40 356.90 L 524.00 366.20 L 520.20 375.30 L 516.10 384.20 L 511.50 392.90 L 506.50 401.40 L 501.20 409.60 L 495.60 417.50 L 489.60 425.20 L 483.20 432.70 L 476.60 439.80 L 469.60 446.60 L 462.40 453.20 L 454.80 459.40 L 447.00 465.40 L 438.90 470.90 L 430.60 476.10 L 422.00 481.00 L 413.10 485.50 L 404.10 489.70 L 394.80 493.40 L 385.40 496.70 L 375.70 499.60 L 365.80 502.20 L 355.90 504.20 L 345.80 505.90 L 335.50 507.00 L 325.00 507.70 L 314.40 508.00 L 304.40 507.80 L 294.60 507.20 L 285.00 506.10 L 275.50 504.70 L 266.20 502.90 L 254.60 500.10 L 243.30 496.70 L 232.40 492.80 L 221.70 488.30 L 211.20 483.30 L 201.00 477.80 L 191.30 471.80 L 181.80 465.40 L 172.70 458.40 L 164.00 451.10 L 155.60 443.30 L 147.70 435.10 L 140.20 426.50 L 133.20 417.60 L 126.60 408.30 L 120.50 398.60 L 114.90 388.60 L 109.90 378.30 L 105.30 367.80 L 101.30 356.90 L 91.20 356.70 L 89.80 356.10 L 88.50 355.10 L 87.60 353.80 L 87.00 352.40 L 86.70 350.70 L 87.00 348.90 L 87.80 347.20 L 89.00 345.90 L 90.60 345.00 L 103.40 344.80 L 105.50 344.20 L 107.60 343.20 L 110.90 340.40 L 113.20 336.50 L 113.80 334.40 L 114.00 332.00 L 113.80 328.60 L 113.20 326.50 L 112.20 324.40 L 110.90 322.60 L 107.60 319.80 L 105.50 318.80 L 103.40 318.20 L 92.00 317.80 L 69.90 317.80 L 66.30 317.20 L 64.70 316.40 L 62.00 314.20 L 60.20 311.20 L 59.70 309.40 L 59.70 305.70 L 61.00 302.40 L 63.20 299.70 L 66.30 297.90 L 69.90 297.30 L 90.10 297.30 L 89.90 287.00 L 90.10 277.20 L 90.70 267.50 L 91.80 258.00 L 93.20 248.70 L 95.10 239.50 L 97.90 228.00 L 101.40 216.90 L 105.40 206.10 L 109.90 195.50 L 74.00 195.50 L 70.20 195.20 L 66.50 194.50 L 63.10 193.30 L 59.90 191.70 L 56.90 189.70 L 54.20 187.30 L 51.80 184.60 L 49.80 181.70 L 48.20 178.40 L 47.00 175.00 L 46.30 171.40 L 46.00 167.50 L 46.20 162.20 L 46.90 158.70 L 48.10 155.40 L 49.60 152.20 L 51.50 149.30 L 53.70 146.70 L 56.20 144.30 L 59.00 142.30 L 62.10 140.60 L 65.30 139.30 L 68.70 138.50 L 72.40 138.00 L 199.00 138.00 L 202.50 137.40 L 205.50 135.60 L 207.60 133.00 L 208.40 131.50 L 209.00 128.00 L 208.80 126.20 L 208.40 124.50 L 206.60 121.50 L 204.00 119.40 L 202.50 118.60 L 199.00 118.00 L 169.70 118.00 L 170.40 117.40 L 155.80 117.40 L 152.40 117.10 L 149.20 116.20 L 146.30 114.80 L 143.60 112.90 L 141.30 110.70 L 139.40 108.00 L 138.00 105.00 L 137.20 101.90 L 136.80 98.40 L 137.20 93.90 L 138.00 90.70 L 139.40 87.70 L 141.30 85.10 L 143.60 82.80 L 146.30 80.90 L 149.20 79.50 L 152.40 78.70 L 155.80 78.30 L 240.20 78.30 L 257.90 73.00 L 276.30 69.20 L 295.00 66.80 L 314.40 66.00 Z" fill="#f3f3fa" fill-opacity="0.6015942" fill-rule="evenodd" group-id="1" id="背景" node-id="42" stroke="none" target-height="442" target-width="543" target-x="46" target-y="66"></path></g><g node-id="159"><path d="M 180.00 393.40 L 181.00 397.40 L 180.40 400.40 L 179.70 401.80 L 178.20 403.40 L 176.30 404.50 L 157.60 404.90 L 157.80 426.00 L 158.50 438.00 L 145.90 438.00 L 146.30 429.10 L 146.40 406.40 L 145.40 407.20 L 143.10 407.80 L 140.50 407.10 L 138.70 405.10 L 128.80 404.60 L 125.30 403.00 L 123.90 401.70 L 122.90 400.10 L 122.20 398.30 L 122.10 395.40 L 124.50 389.40 L 125.60 385.80 L 128.00 383.00 L 141.80 357.50 L 143.70 354.60 L 145.80 352.20 L 147.40 351.00 L 149.40 350.30 L 151.70 350.00 L 155.60 350.70 L 157.30 351.70 L 160.10 354.40 L 172.10 377.70 L 174.00 378.60 L 175.60 379.80 L 177.00 381.40 L 178.10 383.20 L 178.80 385.20 L 179.00 387.40 L 178.50 390.40 L 180.00 393.40 Z" fill="url(#linearGradient1)" fill-rule="nonzero" group-id="2" id="路径" node-id="44" stroke="none" target-height="88" target-width="58.9" target-x="122.1" target-y="350"></path><path d="M 490.00 393.40 L 491.00 397.40 L 490.40 400.40 L 489.70 401.80 L 488.20 403.40 L 486.30 404.50 L 467.60 404.90 L 467.80 426.00 L 468.50 438.00 L 455.90 438.00 L 456.30 429.10 L 456.40 406.40 L 455.40 407.20 L 453.10 407.80 L 450.50 407.10 L 448.70 405.10 L 438.80 404.60 L 435.30 403.00 L 433.90 401.70 L 432.90 400.10 L 432.20 398.30 L 432.10 395.40 L 434.50 389.40 L 435.60 385.80 L 438.00 383.00 L 451.80 357.50 L 453.70 354.60 L 455.80 352.20 L 457.40 351.00 L 459.40 350.30 L 461.70 350.00 L 465.60 350.70 L 467.30 351.70 L 470.10 354.40 L 482.10 377.70 L 484.00 378.60 L 485.60 379.80 L 487.00 381.40 L 488.10 383.20 L 488.80 385.20 L 489.00 387.40 L 488.50 390.40 L 490.00 393.40 Z" fill="url(#linearGradient-1)" fill-rule="nonzero" group-id="2" id="路径" node-id="45" stroke="none" target-height="88" target-width="58.899994" target-x="432.1" target-y="350"></path><path d="M 453.20 403.00 L 454.00 406.20 L 453.70 408.00 L 453.00 409.60 L 451.80 410.90 L 450.30 411.70 L 435.80 412.00 L 435.90 428.60 L 436.50 438.00 L 426.60 438.00 L 427.00 431.00 L 427.00 413.30 L 425.80 414.00 L 424.40 414.30 L 422.40 413.70 L 421.00 412.20 L 413.30 411.80 L 410.60 410.60 L 408.70 408.30 L 408.20 406.90 L 408.10 404.60 L 410.80 397.10 L 412.70 394.80 L 423.40 374.80 L 426.60 370.70 L 427.80 369.80 L 429.30 369.20 L 431.10 369.00 L 434.20 369.60 L 435.60 370.30 L 437.30 371.80 L 447.10 390.70 L 449.80 392.40 L 451.80 395.00 L 452.40 398.30 L 452.10 400.70 L 453.20 403.00 Z" fill="url(#linearGradient-2)" fill-rule="nonzero" group-id="2" id="路径" node-id="46" stroke="none" target-height="69" target-width="45.899994" target-x="408.1" target-y="369"></path></g><path d="M 284.50 415.00 L 324.70 415.70 L 362.20 417.80 L 396.00 421.10 L 412.30 423.20 L 426.80 425.50 L 439.80 428.00 L 449.30 428.30 L 458.10 429.00 L 466.40 430.10 L 474.60 431.70 L 481.80 433.50 L 488.10 435.60 L 492.80 437.60 L 496.70 439.60 L 502.70 443.70 L 505.10 446.20 L 506.70 448.60 L 507.70 451.00 L 508.00 453.50 L 507.80 455.50 L 506.10 459.40 L 504.60 461.40 L 502.20 463.70 L 499.10 466.00 L 495.10 468.30 L 486.10 472.10 L 480.60 473.80 L 468.90 476.40 L 462.10 477.50 L 452.30 480.20 L 440.70 482.80 L 441.00 486.00 L 440.70 488.80 L 440.10 491.60 L 438.90 494.30 L 437.20 497.10 L 435.00 499.90 L 431.90 502.90 L 428.20 506.00 L 423.60 509.00 L 412.80 514.50 L 400.10 519.30 L 392.70 521.50 L 382.80 523.90 L 372.00 526.00 L 360.30 527.80 L 348.50 529.00 L 336.10 529.70 L 323.00 530.00 L 311.20 529.80 L 300.00 529.20 L 289.30 528.20 L 278.50 526.80 L 268.60 525.10 L 259.30 523.00 L 250.10 520.60 L 241.90 518.00 L 234.60 515.20 L 229.20 512.70 L 220.20 507.60 L 213.10 502.00 L 210.30 499.10 L 208.10 496.10 L 206.60 493.20 L 190.90 491.80 L 162.60 488.60 L 136.80 484.50 L 114.80 479.70 L 105.40 477.10 L 97.50 474.40 L 86.50 469.80 L 82.50 467.60 L 76.90 463.30 L 75.10 461.20 L 73.90 459.30 L 73.20 457.40 L 73.00 455.50 L 73.30 453.50 L 74.10 451.40 L 75.50 449.30 L 77.60 447.10 L 80.60 444.70 L 84.30 442.40 L 89.00 440.00 L 94.80 437.60 L 101.90 435.10 L 111.20 432.30 L 122.10 429.50 L 134.90 426.90 L 162.00 422.50 L 177.80 420.50 L 210.30 417.60 L 246.20 415.70 L 284.50 415.00 Z" fill="#e7eaf0" fill-rule="evenodd" id="形状结合" node-id="47" stroke="none" target-height="115" target-width="435" target-x="73" target-y="415"></path><path d="M 343.00 466.10 L 342.70 467.20 L 341.90 468.40 L 340.30 469.60 L 337.30 471.00 L 332.90 472.50 L 321.90 474.40 L 308.50 475.10 L 295.10 474.40 L 284.10 472.50 L 279.70 471.00 L 276.70 469.60 L 275.10 468.40 L 274.30 467.20 L 274.00 466.10 L 274.30 465.00 L 275.10 463.80 L 276.70 462.60 L 279.70 461.20 L 284.10 459.70 L 295.10 457.80 L 308.50 457.10 L 321.90 457.80 L 332.90 459.70 L 337.30 461.20 L 340.30 462.60 L 341.90 463.80 L 342.70 465.00 L 343.00 466.10 Z" fill="#d1d6e2" fill-rule="nonzero" id="椭圆形" node-id="48" stroke="none" target-height="18" target-width="69" target-x="274" target-y="457.1"></path><path d="M 445.40 162.30 L 444.60 166.10 L 443.70 167.70 L 441.00 170.50 L 437.20 172.30 L 432.80 173.00 L 393.90 173.00 L 391.50 172.70 L 387.40 171.30 L 384.00 168.90 L 381.80 165.70 L 381.20 163.90 L 381.00 161.80 L 381.80 158.00 L 384.10 154.80 L 387.40 152.30 L 386.90 150.20 L 387.20 148.20 L 388.00 146.40 L 389.40 144.90 L 391.10 143.70 L 393.20 142.90 L 395.60 142.60 L 398.50 143.10 L 400.90 144.30 L 402.90 141.70 L 405.30 139.50 L 408.10 137.60 L 411.30 136.20 L 414.70 135.30 L 418.50 135.00 L 422.00 135.30 L 425.10 136.00 L 428.10 137.20 L 430.80 138.90 L 433.00 140.90 L 434.90 143.10 L 436.30 145.70 L 437.20 148.40 L 437.50 152.30 L 439.70 153.40 L 441.60 154.70 L 443.20 156.30 L 444.40 158.10 L 445.10 160.10 L 445.40 162.30 Z" fill="url(#linearGradient-3)" fill-rule="nonzero" id="路径" node-id="49" stroke="none" target-height="38" target-width="64.399994" target-x="381" target-y="135"></path><path d="M 212.00 208.90 L 211.70 211.50 L 210.90 213.80 L 209.60 216.10 L 207.80 218.00 L 205.70 219.70 L 203.10 221.10 L 200.40 222.10 L 197.40 222.80 L 194.00 223.00 L 138.40 223.00 L 132.00 221.80 L 129.20 220.70 L 126.50 219.30 L 124.30 217.50 L 122.50 215.60 L 121.20 213.40 L 120.30 211.00 L 120.00 208.30 L 120.30 205.70 L 121.20 203.30 L 122.60 201.00 L 124.40 199.00 L 126.60 197.30 L 129.20 195.80 L 128.40 193.00 L 129.10 189.60 L 130.00 188.00 L 132.70 185.50 L 136.40 183.70 L 140.90 183.00 L 145.00 183.60 L 148.40 185.20 L 152.30 180.80 L 154.80 178.80 L 160.20 175.70 L 166.50 173.70 L 173.50 173.00 L 177.30 173.20 L 184.10 174.70 L 190.20 177.50 L 195.10 181.40 L 197.00 183.70 L 198.60 186.20 L 199.70 188.80 L 200.50 191.60 L 200.70 195.80 L 204.00 197.20 L 206.70 198.90 L 208.90 201.00 L 211.20 204.70 L 212.00 208.90 Z" fill="url(#linearGradient-4)" fill-rule="nonzero" id="路径" node-id="50" stroke="none" target-height="50" target-width="92" target-x="120" target-y="173"></path><g node-id="160"><path d="M 257.00 253.30 L 249.40 258.20 L 243.00 263.00 L 237.70 267.60 L 233.30 272.10 L 229.80 276.40 L 227.10 280.70 L 225.00 284.90 L 223.50 289.00 L 222.60 293.10 L 222.30 297.30 L 222.50 301.40 L 224.30 314.20 L 226.30 326.50 L 228.80 338.50 L 231.50 350.10 L 233.90 352.70 L 236.20 354.50 L 238.50 355.70 L 240.80 356.20 L 243.30 356.30 L 245.80 355.80 L 248.60 354.60 L 251.60 352.70 L 259.20 346.80 L 269.20 338.40 L 282.10 326.90 L 257.00 253.30 Z" fill="url(#linearGradient2)" fill-rule="nonzero" group-id="3" id="路径-2" node-id="52" stroke="none" target-height="102.999985" target-width="59.800003" target-x="222.3" target-y="253.3"></path><g node-id="163"><path d="M 367.50 253.30 L 375.00 258.20 L 381.40 263.00 L 386.70 267.60 L 391.10 272.10 L 394.60 276.40 L 397.40 280.70 L 399.50 284.90 L 400.90 289.00 L 401.80 293.10 L 402.10 297.30 L 401.90 301.40 L 400.20 314.20 L 398.10 326.50 L 395.70 338.50 L 392.90 350.10 L 390.50 352.70 L 388.20 354.50 L 385.90 355.70 L 383.60 356.20 L 381.20 356.30 L 378.60 355.80 L 375.90 354.60 L 372.80 352.70 L 365.30 346.80 L 355.30 338.40 L 342.30 326.90 L 367.50 253.30 Z" fill="url(#linearGradient-5)" fill-rule="nonzero" group-id="3,6" id="路径-2备份" node-id="53" stroke="none" target-height="102.999985" target-width="59.80002" target-x="342.3" target-y="253.3"></path></g><path d="M 344.10 337.00 L 349.50 328.40 L 354.00 320.00 L 357.80 312.00 L 360.80 304.10 L 363.40 296.00 L 365.40 288.10 L 366.80 280.40 L 367.70 273.00 L 368.10 265.50 L 368.00 258.10 L 367.60 251.10 L 366.70 244.20 L 365.00 235.10 L 362.70 226.40 L 360.00 218.10 L 356.80 210.00 L 353.30 202.50 L 345.50 188.40 L 337.50 176.40 L 331.30 168.30 L 325.80 161.80 L 316.50 152.00 L 315.00 150.90 L 313.30 150.20 L 311.40 150.00 L 309.60 150.20 L 307.80 150.80 L 306.30 151.90 L 302.30 155.80 L 291.40 168.00 L 285.10 176.00 L 276.90 187.90 L 272.80 194.80 L 269.10 201.80 L 265.50 209.30 L 262.30 217.40 L 259.50 225.60 L 257.30 234.30 L 255.50 243.40 L 254.70 250.30 L 254.20 257.40 L 254.20 264.70 L 254.60 272.30 L 255.50 279.80 L 256.90 287.50 L 259.00 295.40 L 261.60 303.70 L 264.70 311.60 L 268.60 319.70 L 273.20 328.20 L 278.70 337.00 L 344.10 337.00 Z" fill="url(#linearGradient-6)" fill-rule="nonzero" group-id="3" id="路径" node-id="54" stroke="none" target-height="187" target-width="113.90001" target-x="254.2" target-y="150"></path><path d="M 316.30 152.00 L 314.80 150.90 L 313.20 150.20 L 311.40 150.00 L 309.70 150.20 L 308.00 150.80 L 306.60 151.90 L 297.70 161.40 L 292.40 167.70 L 286.50 175.50 L 278.90 187.20 L 275.00 194.00 L 347.00 194.00 L 343.20 187.30 L 335.70 175.70 L 324.80 161.50 L 316.30 152.00 Z" fill="url(#linearGradient-7)" fill-rule="nonzero" group-id="3" id="路径" node-id="55" stroke="none" target-height="44" target-width="72" target-x="275" target-y="150"></path><path d="M 344.20 337.00 L 350.00 328.00 L 273.00 328.00 L 278.70 337.00 L 344.20 337.00 Z" fill="#d9dfe8" fill-rule="nonzero" group-id="3" id="路径" node-id="56" stroke="none" target-height="9" target-width="77" target-x="273" target-y="328"></path><g node-id="164"><path d="M 345.70 386.00 L 345.10 388.80 L 344.00 391.00 L 342.10 392.20 L 340.10 392.80 L 338.30 392.80 L 336.50 392.20 L 334.80 391.00 L 329.10 385.60 L 328.50 385.40 L 328.10 385.70 L 316.60 408.00 L 314.60 410.00 L 313.20 410.60 L 311.60 410.90 L 308.80 410.40 L 306.50 408.50 L 305.60 407.00 L 294.80 385.70 L 294.30 385.50 L 293.80 385.60 L 287.90 391.10 L 286.20 392.30 L 284.50 392.80 L 282.80 392.90 L 280.80 392.30 L 279.70 391.60 L 278.30 389.90 L 276.20 383.10 L 275.20 376.10 L 275.30 366.00 L 277.10 354.00 L 277.60 351.80 L 278.60 350.00 L 280.10 348.70 L 282.60 347.70 L 285.30 348.00 L 292.60 351.00 L 298.20 352.80 L 303.90 353.90 L 309.50 354.30 L 315.30 354.20 L 321.10 353.50 L 327.00 352.10 L 337.20 348.20 L 339.60 348.10 L 341.20 348.70 L 343.90 351.00 L 345.50 353.60 L 347.80 363.90 L 348.10 370.70 L 347.70 375.10 L 345.70 386.00 Z" fill="url(#linearGradient-8)" fill-rule="nonzero" group-id="3,7" id="路径" node-id="57" stroke="none" target-height="63.19998" target-width="72.899994" target-x="275.2" target-y="347.7"></path></g><path d="M 278.70 337.00 L 344.00 337.00 L 344.00 346.00 L 278.70 346.00 Z" fill="#909aa9" fill-rule="nonzero" group-id="3" id="矩形" node-id="58" stroke="none" target-height="9" target-width="65.29999" target-x="278.7" target-y="337"></path><path d="M 341.10 240.00 L 340.80 244.10 L 340.10 248.00 L 338.80 251.70 L 337.00 255.20 L 334.90 258.30 L 332.30 261.20 L 329.50 263.80 L 326.30 265.90 L 322.80 267.60 L 319.10 268.90 L 315.30 269.70 L 311.10 270.00 L 307.00 269.70 L 303.10 268.90 L 299.50 267.60 L 296.00 265.90 L 292.80 263.80 L 289.90 261.20 L 287.40 258.30 L 285.20 255.20 L 283.50 251.70 L 282.20 248.00 L 281.40 244.10 L 281.10 240.00 L 281.40 235.90 L 282.20 232.00 L 283.50 228.30 L 285.20 224.80 L 287.40 221.70 L 289.90 218.80 L 292.80 216.20 L 296.00 214.10 L 299.50 212.40 L 303.10 211.10 L 307.00 210.30 L 311.10 210.00 L 315.30 210.30 L 319.10 211.10 L 322.80 212.40 L 326.30 214.10 L 329.50 216.20 L 332.30 218.80 L 334.90 221.70 L 337.00 224.80 L 338.80 228.30 L 340.10 232.00 L 340.80 235.90 L 341.10 240.00 Z" fill="#ecf1ff" fill-rule="nonzero" group-id="3" id="椭圆形" node-id="59" stroke="none" target-height="60" target-width="60" target-x="281.1" target-y="210"></path><path d="M 331.10 240.00 L 330.80 243.70 L 329.90 247.00 L 328.40 250.10 L 326.40 252.90 L 324.00 255.30 L 321.20 257.30 L 318.10 258.70 L 314.80 259.70 L 311.10 260.00 L 307.50 259.70 L 304.10 258.70 L 301.00 257.30 L 298.20 255.30 L 295.90 252.90 L 293.90 250.10 L 292.40 247.00 L 291.50 243.70 L 291.10 240.00 L 291.50 236.30 L 292.40 233.00 L 293.90 229.90 L 295.90 227.10 L 298.20 224.70 L 301.00 222.70 L 304.10 221.30 L 307.50 220.30 L 311.10 220.00 L 314.80 220.30 L 318.10 221.30 L 321.20 222.70 L 324.00 224.70 L 326.40 227.10 L 328.40 229.90 L 329.90 233.00 L 330.80 236.30 L 331.10 240.00 Z" fill="url(#linearGradient-9)" fill-rule="nonzero" group-id="3" id="椭圆形" node-id="60" stroke="none" target-height="40" target-width="40" target-x="291.1" target-y="220"></path><path d="M 310.50 300.00 L 307.00 303.90 L 304.80 307.40 L 302.10 313.20 L 299.90 321.20 L 299.30 325.90 L 299.00 331.50 L 299.20 337.00 L 300.00 343.30 L 301.50 350.60 L 304.80 361.70 L 310.40 375.00 L 316.00 361.80 L 319.40 350.80 L 321.00 343.60 L 321.80 337.20 L 322.00 331.70 L 321.70 326.20 L 321.10 321.40 L 319.00 313.40 L 316.30 307.50 L 314.00 304.00 L 310.50 300.00 Z" fill="url(#linearGradient-10)" fill-rule="nonzero" group-id="3" id="路径" node-id="61" stroke="none" target-height="75" target-width="23" target-x="299" target-y="300"></path></g><g node-id="161"><path d="M 217.70 370.00 L 242.20 412.00 L 242.50 412.80 L 242.10 414.20 L 241.50 414.70 L 240.50 415.00 L 191.50 415.00 L 190.10 414.40 L 189.50 413.00 L 189.80 412.00 L 214.30 370.00 L 214.80 369.40 L 216.20 369.00 L 217.00 369.20 L 217.70 370.00 Z" fill="#d1d6e2" fill-rule="nonzero" group-id="4" id="三角形" node-id="63" stroke="none" target-height="46" target-width="53" target-x="189.5" target-y="369"></path><path d="M 213.00 405.00 L 219.00 405.00 L 219.00 469.00 L 213.00 469.00 Z" fill="#d1d6e2" fill-rule="nonzero" group-id="4" id="矩形" node-id="64" stroke="none" target-height="64" target-width="6" target-x="213" target-y="405"></path><g node-id="165"><path d="M 218.00 399.30 L 217.70 399.90 L 216.50 400.50 L 215.30 399.90 L 215.00 399.30 L 214.00 385.50 L 214.20 384.50 L 214.80 383.70 L 216.50 383.00 L 217.50 383.20 L 218.80 384.70 L 219.00 385.80 L 218.00 399.30 Z M 216.50 403.00 L 217.50 403.20 L 218.80 404.50 L 218.80 406.50 L 217.50 407.80 L 215.50 407.80 L 214.20 406.50 L 214.00 405.50 L 214.70 403.70 L 216.50 403.00 Z" fill="url(#linearGradient-11)" fill-rule="nonzero" group-id="4,8" id="形状" node-id="65" stroke="none" target-height="24.799988" target-width="5" target-x="214" target-y="383"></path></g></g><g node-id="162"><path d="M 299.60 515.30 L 254.10 513.10 L 252.70 512.40 L 252.20 511.00 L 252.40 510.10 L 270.60 475.90 L 271.80 475.00 L 273.30 475.10 L 273.90 475.70 L 301.30 512.10 L 301.70 512.90 L 301.40 514.40 L 300.90 514.90 L 299.60 515.30 Z" fill="#d1d6e2" fill-opacity="0.2" fill-rule="nonzero" group-id="5" id="三角形" node-id="67" stroke="none" target-height="40.299988" target-width="49.500015" target-x="252.2" target-y="475"></path><path d="M 272.40 494.90 L 270.00 499.30 L 213.50 469.20 L 215.90 464.80 Z" fill="#d1d6e2" fill-opacity="0.2" fill-rule="nonzero" group-id="5" id="矩形" node-id="68" stroke="none" target-height="34.5" target-width="58.899994" target-x="213.5" target-y="464.8"></path><g node-id="166"><path d="M 275.60 501.50 L 275.00 500.60 L 275.10 499.90 L 275.70 499.40 L 276.70 499.40 L 289.30 505.10 L 290.60 506.50 L 290.50 508.10 L 290.00 508.70 L 288.20 508.90 L 275.60 501.50 Z M 272.90 498.70 L 272.30 499.30 L 270.70 499.60 L 268.90 498.60 L 268.20 497.20 L 269.00 495.70 L 270.60 495.40 L 272.50 496.40 L 273.10 497.90 L 272.90 498.70 Z" fill="url(#linearGradient-12)" fill-opacity="0.2" fill-rule="nonzero" group-id="5,9" id="形状" node-id="69" stroke="none" target-height="13.5" target-width="22.399994" target-x="268.2" target-y="495.4"></path></g></g></svg>