<?xml version="1.0" standalone="no"?><!DOCTYPE svg PUBLIC "-//W3C//DTD SVG 1.1//EN" "http://www.w3.org/Graphics/SVG/1.1/DTD/svg11.dtd"><svg height="600" node-id="1" sillyvg="true" template-height="600" template-width="600" version="1.1" viewBox="0 0 600 600" width="600" xmlns="http://www.w3.org/2000/svg" xmlns:xlink="http://www.w3.org/1999/xlink"><defs node-id="49"><linearGradient gradientUnits="objectBoundingBox" id="linearGradient-1" node-id="5" spreadMethod="pad" x1="1.4458808" x2="0.29515958" y1="0.66910326" y2="0.67326146"><stop offset="0" stop-color="#e0e5ef" stop-opacity="0"></stop><stop offset="1" stop-color="#e0e5ef"></stop></linearGradient><linearGradient gradientUnits="objectBoundingBox" id="linearGradient-2" node-id="8" spreadMethod="pad" x1="1.4458808" x2="0.29515958" y1="0.669094" y2="0.6732521"><stop offset="0" stop-color="#e0e5ef" stop-opacity="0"></stop><stop offset="1" stop-color="#e0e5ef"></stop></linearGradient><linearGradient gradientUnits="objectBoundingBox" id="linearGradient1" node-id="63" spreadMethod="pad" x1="0.9340618" x2="0.40599933" y1="0.98800004" y2="1"><stop offset="0" stop-color="#e0e5ef" stop-opacity="0"></stop><stop offset="1" stop-color="#e0e5ef"></stop></linearGradient><linearGradient gradientUnits="objectBoundingBox" id="linearGradient-3" node-id="11" spreadMethod="pad" x1="0.9340618" x2="0.40599933" y1="0.98800004" y2="1"><stop offset="0" stop-color="#e0e5ef" stop-opacity="0"></stop><stop offset="1" stop-color="#e0e5ef"></stop></linearGradient><linearGradient gradientUnits="objectBoundingBox" id="linearGradient-4" node-id="14" spreadMethod="pad" x1="0.92518216" x2="0.40792233" y1="0.98800004" y2="1"><stop offset="0" stop-color="#e0e5ef" stop-opacity="0"></stop><stop offset="1" stop-color="#e0e5ef"></stop></linearGradient><linearGradient gradientUnits="objectBoundingBox" id="linearGradient-5" node-id="17" spreadMethod="pad" x1="0.5" x2="0.5" y1="1" y2="-0.268682"><stop offset="0" stop-color="#a2abb9"></stop><stop offset="1" stop-color="#e7eaf0"></stop></linearGradient><linearGradient gradientUnits="objectBoundingBox" id="linearGradient-6" node-id="20" spreadMethod="pad" x1="0.5" x2="0.040798664" y1="1" y2="-0.28957963"><stop offset="0" stop-color="#a2abb9"></stop><stop offset="1" stop-color="#e7eaf0"></stop></linearGradient></defs><path d="M 0.00 0.00 L 600.00 0.00 L 600.00 600.00 L 0.00 600.00 Z" fill="#ffffff" fill-rule="evenodd" node-id="96" stroke="none" target-height="600" target-width="600" target-x="0" target-y="0"></path><g node-id="98"><path d="M 297.40 77.00 L 307.60 77.20 L 317.70 77.90 L 327.60 79.00 L 337.30 80.50 L 346.90 82.40 L 356.40 84.70 L 365.70 87.40 L 374.90 90.50 L 383.80 94.00 L 392.50 97.80 L 403.30 103.10 L 413.60 108.90 L 423.60 115.20 L 433.20 122.00 L 415.60 122.20 L 413.50 122.80 L 411.40 123.80 L 408.10 126.60 L 405.80 130.50 L 405.20 132.60 L 405.00 136.00 L 405.20 138.40 L 405.80 140.50 L 406.80 142.60 L 409.60 145.90 L 413.50 148.20 L 415.60 148.80 L 418.00 149.00 L 463.20 149.00 L 469.50 156.10 L 475.40 163.40 L 481.10 170.90 L 486.40 178.80 L 507.90 178.80 L 510.40 179.00 L 512.80 179.60 L 514.90 180.70 L 516.90 182.10 L 518.60 183.70 L 520.00 185.70 L 521.00 187.90 L 521.60 190.20 L 521.90 192.80 L 521.30 197.60 L 520.60 199.50 L 519.00 202.00 L 517.00 204.20 L 514.50 205.90 L 511.80 207.00 L 492.00 207.00 L 489.10 207.30 L 486.40 208.00 L 483.90 209.20 L 481.70 210.80 L 479.80 212.70 L 478.20 214.90 L 477.00 217.40 L 476.30 220.10 L 476.00 228.00 L 476.30 230.90 L 477.00 233.60 L 478.20 236.10 L 479.80 238.30 L 481.70 240.20 L 483.90 241.80 L 486.40 243.00 L 489.10 243.70 L 492.00 244.00 L 559.90 244.00 L 564.20 245.80 L 566.10 247.10 L 569.20 250.50 L 571.30 254.70 L 572.00 259.50 L 571.70 263.30 L 571.00 266.00 L 569.80 268.50 L 568.20 270.70 L 566.30 272.60 L 564.10 274.20 L 561.60 275.40 L 558.90 276.10 L 556.00 276.40 L 520.80 276.40 L 521.60 287.10 L 521.90 298.00 L 521.60 308.50 L 520.90 318.80 L 519.70 328.90 L 518.10 338.90 L 515.90 348.70 L 513.40 358.40 L 510.40 367.90 L 507.00 377.20 L 503.20 386.30 L 499.10 395.20 L 494.50 403.90 L 489.50 412.40 L 484.20 420.60 L 478.60 428.50 L 472.60 436.20 L 466.20 443.70 L 459.60 450.80 L 452.60 457.60 L 445.40 464.20 L 437.80 470.40 L 430.00 476.40 L 421.90 481.90 L 413.60 487.10 L 405.00 492.00 L 396.10 496.50 L 387.10 500.70 L 377.80 504.40 L 368.40 507.70 L 358.70 510.60 L 348.80 513.20 L 338.90 515.20 L 328.80 516.90 L 318.50 518.00 L 308.00 518.70 L 297.40 519.00 L 287.40 518.80 L 277.60 518.20 L 268.00 517.10 L 258.50 515.70 L 249.20 513.90 L 237.60 511.10 L 226.30 507.70 L 215.40 503.80 L 204.70 499.30 L 194.20 494.30 L 184.00 488.80 L 174.30 482.80 L 164.80 476.40 L 155.70 469.40 L 147.00 462.10 L 138.60 454.30 L 130.70 446.10 L 123.20 437.50 L 116.20 428.60 L 109.60 419.30 L 103.50 409.60 L 97.90 399.60 L 92.90 389.30 L 88.30 378.80 L 84.30 367.90 L 74.20 367.70 L 72.80 367.10 L 71.50 366.10 L 70.60 364.80 L 70.00 363.40 L 69.70 361.70 L 70.00 359.90 L 70.80 358.20 L 72.00 356.90 L 73.60 356.00 L 86.40 355.80 L 88.50 355.20 L 90.60 354.20 L 93.90 351.40 L 96.20 347.50 L 96.80 345.40 L 97.00 343.00 L 96.80 339.60 L 96.20 337.50 L 95.20 335.40 L 92.40 332.10 L 90.60 330.80 L 88.50 329.80 L 86.40 329.20 L 75.00 328.80 L 52.90 328.80 L 49.30 328.20 L 47.70 327.40 L 45.00 325.20 L 43.20 322.20 L 42.70 320.40 L 42.70 316.70 L 44.00 313.40 L 46.20 310.70 L 49.30 308.90 L 52.90 308.30 L 73.10 308.30 L 72.90 298.00 L 73.10 288.20 L 73.70 278.50 L 74.80 269.00 L 76.20 259.70 L 78.10 250.50 L 80.90 239.00 L 84.40 227.90 L 88.40 217.10 L 92.90 206.50 L 57.00 206.50 L 53.20 206.20 L 49.50 205.50 L 46.10 204.30 L 42.90 202.70 L 39.90 200.70 L 37.20 198.30 L 34.80 195.60 L 32.80 192.70 L 31.20 189.40 L 30.00 186.00 L 29.30 182.40 L 29.00 178.50 L 29.20 173.20 L 29.90 169.70 L 31.10 166.40 L 32.60 163.20 L 34.50 160.30 L 36.70 157.70 L 39.20 155.30 L 42.00 153.30 L 45.10 151.60 L 48.30 150.30 L 51.70 149.50 L 55.40 149.00 L 182.00 149.00 L 185.50 148.40 L 188.50 146.60 L 190.60 144.00 L 191.40 142.50 L 192.00 139.00 L 191.80 137.20 L 191.40 135.50 L 189.60 132.50 L 187.00 130.40 L 185.50 129.60 L 182.00 129.00 L 152.70 129.00 L 153.40 128.40 L 138.80 128.40 L 135.40 128.10 L 132.20 127.20 L 129.30 125.80 L 126.60 123.90 L 124.30 121.70 L 122.40 119.00 L 121.00 116.00 L 120.20 112.90 L 119.80 109.40 L 120.20 104.90 L 121.00 101.70 L 122.40 98.70 L 124.30 96.10 L 126.60 93.80 L 129.30 91.90 L 132.20 90.50 L 135.40 89.70 L 138.80 89.30 L 223.20 89.30 L 240.90 84.00 L 259.30 80.20 L 278.00 77.80 L 297.40 77.00 Z" fill="#f3f3fa" fill-opacity="0.6015942" fill-rule="evenodd" group-id="1" id="背景" node-id="25" stroke="none" target-height="442" target-width="543" target-x="29" target-y="77"></path></g><path d="M 181.80 214.00 L 174.50 214.00 L 174.20 210.30 L 173.50 206.90 L 172.40 203.70 L 170.80 200.60 L 169.00 197.80 L 166.70 195.20 L 164.20 193.00 L 161.40 191.10 L 158.30 189.60 L 155.00 188.40 L 151.60 187.70 L 148.00 187.50 L 144.30 187.70 L 140.90 188.40 L 137.70 189.60 L 134.60 191.10 L 131.80 193.00 L 129.20 195.20 L 127.00 197.80 L 125.10 200.60 L 123.60 203.70 L 122.40 206.90 L 121.70 210.30 L 121.50 214.00 L 116.10 214.00 L 113.90 214.20 L 111.90 214.80 L 110.00 215.80 L 106.80 218.70 L 104.70 222.60 L 103.90 227.20 L 104.10 229.60 L 105.60 233.90 L 106.80 235.80 L 110.00 238.70 L 111.90 239.60 L 113.90 240.20 L 116.10 240.50 L 181.80 240.50 L 184.00 240.20 L 186.00 239.60 L 189.60 237.40 L 192.30 233.90 L 193.80 229.60 L 194.00 227.20 L 193.80 224.80 L 192.30 220.50 L 189.60 217.10 L 186.00 214.80 L 184.00 214.20 L 181.80 214.00 Z" fill="url(#linearGradient-1)" fill-rule="nonzero" id="路径" node-id="26" stroke="none" target-height="53" target-width="90.1" target-x="103.9" target-y="187.5"></path><path d="M 368.90 138.60 L 363.70 138.60 L 363.30 135.20 L 362.50 132.00 L 361.10 129.00 L 359.20 126.40 L 356.90 124.10 L 354.20 122.20 L 351.30 120.80 L 348.10 120.00 L 344.70 119.60 L 341.20 120.00 L 338.00 120.80 L 335.10 122.20 L 332.40 124.10 L 330.10 126.40 L 328.30 129.00 L 326.80 132.00 L 326.00 135.20 L 325.70 138.60 L 321.80 138.60 L 318.80 139.20 L 317.40 139.90 L 315.70 141.40 L 314.30 143.30 L 313.40 145.60 L 313.10 148.10 L 313.40 150.70 L 314.30 152.90 L 315.70 154.90 L 317.40 156.30 L 320.20 157.50 L 368.90 157.60 L 372.00 157.00 L 373.30 156.30 L 375.10 154.90 L 376.50 152.90 L 377.30 150.70 L 377.60 148.10 L 377.30 145.60 L 376.40 143.30 L 375.10 141.40 L 373.30 139.90 L 370.50 138.80 L 368.90 138.60 Z" fill="url(#linearGradient-2)" fill-rule="nonzero" id="路径" node-id="27" stroke="none" target-height="38.000008" target-width="64.5" target-x="313.1" target-y="119.6"></path><path d="M 284.50 415.00 L 324.70 415.70 L 362.20 417.80 L 396.00 421.10 L 412.30 423.20 L 426.80 425.50 L 439.80 428.00 L 449.30 428.30 L 458.10 429.00 L 466.40 430.10 L 474.60 431.70 L 481.80 433.50 L 488.10 435.60 L 492.80 437.60 L 496.70 439.60 L 502.70 443.70 L 505.10 446.20 L 506.70 448.60 L 507.70 451.00 L 508.00 453.50 L 507.80 455.50 L 506.10 459.40 L 504.60 461.40 L 502.20 463.70 L 499.10 466.00 L 495.10 468.30 L 486.10 472.10 L 480.60 473.80 L 468.90 476.40 L 462.10 477.50 L 452.30 480.20 L 440.70 482.80 L 441.00 486.00 L 440.70 488.80 L 440.10 491.60 L 438.90 494.30 L 437.20 497.10 L 435.00 499.90 L 431.90 502.90 L 428.20 506.00 L 423.60 509.00 L 412.80 514.50 L 400.10 519.30 L 392.70 521.50 L 382.80 523.90 L 372.00 526.00 L 360.30 527.80 L 348.50 529.00 L 336.10 529.70 L 323.00 530.00 L 311.20 529.80 L 300.00 529.20 L 289.30 528.20 L 278.50 526.80 L 268.60 525.10 L 259.30 523.00 L 250.10 520.60 L 241.90 518.00 L 234.60 515.20 L 229.20 512.70 L 220.20 507.60 L 213.10 502.00 L 210.30 499.10 L 208.10 496.10 L 206.60 493.20 L 190.90 491.80 L 162.60 488.60 L 136.80 484.50 L 114.80 479.70 L 105.40 477.10 L 97.50 474.40 L 86.50 469.80 L 82.50 467.60 L 76.90 463.30 L 75.10 461.20 L 73.90 459.30 L 73.20 457.40 L 73.00 455.50 L 73.30 453.50 L 74.10 451.40 L 75.50 449.30 L 77.60 447.10 L 80.60 444.70 L 84.30 442.40 L 89.00 440.00 L 94.80 437.60 L 101.90 435.10 L 111.20 432.30 L 122.10 429.50 L 134.90 426.90 L 162.00 422.50 L 177.80 420.50 L 210.30 417.60 L 246.20 415.70 L 284.50 415.00 Z" fill="#e7eaf0" fill-rule="evenodd" id="形状结合" node-id="28" stroke="none" target-height="115" target-width="435" target-x="73" target-y="415"></path><g node-id="99"><path d="M 463.30 400.60 L 464.00 403.40 L 463.80 405.00 L 463.10 406.50 L 462.00 407.60 L 460.60 408.40 L 447.40 408.70 L 447.50 423.60 L 448.00 432.00 L 439.00 432.00 L 439.30 425.70 L 439.40 409.80 L 438.20 410.50 L 437.00 410.70 L 435.20 410.20 L 433.90 408.80 L 426.80 408.50 L 424.90 407.70 L 423.40 406.40 L 422.60 405.30 L 422.20 404.10 L 422.10 402.00 L 424.60 395.30 L 426.30 393.20 L 436.10 375.20 L 438.90 371.50 L 441.50 370.20 L 443.10 370.00 L 445.30 370.30 L 447.20 371.20 L 448.70 372.50 L 457.70 389.50 L 460.20 391.00 L 461.90 393.40 L 462.60 396.40 L 462.30 398.50 L 463.30 400.60 Z" fill="url(#linearGradient1)" fill-rule="nonzero" group-id="2" id="路径" node-id="30" stroke="none" target-height="62" target-width="41.899994" target-x="422.1" target-y="370"></path><path d="M 503.30 420.60 L 504.00 423.40 L 503.80 425.00 L 503.10 426.50 L 502.00 427.60 L 500.60 428.40 L 487.40 428.70 L 487.50 443.60 L 488.00 452.00 L 479.00 452.00 L 479.30 445.70 L 479.40 429.80 L 478.20 430.50 L 477.00 430.70 L 475.20 430.20 L 473.90 428.80 L 466.80 428.50 L 464.90 427.70 L 463.40 426.40 L 462.60 425.30 L 462.20 424.10 L 462.10 422.00 L 464.60 415.30 L 466.30 413.20 L 476.10 395.20 L 478.90 391.50 L 481.50 390.20 L 483.10 390.00 L 485.30 390.30 L 487.20 391.20 L 488.70 392.50 L 497.70 409.50 L 500.20 411.00 L 501.90 413.40 L 502.60 416.40 L 502.30 418.50 L 503.30 420.60 Z" fill="url(#linearGradient-3)" fill-rule="nonzero" group-id="2" id="路径" node-id="31" stroke="none" target-height="62" target-width="41.899994" target-x="462.1" target-y="390"></path><path d="M 150.00 413.40 L 151.00 417.40 L 150.40 420.40 L 149.70 421.80 L 148.20 423.40 L 146.30 424.50 L 127.60 424.90 L 127.80 446.00 L 128.50 458.00 L 115.90 458.00 L 116.30 449.10 L 116.40 426.40 L 115.40 427.20 L 113.10 427.80 L 110.50 427.10 L 108.70 425.10 L 98.80 424.60 L 95.30 423.00 L 93.90 421.70 L 92.90 420.10 L 92.20 418.30 L 92.10 415.40 L 94.50 409.40 L 95.60 405.80 L 98.00 403.00 L 111.80 377.50 L 113.70 374.60 L 115.80 372.20 L 117.40 371.00 L 119.40 370.30 L 121.70 370.00 L 125.60 370.70 L 127.30 371.70 L 130.10 374.40 L 142.10 397.70 L 144.00 398.60 L 145.60 399.80 L 147.00 401.40 L 148.10 403.20 L 148.80 405.20 L 149.00 407.40 L 148.50 410.40 L 150.00 413.40 Z" fill="url(#linearGradient-4)" fill-rule="nonzero" group-id="2" id="路径" node-id="32" stroke="none" target-height="88" target-width="58.9" target-x="92.1" target-y="370"></path></g><path d="M 336.00 466.10 L 335.70 467.20 L 334.90 468.40 L 333.30 469.60 L 330.30 471.00 L 325.90 472.50 L 314.90 474.40 L 301.50 475.10 L 288.10 474.40 L 277.10 472.50 L 272.70 471.00 L 269.70 469.60 L 268.10 468.40 L 267.30 467.20 L 267.00 466.10 L 267.30 465.00 L 268.10 463.80 L 269.70 462.60 L 272.70 461.20 L 277.10 459.70 L 288.10 457.80 L 301.50 457.10 L 314.90 457.80 L 325.90 459.70 L 330.30 461.20 L 333.30 462.60 L 334.90 463.80 L 335.70 465.00 L 336.00 466.10 Z" fill="#d1d6e2" fill-rule="nonzero" id="椭圆形" node-id="33" stroke="none" target-height="18" target-width="69" target-x="267" target-y="457.1"></path><g node-id="100"><path d="M 216.00 263.00 L 266.00 263.00 L 274.30 276.20 L 343.90 276.00 L 348.30 276.30 L 352.50 277.20 L 356.40 278.50 L 360.10 280.40 L 363.50 282.70 L 366.60 285.40 L 369.30 288.40 L 371.60 291.80 L 373.50 295.50 L 374.80 299.40 L 375.70 303.60 L 376.00 308.00 L 376.00 409.00 L 216.00 409.00 L 216.00 263.00 Z" fill="#d9dfe8" fill-rule="evenodd" group-id="3" id="矩形" node-id="35" stroke="none" target-height="146" target-width="160" target-x="216" target-y="263"></path><path d="M 233.00 295.00 L 363.00 295.00 L 363.00 439.00 L 233.00 439.00 Z" fill="#a2abb9" fill-rule="evenodd" group-id="3" id="矩形" node-id="36" stroke="none" target-height="144" target-width="130" target-x="233" target-y="295"></path><path d="M 230.00 309.00 L 366.00 309.00 L 366.00 436.00 L 230.00 436.00 Z" fill="#ffffff" fill-rule="evenodd" group-id="3" id="矩形" node-id="37" stroke="none" target-height="127" target-width="136" target-x="230" target-y="309"></path><path d="M 229.00 318.00 L 370.00 318.00 L 370.00 435.00 L 229.00 435.00 Z" fill="#c8cede" fill-rule="evenodd" group-id="3" id="矩形" node-id="38" stroke="none" target-height="117" target-width="141" target-x="229" target-y="318"></path><path d="M 203.00 331.00 L 393.00 331.00 L 375.70 439.00 L 220.30 439.00 Z" fill="url(#linearGradient-5)" fill-rule="nonzero" group-id="3" id="矩形" node-id="39" stroke="none" target-height="108" target-width="190" target-x="203" target-y="331"></path><path d="M 316.50 378.00 L 317.90 378.30 L 319.00 379.00 L 319.70 380.10 L 320.00 381.50 L 319.70 382.90 L 319.00 384.00 L 317.90 384.70 L 316.50 385.00 L 315.10 384.70 L 314.00 384.00 L 313.30 382.90 L 313.00 381.50 L 313.30 380.10 L 314.00 379.00 L 315.10 378.30 L 316.50 378.00 Z" fill="#d9dfe8" fill-rule="evenodd" group-id="3" id="矩形" node-id="40" stroke="none" target-height="7" target-width="7" target-x="313" target-y="378"></path><path d="M 330.50 378.00 L 354.50 378.00 L 355.90 378.30 L 357.00 379.00 L 357.70 380.10 L 358.00 381.50 L 357.70 382.90 L 357.00 384.00 L 355.90 384.70 L 354.50 385.00 L 330.50 385.00 L 329.10 384.70 L 328.00 384.00 L 327.30 382.90 L 327.00 381.50 L 327.30 380.10 L 328.00 379.00 L 329.10 378.30 L 330.50 378.00 Z" fill="#d9dfe8" fill-rule="evenodd" group-id="3" id="矩形" node-id="41" stroke="none" target-height="7" target-width="31" target-x="327" target-y="378"></path><path d="M 315.50 393.00 L 353.50 393.00 L 354.90 393.30 L 356.00 394.00 L 356.70 395.10 L 357.00 396.50 L 356.70 397.90 L 356.00 399.00 L 354.90 399.70 L 353.50 400.00 L 315.50 400.00 L 314.10 399.70 L 313.00 399.00 L 312.30 397.90 L 312.00 396.50 L 312.30 395.10 L 313.00 394.00 L 314.10 393.30 L 315.50 393.00 Z" fill="#d9dfe8" fill-rule="evenodd" group-id="3" id="矩形备份-2" node-id="42" stroke="none" target-height="7" target-width="45" target-x="312" target-y="393"></path><path d="M 303.00 256.00 L 302.70 258.70 L 302.10 261.20 L 301.00 263.60 L 299.50 265.70 L 297.70 267.50 L 295.60 269.00 L 293.20 270.10 L 290.70 270.70 L 288.00 271.00 L 285.30 270.70 L 282.80 270.10 L 280.40 269.00 L 278.30 267.50 L 276.50 265.70 L 275.00 263.60 L 273.90 261.20 L 273.30 258.70 L 273.00 256.00 L 273.30 253.30 L 273.90 250.80 L 275.00 248.40 L 276.50 246.30 L 278.30 244.50 L 280.40 243.00 L 282.80 241.90 L 285.30 241.30 L 288.00 241.00 L 290.70 241.30 L 293.20 241.90 L 295.60 243.00 L 297.70 244.50 L 299.50 246.30 L 301.00 248.40 L 302.10 250.80 L 302.70 253.30 L 303.00 256.00 Z" fill="#d9dfe8" fill-rule="evenodd" group-id="3" id="椭圆形" node-id="43" stroke="none" target-height="30" target-width="30" target-x="273" target-y="241"></path><path d="M 288.00 261.00 L 282.10 264.10 L 283.20 257.50 L 278.50 252.90 L 285.10 252.00 L 288.00 246.00 L 290.90 252.00 L 297.50 252.90 L 292.80 257.50 L 293.90 264.10 Z" fill="#ffffff" fill-rule="evenodd" group-id="3" id="星形" node-id="44" stroke="none" target-height="18.100006" target-width="19" target-x="278.5" target-y="246"></path></g><g node-id="101"><path d="M 374.00 219.80 L 364.90 231.30 L 338.40 195.60 L 391.80 198.00 L 383.80 208.70 L 345.60 198.90 L 380.00 213.80 L 386.10 224.60 Z" fill="url(#linearGradient-6)" fill-rule="nonzero" group-id="4" id="路径" node-id="46" stroke="none" target-height="35.699997" target-width="53.399994" target-x="338.4" target-y="195.6"></path></g><path d="M 396.00 228.00 L 404.30 233.70 L 411.60 239.40 L 418.00 245.10 L 423.50 250.70 L 428.30 256.30 L 432.30 261.80 L 435.60 267.40 L 438.30 273.00 L 440.40 278.60 L 442.00 284.20 L 442.90 289.90 L 443.40 295.70 L 443.20 301.70 L 442.50 307.70 L 441.20 314.00 L 439.30 320.50 L 436.70 327.30 L 433.40 334.30 L 429.30 341.60 L 424.30 349.20 L 418.40 357.20 L 411.50 365.60" fill="none" id="路径-26" node-id="47" stroke="#d1d6e2" stroke-dasharray="4 4" stroke-linecap="round" stroke-width="1" target-height="137.6" target-width="47.399994" target-x="396" target-y="228"></path></svg>