<?xml version="1.0" standalone="no"?><!DOCTYPE svg PUBLIC "-//W3C//DTD SVG 1.1//EN" "http://www.w3.org/Graphics/SVG/1.1/DTD/svg11.dtd"><svg height="600" node-id="1" sillyvg="true" template-height="600" template-width="600" version="1.1" viewBox="0 0 600 600" width="600" xmlns="http://www.w3.org/2000/svg" xmlns:xlink="http://www.w3.org/1999/xlink"><defs node-id="87"><linearGradient gradientUnits="objectBoundingBox" id="linearGradient-1" node-id="5" spreadMethod="pad" x1="1.4458808" x2="0.29515958" y1="0.670017" y2="0.6741977"><stop offset="0" stop-color="#e0e5ef" stop-opacity="0"></stop><stop offset="1" stop-color="#e0e5ef"></stop></linearGradient><linearGradient gradientUnits="objectBoundingBox" id="linearGradient1" node-id="95" spreadMethod="pad" x1="0.92518216" x2="0.40792233" y1="0.98800004" y2="1"><stop offset="0" stop-color="#e0e5ef" stop-opacity="0"></stop><stop offset="1" stop-color="#e0e5ef"></stop></linearGradient><linearGradient gradientUnits="objectBoundingBox" id="linearGradient-2" node-id="8" spreadMethod="pad" x1="0.92518216" x2="0.40792233" y1="0.98800004" y2="1"><stop offset="0" stop-color="#e0e5ef" stop-opacity="0"></stop><stop offset="1" stop-color="#e0e5ef"></stop></linearGradient><linearGradient gradientUnits="objectBoundingBox" id="linearGradient-3" node-id="11" spreadMethod="pad" x1="0.92039144" x2="0.4089598" y1="0.98800004" y2="1"><stop offset="0" stop-color="#e0e5ef" stop-opacity="0"></stop><stop offset="1" stop-color="#e0e5ef"></stop></linearGradient><linearGradient gradientUnits="objectBoundingBox" id="linearGradient-4" node-id="14" spreadMethod="pad" x1="0.81093633" x2="-0.85040355" y1="0.37104923" y2="0.9245534"><stop offset="0" stop-color="#e8ebf1" stop-opacity="0.23774004"></stop><stop offset="1" stop-color="#a2abb9"></stop></linearGradient><linearGradient gradientUnits="objectBoundingBox" id="linearGradient-5" node-id="17" spreadMethod="pad" x1="0.67341614" x2="0" y1="0.60766894" y2="0.38396627"><stop offset="0" stop-color="#a2abb9"></stop><stop offset="1" stop-color="#e7eaf0"></stop></linearGradient><linearGradient gradientUnits="objectBoundingBox" id="linearGradient-6" node-id="20" spreadMethod="pad" x1="0.50557554" x2="0.48392445" y1="1.0695688" y2="-0.113818474"><stop offset="0" stop-color="#a2abb9"></stop><stop offset="1" stop-color="#e7eaf0"></stop></linearGradient><linearGradient gradientUnits="objectBoundingBox" id="linearGradient-7" node-id="23" spreadMethod="pad" x1="0.67341614" x2="0" y1="0.6520857" y2="0.33609876"><stop offset="0" stop-color="#a2abb9"></stop><stop offset="1" stop-color="#e7eaf0"></stop></linearGradient><linearGradient gradientUnits="objectBoundingBox" id="linearGradient-8" node-id="26" spreadMethod="pad" x1="0.7315661" x2="-0.30632174" y1="0.17676537" y2="1.1403399"><stop offset="0" stop-color="#a2abb9"></stop><stop offset="1" stop-color="#e7eaf0"></stop></linearGradient><linearGradient gradientUnits="objectBoundingBox" id="linearGradient-9" node-id="29" spreadMethod="pad" x1="-0.13723296" x2="1.072185" y1="0.63939536" y2="0.68243635"><stop offset="0" stop-color="#a2abb9"></stop><stop offset="0.23185241" stop-color="#a2abb9"></stop><stop offset="1" stop-color="#e7eaf0"></stop></linearGradient><linearGradient gradientUnits="objectBoundingBox" id="linearGradient-10" node-id="33" spreadMethod="pad" x1="0.26715273" x2="1.0662042" y1="0.3382405" y2="0.6617595"><stop offset="0" stop-color="#a2abb9"></stop><stop offset="1" stop-color="#e7eaf0"></stop></linearGradient><linearGradient gradientUnits="objectBoundingBox" id="linearGradient-11" node-id="36" spreadMethod="pad" x1="0.20710804" x2="0.9379623" y1="0.28446093" y2="0.63835335"><stop offset="0" stop-color="#a2abb9"></stop><stop offset="1" stop-color="#e7eaf0"></stop></linearGradient><linearGradient gradientUnits="objectBoundingBox" id="linearGradient-12" node-id="39" spreadMethod="pad" x1="0.62056434" x2="0.1523844" y1="1.0695688" y2="-0.113818474"><stop offset="0" stop-color="#a2abb9"></stop><stop offset="1" stop-color="#e7eaf0"></stop></linearGradient><linearGradient gradientUnits="objectBoundingBox" id="linearGradient-13" node-id="42" spreadMethod="pad" x1="0.9320229" x2="0.06797705" y1="0" y2="1.0525831"><stop offset="0" stop-color="#a2abb9"></stop><stop offset="1" stop-color="#e7eaf0"></stop></linearGradient><linearGradient gradientUnits="objectBoundingBox" id="linearGradient-14" node-id="45" spreadMethod="pad" x1="1" x2="0" y1="0.1352125" y2="0.9031508"><stop offset="0" stop-color="#a2abb9"></stop><stop offset="1" stop-color="#e7eaf0"></stop></linearGradient><linearGradient gradientUnits="objectBoundingBox" id="linearGradient-15" node-id="48" spreadMethod="pad" x1="0.6563467" x2="0.34365332" y1="0" y2="1.0525831"><stop offset="0" stop-color="#a2abb9"></stop><stop offset="1" stop-color="#e7eaf0"></stop></linearGradient><linearGradient gradientUnits="objectBoundingBox" id="linearGradient-16" node-id="51" spreadMethod="pad" x1="0.67341614" x2="0" y1="0.683891" y2="0.30182254"><stop offset="0" stop-color="#a2abb9"></stop><stop offset="1" stop-color="#e7eaf0"></stop></linearGradient><linearGradient gradientUnits="objectBoundingBox" id="linearGradient-17" node-id="54" spreadMethod="pad" x1="1" x2="0" y1="0.39076242" y2="0.6207257"><stop offset="0" stop-color="#a2abb9"></stop><stop offset="1" stop-color="#e7eaf0"></stop></linearGradient></defs><g node-id="199"><path d="M 297.40 77.00 L 307.60 77.20 L 317.70 77.90 L 327.60 79.00 L 337.30 80.50 L 346.90 82.40 L 356.40 84.70 L 365.70 87.40 L 374.90 90.50 L 383.80 94.00 L 392.50 97.80 L 403.30 103.10 L 413.60 108.90 L 423.60 115.20 L 433.20 122.00 L 415.60 122.20 L 413.50 122.80 L 411.40 123.80 L 408.10 126.60 L 405.80 130.50 L 405.20 132.60 L 405.00 136.00 L 405.20 138.40 L 405.80 140.50 L 406.80 142.60 L 409.60 145.90 L 413.50 148.20 L 415.60 148.80 L 418.00 149.00 L 463.20 149.00 L 469.50 156.10 L 475.40 163.40 L 481.10 170.90 L 486.40 178.80 L 507.90 178.80 L 510.40 179.00 L 512.80 179.60 L 514.90 180.70 L 516.90 182.10 L 518.60 183.70 L 520.00 185.70 L 521.00 187.90 L 521.60 190.20 L 521.90 192.80 L 521.30 197.60 L 520.60 199.50 L 519.00 202.00 L 517.00 204.20 L 514.50 205.90 L 511.80 207.00 L 492.00 207.00 L 489.10 207.30 L 486.40 208.00 L 483.90 209.20 L 481.70 210.80 L 479.80 212.70 L 478.20 214.90 L 477.00 217.40 L 476.30 220.10 L 476.00 228.00 L 476.30 230.90 L 477.00 233.60 L 478.20 236.10 L 479.80 238.30 L 481.70 240.20 L 483.90 241.80 L 486.40 243.00 L 489.10 243.70 L 492.00 244.00 L 559.90 244.00 L 564.20 245.80 L 566.10 247.10 L 569.20 250.50 L 571.30 254.70 L 572.00 259.50 L 571.70 263.30 L 571.00 266.00 L 569.80 268.50 L 568.20 270.70 L 566.30 272.60 L 564.10 274.20 L 561.60 275.40 L 558.90 276.10 L 556.00 276.40 L 520.80 276.40 L 521.60 287.10 L 521.90 298.00 L 521.60 308.50 L 520.90 318.80 L 519.70 328.90 L 518.10 338.90 L 515.90 348.70 L 513.40 358.40 L 510.40 367.90 L 507.00 377.20 L 503.20 386.30 L 499.10 395.20 L 494.50 403.90 L 489.50 412.40 L 484.20 420.60 L 478.60 428.50 L 472.60 436.20 L 466.20 443.70 L 459.60 450.80 L 452.60 457.60 L 445.40 464.20 L 437.80 470.40 L 430.00 476.40 L 421.90 481.90 L 413.60 487.10 L 405.00 492.00 L 396.10 496.50 L 387.10 500.70 L 377.80 504.40 L 368.40 507.70 L 358.70 510.60 L 348.80 513.20 L 338.90 515.20 L 328.80 516.90 L 318.50 518.00 L 308.00 518.70 L 297.40 519.00 L 287.40 518.80 L 277.60 518.20 L 268.00 517.10 L 258.50 515.70 L 249.20 513.90 L 237.60 511.10 L 226.30 507.70 L 215.40 503.80 L 204.70 499.30 L 194.20 494.30 L 184.00 488.80 L 174.30 482.80 L 164.80 476.40 L 155.70 469.40 L 147.00 462.10 L 138.60 454.30 L 130.70 446.10 L 123.20 437.50 L 116.20 428.60 L 109.60 419.30 L 103.50 409.60 L 97.90 399.60 L 92.90 389.30 L 88.30 378.80 L 84.30 367.90 L 74.20 367.70 L 72.80 367.10 L 71.50 366.10 L 70.60 364.80 L 70.00 363.40 L 69.70 361.70 L 70.00 359.90 L 70.80 358.20 L 72.00 356.90 L 73.60 356.00 L 86.40 355.80 L 88.50 355.20 L 90.60 354.20 L 93.90 351.40 L 96.20 347.50 L 96.80 345.40 L 97.00 343.00 L 96.80 339.60 L 96.20 337.50 L 95.20 335.40 L 92.40 332.10 L 90.60 330.80 L 88.50 329.80 L 86.40 329.20 L 75.00 328.80 L 52.90 328.80 L 49.30 328.20 L 47.70 327.40 L 45.00 325.20 L 43.20 322.20 L 42.70 320.40 L 42.70 316.70 L 44.00 313.40 L 46.20 310.70 L 49.30 308.90 L 52.90 308.30 L 73.10 308.30 L 72.90 298.00 L 73.10 288.20 L 73.70 278.50 L 74.80 269.00 L 76.20 259.70 L 78.10 250.50 L 80.90 239.00 L 84.40 227.90 L 88.40 217.10 L 92.90 206.50 L 57.00 206.50 L 53.20 206.20 L 49.50 205.50 L 46.10 204.30 L 42.90 202.70 L 39.90 200.70 L 37.20 198.30 L 34.80 195.60 L 32.80 192.70 L 31.20 189.40 L 30.00 186.00 L 29.30 182.40 L 29.00 178.50 L 29.20 173.20 L 29.90 169.70 L 31.10 166.40 L 32.60 163.20 L 34.50 160.30 L 36.70 157.70 L 39.20 155.30 L 42.00 153.30 L 45.10 151.60 L 48.30 150.30 L 51.70 149.50 L 55.40 149.00 L 182.00 149.00 L 185.50 148.40 L 188.50 146.60 L 190.60 144.00 L 191.40 142.50 L 192.00 139.00 L 191.80 137.20 L 191.40 135.50 L 189.60 132.50 L 187.00 130.40 L 185.50 129.60 L 182.00 129.00 L 152.70 129.00 L 153.40 128.40 L 138.80 128.40 L 135.40 128.10 L 132.20 127.20 L 129.30 125.80 L 126.60 123.90 L 124.30 121.70 L 122.40 119.00 L 121.00 116.00 L 120.20 112.90 L 119.80 109.40 L 120.20 104.90 L 121.00 101.70 L 122.40 98.70 L 124.30 96.10 L 126.60 93.80 L 129.30 91.90 L 132.20 90.50 L 135.40 89.70 L 138.80 89.30 L 223.20 89.30 L 240.90 84.00 L 259.30 80.20 L 278.00 77.80 L 297.40 77.00 Z" fill="#f3f3fa" fill-opacity="0.6015942" fill-rule="evenodd" group-id="1" id="背景" node-id="58" stroke="none" target-height="442" target-width="543" target-x="29" target-y="77"></path></g><path d="M 445.40 162.30 L 444.60 166.10 L 443.70 167.70 L 441.00 170.50 L 437.20 172.30 L 432.80 173.00 L 393.90 173.00 L 391.50 172.70 L 387.40 171.30 L 384.00 168.90 L 381.80 165.70 L 381.20 163.90 L 381.00 161.80 L 381.80 158.00 L 384.10 154.80 L 387.40 152.30 L 386.90 150.20 L 387.20 148.20 L 388.00 146.40 L 389.40 144.90 L 391.10 143.70 L 393.20 142.90 L 395.60 142.60 L 398.50 143.10 L 400.90 144.30 L 402.90 141.70 L 405.30 139.50 L 408.10 137.60 L 411.30 136.20 L 414.70 135.30 L 418.50 135.00 L 422.00 135.30 L 425.10 136.00 L 428.10 137.20 L 430.80 138.90 L 433.00 140.90 L 434.90 143.10 L 436.30 145.70 L 437.20 148.40 L 437.50 152.30 L 439.70 153.40 L 441.60 154.70 L 443.20 156.30 L 444.40 158.10 L 445.10 160.10 L 445.40 162.30 Z" fill="url(#linearGradient-1)" fill-rule="nonzero" id="路径" node-id="59" stroke="none" target-height="38" target-width="64.399994" target-x="381" target-y="135"></path><g node-id="200"><path d="M 180.00 393.40 L 181.00 397.40 L 180.40 400.40 L 179.70 401.80 L 178.20 403.40 L 176.30 404.50 L 157.60 404.90 L 157.80 426.00 L 158.50 438.00 L 145.90 438.00 L 146.30 429.10 L 146.40 406.40 L 145.40 407.20 L 143.10 407.80 L 140.50 407.10 L 138.70 405.10 L 128.80 404.60 L 125.30 403.00 L 123.90 401.70 L 122.90 400.10 L 122.20 398.30 L 122.10 395.40 L 124.50 389.40 L 125.60 385.80 L 128.00 383.00 L 141.80 357.50 L 143.70 354.60 L 145.80 352.20 L 147.40 351.00 L 149.40 350.30 L 151.70 350.00 L 155.60 350.70 L 157.30 351.70 L 160.10 354.40 L 172.10 377.70 L 174.00 378.60 L 175.60 379.80 L 177.00 381.40 L 178.10 383.20 L 178.80 385.20 L 179.00 387.40 L 178.50 390.40 L 180.00 393.40 Z" fill="url(#linearGradient1)" fill-rule="nonzero" group-id="2" id="路径" node-id="61" stroke="none" target-height="88" target-width="58.9" target-x="122.1" target-y="350"></path><path d="M 490.00 393.40 L 491.00 397.40 L 490.40 400.40 L 489.70 401.80 L 488.20 403.40 L 486.30 404.50 L 467.60 404.90 L 467.80 426.00 L 468.50 438.00 L 455.90 438.00 L 456.30 429.10 L 456.40 406.40 L 455.40 407.20 L 453.10 407.80 L 450.50 407.10 L 448.70 405.10 L 438.80 404.60 L 435.30 403.00 L 433.90 401.70 L 432.90 400.10 L 432.20 398.30 L 432.10 395.40 L 434.50 389.40 L 435.60 385.80 L 438.00 383.00 L 451.80 357.50 L 453.70 354.60 L 455.80 352.20 L 457.40 351.00 L 459.40 350.30 L 461.70 350.00 L 465.60 350.70 L 467.30 351.70 L 470.10 354.40 L 482.10 377.70 L 484.00 378.60 L 485.60 379.80 L 487.00 381.40 L 488.10 383.20 L 488.80 385.20 L 489.00 387.40 L 488.50 390.40 L 490.00 393.40 Z" fill="url(#linearGradient-2)" fill-rule="nonzero" group-id="2" id="路径" node-id="62" stroke="none" target-height="88" target-width="58.899994" target-x="432.1" target-y="350"></path><path d="M 453.20 403.00 L 454.00 406.20 L 453.70 408.00 L 453.00 409.60 L 451.80 410.90 L 450.30 411.70 L 435.80 412.00 L 435.90 428.60 L 436.50 438.00 L 426.60 438.00 L 427.00 431.00 L 427.00 413.30 L 425.80 414.00 L 424.40 414.30 L 422.40 413.70 L 421.00 412.20 L 413.30 411.80 L 410.60 410.60 L 408.70 408.30 L 408.20 406.90 L 408.10 404.60 L 410.80 397.10 L 412.70 394.80 L 423.40 374.80 L 426.60 370.70 L 427.80 369.80 L 429.30 369.20 L 431.10 369.00 L 434.20 369.60 L 435.60 370.30 L 437.30 371.80 L 447.10 390.70 L 449.80 392.40 L 451.80 395.00 L 452.40 398.30 L 452.10 400.70 L 453.20 403.00 Z" fill="url(#linearGradient-3)" fill-rule="nonzero" group-id="2" id="路径" node-id="63" stroke="none" target-height="69" target-width="45.899994" target-x="408.1" target-y="369"></path></g><path d="M 284.50 415.00 L 324.70 415.70 L 362.20 417.80 L 396.00 421.10 L 412.30 423.20 L 426.80 425.50 L 439.80 428.00 L 449.30 428.30 L 458.10 429.00 L 466.40 430.10 L 474.60 431.70 L 481.80 433.50 L 488.10 435.60 L 492.80 437.60 L 496.70 439.60 L 502.70 443.70 L 505.10 446.20 L 506.70 448.60 L 507.70 451.00 L 508.00 453.50 L 507.80 455.50 L 506.10 459.40 L 504.60 461.40 L 502.20 463.70 L 499.10 466.00 L 495.10 468.30 L 486.10 472.10 L 480.60 473.80 L 468.90 476.40 L 462.10 477.50 L 452.30 480.20 L 440.70 482.80 L 441.00 486.00 L 440.70 488.80 L 440.10 491.60 L 438.90 494.30 L 437.20 497.10 L 435.00 499.90 L 431.90 502.90 L 428.20 506.00 L 423.60 509.00 L 412.80 514.50 L 400.10 519.30 L 392.70 521.50 L 382.80 523.90 L 372.00 526.00 L 360.30 527.80 L 348.50 529.00 L 336.10 529.70 L 323.00 530.00 L 311.20 529.80 L 300.00 529.20 L 289.30 528.20 L 278.50 526.80 L 268.60 525.10 L 259.30 523.00 L 250.10 520.60 L 241.90 518.00 L 234.60 515.20 L 229.20 512.70 L 220.20 507.60 L 213.10 502.00 L 210.30 499.10 L 208.10 496.10 L 206.60 493.20 L 190.90 491.80 L 162.60 488.60 L 136.80 484.50 L 114.80 479.70 L 105.40 477.10 L 97.50 474.40 L 86.50 469.80 L 82.50 467.60 L 76.90 463.30 L 75.10 461.20 L 73.90 459.30 L 73.20 457.40 L 73.00 455.50 L 73.30 453.50 L 74.10 451.40 L 75.50 449.30 L 77.60 447.10 L 80.60 444.70 L 84.30 442.40 L 89.00 440.00 L 94.80 437.60 L 101.90 435.10 L 111.20 432.30 L 122.10 429.50 L 134.90 426.90 L 162.00 422.50 L 177.80 420.50 L 210.30 417.60 L 246.20 415.70 L 284.50 415.00 Z" fill="#e7eaf0" fill-rule="evenodd" id="形状结合" node-id="64" stroke="none" target-height="115" target-width="435" target-x="73" target-y="415"></path><g node-id="201"><g node-id="203"><g node-id="204"><path d="M 294.10 461.50 L 406.00 476.20 L 415.00 502.00 L 273.00 478.50 Z" fill="url(#linearGradient-4)" fill-opacity="0.5" fill-rule="nonzero" group-id="3,5,6" id="路径" node-id="67" stroke="none" target-height="40.5" target-width="142" target-x="273" target-y="461.5"></path></g><path d="M 270.50 448.10 L 279.20 448.40 L 291.70 450.00 L 298.90 452.00 L 301.90 453.40 L 305.00 456.00 L 305.00 469.10 L 304.70 470.20 L 303.90 471.30 L 302.30 472.60 L 299.40 474.00 L 295.10 475.40 L 284.30 477.30 L 278.00 477.90 L 270.50 478.10 L 263.40 477.90 L 251.00 476.50 L 246.10 475.50 L 241.70 474.00 L 238.70 472.60 L 237.10 471.40 L 236.30 470.20 L 236.00 469.10 L 236.00 456.00 L 239.10 453.40 L 242.10 452.00 L 245.40 450.90 L 254.20 449.20 L 261.80 448.40 L 270.50 448.10 Z" fill="url(#linearGradient-5)" fill-rule="nonzero" group-id="3,5" id="形状结合" node-id="68" stroke="none" target-height="30" target-width="69" target-x="236" target-y="448.1"></path><path d="M 272.20 454.70 L 276.90 458.80 L 284.00 454.70 L 284.00 353.60 L 272.20 353.60 Z" fill="#a2abb9" fill-rule="nonzero" group-id="3,5" id="路径" node-id="69" stroke="none" target-height="105.19998" target-width="11.799988" target-x="272.2" target-y="353.6"></path><path d="M 258.50 356.30 L 276.90 356.30 L 276.90 458.80 L 258.50 458.80 Z" fill="url(#linearGradient-6)" fill-rule="nonzero" group-id="3,5" id="矩形" node-id="70" stroke="none" target-height="102.5" target-width="18.399994" target-x="258.5" target-y="356.3"></path><path d="M 178.00 295.80 L 178.20 291.60 L 178.90 287.60 L 180.00 283.70 L 181.50 280.00 L 183.50 276.50 L 185.70 273.20 L 188.30 270.00 L 191.20 267.10 L 197.90 262.20 L 205.60 258.40 L 209.70 257.10 L 213.90 256.10 L 218.40 255.50 L 223.10 255.30 L 339.50 255.30 L 344.60 255.50 L 349.50 256.20 L 354.20 257.30 L 358.70 258.80 L 363.10 260.70 L 367.20 262.90 L 371.00 265.40 L 374.50 268.30 L 377.70 271.50 L 380.60 274.90 L 383.00 278.60 L 385.10 282.50 L 386.80 286.50 L 388.00 290.80 L 388.70 295.20 L 389.00 299.80 L 389.00 364.30 L 178.00 364.30 L 178.00 295.80 Z" fill="url(#linearGradient-7)" fill-rule="nonzero" group-id="3,5" id="路径" node-id="71" stroke="none" target-height="108.999985" target-width="211" target-x="178" target-y="255.3"></path><path d="M 344.90 255.30 L 340.30 255.50 L 335.80 256.20 L 331.60 257.30 L 327.50 258.80 L 323.50 260.70 L 319.90 262.90 L 316.40 265.50 L 313.20 268.40 L 310.30 271.60 L 307.80 275.00 L 305.50 278.70 L 303.60 282.60 L 302.10 286.70 L 301.00 291.00 L 300.30 295.40 L 300.10 300.00 L 300.10 364.30 L 389.80 364.30 L 389.80 300.00 L 389.50 295.40 L 388.80 291.00 L 387.80 286.70 L 386.20 282.60 L 384.30 278.70 L 382.10 275.00 L 379.50 271.60 L 376.60 268.40 L 373.40 265.50 L 370.00 262.90 L 366.30 260.70 L 362.40 258.80 L 358.30 257.30 L 354.00 256.20 L 349.60 255.50 L 344.90 255.30 Z" fill="url(#linearGradient-8)" fill-rule="nonzero" group-id="3,5" id="路径" node-id="72" stroke="none" target-height="108.999985" target-width="89.69998" target-x="300.1" target-y="255.3"></path><path d="M 344.90 262.10 L 341.10 262.30 L 333.90 263.80 L 330.50 265.00 L 326.20 267.20 L 322.30 269.80 L 318.80 272.90 L 315.60 276.50 L 313.00 280.40 L 310.80 284.70 L 308.70 291.60 L 307.90 299.10 L 307.90 357.70 L 382.00 357.70 L 382.00 299.10 L 381.20 291.60 L 379.00 284.70 L 376.90 280.40 L 374.20 276.50 L 371.10 272.90 L 367.60 269.80 L 363.60 267.20 L 359.30 265.00 L 356.00 263.80 L 348.80 262.30 L 344.90 262.10 Z" fill="url(#linearGradient-9)" fill-rule="nonzero" group-id="3,5" id="路径" node-id="73" stroke="none" target-height="95.600006" target-width="74.100006" target-x="307.9" target-y="262.1"></path><path d="M 382.00 364.30 L 398.30 374.90 L 415.10 386.30 L 417.60 390.30 L 419.40 394.20 L 420.50 398.10 L 421.00 401.10 L 420.90 403.90 L 420.50 406.60 L 419.60 409.20 L 418.40 411.60 L 416.60 413.80 L 414.40 415.90 L 411.50 417.80 L 408.60 419.20 L 405.00 420.50 L 400.60 421.40 L 395.50 422.00 L 388.50 421.90 L 382.00 421.20 L 376.10 420.20 L 370.30 418.60 L 364.70 416.50 L 359.40 413.90 L 354.20 410.80 L 349.00 407.00 L 343.70 402.50 L 307.90 364.30 L 307.90 357.70 L 382.00 364.30 Z" fill="url(#linearGradient-10)" fill-rule="nonzero" group-id="3,5" id="路径" node-id="74" stroke="none" target-height="64.29999" target-width="113.100006" target-x="307.9" target-y="357.7"></path><path d="M 411.50 380.30 L 416.20 385.20 L 419.20 390.30 L 420.70 395.60 L 420.50 400.60 L 419.90 403.00 L 418.90 405.30 L 417.40 407.30 L 415.50 409.30 L 413.40 410.90 L 410.80 412.20 L 407.80 413.30 L 399.80 414.70 L 393.80 414.90 L 388.00 414.60 L 382.30 413.80 L 376.60 412.50 L 371.10 410.70 L 365.80 408.50 L 360.50 405.70 L 355.30 402.30 L 350.10 398.30 L 344.90 393.70 L 307.90 355.50 L 382.00 355.50 L 411.50 380.30 Z" fill="url(#linearGradient-11)" fill-rule="nonzero" group-id="3,5" id="路径" node-id="75" stroke="none" target-height="59.399994" target-width="112.80002" target-x="307.9" target-y="355.5"></path></g><path d="M 277.70 349.00 L 258.30 349.00 L 257.40 348.70 L 256.70 347.80 L 256.20 346.60 L 256.00 345.00 L 256.20 343.40 L 256.70 342.20 L 257.40 341.30 L 258.30 341.00 L 277.70 341.00 L 278.60 341.30 L 279.30 342.20 L 279.80 343.40 L 280.00 345.00 L 279.30 347.80 L 278.60 348.70 L 277.70 349.00 Z" fill="#ffffff" fill-rule="nonzero" group-id="3" id="路径" node-id="76" stroke="none" target-height="8" target-width="24" target-x="256" target-y="341"></path><path d="M 276.70 328.00 L 249.30 328.00 L 248.00 327.70 L 247.00 326.80 L 246.30 325.60 L 246.00 324.00 L 246.30 322.40 L 247.00 321.20 L 248.00 320.30 L 249.30 320.00 L 276.70 320.00 L 278.00 320.30 L 279.00 321.20 L 279.70 322.40 L 280.00 324.00 L 279.70 325.60 L 279.00 326.80 L 278.00 327.70 L 276.70 328.00 Z" fill="#ffffff" fill-rule="nonzero" group-id="3" id="路径" node-id="77" stroke="none" target-height="8" target-width="34" target-x="246" target-y="320"></path><path d="M 275.80 307.00 L 240.20 307.00 L 238.60 306.70 L 237.20 305.80 L 236.30 304.60 L 236.00 303.00 L 236.30 301.40 L 237.20 300.20 L 238.60 299.30 L 240.20 299.00 L 275.80 299.00 L 277.40 299.30 L 278.80 300.20 L 279.70 301.40 L 280.00 303.00 L 279.70 304.60 L 278.80 305.80 L 277.40 306.70 L 275.80 307.00 Z" fill="#ffffff" fill-rule="nonzero" group-id="3" id="路径" node-id="78" stroke="none" target-height="8" target-width="44" target-x="236" target-y="299"></path></g><g node-id="202"><path d="M 150.60 281.50 L 147.70 280.50 L 145.20 280.10 L 142.80 280.30 L 140.60 281.00 L 138.50 282.30 L 136.50 284.20 L 134.50 286.90 L 132.60 290.50 L 130.70 295.30 L 129.00 301.50 L 127.50 309.30 L 134.30 306.80 L 139.60 304.30 L 143.70 301.70 L 146.80 299.00 L 149.10 296.40 L 150.60 293.70 L 151.60 290.90 L 151.90 288.00 L 151.60 284.90 L 150.60 281.50 Z" fill="url(#linearGradient-12)" fill-rule="nonzero" group-id="4" id="路径-15" node-id="80" stroke="none" target-height="29.199982" target-width="24.399994" target-x="127.5" target-y="280.1"></path><path d="M 158.70 274.30 L 152.60 279.30 L 147.80 283.80 L 144.20 287.80 L 141.60 291.40 L 139.70 294.70" fill="none" group-id="4" id="路径-16" node-id="81" stroke="url(#linearGradient-13)" stroke-linecap="round" stroke-width="1" target-height="20.400024" target-width="19" target-x="139.7" target-y="274.3"></path><path d="M 237.40 170.00 L 230.40 181.00 L 224.00 190.10 L 218.10 197.60 L 212.70 203.60 L 207.80 208.40 L 203.30 212.10 L 199.20 214.90 L 195.40 216.90 L 190.30 219.20 L 185.30 220.00 L 180.70 219.70 L 178.60 219.10 L 175.20 217.20 L 172.70 214.50 L 172.00 212.90 L 171.70 210.60 L 171.80 208.20 L 172.30 205.80 L 173.30 203.70 L 174.30 202.60 L 175.60 201.80 L 177.10 201.30 L 178.70 201.30 L 180.80 201.70 L 183.40 202.90 L 185.20 204.30 L 186.50 206.00 L 187.90 209.80 L 188.00 214.10 L 187.30 217.40 L 184.90 223.40 L 183.40 225.70 L 180.90 228.40 L 177.30 231.50 L 168.80 237.20 L 164.10 239.70 L 159.60 241.60 L 156.50 242.60 L 151.60 243.40" fill="none" group-id="4" id="路径-2" node-id="82" stroke="url(#linearGradient-14)" stroke-linecap="round" stroke-width="2" target-height="73.399994" target-width="85.79999" target-x="151.6" target-y="170"></path><path d="M 473.60 256.60 L 473.60 262.70 L 473.10 268.30 L 472.10 273.40 L 470.70 278.00 L 468.90 282.20 L 466.60 286.10 L 464.00 289.70 L 460.90 293.00 L 457.40 296.00 L 453.30 298.70 L 448.70 301.20" fill="none" group-id="4" id="路径-17" node-id="83" stroke="url(#linearGradient-15)" stroke-linecap="round" stroke-width="2" target-height="44.600006" target-width="24.899994" target-x="448.7" target-y="256.6"></path><path d="M 435.20 311.00 L 433.20 308.80 L 431.20 307.40 L 429.30 306.60 L 427.20 306.20 L 425.00 306.40 L 422.60 307.20 L 420.00 308.70 L 416.90 311.00 L 411.60 317.00 L 409.70 318.70 L 406.70 320.10 L 404.90 320.30 L 411.10 322.20 L 416.20 323.20 L 420.40 323.40 L 423.90 323.10 L 426.80 322.30 L 429.30 321.00 L 431.30 319.30 L 432.90 317.20 L 434.20 314.40 L 435.20 311.00 Z" fill="url(#linearGradient-16)" fill-rule="nonzero" group-id="4" id="路径-18" node-id="84" stroke="none" target-height="17.199982" target-width="30.300018" target-x="404.9" target-y="306.2"></path><path d="M 442.90 306.20 L 441.90 307.50 L 440.20 309.00 L 437.60 310.70 L 433.60 312.50 L 427.90 314.60 L 420.00 316.90" fill="none" group-id="4" id="路径-19" node-id="85" stroke="url(#linearGradient-17)" stroke-linecap="round" stroke-width="1" target-height="10.699982" target-width="22.899994" target-x="420" target-y="306.2"></path></g></svg>