<?xml version="1.0" standalone="no"?><!DOCTYPE svg PUBLIC "-//W3C//DTD SVG 1.1//EN" "http://www.w3.org/Graphics/SVG/1.1/DTD/svg11.dtd"><svg height="600" node-id="1" sillyvg="true" template-height="600" template-width="600" version="1.1" viewBox="0 0 600 600" width="600" xmlns="http://www.w3.org/2000/svg" xmlns:xlink="http://www.w3.org/1999/xlink"><defs node-id="57"><linearGradient gradientUnits="objectBoundingBox" id="linearGradient1" node-id="59" spreadMethod="pad" x1="0.92518216" x2="0.40792233" y1="0.98800004" y2="1"><stop offset="0" stop-color="#e0e5ef" stop-opacity="0"></stop><stop offset="1" stop-color="#e0e5ef"></stop></linearGradient><linearGradient gradientUnits="objectBoundingBox" id="linearGradient-1" node-id="5" spreadMethod="pad" x1="0.92518216" x2="0.40792233" y1="0.98800004" y2="1"><stop offset="0" stop-color="#e0e5ef" stop-opacity="0"></stop><stop offset="1" stop-color="#e0e5ef"></stop></linearGradient><linearGradient gradientUnits="objectBoundingBox" id="linearGradient-2" node-id="8" spreadMethod="pad" x1="0.92039144" x2="0.4089598" y1="0.98800004" y2="1"><stop offset="0" stop-color="#e0e5ef" stop-opacity="0"></stop><stop offset="1" stop-color="#e0e5ef"></stop></linearGradient><linearGradient gradientUnits="objectBoundingBox" id="linearGradient-3" node-id="11" spreadMethod="pad" x1="1.4458808" x2="0.29515958" y1="0.670017" y2="0.6741977"><stop offset="0" stop-color="#e0e5ef" stop-opacity="0"></stop><stop offset="1" stop-color="#e0e5ef"></stop></linearGradient><linearGradient gradientUnits="objectBoundingBox" id="linearGradient-4" node-id="14" spreadMethod="pad" x1="0.5" x2="0.040798664" y1="1" y2="-0.28957963"><stop offset="0" stop-color="#a2abb9"></stop><stop offset="1" stop-color="#e7eaf0"></stop></linearGradient><linearGradient gradientUnits="objectBoundingBox" id="linearGradient-5" node-id="17" spreadMethod="pad" x1="0.6282236" x2="0.6282236" y1="-0.07520013" y2="1"><stop offset="0" stop-color="#a2abb9"></stop><stop offset="0.9999999" stop-color="#d1d6e2"></stop><stop offset="1" stop-color="#e7eaf0"></stop></linearGradient><linearGradient gradientUnits="objectBoundingBox" id="linearGradient-6" node-id="21" spreadMethod="pad" x1="1" x2="0.35094547" y1="0.5" y2="0.5"><stop offset="0" stop-color="#a2abb9"></stop><stop offset="0.9999999" stop-color="#e7eaf0"></stop><stop offset="1" stop-color="#e7eaf0"></stop></linearGradient></defs><g node-id="105"><path d="M 314.40 66.00 L 324.60 66.20 L 334.70 66.90 L 344.60 68.00 L 354.30 69.50 L 363.90 71.40 L 373.40 73.70 L 382.70 76.40 L 391.90 79.50 L 400.80 83.00 L 409.50 86.80 L 420.30 92.10 L 430.60 97.90 L 440.60 104.20 L 450.20 111.00 L 432.60 111.20 L 430.50 111.80 L 428.40 112.80 L 425.10 115.60 L 422.80 119.50 L 422.20 121.60 L 422.00 125.00 L 422.20 127.40 L 422.80 129.50 L 423.80 131.60 L 426.60 134.90 L 430.50 137.20 L 432.60 137.80 L 435.00 138.00 L 480.20 138.00 L 486.50 145.10 L 492.40 152.40 L 498.10 159.90 L 503.40 167.80 L 524.90 167.80 L 527.40 168.00 L 529.80 168.60 L 531.90 169.70 L 533.90 171.10 L 535.60 172.70 L 537.00 174.70 L 538.00 176.90 L 538.60 179.20 L 538.90 181.80 L 538.30 186.60 L 537.60 188.50 L 536.00 191.00 L 534.00 193.20 L 531.50 194.90 L 528.80 196.00 L 509.00 196.00 L 506.10 196.30 L 503.40 197.00 L 500.90 198.20 L 498.70 199.80 L 496.80 201.70 L 495.20 203.90 L 494.00 206.40 L 493.30 209.10 L 493.00 217.00 L 493.30 219.90 L 494.00 222.60 L 495.20 225.10 L 496.80 227.30 L 498.70 229.20 L 500.90 230.80 L 503.40 232.00 L 506.10 232.70 L 509.00 233.00 L 576.90 233.00 L 581.20 234.80 L 583.10 236.10 L 586.20 239.50 L 588.30 243.70 L 589.00 248.50 L 588.70 252.30 L 588.00 255.00 L 586.80 257.50 L 585.20 259.70 L 583.30 261.60 L 581.10 263.20 L 578.60 264.40 L 575.90 265.10 L 573.00 265.40 L 537.80 265.40 L 538.60 276.10 L 538.90 287.00 L 538.60 297.50 L 537.90 307.80 L 536.70 317.90 L 535.10 327.90 L 532.90 337.70 L 530.40 347.40 L 527.40 356.90 L 524.00 366.20 L 520.20 375.30 L 516.10 384.20 L 511.50 392.90 L 506.50 401.40 L 501.20 409.60 L 495.60 417.50 L 489.60 425.20 L 483.20 432.70 L 476.60 439.80 L 469.60 446.60 L 462.40 453.20 L 454.80 459.40 L 447.00 465.40 L 438.90 470.90 L 430.60 476.10 L 422.00 481.00 L 413.10 485.50 L 404.10 489.70 L 394.80 493.40 L 385.40 496.70 L 375.70 499.60 L 365.80 502.20 L 355.90 504.20 L 345.80 505.90 L 335.50 507.00 L 325.00 507.70 L 314.40 508.00 L 304.40 507.80 L 294.60 507.20 L 285.00 506.10 L 275.50 504.70 L 266.20 502.90 L 254.60 500.10 L 243.30 496.70 L 232.40 492.80 L 221.70 488.30 L 211.20 483.30 L 201.00 477.80 L 191.30 471.80 L 181.80 465.40 L 172.70 458.40 L 164.00 451.10 L 155.60 443.30 L 147.70 435.10 L 140.20 426.50 L 133.20 417.60 L 126.60 408.30 L 120.50 398.60 L 114.90 388.60 L 109.90 378.30 L 105.30 367.80 L 101.30 356.90 L 91.20 356.70 L 89.80 356.10 L 88.50 355.10 L 87.60 353.80 L 87.00 352.40 L 86.70 350.70 L 87.00 348.90 L 87.80 347.20 L 89.00 345.90 L 90.60 345.00 L 103.40 344.80 L 105.50 344.20 L 107.60 343.20 L 110.90 340.40 L 113.20 336.50 L 113.80 334.40 L 114.00 332.00 L 113.80 328.60 L 113.20 326.50 L 112.20 324.40 L 110.90 322.60 L 107.60 319.80 L 105.50 318.80 L 103.40 318.20 L 92.00 317.80 L 69.90 317.80 L 66.30 317.20 L 64.70 316.40 L 62.00 314.20 L 60.20 311.20 L 59.70 309.40 L 59.70 305.70 L 61.00 302.40 L 63.20 299.70 L 66.30 297.90 L 69.90 297.30 L 90.10 297.30 L 89.90 287.00 L 90.10 277.20 L 90.70 267.50 L 91.80 258.00 L 93.20 248.70 L 95.10 239.50 L 97.90 228.00 L 101.40 216.90 L 105.40 206.10 L 109.90 195.50 L 74.00 195.50 L 70.20 195.20 L 66.50 194.50 L 63.10 193.30 L 59.90 191.70 L 56.90 189.70 L 54.20 187.30 L 51.80 184.60 L 49.80 181.70 L 48.20 178.40 L 47.00 175.00 L 46.30 171.40 L 46.00 167.50 L 46.20 162.20 L 46.90 158.70 L 48.10 155.40 L 49.60 152.20 L 51.50 149.30 L 53.70 146.70 L 56.20 144.30 L 59.00 142.30 L 62.10 140.60 L 65.30 139.30 L 68.70 138.50 L 72.40 138.00 L 199.00 138.00 L 202.50 137.40 L 205.50 135.60 L 207.60 133.00 L 208.40 131.50 L 209.00 128.00 L 208.80 126.20 L 208.40 124.50 L 206.60 121.50 L 204.00 119.40 L 202.50 118.60 L 199.00 118.00 L 169.70 118.00 L 170.40 117.40 L 155.80 117.40 L 152.40 117.10 L 149.20 116.20 L 146.30 114.80 L 143.60 112.90 L 141.30 110.70 L 139.40 108.00 L 138.00 105.00 L 137.20 101.90 L 136.80 98.40 L 137.20 93.90 L 138.00 90.70 L 139.40 87.70 L 141.30 85.10 L 143.60 82.80 L 146.30 80.90 L 149.20 79.50 L 152.40 78.70 L 155.80 78.30 L 240.20 78.30 L 257.90 73.00 L 276.30 69.20 L 295.00 66.80 L 314.40 66.00 Z" fill="#f3f3fa" fill-opacity="0.6015942" fill-rule="evenodd" group-id="1" id="背景" node-id="26" stroke="none" target-height="442" target-width="543" target-x="46" target-y="66"></path></g><g node-id="106"><path d="M 180.00 393.40 L 181.00 397.40 L 180.40 400.40 L 179.70 401.80 L 178.20 403.40 L 176.30 404.50 L 157.60 404.90 L 157.80 426.00 L 158.50 438.00 L 145.90 438.00 L 146.30 429.10 L 146.40 406.40 L 145.40 407.20 L 143.10 407.80 L 140.50 407.10 L 138.70 405.10 L 128.80 404.60 L 125.30 403.00 L 123.90 401.70 L 122.90 400.10 L 122.20 398.30 L 122.10 395.40 L 124.50 389.40 L 125.60 385.80 L 128.00 383.00 L 141.80 357.50 L 143.70 354.60 L 145.80 352.20 L 147.40 351.00 L 149.40 350.30 L 151.70 350.00 L 155.60 350.70 L 157.30 351.70 L 160.10 354.40 L 172.10 377.70 L 174.00 378.60 L 175.60 379.80 L 177.00 381.40 L 178.10 383.20 L 178.80 385.20 L 179.00 387.40 L 178.50 390.40 L 180.00 393.40 Z" fill="url(#linearGradient1)" fill-rule="nonzero" group-id="2" id="路径" node-id="28" stroke="none" target-height="88" target-width="58.9" target-x="122.1" target-y="350"></path><path d="M 490.00 393.40 L 491.00 397.40 L 490.40 400.40 L 489.70 401.80 L 488.20 403.40 L 486.30 404.50 L 467.60 404.90 L 467.80 426.00 L 468.50 438.00 L 455.90 438.00 L 456.30 429.10 L 456.40 406.40 L 455.40 407.20 L 453.10 407.80 L 450.50 407.10 L 448.70 405.10 L 438.80 404.60 L 435.30 403.00 L 433.90 401.70 L 432.90 400.10 L 432.20 398.30 L 432.10 395.40 L 434.50 389.40 L 435.60 385.80 L 438.00 383.00 L 451.80 357.50 L 453.70 354.60 L 455.80 352.20 L 457.40 351.00 L 459.40 350.30 L 461.70 350.00 L 465.60 350.70 L 467.30 351.70 L 470.10 354.40 L 482.10 377.70 L 484.00 378.60 L 485.60 379.80 L 487.00 381.40 L 488.10 383.20 L 488.80 385.20 L 489.00 387.40 L 488.50 390.40 L 490.00 393.40 Z" fill="url(#linearGradient-1)" fill-rule="nonzero" group-id="2" id="路径" node-id="29" stroke="none" target-height="88" target-width="58.899994" target-x="432.1" target-y="350"></path><path d="M 453.20 403.00 L 454.00 406.20 L 453.70 408.00 L 453.00 409.60 L 451.80 410.90 L 450.30 411.70 L 435.80 412.00 L 435.90 428.60 L 436.50 438.00 L 426.60 438.00 L 427.00 431.00 L 427.00 413.30 L 425.80 414.00 L 424.40 414.30 L 422.40 413.70 L 421.00 412.20 L 413.30 411.80 L 410.60 410.60 L 408.70 408.30 L 408.20 406.90 L 408.10 404.60 L 410.80 397.10 L 412.70 394.80 L 423.40 374.80 L 426.60 370.70 L 427.80 369.80 L 429.30 369.20 L 431.10 369.00 L 434.20 369.60 L 435.60 370.30 L 437.30 371.80 L 447.10 390.70 L 449.80 392.40 L 451.80 395.00 L 452.40 398.30 L 452.10 400.70 L 453.20 403.00 Z" fill="url(#linearGradient-2)" fill-rule="nonzero" group-id="2" id="路径" node-id="30" stroke="none" target-height="69" target-width="45.899994" target-x="408.1" target-y="369"></path></g><path d="M 284.50 415.00 L 324.70 415.70 L 362.20 417.80 L 396.00 421.10 L 412.30 423.20 L 426.80 425.50 L 439.80 428.00 L 449.30 428.30 L 458.10 429.00 L 466.40 430.10 L 474.60 431.70 L 481.80 433.50 L 488.10 435.60 L 492.80 437.60 L 496.70 439.60 L 502.70 443.70 L 505.10 446.20 L 506.70 448.60 L 507.70 451.00 L 508.00 453.50 L 507.80 455.50 L 506.10 459.40 L 504.60 461.40 L 502.20 463.70 L 499.10 466.00 L 495.10 468.30 L 486.10 472.10 L 480.60 473.80 L 468.90 476.40 L 462.10 477.50 L 452.30 480.20 L 440.70 482.80 L 441.00 486.00 L 440.70 488.80 L 440.10 491.60 L 438.90 494.30 L 437.20 497.10 L 435.00 499.90 L 431.90 502.90 L 428.20 506.00 L 423.60 509.00 L 412.80 514.50 L 400.10 519.30 L 392.70 521.50 L 382.80 523.90 L 372.00 526.00 L 360.30 527.80 L 348.50 529.00 L 336.10 529.70 L 323.00 530.00 L 311.20 529.80 L 300.00 529.20 L 289.30 528.20 L 278.50 526.80 L 268.60 525.10 L 259.30 523.00 L 250.10 520.60 L 241.90 518.00 L 234.60 515.20 L 229.20 512.70 L 220.20 507.60 L 213.10 502.00 L 210.30 499.10 L 208.10 496.10 L 206.60 493.20 L 190.90 491.80 L 162.60 488.60 L 136.80 484.50 L 114.80 479.70 L 105.40 477.10 L 97.50 474.40 L 86.50 469.80 L 82.50 467.60 L 76.90 463.30 L 75.10 461.20 L 73.90 459.30 L 73.20 457.40 L 73.00 455.50 L 73.30 453.50 L 74.10 451.40 L 75.50 449.30 L 77.60 447.10 L 80.60 444.70 L 84.30 442.40 L 89.00 440.00 L 94.80 437.60 L 101.90 435.10 L 111.20 432.30 L 122.10 429.50 L 134.90 426.90 L 162.00 422.50 L 177.80 420.50 L 210.30 417.60 L 246.20 415.70 L 284.50 415.00 Z" fill="#e7eaf0" fill-rule="evenodd" id="形状结合" node-id="31" stroke="none" target-height="115" target-width="435" target-x="73" target-y="415"></path><path d="M 381.00 464.30 L 380.70 464.80 L 379.60 465.50 L 376.80 466.30 L 365.30 468.10 L 357.50 468.90 L 325.30 470.50 L 299.50 470.80 L 273.70 470.50 L 241.50 468.90 L 233.70 468.10 L 222.20 466.30 L 219.40 465.50 L 218.30 464.80 L 218.00 464.30 L 218.30 463.80 L 219.40 463.10 L 222.20 462.20 L 233.70 460.50 L 241.50 459.70 L 273.70 458.10 L 299.50 457.80 L 325.30 458.10 L 357.50 459.70 L 365.30 460.50 L 376.80 462.20 L 379.60 463.10 L 380.70 463.80 L 381.00 464.30 Z" fill="#d1d6e2" fill-rule="nonzero" id="椭圆形" node-id="32" stroke="none" target-height="13" target-width="163" target-x="218" target-y="457.8"></path><path d="M 445.40 162.30 L 444.60 166.10 L 443.70 167.70 L 441.00 170.50 L 437.20 172.30 L 432.80 173.00 L 393.90 173.00 L 391.50 172.70 L 387.40 171.30 L 384.00 168.90 L 381.80 165.70 L 381.20 163.90 L 381.00 161.80 L 381.80 158.00 L 384.10 154.80 L 387.40 152.30 L 386.90 150.20 L 387.20 148.20 L 388.00 146.40 L 389.40 144.90 L 391.10 143.70 L 393.20 142.90 L 395.60 142.60 L 398.50 143.10 L 400.90 144.30 L 402.90 141.70 L 405.30 139.50 L 408.10 137.60 L 411.30 136.20 L 414.70 135.30 L 418.50 135.00 L 422.00 135.30 L 425.10 136.00 L 428.10 137.20 L 430.80 138.90 L 433.00 140.90 L 434.90 143.10 L 436.30 145.70 L 437.20 148.40 L 437.50 152.30 L 439.70 153.40 L 441.60 154.70 L 443.20 156.30 L 444.40 158.10 L 445.10 160.10 L 445.40 162.30 Z" fill="url(#linearGradient-3)" fill-rule="nonzero" id="路径" node-id="33" stroke="none" target-height="38" target-width="64.399994" target-x="381" target-y="135"></path><path d="M 238.00 191.10 L 249.60 189.40 L 260.20 188.30 L 269.80 188.00 L 278.70 188.30 L 286.80 189.10 L 294.20 190.50 L 301.00 192.30 L 307.20 194.60 L 312.80 197.30 L 318.00 200.40 L 322.70 204.00 L 330.90 211.20 L 348.20 227.60 L 353.40 232.00 L 358.10 235.40 L 363.00 238.40 L 368.10 240.80 L 372.00 242.30 L 381.00 244.60 L 390.90 245.80 L 404.20 246.30 L 410.90 247.10 L 417.40 248.20 L 423.90 249.60 L 436.30 253.70 L 447.70 259.00 L 453.90 262.70 L 458.60 266.00 L 465.60 272.10 L 468.20 275.00 L 469.90 277.50 L 471.00 279.80 L 470.50 280.00 L 468.30 276.10 L 465.00 272.20 L 458.00 266.20 L 453.30 263.00 L 447.80 259.70 L 436.20 254.30 L 424.00 250.20 L 411.20 247.60 L 404.60 246.90 L 391.30 246.30 L 381.10 245.10 L 371.90 242.80 L 367.90 241.30 L 362.80 238.80 L 357.90 235.90 L 353.10 232.40 L 347.90 228.00 L 330.50 211.60 L 322.40 204.40 L 317.80 200.90 L 312.70 197.80 L 307.10 195.10 L 301.00 192.80 L 294.40 191.00 L 287.10 189.70 L 279.10 188.80 L 270.50 188.50 L 261.00 188.80 L 250.60 189.80 L 238.10 191.60 L 238.00 191.10 Z" fill="none" id="路径-13" node-id="34" stroke="#d1d6e2" stroke-dasharray="4 4" stroke-linecap="butt" stroke-width="1" target-height="92" target-width="233" target-x="238" target-y="188"></path><g node-id="107"><path d="M 217.00 191.80 L 207.90 203.30 L 181.40 167.60 L 234.80 170.00 L 226.80 180.70 L 188.60 170.90 L 223.00 185.80 L 229.10 196.60 Z" fill="url(#linearGradient-4)" fill-rule="nonzero" group-id="3" id="路径" node-id="36" stroke="none" target-height="35.699997" target-width="53.40001" target-x="181.4" target-y="167.6"></path></g><g node-id="108"><path d="M 367.00 438.00 L 237.00 438.00 L 233.70 437.70 L 230.70 436.90 L 227.90 435.50 L 225.40 433.80 L 223.20 431.60 L 221.50 429.10 L 220.10 426.30 L 219.30 423.30 L 219.00 420.10 L 219.00 242.90 L 219.30 239.70 L 220.10 236.70 L 221.50 233.90 L 223.20 231.40 L 225.40 229.20 L 227.90 227.50 L 230.70 226.10 L 233.70 225.30 L 237.00 225.00 L 367.00 225.00 L 370.30 225.30 L 373.30 226.10 L 376.10 227.50 L 378.60 229.20 L 380.80 231.40 L 382.50 233.90 L 383.90 236.70 L 384.70 239.70 L 385.00 242.90 L 385.00 420.10 L 384.70 423.30 L 383.90 426.30 L 382.50 429.10 L 380.80 431.60 L 378.60 433.80 L 376.10 435.50 L 373.30 436.90 L 370.30 437.70 L 367.00 438.00 Z" fill="url(#linearGradient-5)" fill-rule="nonzero" group-id="4" id="路径" node-id="38" stroke="none" target-height="213" target-width="166" target-x="219" target-y="225"></path><path d="M 359.00 443.00 L 235.00 443.00 L 231.70 442.70 L 228.70 441.90 L 225.90 440.50 L 223.40 438.70 L 221.20 436.60 L 219.50 434.10 L 218.10 431.30 L 217.30 428.30 L 217.00 425.00 L 217.00 250.00 L 217.30 246.70 L 218.10 243.70 L 219.50 240.90 L 221.20 238.40 L 223.40 236.30 L 225.90 234.50 L 228.70 233.10 L 231.70 232.30 L 235.00 232.00 L 359.00 232.00 L 362.30 232.30 L 365.30 233.10 L 368.10 234.50 L 370.60 236.30 L 372.80 238.40 L 374.50 240.90 L 375.90 243.70 L 376.70 246.70 L 377.00 250.00 L 377.00 425.00 L 376.70 428.30 L 375.90 431.30 L 374.50 434.10 L 372.80 436.60 L 370.60 438.70 L 368.10 440.50 L 365.30 441.90 L 362.30 442.70 L 359.00 443.00 Z" fill="#d1d6e2" fill-rule="nonzero" group-id="4" id="路径" node-id="39" stroke="none" target-height="211" target-width="160" target-x="217" target-y="232"></path><path d="M 357.50 421.00 L 238.50 421.00 L 236.70 420.30 L 236.00 418.50 L 236.00 248.50 L 236.20 247.50 L 237.50 246.20 L 238.50 246.00 L 357.50 246.00 L 359.30 246.70 L 360.00 248.50 L 360.00 418.50 L 359.30 420.30 L 357.50 421.00 Z" fill="#e7eaf0" fill-rule="nonzero" group-id="4" id="路径" node-id="40" stroke="none" target-height="175" target-width="124" target-x="236" target-y="246"></path><path d="M 291.70 420.00 L 275.60 418.40 L 257.40 415.50 L 246.90 413.20 L 236.10 410.40 L 224.80 406.80 L 209.80 400.90 L 202.50 397.30 L 195.30 393.30 L 188.50 388.90 L 182.00 384.10 L 181.30 383.20 L 181.10 381.20 L 182.30 379.60 L 188.80 378.40 L 193.80 377.10 L 198.30 375.30 L 202.40 373.00 L 206.30 370.20 L 209.90 367.00 L 213.10 363.50 L 216.10 359.50 L 219.60 353.80 L 222.70 347.70 L 225.40 341.00 L 229.60 327.10 L 231.10 319.70 L 232.90 308.60 L 234.10 297.70 L 234.80 286.90 L 235.20 277.10 L 235.20 249.10 L 235.50 247.80 L 236.00 246.90 L 236.90 246.20 L 238.10 246.00 L 356.30 246.00 L 357.30 246.20 L 358.80 247.70 L 359.00 248.70 L 352.80 361.30 L 352.30 362.50 L 351.70 363.60 L 306.90 417.80 L 299.40 419.20 L 291.70 420.00 Z" fill="#ffffff" fill-rule="nonzero" group-id="4" id="路径" node-id="41" stroke="none" target-height="174" target-width="177.9" target-x="181.1" target-y="246"></path><path d="M 308.60 381.00 L 315.90 380.90 L 320.80 380.30 L 326.80 379.00 L 330.80 377.60 L 335.10 375.80 L 339.70 373.30 L 344.00 370.40 L 348.40 366.60 L 353.00 362.00 L 350.90 369.20 L 347.10 377.50 L 342.00 386.10 L 335.60 394.50 L 327.90 402.50 L 319.20 409.40 L 314.50 412.40 L 309.60 414.90 L 304.50 417.00 L 299.20 418.60 L 293.70 419.60 L 288.00 420.00 L 291.80 417.80 L 295.00 415.40 L 297.60 413.00 L 299.90 410.30 L 303.20 404.80 L 304.90 400.50 L 305.90 396.40 L 306.60 388.60 L 306.40 382.50 L 307.10 381.30 L 308.60 381.00 Z" fill="url(#linearGradient-6)" fill-rule="nonzero" group-id="4" id="路径" node-id="42" stroke="none" target-height="58" target-width="65" target-x="288" target-y="362"></path><g node-id="109"><path d="M 265.00 272.00 L 339.00 272.00 L 340.20 272.20 L 341.10 272.90 L 341.80 273.80 L 342.00 275.00 L 341.80 276.20 L 341.10 277.10 L 340.20 277.80 L 339.00 278.00 L 265.00 278.00 L 263.80 277.80 L 262.90 277.10 L 262.20 276.20 L 262.00 275.00 L 262.20 273.80 L 262.90 272.90 L 263.80 272.20 L 265.00 272.00 Z" fill="#d8d8d8" fill-rule="evenodd" group-id="4,5" id="矩形" node-id="44" stroke="none" target-height="6" target-width="80" target-x="262" target-y="272"></path><path d="M 263.00 292.00 L 337.00 292.00 L 338.20 292.20 L 339.10 292.90 L 339.80 293.80 L 340.00 295.00 L 339.80 296.20 L 339.10 297.10 L 338.20 297.80 L 337.00 298.00 L 263.00 298.00 L 261.80 297.80 L 260.90 297.10 L 260.20 296.20 L 260.00 295.00 L 260.20 293.80 L 260.90 292.90 L 261.80 292.20 L 263.00 292.00 Z" fill="#d8d8d8" fill-rule="evenodd" group-id="4,5" id="矩形备份" node-id="45" stroke="none" target-height="6" target-width="80" target-x="260" target-y="292"></path><path d="M 261.00 312.00 L 295.00 312.00 L 296.20 312.20 L 297.10 312.90 L 297.80 313.80 L 298.00 315.00 L 297.80 316.20 L 297.10 317.10 L 296.20 317.80 L 295.00 318.00 L 261.00 318.00 L 259.80 317.80 L 258.90 317.10 L 258.20 316.20 L 258.00 315.00 L 258.20 313.80 L 258.90 312.90 L 259.80 312.20 L 261.00 312.00 Z" fill="#d8d8d8" fill-rule="evenodd" group-id="4,5" id="矩形备份-2" node-id="46" stroke="none" target-height="6" target-width="40" target-x="258" target-y="312"></path><path d="M 307.00 312.00 L 308.20 312.20 L 309.10 312.90 L 309.80 313.80 L 310.00 315.00 L 309.80 316.20 L 309.10 317.10 L 308.20 317.80 L 307.00 318.00 L 305.80 317.80 L 304.90 317.10 L 304.20 316.20 L 304.00 315.00 L 304.20 313.80 L 304.90 312.90 L 305.80 312.20 L 307.00 312.00 Z" fill="#d8d8d8" fill-rule="evenodd" group-id="4,5" id="矩形备份-3" node-id="47" stroke="none" target-height="6" target-width="6" target-x="304" target-y="312"></path><g node-id="111"><path d="M 258.10 330.70 L 332.10 333.30 L 333.20 333.60 L 334.20 334.20 L 334.80 335.20 L 335.00 336.40 L 334.70 337.60 L 334.00 338.50 L 333.10 339.10 L 331.90 339.30 L 257.90 336.70 L 256.80 336.40 L 255.80 335.80 L 255.20 334.80 L 255.00 333.60 L 255.30 332.40 L 256.00 331.50 L 256.90 330.90 L 258.10 330.70 Z" fill="#d8d8d8" fill-rule="evenodd" group-id="4,5,7" id="矩形备份-7" node-id="48" stroke="none" target-height="8.599976" target-width="80" target-x="255" target-y="330.7"></path></g><g node-id="112"><path d="M 252.30 349.40 L 326.10 354.60 L 327.30 354.90 L 328.20 355.60 L 328.70 356.60 L 328.90 357.80 L 328.60 358.90 L 327.90 359.80 L 326.90 360.40 L 325.70 360.60 L 251.90 355.40 L 250.70 355.10 L 249.80 354.40 L 249.30 353.40 L 249.10 352.20 L 249.40 351.10 L 250.10 350.20 L 251.10 349.60 L 252.30 349.40 Z" fill="#d8d8d8" fill-rule="evenodd" group-id="4,5,8" id="矩形备份-6" node-id="49" stroke="none" target-height="11.200012" target-width="79.79999" target-x="249.1" target-y="349.4"></path></g><g node-id="113"><path d="M 245.50 369.20 L 279.30 373.40 L 280.40 373.70 L 281.30 374.50 L 281.80 375.50 L 281.90 376.70 L 281.50 377.80 L 280.80 378.70 L 279.70 379.20 L 278.60 379.30 L 244.80 375.20 L 243.70 374.80 L 242.80 374.00 L 242.30 373.00 L 242.20 371.80 L 242.60 370.70 L 243.30 369.80 L 244.30 369.30 L 245.50 369.20 Z" fill="#d8d8d8" fill-rule="evenodd" group-id="4,5,9" id="矩形备份-5" node-id="50" stroke="none" target-height="10.099976" target-width="39.699997" target-x="242.2" target-y="369.2"></path></g><path d="M 291.20 374.80 L 292.30 375.20 L 293.20 376.00 L 293.70 377.00 L 293.80 378.20 L 293.40 379.30 L 292.70 380.20 L 291.70 380.70 L 290.50 380.80 L 289.30 380.40 L 288.50 379.60 L 287.90 378.60 L 287.90 377.40 L 288.20 376.30 L 289.00 375.40 L 290.00 374.90 L 291.20 374.80 Z" fill="#d8d8d8" fill-rule="evenodd" group-id="4,5,10" id="矩形备份-4" node-id="51" stroke="none" target-height="6" target-width="5.899994" target-x="287.9" target-y="374.8"></path></g><g node-id="110"><path d="M 274.00 232.00 L 326.00 232.00 L 326.00 250.00 L 274.00 250.00 Z" fill="#acb4c2" fill-rule="evenodd" group-id="4,6" id="矩形" node-id="53" stroke="none" target-height="18" target-width="52" target-x="274" target-y="232"></path><path d="M 277.00 225.00 L 329.00 225.00 L 325.00 232.00 L 273.00 232.00 Z" fill="#909aa9" fill-rule="evenodd" group-id="4,6" id="矩形" node-id="54" stroke="none" target-height="7" target-width="56" target-x="273" target-y="225"></path><path d="M 301.00 209.00 L 303.40 209.30 L 305.50 210.20 L 307.40 211.60 L 308.80 213.50 L 309.70 215.60 L 310.00 218.00 L 309.70 220.40 L 308.80 222.50 L 307.40 224.40 L 305.50 225.80 L 303.40 226.70 L 301.00 227.00 L 298.60 226.70 L 296.50 225.80 L 294.60 224.40 L 293.20 222.50 L 292.30 220.40 L 292.00 218.00 L 292.30 215.60 L 293.20 213.50 L 294.60 211.60 L 296.50 210.20 L 298.60 209.30 L 301.00 209.00 Z M 301.00 213.00 L 299.60 213.20 L 297.50 214.50 L 296.20 216.60 L 296.00 218.00 L 296.70 220.50 L 298.50 222.30 L 299.60 222.80 L 301.00 223.00 L 303.50 222.30 L 305.30 220.50 L 306.00 218.00 L 305.80 216.60 L 304.50 214.50 L 302.40 213.20 L 301.00 213.00 Z" fill="#a2abb9" fill-rule="evenodd" group-id="4,6" id="形状结合" node-id="55" stroke="none" target-height="18" target-width="18" target-x="292" target-y="209"></path></g></g></svg>