<?xml version="1.0" standalone="no"?><!DOCTYPE svg PUBLIC "-//W3C//DTD SVG 1.1//EN" "http://www.w3.org/Graphics/SVG/1.1/DTD/svg11.dtd"><svg height="600" node-id="1" sillyvg="true" template-height="600" template-width="600" version="1.1" viewBox="0 0 600 600" width="600" xmlns="http://www.w3.org/2000/svg" xmlns:xlink="http://www.w3.org/1999/xlink"><defs node-id="80"><linearGradient gradientUnits="objectBoundingBox" id="linearGradient1" node-id="82" spreadMethod="pad" x1="0.92518216" x2="0.40792233" y1="0.98800004" y2="1"><stop offset="0" stop-color="#e0e5ef" stop-opacity="0"></stop><stop offset="1" stop-color="#e0e5ef"></stop></linearGradient><linearGradient gradientUnits="objectBoundingBox" id="linearGradient-1" node-id="5" spreadMethod="pad" x1="0.92518216" x2="0.40792233" y1="0.98800004" y2="1"><stop offset="0" stop-color="#e0e5ef" stop-opacity="0"></stop><stop offset="1" stop-color="#e0e5ef"></stop></linearGradient><linearGradient gradientUnits="objectBoundingBox" id="linearGradient-2" node-id="8" spreadMethod="pad" x1="0.92039144" x2="0.4089598" y1="0.98800004" y2="1"><stop offset="0" stop-color="#e0e5ef" stop-opacity="0"></stop><stop offset="1" stop-color="#e0e5ef"></stop></linearGradient><linearGradient gradientUnits="objectBoundingBox" id="linearGradient-3" node-id="11" spreadMethod="pad" x1="0.40830323" x2="0.40830323" y1="0.448891" y2="0"><stop offset="0" stop-color="#e8ebf1" stop-opacity="0.23774004"></stop><stop offset="1" stop-color="#a2abb9"></stop></linearGradient><linearGradient gradientUnits="objectBoundingBox" id="linearGradient-4" node-id="14" spreadMethod="pad" x1="0.687014" x2="0.3712451" y1="1" y2="0"><stop offset="0" stop-color="#a2abb9"></stop><stop offset="1" stop-color="#e7eaf0"></stop></linearGradient><linearGradient gradientUnits="objectBoundingBox" id="linearGradient-5" node-id="17" spreadMethod="pad" x1="1.0929327" x2="0.09177931" y1="0.7339135" y2="0.26608655"><stop offset="0" stop-color="#a2abb9"></stop><stop offset="1" stop-color="#e7eaf0"></stop></linearGradient><linearGradient gradientUnits="objectBoundingBox" id="linearGradient-6" node-id="20" spreadMethod="pad" x1="0" x2="1" y1="0.7774144" y2="0.24543583"><stop offset="0" stop-color="#a2abb9"></stop><stop offset="0.9999999" stop-color="#e4e7ee"></stop><stop offset="1" stop-color="#e7eaf0"></stop></linearGradient><linearGradient gradientUnits="objectBoundingBox" id="linearGradient-7" node-id="24" spreadMethod="pad" x1="-0.08442299" x2="1" y1="0.64356965" y2="0.4150323"><stop offset="0" stop-color="#a2abb9"></stop><stop offset="1" stop-color="#e7eaf0"></stop></linearGradient><linearGradient gradientUnits="objectBoundingBox" id="linearGradient-8" node-id="27" spreadMethod="pad" x1="0" x2="1" y1="0.5903543" y2="0.40964565"><stop offset="0" stop-color="#a2abb9"></stop><stop offset="1" stop-color="#e7eaf0"></stop></linearGradient><linearGradient gradientUnits="objectBoundingBox" id="linearGradient-9" node-id="30" spreadMethod="pad" x1="0.08415277" x2="1.0203032" y1="0.79568833" y2="0.12723312"><stop offset="0" stop-color="#c0c7d2"></stop><stop offset="0.9999999" stop-color="#a2abb9"></stop><stop offset="1" stop-color="#909aa9"></stop></linearGradient><linearGradient gradientUnits="objectBoundingBox" id="linearGradient-10" node-id="34" spreadMethod="pad" x1="0.08415277" x2="1.0203032" y1="0.62173283" y2="0.3465345"><stop offset="0" stop-color="#c0c7d2"></stop><stop offset="0.9999999" stop-color="#a2abb9"></stop><stop offset="1" stop-color="#909aa9"></stop></linearGradient><linearGradient gradientUnits="objectBoundingBox" id="linearGradient-11" node-id="38" spreadMethod="pad" x1="0.08415277" x2="1.0203032" y1="0.62826025" y2="0.33830547"><stop offset="0" stop-color="#c0c7d2"></stop><stop offset="0.9999999" stop-color="#a2abb9"></stop><stop offset="1" stop-color="#909aa9"></stop></linearGradient><linearGradient gradientUnits="objectBoundingBox" id="linearGradient-12" node-id="42" spreadMethod="pad" x1="0.04023496" x2="0.959765" y1="1" y2="0"><stop offset="0" stop-color="#909aa9"></stop><stop offset="1" stop-color="#c0c7d2"></stop></linearGradient><linearGradient gradientUnits="objectBoundingBox" id="linearGradient-13" node-id="45" spreadMethod="pad" x1="0.70468557" x2="0.3648622" y1="1" y2="-0.08946136"><stop offset="0" stop-color="#909aa9"></stop><stop offset="1" stop-color="#c0c7d2"></stop></linearGradient><linearGradient gradientUnits="objectBoundingBox" id="linearGradient-14" node-id="48" spreadMethod="pad" x1="0" x2="1" y1="0.7363607" y2="0.26363933"><stop offset="0" stop-color="#909aa9"></stop><stop offset="1" stop-color="#c0c7d2"></stop></linearGradient></defs><g node-id="180"><path d="M 297.40 77.00 L 307.60 77.20 L 317.70 77.90 L 327.60 79.00 L 337.30 80.50 L 346.90 82.40 L 356.40 84.70 L 365.70 87.40 L 374.90 90.50 L 383.80 94.00 L 392.50 97.80 L 403.30 103.10 L 413.60 108.90 L 423.60 115.20 L 433.20 122.00 L 415.60 122.20 L 413.50 122.80 L 411.40 123.80 L 408.10 126.60 L 405.80 130.50 L 405.20 132.60 L 405.00 136.00 L 405.20 138.40 L 405.80 140.50 L 406.80 142.60 L 409.60 145.90 L 413.50 148.20 L 415.60 148.80 L 418.00 149.00 L 463.20 149.00 L 469.50 156.10 L 475.40 163.40 L 481.10 170.90 L 486.40 178.80 L 507.90 178.80 L 510.40 179.00 L 512.80 179.60 L 514.90 180.70 L 516.90 182.10 L 518.60 183.70 L 520.00 185.70 L 521.00 187.90 L 521.60 190.20 L 521.90 192.80 L 521.30 197.60 L 520.60 199.50 L 519.00 202.00 L 517.00 204.20 L 514.50 205.90 L 511.80 207.00 L 492.00 207.00 L 489.10 207.30 L 486.40 208.00 L 483.90 209.20 L 481.70 210.80 L 479.80 212.70 L 478.20 214.90 L 477.00 217.40 L 476.30 220.10 L 476.00 228.00 L 476.30 230.90 L 477.00 233.60 L 478.20 236.10 L 479.80 238.30 L 481.70 240.20 L 483.90 241.80 L 486.40 243.00 L 489.10 243.70 L 492.00 244.00 L 559.90 244.00 L 564.20 245.80 L 566.10 247.10 L 569.20 250.50 L 571.30 254.70 L 572.00 259.50 L 571.70 263.30 L 571.00 266.00 L 569.80 268.50 L 568.20 270.70 L 566.30 272.60 L 564.10 274.20 L 561.60 275.40 L 558.90 276.10 L 556.00 276.40 L 520.80 276.40 L 521.60 287.10 L 521.90 298.00 L 521.60 308.50 L 520.90 318.80 L 519.70 328.90 L 518.10 338.90 L 515.90 348.70 L 513.40 358.40 L 510.40 367.90 L 507.00 377.20 L 503.20 386.30 L 499.10 395.20 L 494.50 403.90 L 489.50 412.40 L 484.20 420.60 L 478.60 428.50 L 472.60 436.20 L 466.20 443.70 L 459.60 450.80 L 452.60 457.60 L 445.40 464.20 L 437.80 470.40 L 430.00 476.40 L 421.90 481.90 L 413.60 487.10 L 405.00 492.00 L 396.10 496.50 L 387.10 500.70 L 377.80 504.40 L 368.40 507.70 L 358.70 510.60 L 348.80 513.20 L 338.90 515.20 L 328.80 516.90 L 318.50 518.00 L 308.00 518.70 L 297.40 519.00 L 287.40 518.80 L 277.60 518.20 L 268.00 517.10 L 258.50 515.70 L 249.20 513.90 L 237.60 511.10 L 226.30 507.70 L 215.40 503.80 L 204.70 499.30 L 194.20 494.30 L 184.00 488.80 L 174.30 482.80 L 164.80 476.40 L 155.70 469.40 L 147.00 462.10 L 138.60 454.30 L 130.70 446.10 L 123.20 437.50 L 116.20 428.60 L 109.60 419.30 L 103.50 409.60 L 97.90 399.60 L 92.90 389.30 L 88.30 378.80 L 84.30 367.90 L 74.20 367.70 L 72.80 367.10 L 71.50 366.10 L 70.60 364.80 L 70.00 363.40 L 69.70 361.70 L 70.00 359.90 L 70.80 358.20 L 72.00 356.90 L 73.60 356.00 L 86.40 355.80 L 88.50 355.20 L 90.60 354.20 L 93.90 351.40 L 96.20 347.50 L 96.80 345.40 L 97.00 343.00 L 96.80 339.60 L 96.20 337.50 L 95.20 335.40 L 92.40 332.10 L 90.60 330.80 L 88.50 329.80 L 86.40 329.20 L 75.00 328.80 L 52.90 328.80 L 49.30 328.20 L 47.70 327.40 L 45.00 325.20 L 43.20 322.20 L 42.70 320.40 L 42.70 316.70 L 44.00 313.40 L 46.20 310.70 L 49.30 308.90 L 52.90 308.30 L 73.10 308.30 L 72.90 298.00 L 73.10 288.20 L 73.70 278.50 L 74.80 269.00 L 76.20 259.70 L 78.10 250.50 L 80.90 239.00 L 84.40 227.90 L 88.40 217.10 L 92.90 206.50 L 57.00 206.50 L 53.20 206.20 L 49.50 205.50 L 46.10 204.30 L 42.90 202.70 L 39.90 200.70 L 37.20 198.30 L 34.80 195.60 L 32.80 192.70 L 31.20 189.40 L 30.00 186.00 L 29.30 182.40 L 29.00 178.50 L 29.20 173.20 L 29.90 169.70 L 31.10 166.40 L 32.60 163.20 L 34.50 160.30 L 36.70 157.70 L 39.20 155.30 L 42.00 153.30 L 45.10 151.60 L 48.30 150.30 L 51.70 149.50 L 55.40 149.00 L 182.00 149.00 L 185.50 148.40 L 188.50 146.60 L 190.60 144.00 L 191.40 142.50 L 192.00 139.00 L 191.80 137.20 L 191.40 135.50 L 189.60 132.50 L 187.00 130.40 L 185.50 129.60 L 182.00 129.00 L 152.70 129.00 L 153.40 128.40 L 138.80 128.40 L 135.40 128.10 L 132.20 127.20 L 129.30 125.80 L 126.60 123.90 L 124.30 121.70 L 122.40 119.00 L 121.00 116.00 L 120.20 112.90 L 119.80 109.40 L 120.20 104.90 L 121.00 101.70 L 122.40 98.70 L 124.30 96.10 L 126.60 93.80 L 129.30 91.90 L 132.20 90.50 L 135.40 89.70 L 138.80 89.30 L 223.20 89.30 L 240.90 84.00 L 259.30 80.20 L 278.00 77.80 L 297.40 77.00 Z" fill="#f3f3fa" fill-opacity="0.6015942" fill-rule="evenodd" group-id="1" id="背景" node-id="52" stroke="none" target-height="442" target-width="543" target-x="29" target-y="77"></path></g><g node-id="181"><path d="M 180.00 393.40 L 181.00 397.40 L 180.40 400.40 L 179.70 401.80 L 178.20 403.40 L 176.30 404.50 L 157.60 404.90 L 157.80 426.00 L 158.50 438.00 L 145.90 438.00 L 146.30 429.10 L 146.40 406.40 L 145.40 407.20 L 143.10 407.80 L 140.50 407.10 L 138.70 405.10 L 128.80 404.60 L 125.30 403.00 L 123.90 401.70 L 122.90 400.10 L 122.20 398.30 L 122.10 395.40 L 124.50 389.40 L 125.60 385.80 L 128.00 383.00 L 141.80 357.50 L 143.70 354.60 L 145.80 352.20 L 147.40 351.00 L 149.40 350.30 L 151.70 350.00 L 155.60 350.70 L 157.30 351.70 L 160.10 354.40 L 172.10 377.70 L 174.00 378.60 L 175.60 379.80 L 177.00 381.40 L 178.10 383.20 L 178.80 385.20 L 179.00 387.40 L 178.50 390.40 L 180.00 393.40 Z" fill="url(#linearGradient1)" fill-rule="nonzero" group-id="2" id="路径" node-id="54" stroke="none" target-height="88" target-width="58.9" target-x="122.1" target-y="350"></path><path d="M 490.00 393.40 L 491.00 397.40 L 490.40 400.40 L 489.70 401.80 L 488.20 403.40 L 486.30 404.50 L 467.60 404.90 L 467.80 426.00 L 468.50 438.00 L 455.90 438.00 L 456.30 429.10 L 456.40 406.40 L 455.40 407.20 L 453.10 407.80 L 450.50 407.10 L 448.70 405.10 L 438.80 404.60 L 435.30 403.00 L 433.90 401.70 L 432.90 400.10 L 432.20 398.30 L 432.10 395.40 L 434.50 389.40 L 435.60 385.80 L 438.00 383.00 L 451.80 357.50 L 453.70 354.60 L 455.80 352.20 L 457.40 351.00 L 459.40 350.30 L 461.70 350.00 L 465.60 350.70 L 467.30 351.70 L 470.10 354.40 L 482.10 377.70 L 484.00 378.60 L 485.60 379.80 L 487.00 381.40 L 488.10 383.20 L 488.80 385.20 L 489.00 387.40 L 488.50 390.40 L 490.00 393.40 Z" fill="url(#linearGradient-1)" fill-rule="nonzero" group-id="2" id="路径" node-id="55" stroke="none" target-height="88" target-width="58.899994" target-x="432.1" target-y="350"></path><path d="M 453.20 403.00 L 454.00 406.20 L 453.70 408.00 L 453.00 409.60 L 451.80 410.90 L 450.30 411.70 L 435.80 412.00 L 435.90 428.60 L 436.50 438.00 L 426.60 438.00 L 427.00 431.00 L 427.00 413.30 L 425.80 414.00 L 424.40 414.30 L 422.40 413.70 L 421.00 412.20 L 413.30 411.80 L 410.60 410.60 L 408.70 408.30 L 408.20 406.90 L 408.10 404.60 L 410.80 397.10 L 412.70 394.80 L 423.40 374.80 L 426.60 370.70 L 427.80 369.80 L 429.30 369.20 L 431.10 369.00 L 434.20 369.60 L 435.60 370.30 L 437.30 371.80 L 447.10 390.70 L 449.80 392.40 L 451.80 395.00 L 452.40 398.30 L 452.10 400.70 L 453.20 403.00 Z" fill="url(#linearGradient-2)" fill-rule="nonzero" group-id="2" id="路径" node-id="56" stroke="none" target-height="69" target-width="45.899994" target-x="408.1" target-y="369"></path></g><path d="M 284.50 415.00 L 324.70 415.70 L 362.20 417.80 L 396.00 421.10 L 412.30 423.20 L 426.80 425.50 L 439.80 428.00 L 449.30 428.30 L 458.10 429.00 L 466.40 430.10 L 474.60 431.70 L 481.80 433.50 L 488.10 435.60 L 492.80 437.60 L 496.70 439.60 L 502.70 443.70 L 505.10 446.20 L 506.70 448.60 L 507.70 451.00 L 508.00 453.50 L 507.80 455.50 L 506.10 459.40 L 504.60 461.40 L 502.20 463.70 L 499.10 466.00 L 495.10 468.30 L 486.10 472.10 L 480.60 473.80 L 468.90 476.40 L 462.10 477.50 L 452.30 480.20 L 440.70 482.80 L 441.00 486.00 L 440.70 488.80 L 440.10 491.60 L 438.90 494.30 L 437.20 497.10 L 435.00 499.90 L 431.90 502.90 L 428.20 506.00 L 423.60 509.00 L 412.80 514.50 L 400.10 519.30 L 392.70 521.50 L 382.80 523.90 L 372.00 526.00 L 360.30 527.80 L 348.50 529.00 L 336.10 529.70 L 323.00 530.00 L 311.20 529.80 L 300.00 529.20 L 289.30 528.20 L 278.50 526.80 L 268.60 525.10 L 259.30 523.00 L 250.10 520.60 L 241.90 518.00 L 234.60 515.20 L 229.20 512.70 L 220.20 507.60 L 213.10 502.00 L 210.30 499.10 L 208.10 496.10 L 206.60 493.20 L 190.90 491.80 L 162.60 488.60 L 136.80 484.50 L 114.80 479.70 L 105.40 477.10 L 97.50 474.40 L 86.50 469.80 L 82.50 467.60 L 76.90 463.30 L 75.10 461.20 L 73.90 459.30 L 73.20 457.40 L 73.00 455.50 L 73.30 453.50 L 74.10 451.40 L 75.50 449.30 L 77.60 447.10 L 80.60 444.70 L 84.30 442.40 L 89.00 440.00 L 94.80 437.60 L 101.90 435.10 L 111.20 432.30 L 122.10 429.50 L 134.90 426.90 L 162.00 422.50 L 177.80 420.50 L 210.30 417.60 L 246.20 415.70 L 284.50 415.00 Z" fill="#e7eaf0" fill-rule="evenodd" id="形状结合" node-id="58" stroke="none" target-height="115" target-width="435" target-x="73" target-y="415"></path><g node-id="183"><path d="M 274.70 435.00 L 315.60 386.20 L 562.20 509.40 L 416.70 618.40 Z" fill="url(#linearGradient-3)" fill-opacity="0.5" fill-rule="nonzero" group-id="4" id="路径" node-id="59" stroke="none" target-height="232.20001" target-width="287.5" target-x="274.7" target-y="386.2"></path></g><g node-id="184"><path d="M 390.00 342.70 L 289.00 330.00 L 289.00 380.40 L 388.40 392.00 Z" fill="#a2abb9" fill-rule="nonzero" group-id="5" id="路径" node-id="61" stroke="none" target-height="62" target-width="101" target-x="289" target-y="330"></path><path d="M 209.00 346.40 L 289.00 330.00 L 289.00 386.70 L 209.00 403.00 Z" fill="#c0c7d2" fill-rule="nonzero" group-id="5" id="路径" node-id="62" stroke="none" target-height="73" target-width="80" target-x="209" target-y="330"></path><path d="M 303.00 368.20 L 389.00 346.00 L 389.00 450.80 L 303.00 473.00 Z" fill="#a2abb9" fill-rule="nonzero" group-id="5" id="路径" node-id="63" stroke="none" target-height="127" target-width="86" target-x="303" target-y="346"></path><path d="M 210.00 349.00 L 304.00 367.70 L 303.50 473.00 L 210.00 452.10 Z" fill="#c0c7d2" fill-rule="nonzero" group-id="5" id="路径" node-id="64" stroke="none" target-height="124" target-width="94" target-x="210" target-y="349"></path><path d="M 304.00 368.20 L 209.20 348.00 L 189.00 385.20 L 285.40 408.00 Z" fill="#d1d6e2" fill-rule="nonzero" group-id="5" id="路径" node-id="65" stroke="none" target-height="60" target-width="115" target-x="189" target-y="348"></path><path d="M 304.00 367.70 L 390.10 344.00 L 412.00 380.90 L 329.50 408.00 Z" fill="#c0c7d2" fill-rule="nonzero" group-id="5" id="路径" node-id="66" stroke="none" target-height="64" target-width="108" target-x="304" target-y="344"></path></g><g node-id="185"><path d="M 212.30 195.00 L 208.20 201.30 L 205.00 207.20 L 202.60 212.70 L 200.90 217.80 L 199.90 222.70 L 199.40 227.30 L 199.50 231.60 L 200.20 235.80 L 201.40 239.90 L 203.10 243.80 L 205.40 247.60 L 208.30 251.40 L 211.90 255.20 L 216.30 258.90 L 221.50 262.60 L 227.70 266.20 L 234.90 269.80 L 243.40 273.20" fill="none" group-id="6" id="路径-2" node-id="68" stroke="url(#linearGradient-4)" stroke-linecap="round" stroke-width="1" target-height="78.20001" target-width="44" target-x="199.4" target-y="195"></path><path d="M 203.90 267.40 L 208.00 272.10 L 211.70 275.80 L 215.10 278.50 L 218.30 280.50 L 221.10 281.80 L 223.80 282.50 L 226.40 282.80" fill="none" group-id="6" id="路径-3" node-id="69" stroke="url(#linearGradient-5)" stroke-linecap="round" stroke-width="1" target-height="15.399994" target-width="22.5" target-x="203.9" target-y="267.4"></path><path d="M 403.20 150.20 L 403.10 155.30 L 402.50 160.20 L 401.30 164.90 L 399.50 169.40 L 397.20 173.80 L 394.30 178.00 L 390.70 182.20 L 386.50 186.30 L 381.40 190.40 L 375.40 194.30 L 368.50 198.20 L 360.50 201.90 L 351.40 205.60 L 340.90 209.00 L 329.10 212.30 L 315.60 215.40" fill="none" group-id="6" id="路径-4" node-id="70" stroke="url(#linearGradient-6)" stroke-linecap="round" stroke-width="1" target-height="65.2" target-width="87.600006" target-x="315.6" target-y="150.2"></path><path d="M 411.20 189.30 L 403.90 195.00 L 397.60 199.50 L 392.20 202.80 L 387.50 205.10 L 383.40 206.60 L 379.90 207.40 L 376.90 207.60" fill="none" group-id="6" id="路径-5" node-id="71" stroke="url(#linearGradient-7)" stroke-linecap="round" stroke-width="1" target-height="18.300003" target-width="34.30002" target-x="376.9" target-y="189.3"></path><path d="M 387.00 260.30 L 375.50 259.20 L 364.80 258.70 L 355.10 258.80 L 346.10 259.40 L 337.80 260.40 L 330.20 262.00 L 323.20 263.90 L 316.70 266.20 L 310.80 269.00 L 305.40 272.10 L 300.40 275.50 L 295.90 279.30 L 291.70 283.60 L 287.90 288.20 L 284.40 293.20 L 281.40 298.70 L 278.70 304.70" fill="none" group-id="6" id="路径-6" node-id="72" stroke="url(#linearGradient-8)" stroke-linecap="round" stroke-width="1" target-height="46" target-width="108.29999" target-x="278.7" target-y="258.7"></path><path d="M 210.90 219.00 L 221.70 221.00 L 230.40 223.10 L 237.30 225.30 L 242.60 227.60 L 246.60 229.90 L 249.60 232.20 L 251.70 234.50 L 253.00 236.80 L 253.80 239.10 L 254.00 241.60 L 253.60 244.30 L 252.60 247.20 L 251.10 249.80 L 249.50 251.50 L 247.80 252.60 L 245.90 253.10 L 243.80 253.00 L 241.30 252.30 L 238.20 250.70 L 234.60 248.00 L 230.20 243.80 L 224.90 237.90 L 218.50 229.80 L 210.90 219.00 Z" fill="url(#linearGradient-9)" fill-rule="nonzero" group-id="6" id="路径-7" node-id="73" stroke="none" target-height="34.100006" target-width="43.100006" target-x="210.9" target-y="219"></path><path d="M 332.80 189.30 L 334.50 184.60 L 336.40 180.70 L 338.70 177.50 L 341.30 174.90 L 344.10 172.80 L 347.40 171.20 L 351.10 170.10 L 355.30 169.60 L 360.10 169.60 L 365.50 170.20 L 371.80 171.70 L 371.30 173.70 L 370.20 175.70 L 368.50 177.60 L 366.00 179.60 L 362.40 181.60 L 357.70 183.60 L 351.30 185.60 L 343.20 187.50 L 332.80 189.30 Z" fill="url(#linearGradient-10)" fill-rule="nonzero" group-id="6" id="路径-8" node-id="74" stroke="none" target-height="19.699997" target-width="39" target-x="332.8" target-y="169.6"></path><path d="M 287.30 317.70 L 291.10 310.90 L 295.00 305.10 L 299.00 300.30 L 303.10 296.30 L 307.20 293.00 L 311.40 290.40 L 315.70 288.50 L 320.20 287.10 L 324.80 286.30 L 329.70 286.10 L 334.80 286.50 L 340.30 287.60 L 346.10 289.40 L 352.30 292.00 L 349.10 297.40 L 345.60 302.10 L 341.90 306.20 L 338.00 309.70 L 333.80 312.60 L 329.30 315.10 L 324.50 317.10 L 319.40 318.60 L 314.00 319.50 L 308.10 320.00 L 301.70 319.80 L 294.80 319.10 L 287.30 317.70 Z" fill="url(#linearGradient-11)" fill-rule="nonzero" group-id="6" id="路径-9" node-id="75" stroke="none" target-height="33.899994" target-width="65" target-x="287.3" target-y="286.1"></path><path d="M 328.00 198.50 L 330.20 194.30 L 332.50 190.90 L 334.90 188.10 L 337.50 185.90 L 340.20 184.10 L 343.00 182.80" fill="none" group-id="6" id="路径-10" node-id="76" stroke="url(#linearGradient-12)" stroke-linecap="round" stroke-width="1" target-height="15.699997" target-width="15" target-x="328" target-y="182.8"></path><path d="M 243.40 243.20 L 245.70 244.00 L 247.70 245.10 L 249.40 246.70 L 250.90 248.80 L 252.20 251.40 L 253.10 254.60 L 253.80 258.70 L 254.00 263.70" fill="none" group-id="6" id="路径-11" node-id="77" stroke="url(#linearGradient-13)" stroke-linecap="round" stroke-width="1" target-height="20.500015" target-width="10.600006" target-x="243.4" target-y="243.2"></path><path d="M 280.70 327.40 L 283.10 323.20 L 285.70 319.80 L 288.40 317.00 L 291.30 314.80 L 294.30 313.10 L 297.50 311.80 L 301.00 311.10 L 304.70 310.90" fill="none" group-id="6" id="路径-12" node-id="78" stroke="url(#linearGradient-14)" stroke-linecap="round" stroke-width="1" target-height="16.5" target-width="24" target-x="280.7" target-y="310.9"></path></g></svg>