<?xml version="1.0" standalone="no"?><!DOCTYPE svg PUBLIC "-//W3C//DTD SVG 1.1//EN" "http://www.w3.org/Graphics/SVG/1.1/DTD/svg11.dtd"><svg height="600" node-id="1" sillyvg="true" template-height="600" template-width="600" version="1.1" viewBox="0 0 600 600" width="600" xmlns="http://www.w3.org/2000/svg" xmlns:xlink="http://www.w3.org/1999/xlink"><defs node-id="87"><linearGradient gradientUnits="objectBoundingBox" id="linearGradient-1" node-id="5" spreadMethod="pad" x1="1.4458808" x2="0.29515958" y1="0.66910326" y2="0.67326146"><stop offset="0" stop-color="#e0e5ef" stop-opacity="0"></stop><stop offset="1" stop-color="#e0e5ef"></stop></linearGradient><linearGradient gradientUnits="objectBoundingBox" id="linearGradient-2" node-id="8" spreadMethod="pad" x1="1.4458808" x2="0.29515958" y1="0.669094" y2="0.6732521"><stop offset="0" stop-color="#e0e5ef" stop-opacity="0"></stop><stop offset="1" stop-color="#e0e5ef"></stop></linearGradient><linearGradient gradientUnits="objectBoundingBox" id="linearGradient1" node-id="101" spreadMethod="pad" x1="0.9340618" x2="0.40599933" y1="0.98800004" y2="1"><stop offset="0" stop-color="#e0e5ef" stop-opacity="0"></stop><stop offset="1" stop-color="#e0e5ef"></stop></linearGradient><linearGradient gradientUnits="objectBoundingBox" id="linearGradient-3" node-id="11" spreadMethod="pad" x1="0.9340618" x2="0.40599933" y1="0.98800004" y2="1"><stop offset="0" stop-color="#e0e5ef" stop-opacity="0"></stop><stop offset="1" stop-color="#e0e5ef"></stop></linearGradient><linearGradient gradientUnits="objectBoundingBox" id="linearGradient-4" node-id="14" spreadMethod="pad" x1="0.92518216" x2="0.40792233" y1="0.98800004" y2="1"><stop offset="0" stop-color="#e0e5ef" stop-opacity="0"></stop><stop offset="1" stop-color="#e0e5ef"></stop></linearGradient><linearGradient gradientUnits="objectBoundingBox" id="linearGradient-5" node-id="17" spreadMethod="pad" x1="0.5" x2="0.5" y1="1.7272741" y2="-0.23316336"><stop offset="0" stop-color="#a2abb9"></stop><stop offset="1" stop-color="#e7eaf0"></stop></linearGradient><linearGradient gradientUnits="objectBoundingBox" id="linearGradient-6" node-id="20" spreadMethod="pad" x1="1.0674407" x2="0.22324932" y1="0.77744865" y2="0.18036044"><stop offset="0" stop-color="#a2abb9"></stop><stop offset="1" stop-color="#e7eaf0"></stop></linearGradient><linearGradient gradientUnits="objectBoundingBox" id="linearGradient-7" node-id="23" spreadMethod="pad" x1="1.098454" x2="0.14303929" y1="1.2090366" y2="0"><stop offset="0" stop-color="#a2abb9"></stop><stop offset="1" stop-color="#e7eaf0"></stop></linearGradient><linearGradient gradientUnits="objectBoundingBox" id="linearGradient-8" node-id="26" spreadMethod="pad" x1="0.6436921" x2="0.20580958" y1="0.78296334" y2="0.2843581"><stop offset="0" stop-color="#a2abb9"></stop><stop offset="1" stop-color="#e7eaf0"></stop></linearGradient><linearGradient gradientUnits="objectBoundingBox" id="linearGradient-9" node-id="29" spreadMethod="pad" x1="1.2530432" x2="0" y1="1.0744796" y2="-0.028719593"><stop offset="0" stop-color="#a2abb9"></stop><stop offset="1" stop-color="#e7eaf0"></stop></linearGradient><linearGradient gradientUnits="objectBoundingBox" id="linearGradient-10" node-id="32" spreadMethod="pad" x1="1.2530432" x2="0" y1="1.0744796" y2="-0.028719593"><stop offset="0" stop-color="#a2abb9"></stop><stop offset="1" stop-color="#e7eaf0"></stop></linearGradient><linearGradient gradientUnits="objectBoundingBox" id="linearGradient-11" node-id="35" spreadMethod="pad" x1="1.2530432" x2="0" y1="0.5947825" y2="0.4127674"><stop offset="0" stop-color="#a2abb9"></stop><stop offset="1" stop-color="#e7eaf0"></stop></linearGradient><linearGradient gradientUnits="objectBoundingBox" id="linearGradient-12" node-id="38" spreadMethod="pad" x1="1.4216133" x2="-0.08465183" y1="0.5835779" y2="0.4045586"><stop offset="0" stop-color="#a2abb9"></stop><stop offset="1" stop-color="#e7eaf0"></stop></linearGradient><linearGradient gradientUnits="objectBoundingBox" id="linearGradient-13" node-id="41" spreadMethod="pad" x1="1.5706644" x2="0" y1="0.69153464" y2="0.4383049"><stop offset="0" stop-color="#a2abb9"></stop><stop offset="1" stop-color="#e7eaf0"></stop></linearGradient><linearGradient gradientUnits="objectBoundingBox" id="linearGradient-14" node-id="44" spreadMethod="pad" x1="1" x2="0" y1="0.39770198" y2="0.8063144"><stop offset="0" stop-color="#a2abb9"></stop><stop offset="1" stop-color="#e7eaf0"></stop></linearGradient><linearGradient gradientUnits="objectBoundingBox" id="linearGradient2" node-id="180" spreadMethod="pad" x1="0.67341614" x2="0" y1="0.683891" y2="0.30182254"><stop offset="0" stop-color="#a2abb9"></stop><stop offset="1" stop-color="#e7eaf0"></stop></linearGradient><linearGradient gradientUnits="objectBoundingBox" id="linearGradient3" node-id="187" spreadMethod="pad" x1="1" x2="0" y1="0.39076242" y2="0.6207257"><stop offset="0" stop-color="#a2abb9"></stop><stop offset="1" stop-color="#e7eaf0"></stop></linearGradient><linearGradient gradientUnits="objectBoundingBox" id="linearGradient-15" node-id="47" spreadMethod="pad" x1="0.67341614" x2="0" y1="0.683891" y2="0.30182254"><stop offset="0" stop-color="#a2abb9"></stop><stop offset="1" stop-color="#e7eaf0"></stop></linearGradient><linearGradient gradientUnits="objectBoundingBox" id="linearGradient-16" node-id="50" spreadMethod="pad" x1="1" x2="0" y1="0.39076242" y2="0.6207257"><stop offset="0" stop-color="#a2abb9"></stop><stop offset="1" stop-color="#e7eaf0"></stop></linearGradient><linearGradient gradientUnits="objectBoundingBox" id="linearGradient-17" node-id="53" spreadMethod="pad" x1="1.1703563" x2="0.063694365" y1="0.45190796" y2="0.5497409"><stop offset="0" stop-color="#a2abb9"></stop><stop offset="1" stop-color="#e7eaf0"></stop></linearGradient></defs><path d="M 0.00 0.00 L 600.00 0.00 L 600.00 600.00 L 0.00 600.00 Z" fill="#ffffff" fill-rule="evenodd" node-id="214" stroke="none" target-height="600" target-width="600" target-x="0" target-y="0"></path><g node-id="216"><path d="M 297.40 77.00 L 307.60 77.20 L 317.70 77.90 L 327.60 79.00 L 337.30 80.50 L 346.90 82.40 L 356.40 84.70 L 365.70 87.40 L 374.90 90.50 L 383.80 94.00 L 392.50 97.80 L 403.30 103.10 L 413.60 108.90 L 423.60 115.20 L 433.20 122.00 L 415.60 122.20 L 413.50 122.80 L 411.40 123.80 L 408.10 126.60 L 405.80 130.50 L 405.20 132.60 L 405.00 136.00 L 405.20 138.40 L 405.80 140.50 L 406.80 142.60 L 409.60 145.90 L 413.50 148.20 L 415.60 148.80 L 418.00 149.00 L 463.20 149.00 L 469.50 156.10 L 475.40 163.40 L 481.10 170.90 L 486.40 178.80 L 507.90 178.80 L 510.40 179.00 L 512.80 179.60 L 514.90 180.70 L 516.90 182.10 L 518.60 183.70 L 520.00 185.70 L 521.00 187.90 L 521.60 190.20 L 521.90 192.80 L 521.30 197.60 L 520.60 199.50 L 519.00 202.00 L 517.00 204.20 L 514.50 205.90 L 511.80 207.00 L 492.00 207.00 L 489.10 207.30 L 486.40 208.00 L 483.90 209.20 L 481.70 210.80 L 479.80 212.70 L 478.20 214.90 L 477.00 217.40 L 476.30 220.10 L 476.00 228.00 L 476.30 230.90 L 477.00 233.60 L 478.20 236.10 L 479.80 238.30 L 481.70 240.20 L 483.90 241.80 L 486.40 243.00 L 489.10 243.70 L 492.00 244.00 L 559.90 244.00 L 564.20 245.80 L 566.10 247.10 L 569.20 250.50 L 571.30 254.70 L 572.00 259.50 L 571.70 263.30 L 571.00 266.00 L 569.80 268.50 L 568.20 270.70 L 566.30 272.60 L 564.10 274.20 L 561.60 275.40 L 558.90 276.10 L 556.00 276.40 L 520.80 276.40 L 521.60 287.10 L 521.90 298.00 L 521.60 308.50 L 520.90 318.80 L 519.70 328.90 L 518.10 338.90 L 515.90 348.70 L 513.40 358.40 L 510.40 367.90 L 507.00 377.20 L 503.20 386.30 L 499.10 395.20 L 494.50 403.90 L 489.50 412.40 L 484.20 420.60 L 478.60 428.50 L 472.60 436.20 L 466.20 443.70 L 459.60 450.80 L 452.60 457.60 L 445.40 464.20 L 437.80 470.40 L 430.00 476.40 L 421.90 481.90 L 413.60 487.10 L 405.00 492.00 L 396.10 496.50 L 387.10 500.70 L 377.80 504.40 L 368.40 507.70 L 358.70 510.60 L 348.80 513.20 L 338.90 515.20 L 328.80 516.90 L 318.50 518.00 L 308.00 518.70 L 297.40 519.00 L 287.40 518.80 L 277.60 518.20 L 268.00 517.10 L 258.50 515.70 L 249.20 513.90 L 237.60 511.10 L 226.30 507.70 L 215.40 503.80 L 204.70 499.30 L 194.20 494.30 L 184.00 488.80 L 174.30 482.80 L 164.80 476.40 L 155.70 469.40 L 147.00 462.10 L 138.60 454.30 L 130.70 446.10 L 123.20 437.50 L 116.20 428.60 L 109.60 419.30 L 103.50 409.60 L 97.90 399.60 L 92.90 389.30 L 88.30 378.80 L 84.30 367.90 L 74.20 367.70 L 72.80 367.10 L 71.50 366.10 L 70.60 364.80 L 70.00 363.40 L 69.70 361.70 L 70.00 359.90 L 70.80 358.20 L 72.00 356.90 L 73.60 356.00 L 86.40 355.80 L 88.50 355.20 L 90.60 354.20 L 93.90 351.40 L 96.20 347.50 L 96.80 345.40 L 97.00 343.00 L 96.80 339.60 L 96.20 337.50 L 95.20 335.40 L 92.40 332.10 L 90.60 330.80 L 88.50 329.80 L 86.40 329.20 L 75.00 328.80 L 52.90 328.80 L 49.30 328.20 L 47.70 327.40 L 45.00 325.20 L 43.20 322.20 L 42.70 320.40 L 42.70 316.70 L 44.00 313.40 L 46.20 310.70 L 49.30 308.90 L 52.90 308.30 L 73.10 308.30 L 72.90 298.00 L 73.10 288.20 L 73.70 278.50 L 74.80 269.00 L 76.20 259.70 L 78.10 250.50 L 80.90 239.00 L 84.40 227.90 L 88.40 217.10 L 92.90 206.50 L 57.00 206.50 L 53.20 206.20 L 49.50 205.50 L 46.10 204.30 L 42.90 202.70 L 39.90 200.70 L 37.20 198.30 L 34.80 195.60 L 32.80 192.70 L 31.20 189.40 L 30.00 186.00 L 29.30 182.40 L 29.00 178.50 L 29.20 173.20 L 29.90 169.70 L 31.10 166.40 L 32.60 163.20 L 34.50 160.30 L 36.70 157.70 L 39.20 155.30 L 42.00 153.30 L 45.10 151.60 L 48.30 150.30 L 51.70 149.50 L 55.40 149.00 L 182.00 149.00 L 185.50 148.40 L 188.50 146.60 L 190.60 144.00 L 191.40 142.50 L 192.00 139.00 L 191.80 137.20 L 191.40 135.50 L 189.60 132.50 L 187.00 130.40 L 185.50 129.60 L 182.00 129.00 L 152.70 129.00 L 153.40 128.40 L 138.80 128.40 L 135.40 128.10 L 132.20 127.20 L 129.30 125.80 L 126.60 123.90 L 124.30 121.70 L 122.40 119.00 L 121.00 116.00 L 120.20 112.90 L 119.80 109.40 L 120.20 104.90 L 121.00 101.70 L 122.40 98.70 L 124.30 96.10 L 126.60 93.80 L 129.30 91.90 L 132.20 90.50 L 135.40 89.70 L 138.80 89.30 L 223.20 89.30 L 240.90 84.00 L 259.30 80.20 L 278.00 77.80 L 297.40 77.00 Z" fill="#f3f3fa" fill-opacity="0.6015942" fill-rule="evenodd" group-id="1" id="背景" node-id="58" stroke="none" target-height="442" target-width="543" target-x="29" target-y="77"></path></g><path d="M 181.80 214.00 L 174.50 214.00 L 174.20 210.30 L 173.50 206.90 L 172.40 203.70 L 170.80 200.60 L 169.00 197.80 L 166.70 195.20 L 164.20 193.00 L 161.40 191.10 L 158.30 189.60 L 155.00 188.40 L 151.60 187.70 L 148.00 187.50 L 144.30 187.70 L 140.90 188.40 L 137.70 189.60 L 134.60 191.10 L 131.80 193.00 L 129.20 195.20 L 127.00 197.80 L 125.10 200.60 L 123.60 203.70 L 122.40 206.90 L 121.70 210.30 L 121.50 214.00 L 116.10 214.00 L 113.90 214.20 L 111.90 214.80 L 110.00 215.80 L 106.80 218.70 L 104.70 222.60 L 103.90 227.20 L 104.10 229.60 L 105.60 233.90 L 106.80 235.80 L 110.00 238.70 L 111.90 239.60 L 113.90 240.20 L 116.10 240.50 L 181.80 240.50 L 184.00 240.20 L 186.00 239.60 L 189.60 237.40 L 192.30 233.90 L 193.80 229.60 L 194.00 227.20 L 193.80 224.80 L 192.30 220.50 L 189.60 217.10 L 186.00 214.80 L 184.00 214.20 L 181.80 214.00 Z" fill="url(#linearGradient-1)" fill-rule="nonzero" id="路径" node-id="59" stroke="none" target-height="53" target-width="90.1" target-x="103.9" target-y="187.5"></path><path d="M 368.90 138.60 L 363.70 138.60 L 363.30 135.20 L 362.50 132.00 L 361.10 129.00 L 359.20 126.40 L 356.90 124.10 L 354.20 122.20 L 351.30 120.80 L 348.10 120.00 L 344.70 119.60 L 341.20 120.00 L 338.00 120.80 L 335.10 122.20 L 332.40 124.10 L 330.10 126.40 L 328.30 129.00 L 326.80 132.00 L 326.00 135.20 L 325.70 138.60 L 321.80 138.60 L 318.80 139.20 L 317.40 139.90 L 315.70 141.40 L 314.30 143.30 L 313.40 145.60 L 313.10 148.10 L 313.40 150.70 L 314.30 152.90 L 315.70 154.90 L 317.40 156.30 L 320.20 157.50 L 368.90 157.60 L 372.00 157.00 L 373.30 156.30 L 375.10 154.90 L 376.50 152.90 L 377.30 150.70 L 377.60 148.10 L 377.30 145.60 L 376.40 143.30 L 375.10 141.40 L 373.30 139.90 L 370.50 138.80 L 368.90 138.60 Z" fill="url(#linearGradient-2)" fill-rule="nonzero" id="路径" node-id="60" stroke="none" target-height="38.000008" target-width="64.5" target-x="313.1" target-y="119.6"></path><path d="M 284.50 415.00 L 324.70 415.70 L 362.20 417.80 L 396.00 421.10 L 412.30 423.20 L 426.80 425.50 L 439.80 428.00 L 449.30 428.30 L 458.10 429.00 L 466.40 430.10 L 474.60 431.70 L 481.80 433.50 L 488.10 435.60 L 492.80 437.60 L 496.70 439.60 L 502.70 443.70 L 505.10 446.20 L 506.70 448.60 L 507.70 451.00 L 508.00 453.50 L 507.80 455.50 L 506.10 459.40 L 504.60 461.40 L 502.20 463.70 L 499.10 466.00 L 495.10 468.30 L 486.10 472.10 L 480.60 473.80 L 468.90 476.40 L 462.10 477.50 L 452.30 480.20 L 440.70 482.80 L 441.00 486.00 L 440.70 488.80 L 440.10 491.60 L 438.90 494.30 L 437.20 497.10 L 435.00 499.90 L 431.90 502.90 L 428.20 506.00 L 423.60 509.00 L 412.80 514.50 L 400.10 519.30 L 392.70 521.50 L 382.80 523.90 L 372.00 526.00 L 360.30 527.80 L 348.50 529.00 L 336.10 529.70 L 323.00 530.00 L 311.20 529.80 L 300.00 529.20 L 289.30 528.20 L 278.50 526.80 L 268.60 525.10 L 259.30 523.00 L 250.10 520.60 L 241.90 518.00 L 234.60 515.20 L 229.20 512.70 L 220.20 507.60 L 213.10 502.00 L 210.30 499.10 L 208.10 496.10 L 206.60 493.20 L 190.90 491.80 L 162.60 488.60 L 136.80 484.50 L 114.80 479.70 L 105.40 477.10 L 97.50 474.40 L 86.50 469.80 L 82.50 467.60 L 76.90 463.30 L 75.10 461.20 L 73.90 459.30 L 73.20 457.40 L 73.00 455.50 L 73.30 453.50 L 74.10 451.40 L 75.50 449.30 L 77.60 447.10 L 80.60 444.70 L 84.30 442.40 L 89.00 440.00 L 94.80 437.60 L 101.90 435.10 L 111.20 432.30 L 122.10 429.50 L 134.90 426.90 L 162.00 422.50 L 177.80 420.50 L 210.30 417.60 L 246.20 415.70 L 284.50 415.00 Z" fill="#e7eaf0" fill-rule="evenodd" id="形状结合" node-id="61" stroke="none" target-height="115" target-width="435" target-x="73" target-y="415"></path><g node-id="217"><path d="M 463.30 400.60 L 464.00 403.40 L 463.80 405.00 L 463.10 406.50 L 462.00 407.60 L 460.60 408.40 L 447.40 408.70 L 447.50 423.60 L 448.00 432.00 L 439.00 432.00 L 439.30 425.70 L 439.40 409.80 L 438.20 410.50 L 437.00 410.70 L 435.20 410.20 L 433.90 408.80 L 426.80 408.50 L 424.90 407.70 L 423.40 406.40 L 422.60 405.30 L 422.20 404.10 L 422.10 402.00 L 424.60 395.30 L 426.30 393.20 L 436.10 375.20 L 438.90 371.50 L 441.50 370.20 L 443.10 370.00 L 445.30 370.30 L 447.20 371.20 L 448.70 372.50 L 457.70 389.50 L 460.20 391.00 L 461.90 393.40 L 462.60 396.40 L 462.30 398.50 L 463.30 400.60 Z" fill="url(#linearGradient1)" fill-rule="nonzero" group-id="2" id="路径" node-id="63" stroke="none" target-height="62" target-width="41.899994" target-x="422.1" target-y="370"></path><path d="M 503.30 420.60 L 504.00 423.40 L 503.80 425.00 L 503.10 426.50 L 502.00 427.60 L 500.60 428.40 L 487.40 428.70 L 487.50 443.60 L 488.00 452.00 L 479.00 452.00 L 479.30 445.70 L 479.40 429.80 L 478.20 430.50 L 477.00 430.70 L 475.20 430.20 L 473.90 428.80 L 466.80 428.50 L 464.90 427.70 L 463.40 426.40 L 462.60 425.30 L 462.20 424.10 L 462.10 422.00 L 464.60 415.30 L 466.30 413.20 L 476.10 395.20 L 478.90 391.50 L 481.50 390.20 L 483.10 390.00 L 485.30 390.30 L 487.20 391.20 L 488.70 392.50 L 497.70 409.50 L 500.20 411.00 L 501.90 413.40 L 502.60 416.40 L 502.30 418.50 L 503.30 420.60 Z" fill="url(#linearGradient-3)" fill-rule="nonzero" group-id="2" id="路径" node-id="64" stroke="none" target-height="62" target-width="41.899994" target-x="462.1" target-y="390"></path><path d="M 150.00 413.40 L 151.00 417.40 L 150.40 420.40 L 149.70 421.80 L 148.20 423.40 L 146.30 424.50 L 127.60 424.90 L 127.80 446.00 L 128.50 458.00 L 115.90 458.00 L 116.30 449.10 L 116.40 426.40 L 115.40 427.20 L 113.10 427.80 L 110.50 427.10 L 108.70 425.10 L 98.80 424.60 L 95.30 423.00 L 93.90 421.70 L 92.90 420.10 L 92.20 418.30 L 92.10 415.40 L 94.50 409.40 L 95.60 405.80 L 98.00 403.00 L 111.80 377.50 L 113.70 374.60 L 115.80 372.20 L 117.40 371.00 L 119.40 370.30 L 121.70 370.00 L 125.60 370.70 L 127.30 371.70 L 130.10 374.40 L 142.10 397.70 L 144.00 398.60 L 145.60 399.80 L 147.00 401.40 L 148.10 403.20 L 148.80 405.20 L 149.00 407.40 L 148.50 410.40 L 150.00 413.40 Z" fill="url(#linearGradient-4)" fill-rule="nonzero" group-id="2" id="路径" node-id="65" stroke="none" target-height="88" target-width="58.9" target-x="92.1" target-y="370"></path></g><path d="M 336.00 466.10 L 335.70 467.20 L 334.90 468.40 L 333.30 469.60 L 330.30 471.00 L 325.90 472.50 L 314.90 474.40 L 301.50 475.10 L 288.10 474.40 L 277.10 472.50 L 272.70 471.00 L 269.70 469.60 L 268.10 468.40 L 267.30 467.20 L 267.00 466.10 L 267.30 465.00 L 268.10 463.80 L 269.70 462.60 L 272.70 461.20 L 277.10 459.70 L 288.10 457.80 L 301.50 457.10 L 314.90 457.80 L 325.90 459.70 L 330.30 461.20 L 333.30 462.60 L 334.90 463.80 L 335.70 465.00 L 336.00 466.10 Z" fill="#d1d6e2" fill-rule="nonzero" id="椭圆形" node-id="66" stroke="none" target-height="18" target-width="69" target-x="267" target-y="457.1"></path><path d="M 298.00 225.00 L 299.60 225.20 L 301.00 225.80 L 302.20 226.80 L 303.20 228.00 L 303.80 229.40 L 304.00 231.00 L 304.00 449.00 L 303.20 452.00 L 301.00 454.20 L 299.60 454.80 L 298.00 455.00 L 296.40 454.80 L 295.00 454.20 L 292.80 452.00 L 292.00 449.00 L 292.00 231.00 L 292.20 229.40 L 292.80 228.00 L 293.80 226.80 L 295.00 225.80 L 296.40 225.20 L 298.00 225.00 Z" fill="url(#linearGradient-5)" fill-rule="nonzero" id="矩形" node-id="67" stroke="none" target-height="230" target-width="12" target-x="292" target-y="225"></path><g node-id="218"><path d="M 298.40 448.00 L 299.00 441.20 L 299.00 435.30 L 298.40 430.20 L 297.40 425.70 L 295.90 421.90 L 294.00 418.70 L 291.70 415.80 L 288.90 413.40 L 285.70 411.40 L 281.90 409.80 L 277.40 408.50 L 272.30 407.80 L 277.60 407.50 L 282.60 407.70 L 287.20 408.30 L 291.50 409.30 L 295.70 410.70 L 299.50 412.50 L 303.00 414.60 L 306.20 417.00 L 309.10 419.90 L 311.70 423.00 L 313.90 426.40 L 315.80 430.20 L 317.30 434.20 L 318.30 438.40 L 319.00 443.00 L 319.30 448.00 L 298.40 448.00 Z" fill="url(#linearGradient-6)" fill-rule="nonzero" group-id="3" id="路径-38" node-id="69" stroke="none" target-height="40.5" target-width="47" target-x="272.3" target-y="407.5"></path><path d="M 312.00 448.10 L 313.20 441.50 L 313.80 435.30 L 313.80 429.60 L 313.30 424.40 L 312.30 419.40 L 310.90 414.90 L 309.00 410.50 L 306.60 406.50 L 303.70 402.70 L 300.30 399.10 L 296.30 395.70 L 291.80 392.50 L 297.80 394.50 L 308.60 399.10 L 313.60 401.90 L 318.20 405.30 L 322.40 409.10 L 325.30 412.30 L 327.90 415.90 L 330.40 420.10 L 332.70 424.80 L 334.60 429.50 L 337.80 441.10 L 339.10 448.10 L 322.70 448.50 L 312.00 448.10 Z" fill="url(#linearGradient-7)" fill-rule="nonzero" group-id="3" id="路径-39" node-id="70" stroke="none" target-height="56" target-width="47.30002" target-x="291.8" target-y="392.5"></path><path d="M 343.40 448.50 L 343.00 442.10 L 343.20 436.40 L 343.90 431.50 L 345.10 427.10 L 346.70 423.30 L 348.60 419.90 L 351.00 416.90 L 353.80 414.30 L 357.00 412.10 L 360.80 410.20 L 365.10 408.60 L 370.10 407.50 L 358.70 407.50 L 354.80 407.80 L 347.10 409.50 L 343.40 410.90 L 339.60 412.90 L 335.80 415.50 L 333.20 417.80 L 327.80 423.90 L 325.10 427.80 L 321.90 433.30 L 318.70 440.10 L 315.50 448.50 L 333.20 448.30 L 343.40 448.50 Z" fill="url(#linearGradient-8)" fill-rule="nonzero" group-id="3" id="路径-40" node-id="71" stroke="none" target-height="41" target-width="54.600006" target-x="315.5" target-y="407.5"></path></g><path d="M 343.70 462.10 L 342.90 464.60 L 340.10 467.20 L 334.60 469.90 L 330.50 471.30 L 324.10 472.80 L 316.20 474.10 L 307.90 474.80 L 298.70 475.10 L 289.40 474.80 L 281.20 474.10 L 273.30 472.80 L 266.80 471.30 L 262.80 469.90 L 257.20 467.20 L 255.50 465.80 L 253.90 463.30 L 253.70 462.10 L 253.90 460.90 L 255.50 458.40 L 259.60 455.60 L 266.80 452.90 L 273.30 451.40 L 281.20 450.10 L 289.40 449.40 L 298.70 449.10 L 307.90 449.40 L 316.20 450.10 L 324.10 451.40 L 330.50 452.90 L 334.60 454.30 L 340.10 457.00 L 342.90 459.60 L 343.70 462.10 Z" fill="#d1d6e2" fill-rule="nonzero" id="椭圆形" node-id="72" stroke="none" target-height="26" target-width="90.000015" target-x="253.7" target-y="449.1"></path><path d="M 285.60 464.60 L 299.20 464.40 L 303.40 464.10 L 307.00 463.50 L 312.40 461.70 L 316.00 459.20 L 318.40 455.70 L 319.80 450.60 L 320.00 447.30 L 319.70 442.80 L 318.70 438.70 L 317.20 434.70 L 315.20 431.00 L 312.60 427.60 L 309.60 424.50 L 306.20 421.70 L 302.50 419.40 L 298.30 417.50 L 294.00 416.20 L 289.40 415.30 L 284.50 415.00 L 279.60 415.30 L 275.00 416.20 L 270.70 417.50 L 266.50 419.40 L 262.80 421.70 L 259.40 424.50 L 256.40 427.60 L 253.80 431.00 L 251.80 434.70 L 250.30 438.70 L 249.30 442.80 L 249.00 447.30 L 249.20 450.60 L 249.80 453.40 L 250.80 455.60 L 252.00 457.50 L 253.50 459.20 L 257.50 461.70 L 263.30 463.50 L 267.20 464.10 L 271.60 464.40 L 285.60 464.60 Z" fill="url(#linearGradient-9)" fill-rule="nonzero" id="椭圆形" node-id="73" stroke="none" target-height="49.600006" target-width="71" target-x="249" target-y="415"></path><path d="M 324.80 465.00 L 333.30 464.90 L 337.00 464.50 L 340.10 463.80 L 341.90 463.00 L 343.40 461.90 L 344.60 460.60 L 345.40 459.00 L 346.00 456.90 L 346.20 454.20 L 346.00 451.40 L 344.50 446.40 L 343.20 444.00 L 341.00 441.20 L 338.40 438.80 L 335.30 436.80 L 331.90 435.40 L 328.20 434.40 L 324.10 434.10 L 320.10 434.40 L 316.40 435.40 L 312.90 436.80 L 309.80 438.80 L 307.20 441.20 L 305.00 444.00 L 303.70 446.40 L 302.20 451.40 L 302.00 454.20 L 302.20 456.90 L 302.90 459.00 L 303.80 460.60 L 305.20 461.90 L 306.80 463.00 L 308.80 463.80 L 312.10 464.50 L 316.10 464.90 L 324.80 465.00 Z" fill="url(#linearGradient-10)" fill-rule="nonzero" id="椭圆形备份-6" node-id="74" stroke="none" target-height="30.899994" target-width="44.200012" target-x="302" target-y="434.1"></path><path d="M 219.20 243.00 L 374.90 251.20 L 392.00 272.90 L 372.80 292.70 L 217.00 284.50 L 236.30 264.70 Z" fill="url(#linearGradient-11)" fill-rule="nonzero" id="矩形" node-id="75" stroke="none" target-height="49.700012" target-width="175" target-x="217" target-y="243"></path><g node-id="219"><path d="M 275.30 262.00 L 276.60 262.20 L 278.70 263.60 L 279.90 265.80 L 280.00 267.20 L 279.80 268.60 L 278.40 270.70 L 276.10 271.80 L 274.80 271.90 L 273.40 271.70 L 271.30 270.30 L 270.20 268.10 L 270.00 266.70 L 270.30 265.30 L 271.70 263.20 L 273.90 262.10 L 275.30 262.00 Z M 305.30 263.00 L 306.60 263.30 L 308.70 264.70 L 309.90 266.90 L 310.00 268.30 L 309.20 270.70 L 307.30 272.40 L 306.10 272.90 L 304.70 273.00 L 302.30 272.20 L 300.60 270.30 L 300.00 267.70 L 300.30 266.40 L 301.70 264.30 L 303.90 263.10 L 305.30 263.00 Z M 335.20 264.10 L 336.60 264.30 L 338.70 265.70 L 339.80 267.90 L 340.00 269.30 L 339.70 270.70 L 338.30 272.80 L 336.10 273.90 L 334.70 274.00 L 333.40 273.80 L 331.30 272.40 L 330.10 270.20 L 330.00 268.80 L 330.20 267.40 L 331.60 265.30 L 333.90 264.20 L 335.20 264.10 Z" fill="#ffffff" fill-rule="evenodd" group-id="4" id="形状结合" node-id="76" stroke="none" target-height="12" target-width="70" target-x="270" target-y="262"></path></g><g node-id="220"><path d="M 365.40 304.90 L 249.00 304.90 L 235.50 320.40 L 249.00 336.00 L 365.40 336.00 L 351.90 320.40 Z" fill="url(#linearGradient-12)" fill-rule="nonzero" group-id="5" id="矩形备份-10" node-id="77" stroke="none" target-height="31.100006" target-width="129.9" target-x="235.5" target-y="304.9"></path></g><g node-id="221"><path d="M 227.20 350.30 L 343.20 340.10 L 358.00 354.40 L 345.90 371.10 L 229.90 381.20 L 242.10 364.60 Z" fill="url(#linearGradient-13)" fill-rule="nonzero" group-id="6" id="矩形备份-11" node-id="78" stroke="none" target-height="41.100006" target-width="130.8" target-x="227.2" target-y="340.1"></path></g><g node-id="222"><g node-id="223"><path d="M 473.60 246.40 L 465.60 249.00 L 458.20 250.80 L 451.30 252.00 L 444.80 252.60 L 438.80 252.70 L 433.10 252.20 L 427.80 251.30 L 422.70 249.80 L 417.90 247.90 L 415.10 246.20 L 412.80 244.20 L 411.10 241.90 L 409.70 239.30 L 408.80 236.70 L 408.30 234.10 L 408.30 231.50 L 408.80 229.10 L 409.60 227.00 L 410.90 225.20 L 412.60 223.90 L 414.90 223.00 L 418.00 222.60 L 421.00 222.80 L 423.70 223.70 L 426.20 225.00 L 428.50 227.00 L 430.60 229.50 L 432.30 232.40 L 433.70 235.80 L 434.90 239.90 L 435.70 244.10 L 436.00 248.50 L 435.90 253.00 L 435.40 257.60 L 434.50 261.90 L 433.30 266.10 L 431.60 270.10 L 429.60 273.60 L 427.20 276.60" fill="none" group-id="7,8" id="路径-20" node-id="80" stroke="url(#linearGradient-14)" stroke-linecap="round" stroke-width="2" target-height="54" target-width="65.30002" target-x="408.3" target-y="222.6"></path></g><g node-id="224"><path d="M 413.90 288.40 L 411.50 286.80 L 409.20 285.80 L 407.10 285.50 L 405.00 285.70 L 403.00 286.40 L 400.80 287.70 L 398.60 289.80 L 396.20 292.80 L 392.50 299.90 L 391.10 302.00 L 388.50 304.10 L 386.80 304.80 L 393.20 305.10 L 398.40 304.80 L 402.60 304.00 L 405.90 302.80 L 408.60 301.40 L 410.60 299.50 L 412.10 297.40 L 413.20 294.90 L 413.80 291.90 L 413.90 288.40 Z" fill="url(#linearGradient2)" fill-rule="nonzero" group-id="7,9" id="路径-18" node-id="81" stroke="none" target-height="19.600006" target-width="27.100006" target-x="386.8" target-y="285.5"></path></g><g node-id="225"><path d="M 420.20 281.90 L 419.60 283.40 L 418.30 285.20 L 416.10 287.50 L 412.70 290.30 L 407.70 293.60 L 400.70 297.80" fill="none" group-id="7,10" id="路径-19" node-id="82" stroke="url(#linearGradient3)" stroke-linecap="round" stroke-width="1" target-height="15.899994" target-width="19.5" target-x="400.7" target-y="281.9"></path></g><g node-id="226"><path d="M 205.30 421.60 L 203.40 419.40 L 201.50 417.90 L 199.50 417.00 L 197.50 416.60 L 195.30 416.70 L 192.90 417.40 L 190.10 418.80 L 187.00 421.00 L 181.50 426.80 L 179.50 428.40 L 176.50 429.70 L 174.70 429.90 L 180.80 431.90 L 185.90 433.10 L 190.10 433.50 L 193.60 433.30 L 196.50 432.60 L 199.00 431.40 L 201.10 429.80 L 202.80 427.70 L 204.20 425.00 L 205.30 421.60 Z" fill="url(#linearGradient-15)" fill-rule="nonzero" group-id="7,11" id="路径-18备份" node-id="83" stroke="none" target-height="16.899994" target-width="30.600006" target-x="174.7" target-y="416.6"></path></g><g node-id="227"><path d="M 213.10 417.10 L 212.10 418.40 L 210.40 419.80 L 207.70 421.40 L 203.60 423.10 L 197.80 425.00 L 189.90 427.00" fill="none" group-id="7,12" id="路径-19备份" node-id="84" stroke="url(#linearGradient-16)" stroke-linecap="round" stroke-width="1" target-height="9.899994" target-width="23.200012" target-x="189.9" target-y="417.1"></path></g><path d="M 220.00 392.10 L 212.60 397.40 L 206.00 401.70 L 199.90 405.10 L 194.40 407.70 L 189.40 409.60 L 184.80 410.90" fill="none" group-id="7,13" id="路径-22" node-id="85" stroke="url(#linearGradient-17)" stroke-linecap="round" stroke-width="2" target-height="18.799988" target-width="35.199997" target-x="184.8" target-y="392.1"></path></g></svg>