<?xml version="1.0" encoding="UTF-8"?>
<svg width="1440px" height="1024px" viewBox="0 0 1440 1024" version="1.1" xmlns="http://www.w3.org/2000/svg" xmlns:xlink="http://www.w3.org/1999/xlink">
    <title>BG-9</title>
    <g id="BG-9" stroke="none" stroke-width="1" fill="none" fill-rule="evenodd">
        <rect fill="#FAFEFF" x="0" y="0" width="1440" height="1024"></rect>
        <g id="Website_BG" transform="translate(599.000000, 183.000000)" fill="#CDE2FF" fill-rule="nonzero">
            <path d="M52,4 C25.490332,4 4,25.490332 4,52 L4,388 C4,414.509668 25.490332,436 52,436 L563,436 C589.509668,436 611,414.509668 611,388 L611,52 C611,25.490332 589.509668,4 563,4 L52,4 Z M52,0 L563,0 C591.718807,0 615,23.281193 615,52 L615,388 C615,416.718807 591.718807,440 563,440 L52,440 C23.281193,440 0,416.718807 0,388 L0,52 C0,23.281193 23.281193,0 52,0 Z" id="Shape"></path>
            <path d="M52,2 L563,2 C590.614237,2 613,24.3857625 613,52 L613,57 L2,57 L2,52 C2,24.3857625 24.3857625,2 52,2 Z" id="Shape"></path>
        </g>
        <g id="Website_BG" transform="translate(209.000000, 343.000000)" fill="#CDE2FF" fill-rule="nonzero">
            <path d="M52,4 C25.490332,4 4,25.490332 4,52 L4,388 C4,414.509668 25.490332,436 52,436 L563,436 C589.509668,436 611,414.509668 611,388 L611,52 C611,25.490332 589.509668,4 563,4 L52,4 Z M52,0 L563,0 C591.718807,0 615,23.281193 615,52 L615,388 C615,416.718807 591.718807,440 563,440 L52,440 C23.281193,440 0,416.718807 0,388 L0,52 C0,23.281193 23.281193,0 52,0 Z" id="Shape"></path>
            <path d="M52,2 L563,2 C590.614237,2 613,24.3857625 613,52 L613,57 L2,57 L2,52 C2,24.3857625 24.3857625,2 52,2 Z" id="Shape"></path>
        </g>
        <g id="Website_BG" transform="translate(693.000000, 386.000000)">
            <path d="M50,0 L561,0 C588.614237,0 611,22.3857625 611,50 L611,386 C611,413.614237 588.614237,436 561,436 L50,436 C22.3857625,436 0,413.614237 0,386 L0,50 C0,22.3857625 22.3857625,0 50,0 Z" id="Shape" fill="#F0F6FF"></path>
            <path d="M50,0 L561,0 C588.614237,0 611,22.3857625 611,50 L611,55 L0,55 L0,50 C0,22.3857625 22.3857625,0 50,0 Z" id="Shape" fill="#CDE2FF" fill-rule="nonzero"></path>
            <path d="M175,20 L266,20 C285.329966,20 301,35.6700338 301,55 L140,55 C140,35.6700338 155.670034,20 175,20 Z" id="Shape" fill="#F0F6FF"></path>
            <path d="M171,34 L252,34 C254.761424,34 257,36.2385763 257,39 C257,41.7614237 254.761424,44 252,44 L171,44 C168.238576,44 166,41.7614237 166,39 C166,36.2385763 168.238576,34 171,34 Z" id="Shape" fill="#CDE2FF" fill-rule="nonzero"></path>
            <path d="M60,185 L191,185 C193.761424,185 196,187.238576 196,190 C196,192.761424 193.761424,195 191,195 L60,195 C57.2385763,195 55,192.761424 55,190 C55,187.238576 57.2385763,185 60,185 Z" id="Shape" fill="#CDE2FF" fill-rule="nonzero"></path>
            <path d="M60,213 L251,213 C253.761424,213 256,215.238576 256,218 C256,220.761424 253.761424,223 251,223 L60,223 C57.2385763,223 55,220.761424 55,218 C55,215.238576 57.2385763,213 60,213 Z" id="Shape" fill="#CDE2FF" fill-rule="nonzero"></path>
            <path d="M60,241 L251,241 C253.761424,241 256,243.238576 256,246 C256,248.761424 253.761424,251 251,251 L60,251 C57.2385763,251 55,248.761424 55,246 C55,243.238576 57.2385763,241 60,241 Z" id="Shape" fill="#CDE2FF" fill-rule="nonzero"></path>
            <path d="M90.5,320 L221.5,320 C234.478692,320 245,330.521308 245,343.5 C245,356.478692 234.478692,367 221.5,367 L90.5,367 C77.5213084,367 67,356.478692 67,343.5 C67,330.521308 77.5213084,320 90.5,320 Z" id="Shape" fill="#CDE2FF" fill-rule="nonzero"></path>
            <circle id="Shape" fill="#FAFEFF" fill-rule="nonzero" cx="53.5" cy="28.5" r="15.5"></circle>
            <circle id="Shape" fill="#FAFEFF" fill-rule="nonzero" cx="98.5" cy="28.5" r="15.5"></circle>
        </g>
        <g id="Website_BG" transform="translate(136.000000, 111.000000)">
            <path d="M50,0 L561,0 C588.614237,0 611,22.3857625 611,50 L611,386 C611,413.614237 588.614237,436 561,436 L50,436 C22.3857625,436 0,413.614237 0,386 L0,50 C0,22.3857625 22.3857625,0 50,0 Z" id="Shape" fill="#F0F6FF"></path>
            <path d="M492,119.008682 L464.58608,134.895802 C451.871534,112.790515 423.711805,105.216684 401.689564,117.979178 C379.667324,130.741671 372.121948,159.007592 384.836494,181.11288 L357.422574,197 C335.966777,159.697328 348.6996,111.998586 385.86213,90.461878 C423.02466,68.9251701 470.544203,81.7060095 492,119.008682 Z" id="Shape" fill="#CDE2FF"></path>
            <path d="M353,222.991318 L487.577426,145 C509.033223,182.302672 496.3004,230.001414 459.13787,251.538122 C421.97534,273.07483 374.455797,260.29399 353,222.991318 Z" id="Shape" fill="#CDE2FF"></path>
            <circle id="Shape" fill="#CDE2FF" cx="534.5" cy="146.5" r="26.5"></circle>
            <path d="M50,0 L561,0 C588.614237,0 611,22.3857625 611,50 L611,55 L0,55 L0,50 C0,22.3857625 22.3857625,0 50,0 Z" id="Shape" fill="#CDE2FF" fill-rule="nonzero"></path>
            <path d="M175,20 L266,20 C285.329966,20 301,35.6700338 301,55 L140,55 C140,35.6700338 155.670034,20 175,20 Z" id="Shape" fill="#F0F6FF"></path>
            <path d="M171,34 L252,34 C254.761424,34 257,36.2385763 257,39 C257,41.7614237 254.761424,44 252,44 L171,44 C168.238576,44 166,41.7614237 166,39 C166,36.2385763 168.238576,34 171,34 Z" id="Shape" fill="#CDE2FF" fill-rule="nonzero"></path>
            <path d="M60,185 L191,185 C193.761424,185 196,187.238576 196,190 C196,192.761424 193.761424,195 191,195 L60,195 C57.2385763,195 55,192.761424 55,190 C55,187.238576 57.2385763,185 60,185 Z" id="Shape" fill="#CDE2FF" fill-rule="nonzero"></path>
            <path d="M105,88 L156,88 C161.522847,88 166,92.4771525 166,98 C166,103.522847 161.522847,108 156,108 L105,108 C99.4771525,108 95,103.522847 95,98 C95,92.4771525 99.4771525,88 105,88 Z" id="Shape" fill="#CDE2FF" fill-rule="nonzero"></path>
            <path d="M60,213 L251,213 C253.761424,213 256,215.238576 256,218 C256,220.761424 253.761424,223 251,223 L60,223 C57.2385763,223 55,220.761424 55,218 C55,215.238576 57.2385763,213 60,213 Z" id="Shape" fill="#CDE2FF" fill-rule="nonzero"></path>
            <path d="M60,241 L251,241 C253.761424,241 256,243.238576 256,246 C256,248.761424 253.761424,251 251,251 L60,251 C57.2385763,251 55,248.761424 55,246 C55,243.238576 57.2385763,241 60,241 Z" id="Shape" fill="#CDE2FF" fill-rule="nonzero"></path>
            <path d="M90.5,320 L221.5,320 C234.478692,320 245,330.521308 245,343.5 C245,356.478692 234.478692,367 221.5,367 L90.5,367 C77.5213084,367 67,356.478692 67,343.5 C67,330.521308 77.5213084,320 90.5,320 Z" id="Shape" fill="#CDE2FF" fill-rule="nonzero"></path>
            <circle id="Shape" fill="#CDE2FF" fill-rule="nonzero" cx="69.5" cy="97.5" r="18.5"></circle>
            <circle id="Shape" fill="#FAFEFF" fill-rule="nonzero" cx="53.5" cy="28.5" r="15.5"></circle>
            <circle id="Shape" fill="#FAFEFF" fill-rule="nonzero" cx="98.5" cy="28.5" r="15.5"></circle>
        </g>
    </g>
</svg>