<svg xmlns:xlink="http://www.w3.org/1999/xlink" xmlns="http://www.w3.org/2000/svg" version="1.1" viewBox="0 0 1241 770" height="770px" width="1241px">
    <title>界面</title>
    <defs>
        <polygon points="0.50708 0.3339 386.78878 0.3339 386.78878 44.62255 0.50708 44.62255" id="path-1"></polygon>
        <polygon points="0 769.3 1239.9695 769.3 1239.9695 0.3339 0 0.3339" id="path-3"></polygon>
    </defs>
    <g fill-rule="evenodd" fill="none" stroke-width="1" stroke="none" id="Page-1">
        <g transform="translate(-6456.000000, -324.000000)" id="背景">
            <g transform="translate(6456.000000, 324.364000)" id="界面">
                <path fill="#C3E4FF" id="Fill-1" d="M1172.39185,546.28497 L883.10005,546.28497 C875.57715,546.28497 869.42135,540.12987 869.42135,532.60627 L869.42135,331.13647 C869.42135,323.61287 875.57715,317.45707 883.10005,317.45707 L1172.39185,317.45707 C1179.91545,317.45707 1186.07055,323.61287 1186.07055,331.13647 L1186.07055,532.60627 C1186.07055,540.12987 1179.91545,546.28497 1172.39185,546.28497"></path>
                <path fill="#E8F6FF" id="Fill-3" d="M1186.07055,331.13269 L1186.07055,361.74369 L869.42135,361.74369 L869.42135,331.13269 C869.42135,323.61469 874.46555,317.45469 880.63325,317.45469 L1174.85795,317.45469 C1181.02705,317.45469 1186.07055,323.61469 1186.07055,331.13269"></path>
                <path fill="#C3E4FF" id="Fill-5" d="M905.76976,340.77274 C905.76976,346.60164 901.04476,351.32664 895.21656,351.32664 C889.38766,351.32664 884.66266,346.60164 884.66266,340.77274 C884.66266,334.94384 889.38766,330.21884 895.21656,330.21884 C901.04476,330.21884 905.76976,334.94384 905.76976,340.77274"></path>
                <path fill="#C3E4FF" id="Fill-7" d="M939.85171,340.77274 C939.85171,346.60164 935.12671,351.32664 929.29781,351.32664 C923.46961,351.32664 918.74461,346.60164 918.74461,340.77274 C918.74461,334.94384 923.46961,330.21884 929.29781,330.21884 C935.12671,330.21884 939.85171,334.94384 939.85171,340.77274"></path>
                <path fill="#C3E4FF" id="Fill-9" d="M973.93359,340.77274 C973.93359,346.60164 969.20859,351.32664 963.37969,351.32664 C957.55149,351.32664 952.82579,346.60164 952.82579,340.77274 C952.82579,334.94384 957.55149,330.21884 963.37969,330.21884 C969.20859,330.21884 973.93359,334.94384 973.93359,340.77274"></path>
                <path fill="#D6EEFF" id="Fill-11" d="M1138.2791,487.64492 L848.9873,487.64492 C841.4637,487.64492 835.3086,481.48982 835.3086,473.96622 L835.3086,272.49642 C835.3086,264.97282 841.4637,258.81772 848.9873,258.81772 L1138.2791,258.81772 C1145.8027,258.81772 1151.9578,264.97282 1151.9578,272.49642 L1151.9578,473.96622 C1151.9578,481.48982 1145.8027,487.64492 1138.2791,487.64492"></path>
                <path fill="#E8F6FF" id="Fill-13" d="M1151.95787,272.49299 L1151.95787,303.10399 L835.30867,303.10399 L835.30867,272.49299 C835.30867,264.97499 840.35217,258.81499 846.52057,258.81499 L1140.74527,258.81499 C1146.91367,258.81499 1151.95787,264.97499 1151.95787,272.49299"></path>
                <path fill="#C3E4FF" id="Fill-15" d="M871.65708,282.13304 C871.65708,287.96194 866.93208,292.68694 861.10318,292.68694 C855.27498,292.68694 850.54998,287.96194 850.54998,282.13304 C850.54998,276.30414 855.27498,271.57914 861.10318,271.57914 C866.93208,271.57914 871.65708,276.30414 871.65708,282.13304"></path>
                <path fill="#C3E4FF" id="Fill-17" d="M905.73896,282.13304 C905.73896,287.96194 901.01396,292.68694 895.18506,292.68694 C889.35686,292.68694 884.63116,287.96194 884.63116,282.13304 C884.63116,276.30414 889.35686,271.57914 895.18506,271.57914 C901.01396,271.57914 905.73896,276.30414 905.73896,282.13304"></path>
                <path fill="#C3E4FF" id="Fill-19" d="M939.82091,282.13304 C939.82091,287.96194 935.09591,292.68694 929.26701,292.68694 C923.43811,292.68694 918.71311,287.96194 918.71311,282.13304 C918.71311,276.30414 923.43811,271.57914 929.26701,271.57914 C935.09591,271.57914 939.82091,276.30414 939.82091,282.13304"></path>
                <path fill="#C3E4FF" id="Fill-21" d="M414.42548,532.42301 L55.50118,532.42301 C47.97828,532.42301 41.82318,526.26791 41.82318,518.74501 L41.82318,191.47051 C41.82318,183.94761 47.97828,177.79181 55.50118,177.79181 L414.42548,177.79181 C421.94908,177.79181 428.10418,183.94761 428.10418,191.47051 L428.10418,518.74501 C428.10418,526.26791 421.94908,532.42301 414.42548,532.42301"></path>
                <path fill="#E8F6FF" id="Fill-23" d="M428.10418,191.46729 L428.10418,222.07829 L41.82318,222.07829 L41.82318,191.46729 C41.82318,183.94929 47.97618,177.78929 55.50118,177.78929 L414.42618,177.78929 C421.95118,177.78929 428.10418,183.94929 428.10418,191.46729"></path>
                <path fill="#C3E4FF" id="Fill-25" d="M78.17187,201.10734 C78.17187,206.93624 73.44687,211.66124 67.61797,211.66124 C61.78907,211.66124 57.06407,206.93624 57.06407,201.10734 C57.06407,195.27844 61.78907,190.55344 67.61797,190.55344 C73.44687,190.55344 78.17187,195.27844 78.17187,201.10734"></path>
                <path fill="#C3E4FF" id="Fill-27" d="M112.25382,201.10734 C112.25382,206.93624 107.52882,211.66124 101.69992,211.66124 C95.87102,211.66124 91.14602,206.93624 91.14602,201.10734 C91.14602,195.27844 95.87102,190.55344 101.69992,190.55344 C107.52882,190.55344 112.25382,195.27844 112.25382,201.10734"></path>
                <path fill="#C3E4FF" id="Fill-29" d="M146.33542,201.10734 C146.33542,206.93624 141.61042,211.66124 135.78152,211.66124 C129.95332,211.66124 125.22762,206.93624 125.22762,201.10734 C125.22762,195.27844 129.95332,190.55344 135.78152,190.55344 C141.61042,190.55344 146.33542,195.27844 146.33542,201.10734"></path>
                <path fill="#D6EEFF" id="Fill-31" d="M456.6408,605.65442 L97.7172,605.65442 C90.1936,605.65442 84.0385,599.49862 84.0385,591.97572 L84.0385,264.70122 C84.0385,257.17832 90.1936,251.02252 97.7172,251.02252 L456.6408,251.02252 C464.1644,251.02252 470.3195,257.17832 470.3195,264.70122 L470.3195,591.97572 C470.3195,599.49862 464.1644,605.65442 456.6408,605.65442"></path>
                <path fill="#E8F6FF" id="Fill-33" d="M470.3195,264.698 L470.3195,295.309 L84.0385,295.309 L84.0385,264.698 C84.0385,257.18 90.1915,251.02 97.7165,251.02 L456.6415,251.02 C464.1665,251.02 470.3195,257.18 470.3195,264.698"></path>
                <path fill="#C3E4FF" id="Fill-35" d="M120.38719,274.33798 C120.38719,280.16688 115.66219,284.89188 109.83329,284.89188 C104.00509,284.89188 99.27939,280.16688 99.27939,274.33798 C99.27939,268.50908 104.00509,263.78408 109.83329,263.78408 C115.66219,263.78408 120.38719,268.50908 120.38719,274.33798"></path>
                <path fill="#C3E4FF" id="Fill-37" d="M154.46914,274.33798 C154.46914,280.16688 149.74414,284.89188 143.91524,284.89188 C138.08634,284.89188 133.36134,280.16688 133.36134,274.33798 C133.36134,268.50908 138.08634,263.78408 143.91524,263.78408 C149.74414,263.78408 154.46914,268.50908 154.46914,274.33798"></path>
                <path fill="#C3E4FF" id="Fill-39" d="M188.55074,274.33798 C188.55074,280.16688 183.82574,284.89188 177.99684,284.89188 C172.16864,284.89188 167.44294,280.16688 167.44294,274.33798 C167.44294,268.50908 172.16864,263.78408 177.99684,263.78408 C183.82574,263.78408 188.55074,268.50908 188.55074,274.33798"></path>
                <path fill="#C3E4FF" id="Fill-41" d="M725.91008,355.2451 L366.98578,355.2451 C359.46288,355.2451 353.30708,349.09 353.30708,341.5664 L353.30708,14.2919 C353.30708,6.769 359.46288,0.6139 366.98578,0.6139 L725.91008,0.6139 C733.43298,0.6139 739.58878,6.769 739.58878,14.2919 L739.58878,341.5664 C739.58878,349.09 733.43298,355.2451 725.91008,355.2451"></path>
                <g transform="translate(352.800000, 0.000000)" id="Group-45">
                    <mask fill="white" id="mask-2">
                        <use xlink:href="#path-1"></use>
                    </mask>
                    <g id="Clip-44"></g>
                    <path mask="url(#mask-2)" fill="#E8F6FF" id="Fill-43" d="M386.78878,14.01155 L386.78878,44.62255 L0.50708,44.62255 L0.50708,14.01155 C0.50708,6.49355 6.66008,0.33355 14.18508,0.33355 L373.11078,0.33355 C380.63578,0.33355 386.78878,6.49355 386.78878,14.01155"></path>
                </g>
                <path fill="#C3E4FF" id="Fill-46" d="M389.32047,23.6516 C389.32047,29.4805 384.59547,34.2055 378.76657,34.2055 C372.93767,34.2055 368.21267,29.4805 368.21267,23.6516 C368.21267,17.8227 372.93767,13.0977 378.76657,13.0977 C384.59547,13.0977 389.32047,17.8227 389.32047,23.6516"></path>
                <path fill="#C3E4FF" id="Fill-48" d="M423.40207,23.6516 C423.40207,29.4805 418.67707,34.2055 412.84817,34.2055 C407.01927,34.2055 402.29427,29.4805 402.29427,23.6516 C402.29427,17.8227 407.01927,13.0977 412.84817,13.0977 C418.67707,13.0977 423.40207,17.8227 423.40207,23.6516"></path>
                <path fill="#C3E4FF" id="Fill-50" d="M457.48402,23.6516 C457.48402,29.4805 452.75902,34.2055 446.93012,34.2055 C441.10122,34.2055 436.37622,29.4805 436.37622,23.6516 C436.37622,17.8227 441.10122,13.0977 446.93012,13.0977 C452.75902,13.0977 457.48402,17.8227 457.48402,23.6516"></path>
                <path fill="#C3E4FF" id="Fill-52" d="M1104.16642,429.00522 L814.87462,429.00522 C807.35102,429.00522 801.19592,422.85012 801.19592,415.32652 L801.19592,213.85672 C801.19592,206.33312 807.35102,200.17732 814.87462,200.17732 L1104.16642,200.17732 C1111.68932,200.17732 1117.84512,206.33312 1117.84512,213.85672 L1117.84512,415.32652 C1117.84512,422.85012 1111.68932,429.00522 1104.16642,429.00522"></path>
                <path fill="#E8F6FF" id="Fill-54" d="M1117.84512,213.85294 L1117.84512,244.46394 L801.19592,244.46394 L801.19592,213.85294 C801.19592,206.33494 806.23942,200.17494 812.40782,200.17494 L1106.63252,200.17494 C1112.80092,200.17494 1117.84512,206.33494 1117.84512,213.85294"></path>
                <path fill="#C3E4FF" id="Fill-56" d="M837.54433,223.49299 C837.54433,229.32189 832.81933,234.04689 826.99043,234.04689 C821.16223,234.04689 816.43653,229.32189 816.43653,223.49299 C816.43653,217.66409 821.16223,212.93909 826.99043,212.93909 C832.81933,212.93909 837.54433,217.66409 837.54433,223.49299"></path>
                <path fill="#C3E4FF" id="Fill-58" d="M871.62628,223.49299 C871.62628,229.32189 866.90128,234.04689 861.07238,234.04689 C855.24348,234.04689 850.51848,229.32189 850.51848,223.49299 C850.51848,217.66409 855.24348,212.93909 861.07238,212.93909 C866.90128,212.93909 871.62628,217.66409 871.62628,223.49299"></path>
                <path fill="#C3E4FF" id="Fill-60" d="M905.70753,223.49299 C905.70753,229.32189 900.98253,234.04689 895.15433,234.04689 C889.32543,234.04689 884.60043,229.32189 884.60043,223.49299 C884.60043,217.66409 889.32543,212.93909 895.15433,212.93909 C900.98253,212.93909 905.70753,217.66409 905.70753,223.49299"></path>
                <mask fill="white" id="mask-4">
                    <use xlink:href="#path-3"></use>
                </mask>
                <g id="Clip-63"></g>
                <polygon points="514.8878 415.1889 599.1314 415.1889 599.1314 399.1428 514.8878 399.1428" mask="url(#mask-4)" fill="#C3E4FF" id="Fill-62"></polygon>
                <polygon points="514.8878 439.0421 754.8198 439.0421 754.8198 431.5367 514.8878 431.5367" mask="url(#mask-4)" fill="#D6EEFF" id="Fill-64"></polygon>
                <polygon points="514.8878 482.4491 762.8425 482.4491 762.8425 474.9437 514.8878 474.9437" mask="url(#mask-4)" fill="#D6EEFF" id="Fill-65"></polygon>
                <polygon points="514.8878 504.1533 773.3495 504.1533 773.3495 496.6472 514.8878 496.6472" mask="url(#mask-4)" fill="#D6EEFF" id="Fill-66"></polygon>
                <polygon points="514.8878 525.8561 671.9132 525.8561 671.9132 518.35 514.8878 518.35" mask="url(#mask-4)" fill="#D6EEFF" id="Fill-67"></polygon>
                <polygon points="514.8878 460.7456 773.3495 460.7456 773.3495 453.2402 514.8878 453.2402" mask="url(#mask-4)" fill="#D6EEFF" id="Fill-68"></polygon>
                <polygon points="57.0647 39.2301 132.2188 39.2301 132.2188 23.184 57.0647 23.184" mask="url(#mask-4)" fill="#C3E4FF" id="Fill-69"></polygon>
                <polygon points="57.064 63.0826 271.1086 63.0826 271.1086 55.5772 57.064 55.5772" mask="url(#mask-4)" fill="#D6EEFF" id="Fill-70"></polygon>
                <polygon points="57.064 106.4896 278.2661 106.4896 278.2661 98.9842 57.064 98.9842" mask="url(#mask-4)" fill="#D6EEFF" id="Fill-71"></polygon>
                <polygon points="57.0647 128.1938 220.0093 128.1938 220.0093 120.6884 57.0647 120.6884" mask="url(#mask-4)" fill="#D6EEFF" id="Fill-72"></polygon>
                <polygon points="57.064 84.7861 287.6391 84.7861 287.6391 77.2807 57.064 77.2807" mask="url(#mask-4)" fill="#D6EEFF" id="Fill-73"></polygon>
                <polygon points="976.5777 64.4098 1109.3915 64.4098 1109.3915 41.9125 976.5777 41.9125" mask="url(#mask-4)" fill="#C3E4FF" id="Fill-74"></polygon>
                <polygon points="976.5777 94.6477 1144.7569 94.6477 1144.7569 84.8736 976.5777 84.8736" mask="url(#mask-4)" fill="#D6EEFF" id="Fill-75"></polygon>
                <polygon points="976.5777 117.1464 1109.3915 117.1464 1109.3915 107.3723 976.5777 107.3723" mask="url(#mask-4)" fill="#D6EEFF" id="Fill-76"></polygon>
                <path mask="url(#mask-4)" fill="#D6EEFF" id="Fill-77" d="M939.07583,83.36552 C939.07583,103.29382 930.97473,121.33212 917.88963,134.36332 C904.87383,147.33362 886.91183,155.35072 867.09063,155.35072 C847.26943,155.35072 829.31443,147.34132 816.29863,134.36332 C803.20583,121.33982 795.10543,103.30152 795.10543,83.36552 C795.10543,43.60832 827.33343,11.38032 867.09063,11.38032 C906.84783,11.38032 939.07583,43.60832 939.07583,83.36552"></path>
                <path mask="url(#mask-4)" fill="#E8F6FF" id="Fill-78" d="M922.69485,83.36552 C922.69485,98.75922 916.43755,112.69272 906.33025,122.75872 C896.27615,132.77782 882.40075,138.97072 867.09035,138.97072 C851.77925,138.97072 837.91085,132.78342 827.85675,122.75872 C817.74315,112.69832 811.48585,98.76482 811.48585,83.36552 C811.48585,52.65512 836.37995,27.76102 867.09035,27.76102 C897.80075,27.76102 922.69485,52.65512 922.69485,83.36552"></path>
                <path mask="url(#mask-4)" fill="#C3E4FF" id="Fill-79" d="M888.58007,70.81711 C888.58007,82.68561 878.95927,92.30711 867.09077,92.30711 C855.22227,92.30711 845.60077,82.68561 845.60077,70.81711 C845.60077,58.94861 855.22227,49.32711 867.09077,49.32711 C878.95927,49.32711 888.58007,58.94861 888.58007,70.81711"></path>
                <path mask="url(#mask-4)" fill="#C3E4FF" id="Fill-80" d="M906.32759,122.75858 C896.27349,132.77768 882.39809,138.97058 867.08699,138.97058 C851.77589,138.97058 837.90749,132.78328 827.85409,122.75858 C832.31589,105.25228 848.19119,92.30718 867.08699,92.30718 C885.98909,92.30718 901.86509,105.25228 906.32759,122.75858"></path>
                <g mask="url(#mask-4)" id="Group-83">
                    <g transform="translate(7.000000, 651.000000)">
                        <line fill-rule="evenodd" fill="#E8F6FF" stroke="none" id="Fill-81" y2="0.96446" x2="-0.00035" y1="0.96446" x1="1225.96915"></line>
                        <line stroke-linecap="round" fill="none" stroke-width="14" stroke="#D6EEFF" id="Stroke-82" y2="0.96446" x2="-0.00035" y1="0.96446" x1="1225.96915"></line>
                    </g>
                </g>
            </g>
        </g>
    </g>
</svg>