<?xml version="1.0" standalone="no"?><!DOCTYPE svg PUBLIC "-//W3C//DTD SVG 1.1//EN" "http://www.w3.org/Graphics/SVG/1.1/DTD/svg11.dtd"><svg data-v-70b83f88="" version="1.0" xmlns="http://www.w3.org/2000/svg" xmlns:xlink="http://www.w3.org/1999/xlink" width="100%" height="100%" viewBox="0 0 340.000000 250.000000" preserveAspectRatio="xMidYMid meet" color-interpolation-filters="sRGB" style="margin: auto;"> <rect data-v-70b83f88="" x="0" y="0" width="100%" height="100%" fill="#ffffff" fill-opacity="0" class="background"></rect> <rect data-v-70b83f88="" x="0" y="0" width="100%" height="100%" fill="url(#watermark)" fill-opacity="1" class="watermarklayer"></rect> <g data-v-70b83f88="" fill="#4a93fa" class="icon-text-wrapper icon-svg-group iconsvg" transform="translate(82.77000427246094,65.47688293457031)"><g class="iconsvg-imagesvg" transform="matrix(1,0,0,1,57.229990005493164,0)" opacity="1"><g><rect fill="#4a93fa" fill-opacity="0" stroke-width="2" x="0" y="0" width="60" height="60.37310579380572" class="image-rect"></rect> <svg filter="url(#colors1936488358)" x="0" y="0" width="60" height="60.37310579380572" filtersec="colorsf9241396761" class="image-svg-svg primary" style="overflow: visible;"><svg fill="#000000" xmlns="http://www.w3.org/2000/svg" xmlns:xlink="http://www.w3.org/1999/xlink" version="1.1" x="0px" y="0px" viewBox="6.755739688873291 5.683207988739014 39.998050689697266 40.24671936035156" enable-background="new 0 0 50 50" xml:space="preserve"><path d="M18.872,23.461l-2.78,19.689c-0.064,0.457-0.417,0.819-0.872,0.895c-0.455,0.076-0.907-0.151-1.116-0.562L7.042,29.633  c-0.194-0.381-0.292-0.804-0.286-1.231L7.04,9.513c0.005-0.356,0.232-0.67,0.568-0.788s0.709-0.012,0.935,0.264l9.548,11.677  C18.73,21.448,19.014,22.461,18.872,23.461z M18.572,19.985c0.678,0.829,1.749,1.231,2.804,1.053l23.733-3.991  c0.317-0.053,0.569-0.294,0.638-0.607c0.068-0.314-0.062-0.637-0.327-0.817L31.237,6.021c-0.348-0.236-0.763-0.354-1.184-0.336  L9.541,6.555C9.183,6.57,8.864,6.787,8.717,7.113C8.571,7.44,8.622,7.822,8.849,8.1L18.572,19.985z M46.542,18.161  c-0.219-0.272-0.567-0.405-0.912-0.347l-23.14,3.892c-1.509,0.254-2.679,1.456-2.894,2.97l-2.756,19.49  c-0.076,0.537,0.135,1.075,0.556,1.418c0.421,0.342,0.992,0.438,1.502,0.254l19.234-6.948c0.413-0.149,0.743-0.467,0.908-0.875  l7.644-18.888C46.814,18.802,46.76,18.433,46.542,18.161z"></path></svg></svg> <defs><filter id="colors1936488358"><feColorMatrix type="matrix" values="0 0 0 0 0.07421875  0 0 0 0 0.46875  0 0 0 0 0.75  0 0 0 1 0" class="icon-fecolormatrix"></feColorMatrix></filter> <filter id="colorsf9241396761"><feColorMatrix type="matrix" values="0 0 0 0 0.99609375  0 0 0 0 0.99609375  0 0 0 0 0.99609375  0 0 0 1 0" class="icon-fecolormatrix"></feColorMatrix></filter> <filter id="colorsb5846115607"><feColorMatrix type="matrix" values="0 0 0 0 0  0 0 0 0 0  0 0 0 0 0  0 0 0 1 0" class="icon-fecolormatrix"></feColorMatrix></filter></defs></g></g> <g transform="translate(0,67.37310409545898)"><g data-gra="path-name" fill-rule="" class="tp-name iconsvg-namesvg" transform="matrix(1,0,0,1,0,0)" opacity="1"><g transform="scale(1)"><g><path d="M17.67 0.43Q10.69 0.43 7.08-3.18 3.47-6.79 3.47-13.72L3.47-13.72 3.47-31.1Q3.47-32.5 4.28-33.34 5.1-34.18 6.5-34.18L6.5-34.18Q7.9-34.18 8.71-33.34 9.53-32.5 9.53-31.1L9.53-31.1 9.53-13.38Q9.53-9 11.6-6.76 13.67-4.53 17.67-4.53L17.67-4.53Q21.62-4.53 23.69-6.79 25.76-9.05 25.76-13.38L25.76-13.38 25.76-31.1Q25.76-32.5 26.57-33.34 27.39-34.18 28.79-34.18L28.79-34.18Q30.18-34.18 31-33.34 31.82-32.5 31.82-31.1L31.82-31.1 31.82-13.72Q31.82-6.84 28.21-3.2 24.6 0.43 17.67 0.43L17.67 0.43ZM42.03 0.29Q40.63 0.29 39.79-0.58 38.95-1.44 38.95-2.84L38.95-2.84 38.95-31.1Q38.95-32.5 39.79-33.34 40.63-34.18 42.03-34.18L42.03-34.18Q43.47-34.18 44.31-33.34 45.16-32.5 45.16-31.1L45.16-31.1 45.16-2.84Q45.16-1.44 44.31-0.58 43.47 0.29 42.03 0.29L42.03 0.29ZM67.59 0.43Q62.63 0.43 59-1.68 55.36-3.8 53.39-7.75 51.41-11.7 51.41-16.99L51.41-16.99Q51.41-22.29 53.36-26.21 55.31-30.14 58.97-32.25 62.63-34.37 67.59-34.37L67.59-34.37Q72.55-34.37 76.18-32.25 79.82-30.14 81.77-26.21 83.72-22.29 83.72-16.99L83.72-16.99Q83.72-11.7 81.74-7.75 79.77-3.8 76.14-1.68 72.5 0.43 67.59 0.43L67.59 0.43ZM67.59-4.53Q72.26-4.53 74.88-7.75 77.51-10.98 77.51-16.99L77.51-16.99Q77.51-23.01 74.88-26.21 72.26-29.41 67.59-29.41L67.59-29.41Q62.87-29.41 60.25-26.21 57.63-23.01 57.63-16.99L57.63-16.99Q57.63-10.98 60.25-7.75 62.87-4.53 67.59-4.53L67.59-4.53ZM99.07 0.24Q97.63 0.24 96.79-0.6 95.95-1.44 95.95-2.84L95.95-2.84 95.95-28.84 87.18-28.84Q84.3-28.84 84.3-31.39L84.3-31.39Q84.3-33.94 87.18-33.94L87.18-33.94 110.92-33.94Q113.81-33.94 113.81-31.39L113.81-31.39Q113.81-28.84 110.92-28.84L110.92-28.84 102.16-28.84 102.16-2.84Q102.16-1.44 101.31-0.6 100.47 0.24 99.07 0.24L99.07 0.24ZM130.56 0.43Q125.6 0.43 121.97-1.68 118.33-3.8 116.36-7.75 114.38-11.7 114.38-16.99L114.38-16.99Q114.38-22.29 116.33-26.21 118.28-30.14 121.94-32.25 125.6-34.37 130.56-34.37L130.56-34.37Q135.52-34.37 139.15-32.25 142.79-30.14 144.74-26.21 146.69-22.29 146.69-16.99L146.69-16.99Q146.69-11.7 144.71-7.75 142.74-3.8 139.1-1.68 135.47 0.43 130.56 0.43L130.56 0.43ZM130.56-4.53Q135.23-4.53 137.85-7.75 140.48-10.98 140.48-16.99L140.48-16.99Q140.48-23.01 137.85-26.21 135.23-29.41 130.56-29.41L130.56-29.41Q125.84-29.41 123.22-26.21 120.59-23.01 120.59-16.99L120.59-16.99Q120.59-10.98 123.22-7.75 125.84-4.53 130.56-4.53L130.56-4.53ZM164.69 0.43Q160.98 0.43 157.69-0.55 154.39-1.54 152.32-3.23L152.32-3.23Q151.21-4.04 151.21-5.54L151.21-5.54Q151.21-6.55 151.81-7.29 152.42-8.04 153.23-8.04L153.23-8.04Q154.1-8.04 155.21-7.37L155.21-7.37Q157.28-5.87 159.54-5.2 161.8-4.53 164.55-4.53L164.55-4.53Q168.06-4.53 169.94-5.75 171.82-6.98 171.82-9.34L171.82-9.34Q171.82-11.17 170.06-12.16 168.3-13.14 164.21-14.06L164.21-14.06Q159.97-14.97 157.33-16.18 154.68-17.38 153.33-19.26 151.98-21.13 151.98-24.02L151.98-24.02Q151.98-27.01 153.67-29.37 155.35-31.73 158.36-33.05 161.37-34.37 165.12-34.37L165.12-34.37Q172.01-34.37 176.34-30.71L176.34-30.71Q176.97-30.18 177.23-29.68 177.5-29.17 177.5-28.4L177.5-28.4Q177.5-27.39 176.89-26.65 176.29-25.9 175.47-25.9L175.47-25.9Q174.99-25.9 174.58-26.04 174.17-26.19 173.5-26.57L173.5-26.57Q171.53-28.02 169.67-28.72 167.82-29.41 165.12-29.41L165.12-29.41Q161.85-29.41 159.95-28.09 158.05-26.77 158.05-24.41L158.05-24.41Q158.05-22.43 159.73-21.37 161.42-20.32 165.46-19.4L165.46-19.4Q169.75-18.44 172.42-17.26 175.09-16.08 176.51-14.25 177.93-12.42 177.93-9.68L177.93-9.68Q177.93-6.69 176.27-4.4 174.61-2.12 171.6-0.84 168.59 0.43 164.69 0.43L164.69 0.43Z" transform="translate(-3.4700000286102295, 34.369998931884766)"></path></g> <!----> <!----> <!----> <!----> <!----> <!----> <!----></g></g> <g data-gra="path-slogan" fill-rule="" class="tp-slogan iconsvg-slogansvg" fill="#4a93fa" transform="matrix(1,0,0,1,5,40.79999923706055)" opacity="1"><rect x="0" height="1" y="4.934999942779541" width="55.88999557495117"></rect> <rect height="1" y="4.934999942779541" width="55.88999557495117" x="108.56999588012695"></rect> <g transform="translate(58.88999557495117,0)"><g transform="scale(1)"><path d="M7.45-9.70L7.45-9.70Q8.39-9.56 8.67-9.33L8.67-9.33Q8.67-9.28 8.58-9.14L8.58-9.14Q8.16-8.72 7.69-7.92L7.69-7.92L9.19-7.92Q10.45-7.92 11.48-8.02L11.48-8.02L11.48-6.89Q10.97-6.98 9.19-6.98L9.19-6.98L2.63-6.98Q1.59-6.98 0.52-6.89L0.52-6.89L0.52-8.02Q1.83-7.92 2.58-7.92L2.58-7.92L4.17-7.92Q3.84-8.72 3.38-9.28L3.38-9.28L4.27-9.61Q4.73-9.05 5.20-8.30L5.20-8.30L4.31-7.92L6.70-7.92Q7.17-8.53 7.45-9.70ZM9.14-6.38L9.14-6.38Q10.36-6.38 10.41-6.23L10.41-6.23Q10.41-6.14 10.31-6L10.31-6Q10.17-5.72 10.17-5.39L10.17-5.39L10.17 0.19Q10.22 1.13 8.06 1.17L8.06 1.17Q8.06 0.61 7.64 0.05L7.64 0.05Q9.09 0.23 9.19-0.42L9.19-0.42L9.19-5.34Q9.19-5.77 9.14-6.38ZM6.98-5.81L6.98-5.81Q8.16-5.81 8.20-5.67L8.20-5.67Q8.20-5.58 8.16-5.39L8.16-5.39Q8.06-5.16 8.06-4.97L8.06-4.97L8.06-2.58Q8.06-1.45 8.11-0.94L8.11-0.94L6.98-0.94Q6.98-1.08 6.98-1.50L6.98-1.50Q7.03-2.20 7.03-2.63L7.03-2.63L7.03-5.11Q7.03-5.81 6.98-5.81ZM5.02-5.44L2.63-5.44L2.63-4.22L5.02-4.22L5.02-5.44ZM5.02-2.25L5.02-3.52L2.63-3.52L2.63-2.25L5.02-2.25ZM1.64-6.28L1.64-6.28Q2.30-6.19 2.72-6.23L2.72-6.23L4.92-6.23Q5.30-6.19 6-6.28L6-6.28Q5.86-5.86 5.91-5.58L5.91-5.58L5.91 0.05Q5.95 0.98 4.08 1.03L4.08 1.03Q4.08 0.38 3.61-0.05L3.61-0.05Q4.92 0.14 5.02-0.19L5.02-0.19L5.02-1.55L2.63-1.55L2.63-0.38Q2.63 0.42 2.77 0.98L2.77 0.98L1.59 0.98Q1.73 0.05 1.73-0.33L1.73-0.33L1.73-5.58Q1.73-5.86 1.64-6.28ZM19.36-9.47L19.36-9.47Q20.44-9.47 20.44-9.33L20.44-9.33Q20.44-9.28 20.44-9.19L20.44-9.19Q20.34-9 20.34-8.86L20.34-8.86L20.34-7.08L21.70-7.08L21.70-8.30Q21.70-8.77 21.66-8.91L21.66-8.91Q21.75-8.91 21.98-8.86L21.98-8.86Q22.78-8.86 22.73-8.72L22.73-8.72Q22.73-8.67 22.69-8.58L22.69-8.58Q22.59-8.39 22.59-7.97L22.59-7.97L22.59-7.41Q22.59-6.52 22.69-6.23L22.69-6.23Q21.70-6.33 20.63-6.33L20.63-6.33L18.94-6.33Q17.91-6.33 17.25-6.23L17.25-6.23Q17.34-6.75 17.34-7.59L17.34-7.59Q17.34-8.67 17.25-8.95L17.25-8.95Q18.28-8.95 18.33-8.81L18.33-8.81Q18.33-8.77 18.28-8.72L18.28-8.72Q18.23-8.53 18.23-8.34L18.23-8.34L18.23-7.08L19.45-7.08L19.45-8.67Q19.45-9.33 19.36-9.47ZM14.02-9L15-9.23Q15.23-8.81 15.66-7.55L15.66-7.55L14.58-7.27Q14.44-8.02 14.02-9L14.02-9ZM12.56-6.23L12.56-7.08Q12.66-7.08 13.03-7.08L13.03-7.08Q13.59-7.03 13.97-7.03L13.97-7.03L15.28-7.03Q16.31-7.08 16.83-7.13L16.83-7.13L16.83-6.23Q16.55-6.28 15.28-6.28L15.28-6.28L13.92-6.28Q12.94-6.28 12.56-6.23L12.56-6.23ZM15.47-5.77L15.47-5.77Q16.59-5.58 16.55-5.48L16.55-5.48Q16.55-5.44 16.50-5.34L16.50-5.34Q16.31-5.11 16.22-4.78L16.22-4.78Q15.84-2.95 15.47-1.59L15.47-1.59L16.59-1.83L16.55-1.03Q15.61-0.80 14.48-0.47L14.48-0.47Q13.13-0.05 12.80 0L12.80 0Q12.61-0.56 12.52-1.08L12.52-1.08L14.67-1.41Q15.28-3.89 15.47-5.77ZM13.27-5.44L14.16-5.53Q14.44-4.17 14.58-2.39L14.58-2.39L13.64-2.30Q13.50-4.03 13.27-5.44L13.27-5.44ZM23.39-5.53L23.39-5.53L23.39-4.64Q22.59-4.73 21.47-4.73L21.47-4.73L20.25-4.73Q20.16-4.36 19.92-3.66L19.92-3.66L21.33-3.66Q22.27-3.66 22.97-3.66L22.97-3.66Q22.88-2.91 22.88-2.20L22.88-2.20L22.88 0.14Q23.06 0.80 21.42 0.94L21.42 0.94Q21.38 0.33 21.09-0.05L21.09-0.05Q22.13 0.05 22.08-0.42L22.08-0.42L22.08-2.91L21-2.91L21-1.03Q21-0.56 21.05-0.14L21.05-0.14L20.20-0.14Q20.30-0.42 20.30-1.03L20.30-1.03L20.30-2.91L19.41-2.91L19.41-1.13Q19.41-0.14 19.45-0.09L19.45-0.09L18.61-0.09Q18.70-0.23 18.70-1.17L18.70-1.17L18.70-2.91L17.86-2.91L17.86-0.33Q17.86 0.70 17.91 0.75L17.91 0.75L16.97 0.75Q17.06 0.47 17.06-0.33L17.06-0.33L17.06-2.25Q17.06-3 16.97-3.70L16.97-3.70Q17.16-3.66 19.08-3.66L19.08-3.66Q19.17-3.84 19.27-4.50L19.27-4.50Q19.31-4.69 19.31-4.73L19.31-4.73L18.42-4.73Q18.05-4.73 17.44-4.69L17.44-4.69Q17.06-4.69 16.88-4.69L16.88-4.69L16.88-5.53Q17.48-5.48 18.47-5.48L18.47-5.48L21.47-5.48Q23.02-5.48 23.39-5.53ZM29.30-9.61L29.30-9.61Q30.70-9.61 30.70-9.42L30.70-9.42Q30.70-9.33 30.61-9.19L30.61-9.19Q30.38-8.77 30.38-8.06L30.38-8.06L30.38-6.42L32.58-6.42Q34.27-6.42 34.83-6.52L34.83-6.52L34.83-5.34Q34.17-5.44 32.58-5.44L32.58-5.44L30.56-5.44Q31.41-1.13 35.39-0.23L35.39-0.23Q34.73 0.05 34.17 0.89L34.17 0.89Q30.61-1.03 30.05-4.22L30.05-4.22Q29.63-0.66 25.55 1.08L25.55 1.08Q25.17 0.56 24.38 0.09L24.38 0.09Q28.83-0.98 29.34-5.44L29.34-5.44L26.81-5.44Q25.45-5.44 24.94-5.34L24.94-5.34L24.94-6.52Q25.50-6.42 26.86-6.42L26.86-6.42L29.39-6.42L29.39-8.44Q29.39-9.05 29.30-9.52L29.30-9.52Q29.30-9.56 29.30-9.61ZM39.14-9.61L39.14-9.61Q40.31-9.52 40.45-9.38L40.45-9.38Q40.45-9.33 40.41-9.23L40.41-9.23Q40.31-9 40.27-8.72L40.27-8.72Q40.17-8.11 40.17-6.05L40.17-6.05Q40.13-3.28 39.98-2.16L39.98-2.16Q39.66-0.28 37.45 1.17L37.45 1.17Q37.08 0.70 36.33 0.38L36.33 0.38Q38.77-0.33 39.09-2.67L39.09-2.67Q39.19-3.70 39.23-6.23L39.23-6.23Q39.23-8.67 39.14-9.61ZM40.92-8.02L40.92-9.05Q41.91-8.95 42.70-8.95L42.70-8.95L45.23-8.95Q46.31-8.95 47.20-9.05L47.20-9.05L47.20-8.02Q46.50-8.11 45.23-8.11L45.23-8.11L44.30-8.11L44.30-6.42L44.86-6.42Q46.03-6.42 46.78-6.56L46.78-6.56Q46.73-5.77 46.69-4.69L46.69-4.69L46.69-1.45Q46.59-0.70 44.95-0.52L44.95-0.52Q44.86-1.08 44.44-1.73L44.44-1.73Q45.66-1.59 45.75-2.20L45.75-2.20L45.75-5.58L44.30-5.58L44.30-1.17Q44.30-0.09 44.39 0.94L44.39 0.94L43.22 0.94Q43.31 0.33 43.31-1.17L43.31-1.17L43.31-5.58L42.05-5.58L42.05-2.63Q42.09-1.13 42.14-0.61L42.14-0.61L40.97-0.61Q41.06-1.13 41.06-2.67L41.06-2.67L41.06-4.83Q41.06-6.28 41.02-6.52L41.02-6.52Q42.19-6.42 42.84-6.42L42.84-6.42L43.31-6.42L43.31-8.11L42.70-8.11Q41.81-8.11 40.92-8.02L40.92-8.02ZM36.98-8.39L36.98-8.39Q38.30-8.39 38.30-8.20L38.30-8.20Q38.30-8.16 38.25-8.02L38.25-8.02Q38.06-7.64 38.06-7.22L38.06-7.22L38.06-3.70Q38.06-2.67 38.16-1.78L38.16-1.78L36.94-1.78Q36.98-2.16 37.03-3.66L37.03-3.66L37.03-7.64Q37.03-8.02 36.98-8.39Z" transform="translate(-0.515625, 9.703125)"></path></g></g></g></g></g><defs v-gra="od"></defs></svg>