<?xml version="1.0" standalone="no"?><!DOCTYPE svg PUBLIC "-//W3C//DTD SVG 1.1//EN" "http://www.w3.org/Graphics/SVG/1.1/DTD/svg11.dtd"><svg t="1715228254150" class="icon" viewBox="0 0 1024 1024" version="1.1" xmlns="http://www.w3.org/2000/svg" p-id="1208" id="mx_n_1715228254154" xmlns:xlink="http://www.w3.org/1999/xlink" width="200" height="200"><path d="M99.58015625 147.39411458c0-1.22878125 0.46846875-2.456625 1.40540625-3.39459375 0.937875-0.9369375 2.16571875-1.40540625 3.39459375-1.40540625h30.36768c1.22878125 0 2.456625 0.46846875 3.39459375 1.40540625 0.9369375 0.937875 1.40540625 2.16571875 1.40540625 3.39459375v741.26784h807.88128c1.22784375 0 2.4575625 0.46846875 3.3935625 1.4064375 0.937875 0.9369375 1.4064375 2.16571875 1.4064375 3.3935625v30.36768c0 1.22784375-0.46846875 2.4575625-1.4064375 3.3935625-0.9369375 0.937875-2.16571875 1.4064375-3.3935625 1.4064375H99.58016V147.39413333z" p-id="1209"></path><path d="M192.34898634 303.23937256c0-3.03668118 1.15801907-6.0734396 3.47575665-8.38947774 2.31688786-2.31688786 5.35356904-3.47575664 8.38947772-3.47575664H312.21393233c3.03668118 0 6.0734396 1.15801907 8.38947773 3.47575664 2.31688786 2.31688786 3.47575664 5.35356904 3.47575664 8.38947773v558.96486329H192.34896162V303.23938801z" p-id="1210"></path><path d="M586.35308197 467.90194351c0-3.03668118 1.15801907-6.0734396 3.47575664-8.38947773 2.31688786-2.31688786 5.35356904-3.47575664 8.38947773-3.47575665h107.99973633c3.03668118 0 6.0734396 1.15801907 8.38947773 3.47575665 2.31688786 2.31688786 3.47575664 5.35356904 3.47575664 8.38947773v394.3030957H586.35306961V467.9019466z" p-id="1211"></path><path d="M348.10204064 617.84741718c0-3.23912659 1.23612671-6.47833557 3.70747376-8.94877625s5.71047364-3.70747375 8.94877624-3.70747375h115.19971875c3.23912659 0 6.47833557 1.23612671 8.94877625 3.70747375s3.70747375 5.71047364 3.70747375 8.94877625v244.9490625H348.10202087V617.84742707z" p-id="1212"></path><path d="M745.67490069 797.2278579c0-3.03668118 1.15886879-6.0734396 3.47575665-8.38947774s5.35356904-3.47575664 8.38947773-3.47575664h107.99973632c3.03668118 0 6.0734396 1.15886879 8.38947773 3.47575664s3.47575664 5.35356904 3.47575665 8.38947774v64.97797851H745.67486979V797.2278548z" p-id="1213"></path></svg>