<?xml version="1.0" standalone="no"?><!DOCTYPE svg PUBLIC "-//W3C//DTD SVG 1.1//EN" "http://www.w3.org/Graphics/SVG/1.1/DTD/svg11.dtd"><svg height="1024" node-id="1" sillyvg="true" template-height="1024" template-width="1024" version="1.1" viewBox="0 0 1024 1024" width="1024" xmlns="http://www.w3.org/2000/svg" xmlns:xlink="http://www.w3.org/1999/xlink"><defs node-id="70"><linearGradient gradientUnits="objectBoundingBox" id="linearGradient1" node-id="72" spreadMethod="pad" x1="0.92518216" x2="0.40792233" y1="0.98800004" y2="1"><stop offset="0" stop-color="#e0e5ef" stop-opacity="0"></stop><stop offset="1" stop-color="#e0e5ef"></stop></linearGradient><linearGradient gradientUnits="objectBoundingBox" id="linearGradient-1" node-id="5" spreadMethod="pad" x1="0.92518216" x2="0.40792233" y1="0.98800004" y2="1"><stop offset="0" stop-color="#e0e5ef" stop-opacity="0"></stop><stop offset="1" stop-color="#e0e5ef"></stop></linearGradient><linearGradient gradientUnits="objectBoundingBox" id="linearGradient-2" node-id="8" spreadMethod="pad" x1="0.92039144" x2="0.4089598" y1="0.98800004" y2="1"><stop offset="0" stop-color="#e0e5ef" stop-opacity="0"></stop><stop offset="1" stop-color="#e0e5ef"></stop></linearGradient><linearGradient gradientUnits="objectBoundingBox" id="linearGradient-3" node-id="11" spreadMethod="pad" x1="0.7962005" x2="0.30298018" y1="0.4093955" y2="-0.085258625"><stop offset="0" stop-color="#a2abb9"></stop><stop offset="1" stop-color="#e7eaf0"></stop></linearGradient><linearGradient gradientUnits="objectBoundingBox" id="linearGradient-4" node-id="14" spreadMethod="pad" x1="1.1246362" x2="0.116000555" y1="0.5915278" y2="0.39270723"><stop offset="0" stop-color="#a2abb9"></stop><stop offset="0.9999999" stop-color="#e7eaf0"></stop><stop offset="1" stop-color="#e7eaf0"></stop></linearGradient><linearGradient gradientUnits="objectBoundingBox" id="linearGradient-5" node-id="18" spreadMethod="pad" x1="0.5" x2="0.5" y1="1" y2="0"><stop offset="0" stop-color="#e8ebf1" stop-opacity="0.23774004"></stop><stop offset="1" stop-color="#a2abb9"></stop></linearGradient></defs><g node-id="201"><g node-id="202"><path d="M 506.20 95.00 L 520.40 95.20 L 534.30 95.90 L 548.10 97.10 L 561.70 98.60 L 575.20 100.60 L 588.60 103.10 L 601.90 106.00 L 614.90 109.20 L 627.80 112.90 L 640.50 116.90 L 653.10 121.40 L 665.40 126.30 L 677.50 131.50 L 689.50 137.00 L 701.20 143.00 L 712.70 149.30 L 724.00 156.00 L 735.00 162.90 L 745.80 170.20 L 756.30 177.90 L 717.40 177.90 L 715.10 178.10 L 712.90 178.70 L 710.90 179.60 L 707.50 182.50 L 705.30 186.30 L 704.70 188.50 L 704.40 190.90 L 704.40 214.60 L 704.70 217.00 L 705.30 219.10 L 706.20 221.20 L 707.50 223.00 L 710.90 225.80 L 712.90 226.80 L 715.10 227.40 L 717.40 227.60 L 811.60 227.60 L 820.90 238.00 L 829.80 248.60 L 838.40 259.60 L 846.60 270.80 L 854.40 282.40 L 905.70 282.40 L 908.20 282.60 L 910.60 283.30 L 912.80 284.30 L 914.70 285.70 L 916.40 287.40 L 917.80 289.30 L 918.80 291.50 L 919.50 293.90 L 919.70 296.40 L 919.70 321.40 L 919.40 324.30 L 918.60 327.00 L 917.20 329.30 L 915.50 331.40 L 913.40 333.10 L 910.90 334.40 L 851.20 334.40 L 848.30 334.70 L 845.60 335.40 L 843.10 336.60 L 840.90 338.20 L 839.00 340.10 L 837.40 342.30 L 836.20 344.80 L 835.50 347.50 L 835.20 350.40 L 835.20 386.60 L 835.50 389.50 L 836.20 392.10 L 837.40 394.60 L 839.00 396.90 L 840.90 398.80 L 843.10 400.40 L 845.60 401.50 L 848.30 402.30 L 851.20 402.60 L 1001.20 402.50 L 1005.10 404.50 L 1008.30 407.40 L 1009.60 409.20 L 1011.40 413.20 L 1012.00 417.70 L 1012.00 446.20 L 1011.70 449.20 L 1011.00 451.80 L 1009.80 454.30 L 1008.20 456.60 L 1006.30 458.50 L 1004.10 460.10 L 1001.60 461.20 L 998.90 462.00 L 996.00 462.20 L 917.70 462.20 L 918.80 475.30 L 919.50 488.60 L 919.70 502.00 L 919.40 516.10 L 918.70 530.10 L 917.50 543.80 L 915.90 557.40 L 913.80 570.80 L 911.30 584.00 L 908.30 597.30 L 904.90 610.30 L 901.10 623.10 L 896.90 635.70 L 892.20 648.20 L 887.20 660.40 L 880.60 674.90 L 873.50 689.10 L 865.90 702.90 L 857.80 716.40 L 849.10 729.60 L 839.90 742.40 L 830.30 754.80 L 820.20 766.90 L 809.60 778.50 L 798.60 789.80 L 787.10 800.60 L 775.30 811.00 L 763.10 820.90 L 750.50 830.40 L 737.40 839.50 L 724.00 848.00 L 710.30 856.00 L 696.30 863.50 L 681.90 870.50 L 667.20 877.00 L 652.20 882.90 L 637.00 888.20 L 621.50 893.00 L 605.70 897.10 L 589.60 900.70 L 576.10 903.20 L 562.50 905.30 L 548.70 906.90 L 534.70 908.00 L 520.60 908.70 L 506.20 909.00 L 490.50 908.70 L 475.00 907.90 L 459.80 906.50 L 444.70 904.50 L 429.90 902.10 L 415.00 899.10 L 400.40 895.50 L 386.10 891.60 L 372.00 887.10 L 358.10 882.10 L 344.40 876.60 L 331.00 870.70 L 317.80 864.40 L 305.00 857.60 L 292.40 850.40 L 280.00 842.70 L 267.90 834.60 L 256.20 826.20 L 244.80 817.40 L 233.80 808.10 L 223.00 798.50 L 212.60 788.50 L 202.60 778.20 L 192.90 767.60 L 183.60 756.60 L 174.70 745.30 L 166.20 733.70 L 158.20 721.80 L 150.50 709.60 L 143.30 697.00 L 136.50 684.30 L 130.10 671.30 L 124.30 658.00 L 118.80 644.50 L 113.90 630.70 L 93.50 630.70 L 91.70 630.50 L 90.20 629.80 L 88.90 628.80 L 87.90 627.50 L 87.20 626.00 L 87.00 624.20 L 87.00 614.50 L 87.20 612.70 L 87.90 611.20 L 89.00 609.80 L 90.40 608.80 L 124.20 608.80 L 126.60 608.60 L 130.80 607.00 L 134.20 604.20 L 136.40 600.40 L 137.00 598.20 L 137.20 595.80 L 137.20 572.10 L 137.00 569.70 L 136.40 567.50 L 134.20 563.70 L 130.80 560.90 L 128.80 559.90 L 126.60 559.30 L 124.20 559.10 L 45.60 558.60 L 43.80 558.10 L 40.70 556.30 L 38.40 553.60 L 37.20 550.20 L 37.20 529.50 L 38.40 526.10 L 40.70 523.40 L 42.20 522.40 L 45.60 521.10 L 47.50 520.90 L 93.20 520.90 L 92.80 502.00 L 93.10 487.00 L 93.90 472.10 L 95.20 457.50 L 97.10 443.00 L 99.50 428.60 L 102.40 414.40 L 105.70 400.40 L 109.60 386.70 L 114.00 373.00 L 118.80 359.60 L 124.00 346.40 L 129.70 333.50 L 40.00 333.50 L 36.20 333.30 L 32.50 332.50 L 29.10 331.30 L 25.90 329.70 L 22.90 327.70 L 20.20 325.30 L 17.80 322.60 L 15.80 319.70 L 14.20 316.40 L 13.00 313.00 L 12.30 309.40 L 12.00 305.50 L 12.00 255.50 L 12.20 251.80 L 12.90 248.40 L 14.00 245.10 L 15.50 242.00 L 17.30 239.10 L 19.50 236.50 L 22.00 234.10 L 24.70 232.10 L 27.70 230.40 L 30.90 229.00 L 34.20 228.10 L 37.80 227.60 L 301.70 227.60 L 305.40 226.90 L 307.00 226.20 L 309.70 223.90 L 311.50 220.80 L 312.00 219.00 L 312.00 199.30 L 311.50 197.60 L 309.70 194.50 L 307.00 192.20 L 305.40 191.40 L 301.70 190.80 L 239.80 190.80 L 241.10 189.60 L 198.30 189.70 L 194.80 189.30 L 191.70 188.50 L 188.70 187.10 L 186.10 185.20 L 183.80 182.90 L 181.90 180.20 L 180.50 177.30 L 179.60 174.10 L 179.30 170.70 L 179.30 136.70 L 179.60 133.20 L 180.50 130.10 L 181.90 127.10 L 183.80 124.50 L 186.10 122.20 L 188.70 120.30 L 191.70 118.90 L 194.80 118.00 L 198.30 117.70 L 369.70 117.70 L 382.60 113.50 L 395.60 109.70 L 408.90 106.30 L 422.40 103.40 L 436.10 100.80 L 449.70 98.80 L 463.60 97.10 L 477.60 96.00 L 491.80 95.20 L 506.20 95.00 Z" fill="#f3f3fa" fill-opacity="0.6015942" fill-rule="evenodd" group-id="1,2" id="背景" node-id="26" stroke="none" target-height="814" target-width="1000" target-x="12" target-y="95"></path></g><g node-id="203"><path d="M 290.10 677.70 L 291.90 685.10 L 291.60 688.00 L 290.80 690.70 L 289.50 693.10 L 287.70 695.20 L 285.60 696.90 L 283.20 698.20 L 277.20 698.50 L 248.90 698.80 L 249.20 737.80 L 250.50 759.80 L 227.30 759.80 L 228.10 743.40 L 228.20 701.70 L 226.30 703.10 L 224.30 703.90 L 222.10 704.10 L 220.30 704.00 L 217.30 702.80 L 215.50 701.30 L 214.00 699.30 L 195.70 698.30 L 193.10 697.50 L 190.80 696.30 L 188.70 694.80 L 186.80 692.90 L 185.30 690.80 L 184.20 688.40 L 183.50 685.90 L 183.40 681.40 L 188.00 670.40 L 188.30 668.10 L 190.00 663.80 L 191.90 660.90 L 194.30 658.50 L 219.70 611.50 L 222.00 607.80 L 224.50 604.60 L 227.10 601.80 L 229.30 600.10 L 231.80 598.80 L 234.70 598.00 L 237.90 597.80 L 240.80 598.00 L 243.50 598.50 L 246.00 599.50 L 250.50 602.50 L 253.90 606.50 L 275.60 648.80 L 278.20 649.90 L 280.60 651.40 L 282.70 653.30 L 284.70 655.50 L 286.20 658.10 L 287.30 660.70 L 288.00 663.60 L 288.20 666.70 L 287.40 672.20 L 290.10 677.70 Z" fill="url(#linearGradient1)" fill-rule="nonzero" group-id="1,3" id="路径" node-id="28" stroke="none" target-height="162" target-width="108.5" target-x="183.4" target-y="597.8"></path><path d="M 861.10 677.70 L 862.80 685.10 L 862.60 688.00 L 861.70 690.70 L 860.40 693.10 L 858.60 695.20 L 856.50 696.90 L 854.10 698.20 L 848.10 698.50 L 819.80 698.80 L 820.10 737.80 L 821.40 759.80 L 798.20 759.80 L 799.00 743.40 L 799.10 701.70 L 797.20 703.10 L 795.20 703.90 L 793.00 704.10 L 791.20 704.00 L 788.20 702.80 L 786.40 701.30 L 784.90 699.30 L 766.60 698.30 L 764.00 697.50 L 761.70 696.30 L 759.60 694.80 L 757.70 692.90 L 756.20 690.80 L 755.10 688.40 L 754.40 685.90 L 754.30 681.40 L 758.90 670.40 L 759.20 668.10 L 760.90 663.80 L 762.80 660.90 L 765.20 658.50 L 790.60 611.50 L 792.90 607.80 L 795.40 604.60 L 798.00 601.80 L 800.20 600.10 L 802.70 598.80 L 805.60 598.00 L 808.80 597.80 L 811.70 598.00 L 814.40 598.50 L 816.90 599.50 L 821.40 602.50 L 824.80 606.50 L 846.50 648.80 L 849.10 649.90 L 851.50 651.40 L 853.60 653.30 L 855.60 655.50 L 857.10 658.10 L 858.20 660.70 L 858.90 663.60 L 859.10 666.70 L 858.30 672.20 L 861.10 677.70 Z" fill="url(#linearGradient-1)" fill-rule="nonzero" group-id="1,3" id="路径" node-id="29" stroke="none" target-height="162" target-width="108.5" target-x="754.3" target-y="597.8"></path><path d="M 793.30 695.40 L 794.70 701.20 L 794.50 703.50 L 793.80 705.60 L 792.80 707.50 L 791.40 709.10 L 789.80 710.50 L 787.90 711.50 L 761.20 712.00 L 761.30 742.50 L 762.40 759.80 L 744.30 759.80 L 744.90 747.00 L 745.00 714.30 L 743.50 715.30 L 741.90 716.00 L 740.20 716.20 L 738.20 715.90 L 736.50 715.10 L 735.10 714.00 L 733.90 712.40 L 719.70 711.60 L 717.10 710.70 L 714.80 709.30 L 712.70 707.40 L 711.50 705.70 L 710.20 701.90 L 710.10 698.30 L 713.60 689.70 L 714.20 687.00 L 715.20 684.50 L 716.70 682.30 L 718.50 680.30 L 738.30 643.50 L 740.20 640.70 L 744.10 635.90 L 745.90 634.60 L 747.80 633.60 L 750.00 633.00 L 752.60 632.80 L 755.50 633.00 L 758.20 633.80 L 760.70 635.20 L 762.90 636.90 L 764.70 639.00 L 782.00 672.70 L 784.60 674.00 L 787.00 675.80 L 789.00 678.10 L 790.20 680.00 L 791.60 684.40 L 791.80 686.80 L 791.20 691.10 L 793.30 695.40 Z" fill="url(#linearGradient-2)" fill-rule="nonzero" group-id="1,3" id="路径" node-id="30" stroke="none" target-height="127" target-width="84.60004" target-x="710.1" target-y="632.8"></path></g><path d="M 482.50 717.50 L 510.90 717.70 L 564.90 719.10 L 591.50 720.40 L 641.20 723.90 L 665.50 726.20 L 709.70 731.50 L 731.10 734.60 L 750.60 737.90 L 768.50 741.40 L 782.50 741.80 L 795.70 742.70 L 808.30 744.00 L 820.80 745.90 L 832.30 748.20 L 842.80 750.80 L 850.70 753.10 L 857.80 755.60 L 870.00 760.90 L 875.70 764.10 L 880.50 767.30 L 884.50 770.50 L 887.80 773.70 L 890.10 776.60 L 891.90 779.60 L 893.10 782.50 L 893.90 785.40 L 894.10 788.40 L 893.90 791.30 L 893.10 794.20 L 891.90 797.10 L 890.20 800.00 L 887.90 802.90 L 884.70 806.10 L 880.80 809.30 L 876.00 812.50 L 870.40 815.60 L 858.50 820.90 L 843.70 825.70 L 833.30 828.30 L 822.00 830.60 L 809.70 832.50 L 784.70 839.10 L 770.20 842.30 L 770.70 848.20 L 770.40 852.60 L 769.50 856.90 L 768.00 861.20 L 765.80 865.40 L 763.00 869.80 L 759.80 873.60 L 756.10 877.50 L 751.80 881.40 L 746.80 885.20 L 741.10 889.10 L 734.00 893.30 L 726.00 897.50 L 717.00 901.60 L 707.10 905.50 L 697.30 909.00 L 686.70 912.20 L 675.30 915.30 L 663.10 918.20 L 638.40 922.80 L 611.20 926.40 L 597.40 927.60 L 568.60 929.10 L 553.40 929.30 L 535.40 929.00 L 518.00 928.20 L 501.20 926.90 L 484.50 925.10 L 468.60 922.90 L 453.60 920.20 L 438.70 917.00 L 424.80 913.50 L 412.10 909.80 L 393.60 903.10 L 378.10 896.10 L 370.60 892.10 L 364.10 888.00 L 358.30 883.90 L 353.20 879.80 L 349.30 876.10 L 346.00 872.40 L 343.10 868.70 L 340.80 865.10 L 339.00 861.40 L 292.20 857.10 L 249.30 851.80 L 229.50 848.80 L 211.20 845.60 L 192.90 841.90 L 176.60 838.20 L 162.00 834.40 L 141.10 828.00 L 124.80 821.60 L 117.00 817.90 L 110.50 814.20 L 105.40 810.70 L 101.20 807.40 L 98.10 804.10 L 95.80 801.00 L 94.20 798.00 L 93.30 795.00 L 93.00 792.10 L 93.30 789.30 L 94.10 786.60 L 95.40 783.80 L 97.30 781.00 L 99.90 778.00 L 103.30 775.00 L 112.10 768.90 L 124.70 762.60 L 132.60 759.30 L 142.10 755.80 L 152.80 752.30 L 164.90 748.90 L 178.60 745.40 L 196.60 741.40 L 216.60 737.60 L 238.90 733.90 L 261.20 730.70 L 285.30 727.70 L 311.20 725.00 L 337.20 722.80 L 364.50 721.00 L 393.20 719.40 L 422.00 718.40 L 451.70 717.70 L 482.50 717.50 Z" fill="#e7eaf0" fill-rule="evenodd" group-id="1" id="形状结合" node-id="31" stroke="none" target-height="211.79999" target-width="801.1" target-x="93" target-y="717.5"></path><g node-id="204"><g node-id="210"><path d="M 309.40 250.10 L 318.40 246.90 L 343.80 302.90 L 325.90 309.50 Z" fill="#bfc3c9" fill-rule="nonzero" group-id="1,4,10" id="路径" node-id="34" stroke="none" target-height="62.600006" target-width="34.399994" target-x="309.4" target-y="246.9"></path><path d="M 299.10 297.40 L 356.60 276.50 L 363.80 274.70 L 370.90 274.30 L 375.60 274.90 L 380.10 276.00 L 384.40 277.70 L 388.50 279.90 L 392.20 282.70 L 395.70 285.90 L 400.00 291.50 L 403.20 298.20 L 427.30 364.50 L 429.10 371.70 L 429.50 378.80 L 428.90 383.50 L 427.80 388.00 L 426.10 392.30 L 423.90 396.40 L 421.20 400.10 L 417.90 403.60 L 412.30 407.90 L 409.10 409.60 L 348.10 432.00 L 340.90 433.80 L 333.80 434.20 L 329.10 433.60 L 324.60 432.50 L 320.30 430.80 L 316.20 428.60 L 312.50 425.80 L 309.00 422.60 L 304.70 417.00 L 301.50 410.30 L 277.40 344.00 L 276.30 340.40 L 275.20 333.30 L 275.20 329.70 L 275.80 325.10 L 276.90 320.60 L 278.60 316.20 L 280.80 312.10 L 283.50 308.40 L 286.80 305.00 L 289.50 302.70 L 295.60 298.90 L 299.10 297.40 Z" fill="url(#linearGradient-3)" fill-rule="nonzero" group-id="1,4,10" id="矩形" node-id="35" stroke="none" target-height="159.90002" target-width="154.29999" target-x="275.2" target-y="274.3"></path><path d="M 497.70 326.70 L 498.80 330.70 L 499.30 334.80 L 499.20 339.20 L 498.40 343.70 L 497.20 348.10 L 495.40 352.70 L 492.90 357.50 L 489.90 362.50 L 486.50 367.10 L 478.10 376.80 L 473.00 381.80 L 466.00 388.10 L 458.00 394.40 L 449.00 400.80 L 439.80 406.70 L 429.80 412.60 L 418.90 418.30 L 407.90 423.60 L 396.20 428.60 L 383.80 433.40 L 371.30 437.70 L 359.10 441.30 L 347.30 444.40 L 335.30 447.00 L 323.80 448.90 L 312.90 450.30 L 302.00 451.20 L 291.80 451.50 L 282.40 451.20 L 275.20 450.60 L 262.60 448.60 L 257.00 447.20 L 251.50 445.40 L 246.50 443.30 L 242.20 440.90 L 238.40 438.40 L 234.90 435.40 L 232.10 432.10 L 229.80 428.60 L 228.00 424.80 L 226.90 420.80 L 226.40 416.60 L 226.50 412.30 L 227.30 407.70 L 228.50 403.30 L 230.30 398.80 L 232.80 394.00 L 235.80 389.00 L 243.10 379.60 L 247.60 374.70 L 252.70 369.60 L 259.70 363.40 L 267.70 357.10 L 276.70 350.70 L 285.90 344.70 L 295.90 338.90 L 306.80 333.20 L 317.80 327.90 L 329.50 322.80 L 341.90 318.00 L 354.40 313.80 L 366.60 310.10 L 378.40 307.10 L 390.40 304.50 L 401.90 302.50 L 412.80 301.20 L 423.70 300.30 L 433.90 300.00 L 443.30 300.20 L 450.50 300.80 L 463.10 302.80 L 468.70 304.20 L 474.20 306.10 L 479.20 308.20 L 483.50 310.50 L 487.30 313.10 L 490.80 316.10 L 493.60 319.40 L 495.90 322.90 L 497.70 326.70 Z" fill="#a2abb9" fill-rule="nonzero" group-id="1,4,10" id="椭圆形" node-id="36" stroke="none" target-height="151.5" target-width="272.9" target-x="226.4" target-y="300"></path><path d="M 497.70 334.00 L 498.80 338.00 L 499.30 342.20 L 499.20 346.50 L 498.40 351.10 L 497.20 355.50 L 495.40 360.10 L 492.90 364.80 L 489.90 369.80 L 486.50 374.50 L 478.10 384.10 L 473.00 389.20 L 466.00 395.40 L 458.00 401.80 L 449.00 408.10 L 439.80 414.10 L 429.80 419.90 L 418.90 425.70 L 407.90 431.00 L 396.20 436.00 L 383.80 440.80 L 371.30 445.10 L 359.10 448.70 L 347.30 451.80 L 335.30 454.30 L 323.80 456.30 L 312.90 457.70 L 302.00 458.50 L 291.80 458.80 L 282.40 458.60 L 275.20 458.00 L 262.60 456.00 L 257.00 454.60 L 251.50 452.70 L 246.50 450.60 L 242.20 448.30 L 238.40 445.70 L 234.90 442.70 L 232.10 439.50 L 229.80 436.00 L 228.00 432.20 L 226.90 428.10 L 226.40 424.00 L 226.50 419.70 L 227.30 415.10 L 228.50 410.70 L 230.30 406.10 L 232.80 401.40 L 235.80 396.40 L 239.20 391.70 L 247.60 382.00 L 252.70 377.00 L 259.70 370.80 L 267.70 364.40 L 276.70 358.10 L 285.90 352.10 L 295.90 346.30 L 306.80 340.50 L 317.80 335.20 L 329.50 330.20 L 341.90 325.40 L 354.40 321.10 L 366.60 317.50 L 378.40 314.40 L 390.40 311.90 L 401.90 309.90 L 412.80 308.50 L 423.70 307.70 L 433.90 307.40 L 443.30 307.60 L 450.50 308.20 L 463.10 310.20 L 468.70 311.60 L 474.20 313.50 L 479.20 315.60 L 483.50 317.90 L 487.30 320.40 L 490.80 323.50 L 493.60 326.70 L 495.90 330.20 L 497.70 334.00 Z" fill="url(#linearGradient-4)" fill-rule="nonzero" group-id="1,4,10" id="椭圆形备份" node-id="37" stroke="none" target-height="151.4" target-width="272.9" target-x="226.4" target-y="307.4"></path><path d="M 445.50 358.50 L 446.10 360.90 L 446.10 363.40 L 445.70 366.10 L 444.70 369.10 L 442.80 372.80 L 439.90 376.80 L 436.10 381.20 L 431.90 385.20 L 426.80 389.40 L 414.70 397.80 L 400.10 406.00 L 384.00 413.30 L 375.10 416.70 L 366.10 419.80 L 349.00 424.60 L 332.60 427.70 L 317.90 429.10 L 311.30 429.10 L 305.50 428.70 L 299.70 427.80 L 295.00 426.60 L 291.20 425.00 L 288.50 423.30 L 286.40 421.50 L 284.80 419.50 L 283.70 417.30 L 283.10 415.00 L 283.10 412.40 L 283.50 409.70 L 284.50 406.70 L 286.40 403.00 L 289.30 399.00 L 293.10 394.60 L 297.30 390.60 L 302.40 386.40 L 308.40 382.00 L 321.40 373.90 L 336.90 366.10 L 354.10 359.10 L 363.10 356.00 L 380.20 351.20 L 396.60 348.10 L 411.30 346.80 L 417.90 346.70 L 423.70 347.10 L 429.50 348.00 L 434.20 349.30 L 438.00 350.80 L 440.70 352.50 L 442.80 354.30 L 444.40 356.30 L 445.50 358.50 Z" fill="#a2abb9" fill-rule="nonzero" group-id="1,4,10" id="椭圆形" node-id="38" stroke="none" target-height="82.399994" target-width="163" target-x="283.1" target-y="346.7"></path><g node-id="222"><path d="M 282.00 412.50 L 443.70 353.70 L 775.50 758.30 L 299.90 850.20 Z" fill="url(#linearGradient-5)" fill-opacity="0.5" fill-rule="nonzero" group-id="1,4,10,22" id="路径" node-id="39" stroke="none" target-height="496.5" target-width="493.5" target-x="282" target-y="353.7"></path></g><path d="M 320.30 246.20 L 320.80 248.10 L 320.70 250.00 L 320.20 251.70 L 319.30 253.30 L 318.00 254.50 L 316.40 255.40 L 314.60 255.80 L 312.80 255.70 L 311.10 255.10 L 309.50 254.00 L 308.30 252.60 L 307.40 250.90 L 307.00 248.90 L 307.00 247.00 L 307.50 245.30 L 308.40 243.70 L 309.70 242.50 L 311.30 241.60 L 313.20 241.20 L 315.00 241.30 L 316.70 241.90 L 318.20 243.00 L 319.40 244.40 L 320.30 246.20 Z" fill="#a2abb9" fill-rule="nonzero" group-id="1,4,10" id="椭圆形" node-id="40" stroke="none" target-height="14.600006" target-width="13.799988" target-x="307" target-y="241.2"></path></g><path d="M 581.10 866.80 L 580.80 868.40 L 579.90 869.90 L 578.40 871.60 L 576.10 873.30 L 572.70 875.00 L 568.20 876.80 L 562.50 878.50 L 549.90 881.10 L 542.30 882.10 L 526.40 883.20 L 517.50 883.40 L 508.70 883.20 L 492.80 882.10 L 485.10 881.10 L 472.60 878.50 L 466.80 876.80 L 462.40 875.00 L 459.00 873.30 L 456.60 871.60 L 455.10 869.90 L 454.30 868.40 L 454.00 866.80 L 454.30 865.30 L 455.10 863.70 L 456.60 862.10 L 459.00 860.40 L 462.40 858.60 L 466.80 856.80 L 472.60 855.10 L 485.10 852.60 L 492.80 851.50 L 508.70 850.40 L 517.50 850.20 L 526.40 850.40 L 542.30 851.50 L 549.90 852.60 L 562.50 855.10 L 568.20 856.80 L 572.70 858.60 L 576.10 860.40 L 578.40 862.10 L 579.90 863.70 L 580.80 865.30 L 581.10 866.80 Z" fill="#d1d6e2" fill-rule="nonzero" group-id="1,4" id="椭圆形" node-id="41" stroke="none" target-height="33.200012" target-width="127.099976" target-x="454" target-y="850.2"></path><g node-id="211"><path d="M 533.80 305.10 L 532.30 301.40 L 530.50 298.10 L 526.00 292.30 L 522.40 288.90 L 518.40 286.10 L 514.10 283.70 L 509.50 281.70 L 504.80 280.20 L 499.90 279.20 L 495.00 278.70 L 490.10 278.60 L 485.20 279.10 L 488.90 277.10 L 492.90 275.30 L 497.30 273.80 L 501.70 272.80 L 506.20 272.10 L 510.70 271.90 L 515.20 272.10 L 519.50 272.90 L 523.50 274.10 L 526.40 275.50 L 529.10 277.10 L 531.50 279.10 L 533.80 281.60 L 536.00 279.20 L 538.40 277.30 L 541.10 275.60 L 544.00 274.30 L 548.10 273.10 L 552.40 272.30 L 556.90 272.10 L 561.40 272.30 L 565.90 272.90 L 570.30 274.00 L 574.70 275.40 L 578.60 277.20 L 582.30 279.20 L 577.50 278.80 L 572.60 278.80 L 567.60 279.40 L 562.70 280.40 L 558.00 281.90 L 553.50 283.90 L 549.10 286.30 L 545.20 289.10 L 541.60 292.50 L 537.10 298.20 L 533.80 305.10 Z" fill="#a2abb9" fill-opacity="0.65" fill-rule="nonzero" group-id="1,4,11" id="路径" node-id="42" stroke="none" target-height="33.200012" target-width="97.099976" target-x="485.2" target-y="271.9"></path></g><g node-id="212"><path d="M 565.20 245.90 L 564.00 243.10 L 562.50 240.60 L 560.70 238.40 L 556.20 234.70 L 553.70 233.30 L 548.20 231.30 L 545.30 230.70 L 542.40 230.40 L 536.70 230.60 L 540.00 228.90 L 543.80 227.50 L 547.70 226.70 L 551.70 226.40 L 554.30 226.50 L 559.20 227.70 L 561.50 228.80 L 563.50 230.20 L 565.30 232.10 L 567.00 230.30 L 569.00 228.90 L 571.30 227.80 L 576.20 226.60 L 578.90 226.50 L 582.80 226.80 L 586.80 227.60 L 590.50 228.90 L 593.80 230.70 L 588.10 230.50 L 585.20 230.80 L 582.30 231.40 L 576.90 233.40 L 574.30 234.80 L 569.90 238.50 L 568.00 240.70 L 566.50 243.10 L 565.20 245.90 Z" fill="#a2abb9" fill-opacity="0.65" fill-rule="nonzero" group-id="1,4,12" id="路径" node-id="43" stroke="none" target-height="19.5" target-width="57.099976" target-x="536.7" target-y="226.4"></path></g><g node-id="213"><path d="M 643.00 236.30 L 641.80 233.80 L 640.30 231.60 L 638.40 229.70 L 636.20 228.20 L 631.20 226.20 L 628.50 225.70 L 623.20 225.70 L 627.50 223.80 L 632.40 222.80 L 637.20 223.20 L 639.40 223.90 L 641.30 225.10 L 643.00 226.70 L 644.70 225.20 L 646.60 224.00 L 648.90 223.30 L 651.20 222.90 L 656.10 223.20 L 660.80 224.70 L 662.80 225.80 L 657.50 225.70 L 654.90 226.30 L 649.90 228.30 L 647.70 229.80 L 645.80 231.70 L 644.20 233.80 L 643.00 236.30 Z" fill="#909aa9" fill-opacity="0.35" fill-rule="nonzero" group-id="1,4,13" id="路径" node-id="44" stroke="none" target-height="13.5" target-width="39.599976" target-x="623.2" target-y="222.8"></path></g><g node-id="214"><path d="M 602.40 195.90 L 601.20 193.30 L 599.60 191.20 L 597.70 189.30 L 595.50 187.80 L 590.50 185.80 L 587.90 185.30 L 582.60 185.30 L 586.80 183.40 L 591.80 182.40 L 596.50 182.80 L 598.80 183.50 L 600.70 184.70 L 602.40 186.30 L 604.10 184.70 L 606.00 183.60 L 608.20 182.90 L 610.60 182.50 L 615.50 182.80 L 620.20 184.30 L 622.20 185.40 L 616.90 185.30 L 614.20 185.90 L 609.20 187.90 L 607.00 189.40 L 605.10 191.30 L 603.60 193.40 L 602.40 195.90 Z" fill="#909aa9" fill-opacity="0.35" fill-rule="nonzero" group-id="1,4,14" id="路径" node-id="45" stroke="none" target-height="13.5" target-width="39.600037" target-x="582.6" target-y="182.4"></path></g><path d="M 711.10 240.90 L 709.20 237.60 L 707.80 236.30 L 705.50 234.80 L 702.90 233.80 L 700.10 233.40 L 697.30 233.50 L 699.50 232.50 L 702.00 231.70 L 704.60 231.50 L 707.00 231.80 L 708.60 232.30 L 711.10 234.20 L 713.60 232.30 L 715.10 231.80 L 717.60 231.50 L 720.20 231.80 L 722.60 232.50 L 724.80 233.60 L 722.10 233.50 L 719.30 233.90 L 716.60 234.90 L 714.30 236.40 L 713.00 237.60 L 711.10 240.90 Z" fill="#909aa9" fill-opacity="0.35" fill-rule="nonzero" group-id="1,4,15" id="路径" node-id="46" stroke="none" target-height="9.399994" target-width="27.5" target-x="697.3" target-y="231.5"></path></g><g node-id="205"><path d="M 596.40 607.60 L 445.10 636.60 L 468.60 709.20 L 617.10 679.40 Z" fill="#a2abb9" fill-rule="nonzero" group-id="1,5" id="路径" node-id="48" stroke="none" target-height="101.60004" target-width="171.99997" target-x="445.1" target-y="607.6"></path><path d="M 337.10 698.20 L 445.00 636.90 L 471.50 718.50 L 363.50 779.60 Z" fill="#c0c7d2" fill-rule="nonzero" group-id="1,5" id="路径" node-id="49" stroke="none" target-height="142.69995" target-width="134.4" target-x="337.1" target-y="636.9"></path><path d="M 481.90 684.30 L 595.90 611.80 L 645.20 763.60 L 531.30 836.10 Z" fill="#a2abb9" fill-rule="nonzero" group-id="1,5" id="路径" node-id="50" stroke="none" target-height="224.29999" target-width="163.30002" target-x="481.9" target-y="611.8"></path><path d="M 339.80 699.80 L 483.50 683.20 L 532.30 836.10 L 388.30 849.40 Z" fill="#c0c7d2" fill-rule="nonzero" group-id="1,5" id="路径" node-id="51" stroke="none" target-height="166.20001" target-width="192.5" target-x="339.8" target-y="683.2"></path><path d="M 483.70 683.50 L 336.90 698.60 L 325.40 762.30 L 475.80 750.30 Z" fill="#d1d6e2" fill-rule="nonzero" group-id="1,5" id="路径" node-id="52" stroke="none" target-height="78.79999" target-width="158.30002" target-x="325.4" target-y="683.5"></path><path d="M 483.70 683.50 L 596.60 608.70 L 645.60 652.00 L 539.50 729.90 Z" fill="#c0c7d2" fill-rule="nonzero" group-id="1,5" id="路径" node-id="53" stroke="none" target-height="121.20001" target-width="161.89996" target-x="483.7" target-y="608.7"></path></g><g node-id="206"><g node-id="216"><path d="M 373.20 493.20 L 377.70 476.60 L 383.20 478.10 L 385.50 469.60 L 379.90 468.10 L 391.00 427.00 L 381.90 424.50 L 370.90 465.70 L 356.80 461.70 L 355.90 460.90 L 355.20 459.00 L 356.10 456.10 L 371.20 421.70 L 362.20 419.30 L 345.60 456.60 L 344.70 460.20 L 344.90 463.30 L 346.00 465.60 L 347.30 467.40 L 349.00 468.70 L 351.10 469.50 L 368.60 474.20 L 364.10 490.80 L 373.20 493.20 Z" fill="#131313" fill-rule="nonzero" group-id="1,6,16" node-id="170" stroke="none" target-height="73.900024" target-width="46.299988" target-x="344.7" target-y="419.3"></path></g><path d="M 373.20 493.20 L 377.70 476.60 L 383.20 478.10 L 385.50 469.60 L 379.90 468.10 L 391.00 427.00 L 381.90 424.50 L 370.90 465.70 L 356.80 461.70 L 355.90 460.90 L 355.20 459.00 L 356.10 456.10 L 371.20 421.70 L 362.20 419.30 L 345.60 456.60 L 344.70 460.20 L 344.90 463.30 L 346.00 465.60 L 347.30 467.40 L 349.00 468.70 L 351.10 469.50 L 368.60 474.20 L 364.10 490.80 L 373.20 493.20 Z" fill="#909aa9" fill-rule="nonzero" group-id="1,6,17" node-id="175" stroke="none" target-height="73.900024" target-width="46.299988" target-x="344.7" target-y="419.3"></path></g><g node-id="207"><g node-id="218"><path d="M 433.90 657.70 L 427.70 634.50 L 435.40 632.40 L 432.20 620.40 L 424.50 622.50 L 409.00 564.90 L 396.30 568.30 L 411.80 625.90 L 394.00 630.60 L 391.90 630.90 L 390.30 630.50 L 389.00 629.70 L 388.10 628.80 L 387.60 627.60 L 387.10 624.70 L 381.30 572.30 L 368.70 575.70 L 375.30 635.10 L 376.20 637.60 L 377.30 639.60 L 378.60 641.10 L 381.00 642.90 L 383.30 644.10 L 385.60 644.70 L 388.00 644.80 L 390.50 644.40 L 415.00 637.90 L 421.20 661.10 L 433.90 657.70 Z" fill="#131313" fill-rule="nonzero" group-id="1,7,18" node-id="182" stroke="none" target-height="96.19995" target-width="66.69998" target-x="368.7" target-y="564.9"></path></g><path d="M 433.90 657.70 L 427.70 634.50 L 435.40 632.40 L 432.20 620.40 L 424.50 622.50 L 409.00 564.90 L 396.30 568.30 L 411.80 625.90 L 394.00 630.60 L 391.90 630.90 L 390.30 630.50 L 389.00 629.70 L 388.10 628.80 L 387.60 627.60 L 387.10 624.70 L 381.30 572.30 L 368.70 575.70 L 375.30 635.10 L 376.20 637.60 L 377.30 639.60 L 378.60 641.10 L 381.00 642.90 L 383.30 644.10 L 385.60 644.70 L 388.00 644.80 L 390.50 644.40 L 415.00 637.90 L 421.20 661.10 L 433.90 657.70 Z" fill="#909aa9" fill-rule="nonzero" group-id="1,7,19" node-id="187" stroke="none" target-height="96.19995" target-width="66.69998" target-x="368.7" target-y="564.9"></path></g><g node-id="208"><g node-id="220"><path d="M 446.00 539.10 L 448.30 539.40 L 451.20 539.20 L 453.70 538.60 L 455.70 537.70 L 457.70 536.20 L 459.50 534.10 L 460.90 531.50 L 462.10 528.00 L 475.80 477.00 L 476.30 474.10 L 476.40 471.30 L 475.90 468.60 L 475.00 465.90 L 473.90 464.10 L 472.50 462.40 L 470.60 461.00 L 468.30 459.80 L 465.40 458.80 L 444.70 453.30 L 442.10 452.80 L 439.60 453.00 L 437.00 453.60 L 434.50 454.80 L 432.20 456.60 L 430.40 458.70 L 428.80 461.40 L 427.70 464.60 L 414.10 515.40 L 413.50 518.70 L 413.50 521.60 L 414.10 524.20 L 415.20 526.60 L 416.90 528.90 L 419.00 530.80 L 421.50 532.30 L 424.60 533.40 L 446.00 539.10 Z M 444.60 527.80 L 429.20 523.60 L 427.30 522.90 L 426.00 521.80 L 425.30 520.50 L 425.10 518.90 L 425.40 516.70 L 438.70 467.10 L 439.80 465.10 L 440.80 464.40 L 443.00 464.00 L 444.50 464.20 L 461.50 468.80 L 463.10 469.40 L 464.20 470.30 L 464.80 471.50 L 465.00 473.00 L 464.70 475.00 L 450.90 525.70 L 449.40 527.70 L 448.40 528.10 L 446.80 528.20 L 444.60 527.80 Z" fill="#131313" fill-rule="nonzero" group-id="1,8,20" node-id="194" stroke="none" target-height="86.60004" target-width="62.899994" target-x="413.5" target-y="452.8"></path></g><path d="M 446.00 539.10 L 448.30 539.40 L 451.20 539.20 L 453.70 538.60 L 455.70 537.70 L 457.70 536.20 L 459.50 534.10 L 460.90 531.50 L 462.10 528.00 L 475.80 477.00 L 476.30 474.10 L 476.40 471.30 L 475.90 468.60 L 475.00 465.90 L 473.90 464.10 L 472.50 462.40 L 470.60 461.00 L 468.30 459.80 L 465.40 458.80 L 444.70 453.30 L 442.10 452.80 L 439.60 453.00 L 437.00 453.60 L 434.50 454.80 L 432.20 456.60 L 430.40 458.70 L 428.80 461.40 L 427.70 464.60 L 414.10 515.40 L 413.50 518.70 L 413.50 521.60 L 414.10 524.20 L 415.20 526.60 L 416.90 528.90 L 419.00 530.80 L 421.50 532.30 L 424.60 533.40 L 446.00 539.10 Z M 444.60 527.80 L 429.20 523.60 L 427.30 522.90 L 426.00 521.80 L 425.30 520.50 L 425.10 518.90 L 425.40 516.70 L 438.70 467.10 L 439.80 465.10 L 440.80 464.40 L 443.00 464.00 L 444.50 464.20 L 461.50 468.80 L 463.10 469.40 L 464.20 470.30 L 464.80 471.50 L 465.00 473.00 L 464.70 475.00 L 450.90 525.70 L 449.40 527.70 L 448.40 528.10 L 446.80 528.20 L 444.60 527.80 Z" fill="#909aa9" fill-rule="nonzero" group-id="1,8,21" node-id="199" stroke="none" target-height="86.60004" target-width="62.899994" target-x="413.5" target-y="452.8"></path></g><g node-id="209"><path d="M 611.90 353.10 L 608.30 353.40 L 605.20 354.10 L 602.40 355.30 L 599.90 356.90 L 597.70 359.00 L 596.00 361.30 L 594.60 363.90 L 593.60 366.80 L 593.00 370.00 L 592.80 373.70 L 593.00 377.30 L 593.60 380.50 L 594.60 383.40 L 596.00 385.90 L 597.70 388.30 L 599.90 390.30 L 602.40 391.90 L 605.10 393.10 L 608.30 393.90 L 611.90 394.10 L 615.50 393.90 L 618.70 393.10 L 621.40 392.00 L 623.90 390.40 L 626.10 388.30 L 627.90 386.00 L 629.20 383.40 L 630.30 380.50 L 630.90 377.30 L 631.10 373.70 L 630.90 370.00 L 630.20 366.70 L 629.20 363.80 L 627.90 361.30 L 626.10 359.00 L 623.90 356.90 L 621.40 355.30 L 618.60 354.10 L 615.50 353.40 L 611.90 353.10 Z M 611.90 358.40 L 615.00 358.70 L 617.60 359.50 L 619.80 360.70 L 621.70 362.50 L 623.00 364.60 L 624.10 367.10 L 624.80 370.10 L 625.00 373.70 L 624.80 377.20 L 624.10 380.20 L 623.00 382.70 L 621.70 384.70 L 619.80 386.50 L 617.60 387.70 L 615.00 388.50 L 611.90 388.80 L 608.80 388.50 L 606.20 387.70 L 604.00 386.40 L 602.10 384.60 L 600.80 382.50 L 599.70 380.00 L 599.10 377.10 L 598.80 373.70 L 599.10 370.20 L 599.70 367.20 L 600.80 364.80 L 602.10 362.70 L 604.00 360.80 L 606.20 359.50 L 608.80 358.70 L 611.90 358.40 Z" fill="#909aa9" fill-rule="nonzero" group-id="1,9" id="形状" node-id="64" stroke="none" target-height="41" target-width="38.299988" target-x="592.8" target-y="353.1"></path><path d="M 649.80 364.00 L 646.60 364.30 L 643.90 365.10 L 641.50 366.40 L 639.40 368.30 L 637.70 370.50 L 636.50 373.00 L 635.80 375.90 L 635.50 379.10 L 635.80 382.30 L 636.50 385.10 L 637.70 387.60 L 639.30 389.80 L 641.50 391.60 L 643.90 393.00 L 646.60 393.80 L 649.80 394.10 L 652.90 393.80 L 655.70 393.00 L 658.10 391.60 L 660.20 389.80 L 661.90 387.60 L 663.00 385.10 L 663.80 382.30 L 664.00 379.10 L 663.80 375.90 L 663.00 373.00 L 661.80 370.50 L 660.20 368.30 L 658.10 366.40 L 655.70 365.10 L 652.90 364.30 L 649.80 364.00 Z M 649.80 368.80 L 651.70 369.00 L 653.40 369.60 L 654.80 370.60 L 656.10 372.00 L 657.20 373.90 L 657.90 376.30 L 658.10 379.10 L 657.90 381.80 L 657.20 384.10 L 656.10 386.10 L 654.90 387.50 L 653.40 388.50 L 651.70 389.10 L 649.80 389.30 L 647.80 389.10 L 646.10 388.50 L 644.70 387.50 L 643.50 386.10 L 642.40 384.20 L 641.80 381.90 L 641.50 379.10 L 641.80 376.30 L 642.40 373.90 L 643.50 372.00 L 644.70 370.60 L 646.20 369.60 L 647.80 369.00 L 649.80 368.80 Z" fill="#909aa9" fill-rule="nonzero" group-id="1,9" id="形状" node-id="65" stroke="none" target-height="30.100006" target-width="28.5" target-x="635.5" target-y="364"></path><path d="M 683.90 364.00 L 681.10 364.30 L 678.70 365.10 L 676.70 366.40 L 675.10 368.20 L 675.10 364.80 L 669.60 364.80 L 669.60 404.30 L 675.50 404.30 L 675.50 389.10 L 677.40 391.40 L 679.50 392.90 L 681.70 393.80 L 684.20 394.10 L 687.20 393.80 L 689.70 393.00 L 691.90 391.60 L 693.90 389.60 L 695.20 387.50 L 696.30 385.10 L 696.90 382.30 L 697.10 379.20 L 696.90 375.90 L 696.20 373.10 L 695.20 370.60 L 693.80 368.50 L 691.80 366.50 L 689.60 365.20 L 687.00 364.30 L 683.90 364.00 Z M 683.00 368.80 L 685.10 369.00 L 686.80 369.50 L 688.20 370.50 L 689.40 371.90 L 690.30 373.70 L 690.90 376.10 L 691.10 379.20 L 690.80 382.30 L 690.20 384.70 L 689.20 386.50 L 688.10 387.80 L 686.70 388.60 L 685.00 389.20 L 682.90 389.40 L 680.80 389.10 L 679.00 388.20 L 677.60 386.80 L 676.30 384.80 L 675.60 382.30 L 675.30 379.40 L 675.50 376.00 L 676.10 373.70 L 677.10 371.80 L 678.30 370.50 L 679.60 369.50 L 681.20 369.00 L 683.00 368.80 Z" fill="#909aa9" fill-rule="nonzero" group-id="1,9" id="形状" node-id="66" stroke="none" target-height="40.299988" target-width="27.5" target-x="669.6" target-y="364"></path><path d="M 713.30 364.00 L 709.90 364.30 L 707.20 365.00 L 704.90 366.20 L 703.50 367.40 L 702.50 368.80 L 701.90 370.40 L 701.70 372.30 L 701.90 374.00 L 702.50 375.50 L 703.50 376.90 L 706.40 378.80 L 716.10 381.50 L 717.80 382.20 L 719.30 383.10 L 720.10 384.20 L 720.40 385.40 L 720.10 386.70 L 719.50 387.70 L 718.30 388.50 L 716.40 389.10 L 711.30 389.20 L 708.80 388.20 L 707.90 387.30 L 706.70 384.10 L 701.00 384.10 L 701.50 386.80 L 702.40 389.00 L 703.70 390.70 L 705.40 392.10 L 707.50 393.20 L 710.30 393.90 L 713.70 394.10 L 717.60 393.90 L 720.50 393.20 L 722.70 392.20 L 724.30 390.90 L 725.40 389.30 L 726.10 387.40 L 726.40 385.10 L 726.20 383.20 L 725.60 381.70 L 724.50 380.30 L 723.00 379.10 L 719.00 377.30 L 710.00 374.70 L 708.60 373.80 L 707.90 373.00 L 707.70 372.10 L 707.80 371.10 L 708.30 370.30 L 709.20 369.60 L 710.70 369.00 L 713.20 368.80 L 715.20 368.90 L 717.70 369.80 L 719.20 371.50 L 719.80 373.00 L 725.50 373.00 L 725.00 370.60 L 724.10 368.60 L 722.90 367.10 L 721.30 365.80 L 719.20 364.90 L 716.60 364.20 L 713.30 364.00 Z" fill="#909aa9" fill-rule="nonzero" group-id="1,9" id="路径" node-id="67" stroke="none" target-height="30.100006" target-width="25.400024" target-x="701" target-y="364"></path><path d="M 737.20 385.40 L 735.70 385.70 L 734.40 386.50 L 733.30 388.30 L 733.20 389.40 L 733.70 391.30 L 734.40 392.20 L 735.70 393.10 L 737.20 393.30 L 738.80 393.10 L 740.20 392.20 L 741.00 391.00 L 741.30 389.40 L 741.20 388.30 L 740.20 386.50 L 738.90 385.70 L 737.20 385.40 Z M 755.70 385.40 L 754.10 385.70 L 752.90 386.50 L 751.80 388.30 L 751.70 389.40 L 752.20 391.30 L 752.90 392.20 L 754.10 393.10 L 755.70 393.30 L 757.30 393.10 L 758.60 392.20 L 759.50 391.00 L 759.80 389.40 L 759.60 388.30 L 758.60 386.50 L 757.30 385.70 L 755.70 385.40 Z M 774.10 385.40 L 772.50 385.70 L 771.20 386.50 L 770.20 388.30 L 770.00 389.40 L 770.30 390.90 L 771.20 392.20 L 772.50 393.10 L 774.10 393.30 L 775.60 393.10 L 777.00 392.20 L 777.80 391.00 L 778.20 389.40 L 778.00 388.30 L 777.00 386.50 L 775.70 385.70 L 774.10 385.40 Z" fill="#909aa9" fill-rule="nonzero" group-id="1,9" id="形状" node-id="68" stroke="none" target-height="7.899994" target-width="45" target-x="733.2" target-y="385.4"></path></g></g></svg>