<?xml version="1.0" standalone="no"?><!DOCTYPE svg PUBLIC "-//W3C//DTD SVG 1.1//EN" "http://www.w3.org/Graphics/SVG/1.1/DTD/svg11.dtd"><svg height="600" node-id="1" sillyvg="true" template-height="600" template-width="600" version="1.1" viewBox="0 0 600 600" width="600" xmlns="http://www.w3.org/2000/svg" xmlns:xlink="http://www.w3.org/1999/xlink"><defs node-id="65"><linearGradient gradientUnits="objectBoundingBox" id="linearGradient-1" node-id="5" spreadMethod="pad" x1="1.4458808" x2="0.29515958" y1="0.66910326" y2="0.67326146"><stop offset="0" stop-color="#e0e5ef" stop-opacity="0"></stop><stop offset="1" stop-color="#e0e5ef"></stop></linearGradient><linearGradient gradientUnits="objectBoundingBox" id="linearGradient-2" node-id="8" spreadMethod="pad" x1="1.4458808" x2="0.29515958" y1="0.669094" y2="0.6732521"><stop offset="0" stop-color="#e0e5ef" stop-opacity="0"></stop><stop offset="1" stop-color="#e0e5ef"></stop></linearGradient><linearGradient gradientUnits="objectBoundingBox" id="linearGradient1" node-id="79" spreadMethod="pad" x1="0.9340618" x2="0.40599933" y1="0.98800004" y2="1"><stop offset="0" stop-color="#e0e5ef" stop-opacity="0"></stop><stop offset="1" stop-color="#e0e5ef"></stop></linearGradient><linearGradient gradientUnits="objectBoundingBox" id="linearGradient-3" node-id="11" spreadMethod="pad" x1="0.9340618" x2="0.40599933" y1="0.98800004" y2="1"><stop offset="0" stop-color="#e0e5ef" stop-opacity="0"></stop><stop offset="1" stop-color="#e0e5ef"></stop></linearGradient><linearGradient gradientUnits="objectBoundingBox" id="linearGradient-4" node-id="14" spreadMethod="pad" x1="0.92518216" x2="0.40792233" y1="0.98800004" y2="1"><stop offset="0" stop-color="#e0e5ef" stop-opacity="0"></stop><stop offset="1" stop-color="#e0e5ef"></stop></linearGradient><linearGradient gradientUnits="objectBoundingBox" id="linearGradient-5" node-id="17" spreadMethod="pad" x1="0.5" x2="-0.31214738" y1="0.4672858" y2="0.31614316"><stop offset="0" stop-color="#e8ebf1" stop-opacity="0.23774004"></stop><stop offset="1" stop-color="#a2abb9"></stop></linearGradient><linearGradient gradientUnits="objectBoundingBox" id="linearGradient-6" node-id="20" spreadMethod="pad" x1="1.6417089" x2="-0.5442176" y1="1.1441041" y2="-0.21639143"><stop offset="0" stop-color="#a2abb9"></stop><stop offset="1" stop-color="#e7eaf0"></stop></linearGradient><linearGradient gradientUnits="objectBoundingBox" id="linearGradient-7" node-id="23" spreadMethod="pad" x1="1.1565343" x2="0.60684323" y1="1.1551802" y2="-0.09665582"><stop offset="0" stop-color="#a2abb9"></stop><stop offset="1" stop-color="#e7eaf0"></stop></linearGradient><linearGradient gradientUnits="objectBoundingBox" id="linearGradient-8" node-id="26" spreadMethod="pad" x1="0.93549544" x2="0.29550323" y1="0.83448935" y2="0.3783832"><stop offset="0" stop-color="#a2abb9"></stop><stop offset="1" stop-color="#e7eaf0"></stop></linearGradient><linearGradient gradientUnits="objectBoundingBox" id="linearGradient-9" node-id="29" spreadMethod="pad" x1="1.2505317" x2="-0.18644328" y1="1.1441041" y2="-0.21639143"><stop offset="0" stop-color="#a2abb9"></stop><stop offset="1" stop-color="#e7eaf0"></stop></linearGradient><linearGradient gradientUnits="objectBoundingBox" id="linearGradient-10" node-id="32" spreadMethod="pad" x1="0.88851416" x2="0.38328248" y1="1.2320079" y2="0"><stop offset="0" stop-color="#a2abb9"></stop><stop offset="1" stop-color="#e7eaf0"></stop></linearGradient><linearGradient gradientUnits="objectBoundingBox" id="linearGradient-11" node-id="35" spreadMethod="pad" x1="1.0957403" x2="0.5" y1="1.2848952" y2="-0.0000000000000071054274"><stop offset="0" stop-color="#a2abb9"></stop><stop offset="1" stop-color="#e7eaf0"></stop></linearGradient><linearGradient gradientUnits="objectBoundingBox" id="linearGradient-12" node-id="38" spreadMethod="pad" x1="0.5019097" x2="0.5" y1="1.6131887" y2="0.14801702"><stop offset="0" stop-color="#a2abb9"></stop><stop offset="1" stop-color="#e7eaf0"></stop></linearGradient><linearGradient gradientUnits="objectBoundingBox" id="linearGradient-13" node-id="41" spreadMethod="pad" x1="0.5028964" x2="0.5" y1="1.6131887" y2="0.14801702"><stop offset="0" stop-color="#a2abb9"></stop><stop offset="1" stop-color="#e7eaf0"></stop></linearGradient></defs><g node-id="151"><path d="M 297.40 77.00 L 307.60 77.20 L 317.70 77.90 L 327.60 79.00 L 337.30 80.50 L 346.90 82.40 L 356.40 84.70 L 365.70 87.40 L 374.90 90.50 L 383.80 94.00 L 392.50 97.80 L 403.30 103.10 L 413.60 108.90 L 423.60 115.20 L 433.20 122.00 L 415.60 122.20 L 413.50 122.80 L 411.40 123.80 L 408.10 126.60 L 405.80 130.50 L 405.20 132.60 L 405.00 136.00 L 405.20 138.40 L 405.80 140.50 L 406.80 142.60 L 409.60 145.90 L 413.50 148.20 L 415.60 148.80 L 418.00 149.00 L 463.20 149.00 L 469.50 156.10 L 475.40 163.40 L 481.10 170.90 L 486.40 178.80 L 507.90 178.80 L 510.40 179.00 L 512.80 179.60 L 514.90 180.70 L 516.90 182.10 L 518.60 183.70 L 520.00 185.70 L 521.00 187.90 L 521.60 190.20 L 521.90 192.80 L 521.30 197.60 L 520.60 199.50 L 519.00 202.00 L 517.00 204.20 L 514.50 205.90 L 511.80 207.00 L 492.00 207.00 L 489.10 207.30 L 486.40 208.00 L 483.90 209.20 L 481.70 210.80 L 479.80 212.70 L 478.20 214.90 L 477.00 217.40 L 476.30 220.10 L 476.00 228.00 L 476.30 230.90 L 477.00 233.60 L 478.20 236.10 L 479.80 238.30 L 481.70 240.20 L 483.90 241.80 L 486.40 243.00 L 489.10 243.70 L 492.00 244.00 L 559.90 244.00 L 564.20 245.80 L 566.10 247.10 L 569.20 250.50 L 571.30 254.70 L 572.00 259.50 L 571.70 263.30 L 571.00 266.00 L 569.80 268.50 L 568.20 270.70 L 566.30 272.60 L 564.10 274.20 L 561.60 275.40 L 558.90 276.10 L 556.00 276.40 L 520.80 276.40 L 521.60 287.10 L 521.90 298.00 L 521.60 308.50 L 520.90 318.80 L 519.70 328.90 L 518.10 338.90 L 515.90 348.70 L 513.40 358.40 L 510.40 367.90 L 507.00 377.20 L 503.20 386.30 L 499.10 395.20 L 494.50 403.90 L 489.50 412.40 L 484.20 420.60 L 478.60 428.50 L 472.60 436.20 L 466.20 443.70 L 459.60 450.80 L 452.60 457.60 L 445.40 464.20 L 437.80 470.40 L 430.00 476.40 L 421.90 481.90 L 413.60 487.10 L 405.00 492.00 L 396.10 496.50 L 387.10 500.70 L 377.80 504.40 L 368.40 507.70 L 358.70 510.60 L 348.80 513.20 L 338.90 515.20 L 328.80 516.90 L 318.50 518.00 L 308.00 518.70 L 297.40 519.00 L 287.40 518.80 L 277.60 518.20 L 268.00 517.10 L 258.50 515.70 L 249.20 513.90 L 237.60 511.10 L 226.30 507.70 L 215.40 503.80 L 204.70 499.30 L 194.20 494.30 L 184.00 488.80 L 174.30 482.80 L 164.80 476.40 L 155.70 469.40 L 147.00 462.10 L 138.60 454.30 L 130.70 446.10 L 123.20 437.50 L 116.20 428.60 L 109.60 419.30 L 103.50 409.60 L 97.90 399.60 L 92.90 389.30 L 88.30 378.80 L 84.30 367.90 L 74.20 367.70 L 72.80 367.10 L 71.50 366.10 L 70.60 364.80 L 70.00 363.40 L 69.70 361.70 L 70.00 359.90 L 70.80 358.20 L 72.00 356.90 L 73.60 356.00 L 86.40 355.80 L 88.50 355.20 L 90.60 354.20 L 93.90 351.40 L 96.20 347.50 L 96.80 345.40 L 97.00 343.00 L 96.80 339.60 L 96.20 337.50 L 95.20 335.40 L 92.40 332.10 L 90.60 330.80 L 88.50 329.80 L 86.40 329.20 L 75.00 328.80 L 52.90 328.80 L 49.30 328.20 L 47.70 327.40 L 45.00 325.20 L 43.20 322.20 L 42.70 320.40 L 42.70 316.70 L 44.00 313.40 L 46.20 310.70 L 49.30 308.90 L 52.90 308.30 L 73.10 308.30 L 72.90 298.00 L 73.10 288.20 L 73.70 278.50 L 74.80 269.00 L 76.20 259.70 L 78.10 250.50 L 80.90 239.00 L 84.40 227.90 L 88.40 217.10 L 92.90 206.50 L 57.00 206.50 L 53.20 206.20 L 49.50 205.50 L 46.10 204.30 L 42.90 202.70 L 39.90 200.70 L 37.20 198.30 L 34.80 195.60 L 32.80 192.70 L 31.20 189.40 L 30.00 186.00 L 29.30 182.40 L 29.00 178.50 L 29.20 173.20 L 29.90 169.70 L 31.10 166.40 L 32.60 163.20 L 34.50 160.30 L 36.70 157.70 L 39.20 155.30 L 42.00 153.30 L 45.10 151.60 L 48.30 150.30 L 51.70 149.50 L 55.40 149.00 L 182.00 149.00 L 185.50 148.40 L 188.50 146.60 L 190.60 144.00 L 191.40 142.50 L 192.00 139.00 L 191.80 137.20 L 191.40 135.50 L 189.60 132.50 L 187.00 130.40 L 185.50 129.60 L 182.00 129.00 L 152.70 129.00 L 153.40 128.40 L 138.80 128.40 L 135.40 128.10 L 132.20 127.20 L 129.30 125.80 L 126.60 123.90 L 124.30 121.70 L 122.40 119.00 L 121.00 116.00 L 120.20 112.90 L 119.80 109.40 L 120.20 104.90 L 121.00 101.70 L 122.40 98.70 L 124.30 96.10 L 126.60 93.80 L 129.30 91.90 L 132.20 90.50 L 135.40 89.70 L 138.80 89.30 L 223.20 89.30 L 240.90 84.00 L 259.30 80.20 L 278.00 77.80 L 297.40 77.00 Z" fill="#f3f3fa" fill-opacity="0.6015942" fill-rule="evenodd" group-id="1" id="背景" node-id="45" stroke="none" target-height="442" target-width="543" target-x="29" target-y="77"></path></g><path d="M 181.80 214.00 L 174.50 214.00 L 174.20 210.30 L 173.50 206.90 L 172.40 203.70 L 170.80 200.60 L 169.00 197.80 L 166.70 195.20 L 164.20 193.00 L 161.40 191.10 L 158.30 189.60 L 155.00 188.40 L 151.60 187.70 L 148.00 187.50 L 144.30 187.70 L 140.90 188.40 L 137.70 189.60 L 134.60 191.10 L 131.80 193.00 L 129.20 195.20 L 127.00 197.80 L 125.10 200.60 L 123.60 203.70 L 122.40 206.90 L 121.70 210.30 L 121.50 214.00 L 116.10 214.00 L 113.90 214.20 L 111.90 214.80 L 110.00 215.80 L 106.80 218.70 L 104.70 222.60 L 103.90 227.20 L 104.10 229.60 L 105.60 233.90 L 106.80 235.80 L 110.00 238.70 L 111.90 239.60 L 113.90 240.20 L 116.10 240.50 L 181.80 240.50 L 184.00 240.20 L 186.00 239.60 L 189.60 237.40 L 192.30 233.90 L 193.80 229.60 L 194.00 227.20 L 193.80 224.80 L 192.30 220.50 L 189.60 217.10 L 186.00 214.80 L 184.00 214.20 L 181.80 214.00 Z" fill="url(#linearGradient-1)" fill-rule="nonzero" id="路径" node-id="46" stroke="none" target-height="53" target-width="90.1" target-x="103.9" target-y="187.5"></path><path d="M 368.90 138.60 L 363.70 138.60 L 363.30 135.20 L 362.50 132.00 L 361.10 129.00 L 359.20 126.40 L 356.90 124.10 L 354.20 122.20 L 351.30 120.80 L 348.10 120.00 L 344.70 119.60 L 341.20 120.00 L 338.00 120.80 L 335.10 122.20 L 332.40 124.10 L 330.10 126.40 L 328.30 129.00 L 326.80 132.00 L 326.00 135.20 L 325.70 138.60 L 321.80 138.60 L 318.80 139.20 L 317.40 139.90 L 315.70 141.40 L 314.30 143.30 L 313.40 145.60 L 313.10 148.10 L 313.40 150.70 L 314.30 152.90 L 315.70 154.90 L 317.40 156.30 L 320.20 157.50 L 368.90 157.60 L 372.00 157.00 L 373.30 156.30 L 375.10 154.90 L 376.50 152.90 L 377.30 150.70 L 377.60 148.10 L 377.30 145.60 L 376.40 143.30 L 375.10 141.40 L 373.30 139.90 L 370.50 138.80 L 368.90 138.60 Z" fill="url(#linearGradient-2)" fill-rule="nonzero" id="路径" node-id="47" stroke="none" target-height="38.000008" target-width="64.5" target-x="313.1" target-y="119.6"></path><path d="M 284.50 415.00 L 324.70 415.70 L 362.20 417.80 L 396.00 421.10 L 412.30 423.20 L 426.80 425.50 L 439.80 428.00 L 449.30 428.30 L 458.10 429.00 L 466.40 430.10 L 474.60 431.70 L 481.80 433.50 L 488.10 435.60 L 492.80 437.60 L 496.70 439.60 L 502.70 443.70 L 505.10 446.20 L 506.70 448.60 L 507.70 451.00 L 508.00 453.50 L 507.80 455.50 L 506.10 459.40 L 504.60 461.40 L 502.20 463.70 L 499.10 466.00 L 495.10 468.30 L 486.10 472.10 L 480.60 473.80 L 468.90 476.40 L 462.10 477.50 L 452.30 480.20 L 440.70 482.80 L 441.00 486.00 L 440.70 488.80 L 440.10 491.60 L 438.90 494.30 L 437.20 497.10 L 435.00 499.90 L 431.90 502.90 L 428.20 506.00 L 423.60 509.00 L 412.80 514.50 L 400.10 519.30 L 392.70 521.50 L 382.80 523.90 L 372.00 526.00 L 360.30 527.80 L 348.50 529.00 L 336.10 529.70 L 323.00 530.00 L 311.20 529.80 L 300.00 529.20 L 289.30 528.20 L 278.50 526.80 L 268.60 525.10 L 259.30 523.00 L 250.10 520.60 L 241.90 518.00 L 234.60 515.20 L 229.20 512.70 L 220.20 507.60 L 213.10 502.00 L 210.30 499.10 L 208.10 496.10 L 206.60 493.20 L 190.90 491.80 L 162.60 488.60 L 136.80 484.50 L 114.80 479.70 L 105.40 477.10 L 97.50 474.40 L 86.50 469.80 L 82.50 467.60 L 76.90 463.30 L 75.10 461.20 L 73.90 459.30 L 73.20 457.40 L 73.00 455.50 L 73.30 453.50 L 74.10 451.40 L 75.50 449.30 L 77.60 447.10 L 80.60 444.70 L 84.30 442.40 L 89.00 440.00 L 94.80 437.60 L 101.90 435.10 L 111.20 432.30 L 122.10 429.50 L 134.90 426.90 L 162.00 422.50 L 177.80 420.50 L 210.30 417.60 L 246.20 415.70 L 284.50 415.00 Z" fill="#e7eaf0" fill-rule="evenodd" id="形状结合" node-id="48" stroke="none" target-height="115" target-width="435" target-x="73" target-y="415"></path><g node-id="152"><path d="M 463.30 400.60 L 464.00 403.40 L 463.80 405.00 L 463.10 406.50 L 462.00 407.60 L 460.60 408.40 L 447.40 408.70 L 447.50 423.60 L 448.00 432.00 L 439.00 432.00 L 439.30 425.70 L 439.40 409.80 L 438.20 410.50 L 437.00 410.70 L 435.20 410.20 L 433.90 408.80 L 426.80 408.50 L 424.90 407.70 L 423.40 406.40 L 422.60 405.30 L 422.20 404.10 L 422.10 402.00 L 424.60 395.30 L 426.30 393.20 L 436.10 375.20 L 438.90 371.50 L 441.50 370.20 L 443.10 370.00 L 445.30 370.30 L 447.20 371.20 L 448.70 372.50 L 457.70 389.50 L 460.20 391.00 L 461.90 393.40 L 462.60 396.40 L 462.30 398.50 L 463.30 400.60 Z" fill="url(#linearGradient1)" fill-rule="nonzero" group-id="2" id="路径" node-id="50" stroke="none" target-height="62" target-width="41.899994" target-x="422.1" target-y="370"></path><path d="M 503.30 420.60 L 504.00 423.40 L 503.80 425.00 L 503.10 426.50 L 502.00 427.60 L 500.60 428.40 L 487.40 428.70 L 487.50 443.60 L 488.00 452.00 L 479.00 452.00 L 479.30 445.70 L 479.40 429.80 L 478.20 430.50 L 477.00 430.70 L 475.20 430.20 L 473.90 428.80 L 466.80 428.50 L 464.90 427.70 L 463.40 426.40 L 462.60 425.30 L 462.20 424.10 L 462.10 422.00 L 464.60 415.30 L 466.30 413.20 L 476.10 395.20 L 478.90 391.50 L 481.50 390.20 L 483.10 390.00 L 485.30 390.30 L 487.20 391.20 L 488.70 392.50 L 497.70 409.50 L 500.20 411.00 L 501.90 413.40 L 502.60 416.40 L 502.30 418.50 L 503.30 420.60 Z" fill="url(#linearGradient-3)" fill-rule="nonzero" group-id="2" id="路径" node-id="51" stroke="none" target-height="62" target-width="41.899994" target-x="462.1" target-y="390"></path><path d="M 150.00 413.40 L 151.00 417.40 L 150.40 420.40 L 149.70 421.80 L 148.20 423.40 L 146.30 424.50 L 127.60 424.90 L 127.80 446.00 L 128.50 458.00 L 115.90 458.00 L 116.30 449.10 L 116.40 426.40 L 115.40 427.20 L 113.10 427.80 L 110.50 427.10 L 108.70 425.10 L 98.80 424.60 L 95.30 423.00 L 93.90 421.70 L 92.90 420.10 L 92.20 418.30 L 92.10 415.40 L 94.50 409.40 L 95.60 405.80 L 98.00 403.00 L 111.80 377.50 L 113.70 374.60 L 115.80 372.20 L 117.40 371.00 L 119.40 370.30 L 121.70 370.00 L 125.60 370.70 L 127.30 371.70 L 130.10 374.40 L 142.10 397.70 L 144.00 398.60 L 145.60 399.80 L 147.00 401.40 L 148.10 403.20 L 148.80 405.20 L 149.00 407.40 L 148.50 410.40 L 150.00 413.40 Z" fill="url(#linearGradient-4)" fill-rule="nonzero" group-id="2" id="路径" node-id="52" stroke="none" target-height="88" target-width="58.9" target-x="92.1" target-y="370"></path></g><g node-id="153"><g node-id="154"><path d="M 183.00 436.00 L 375.20 534.00 L 516.00 454.10 L 335.20 398.00 Z" fill="url(#linearGradient-5)" fill-opacity="0.5" fill-rule="nonzero" group-id="3,4" id="Path-10" node-id="54" stroke="none" target-height="136" target-width="333" target-x="183" target-y="398"></path></g><path d="M 180.00 292.10 L 180.00 424.20 L 180.20 425.90 L 181.30 428.90 L 182.70 430.80 L 184.60 432.20 L 187.60 433.30 L 189.30 433.50 L 292.90 438.00 L 300.20 433.50 L 316.90 366.50 L 293.70 315.80 L 327.00 282.00 L 189.20 282.80 L 186.70 283.10 L 184.50 284.10 L 182.70 285.50 L 181.30 287.40 L 180.30 289.60 L 180.00 292.10 Z" fill="url(#linearGradient-6)" fill-rule="nonzero" group-id="3" id="路径" node-id="55" stroke="none" target-height="156" target-width="147" target-x="180" target-y="282"></path><path d="M 180.00 298.10 L 180.00 428.70 L 180.20 430.40 L 181.30 433.40 L 182.70 435.30 L 184.60 436.70 L 187.50 437.80 L 189.20 438.00 L 292.40 438.00 L 310.00 367.20 L 285.10 314.50 L 310.00 288.00 L 189.20 288.80 L 186.70 289.10 L 184.50 290.10 L 182.70 291.50 L 181.20 293.40 L 180.30 295.60 L 180.00 298.10 Z" fill="url(#linearGradient-7)" fill-rule="nonzero" group-id="3" id="路径备份" node-id="56" stroke="none" target-height="150" target-width="130" target-x="180" target-y="288"></path><path d="M 303.00 397.20 L 309.00 372.40 L 269.10 397.90 L 258.80 388.50 L 245.30 375.60 L 228.00 358.30 L 226.30 357.10 L 224.40 356.30 L 222.40 356.00 L 220.40 356.20 L 218.50 356.90 L 216.80 358.10 L 180.00 409.20 L 180.00 427.90 L 180.30 430.50 L 181.10 432.80 L 183.00 435.50 L 185.90 437.30 L 187.80 437.80 L 292.90 438.00 L 303.00 397.20 Z" fill="url(#linearGradient-8)" fill-rule="nonzero" group-id="3" id="路径" node-id="57" stroke="none" target-height="82" target-width="129" target-x="180" target-y="356"></path><path d="M 378.20 296.00 L 432.00 309.80 L 434.30 310.70 L 436.20 312.10 L 437.60 313.90 L 438.60 315.90 L 439.00 318.20 L 438.80 320.60 L 402.70 454.70 L 401.20 458.00 L 398.70 460.50 L 395.50 461.80 L 392.00 461.90 L 312.20 440.10 L 351.30 367.50 L 341.10 316.60 L 378.20 296.00 Z" fill="url(#linearGradient-9)" fill-rule="nonzero" group-id="3" id="路径备份-2" node-id="58" stroke="none" target-height="165.9" target-width="126.79999" target-x="312.2" target-y="296"></path><path d="M 370.60 299.60 L 424.40 313.40 L 426.70 314.30 L 428.60 315.70 L 430.00 317.50 L 431.00 319.60 L 431.40 321.80 L 431.20 324.30 L 396.50 453.10 L 395.00 456.40 L 392.50 458.80 L 389.30 460.10 L 385.80 460.20 L 306.00 438.50 L 343.70 371.10 L 333.50 320.20 L 370.60 299.60 Z" fill="url(#linearGradient-10)" fill-rule="nonzero" group-id="3" id="路径" node-id="59" stroke="none" target-height="160.6" target-width="125.399994" target-x="306" target-y="299.6"></path><path d="M 399.50 442.40 L 361.30 369.40 L 360.10 367.90 L 358.70 366.90 L 357.10 366.20 L 355.30 366.00 L 353.60 366.20 L 351.80 367.00 L 343.70 371.10 L 306.10 438.50 L 366.80 455.20 L 381.20 459.00 L 385.20 459.60 L 388.50 459.70 L 391.20 459.20 L 393.00 458.40 L 394.40 457.30 L 395.40 455.80 L 396.10 453.90 L 399.50 442.40 Z" fill="url(#linearGradient-11)" fill-rule="nonzero" group-id="3" id="路径" node-id="60" stroke="none" target-height="93.70001" target-width="93.399994" target-x="306.1" target-y="366"></path><path d="M 403.10 346.70 L 402.80 349.80 L 402.00 352.60 L 400.80 355.20 L 399.10 357.60 L 397.10 359.60 L 394.70 361.30 L 392.10 362.50 L 389.30 363.30 L 386.20 363.60 L 383.10 363.30 L 380.30 362.50 L 377.70 361.30 L 375.30 359.60 L 373.30 357.60 L 371.60 355.20 L 370.40 352.60 L 369.60 349.80 L 369.30 346.70 L 369.60 343.60 L 370.40 340.80 L 371.60 338.20 L 373.30 335.80 L 375.30 333.80 L 377.70 332.10 L 380.30 330.90 L 383.10 330.10 L 386.20 329.80 L 389.30 330.10 L 392.10 330.90 L 394.70 332.10 L 397.10 333.80 L 399.10 335.80 L 400.80 338.20 L 402.00 340.80 L 402.80 343.60 L 403.10 346.70 Z" fill="#ffffff" fill-rule="nonzero" group-id="3" id="椭圆形" node-id="61" stroke="none" target-height="33.80002" target-width="33.80002" target-x="369.3" target-y="329.8"></path><g node-id="155"><path d="M 222.20 201.90 L 230.90 232.80 L 243.30 226.80 L 254.50 249.80 L 247.10 217.10 L 234.50 223.30 Z" fill="url(#linearGradient-12)" fill-rule="nonzero" group-id="3,5" id="路径-2" node-id="62" stroke="none" target-height="47.90001" target-width="32.300003" target-x="222.2" target-y="201.9"></path></g><path d="M 437.10 218.70 L 397.60 243.90 L 415.50 261.10 L 384.50 284.90 L 410.90 272.40 L 424.20 265.70 L 431.40 261.50 L 431.50 261.20 L 428.80 258.40 L 413.00 244.20 L 437.10 218.70 Z" fill="url(#linearGradient-13)" fill-rule="nonzero" group-id="3,6" id="路径-3" node-id="63" stroke="none" target-height="66.2" target-width="52.600006" target-x="384.5" target-y="218.7"></path></g></svg>