<?xml version="1.0" standalone="no"?><!DOCTYPE svg PUBLIC "-//W3C//DTD SVG 1.1//EN" "http://www.w3.org/Graphics/SVG/1.1/DTD/svg11.dtd"><svg height="600" node-id="1" sillyvg="true" template-height="600" template-width="600" version="1.1" viewBox="0 0 600 600" width="600" xmlns="http://www.w3.org/2000/svg" xmlns:xlink="http://www.w3.org/1999/xlink"><defs node-id="64"><linearGradient gradientUnits="objectBoundingBox" id="linearGradient1" node-id="66" spreadMethod="pad" x1="0.92518216" x2="0.40792233" y1="0.98800004" y2="1"><stop offset="0" stop-color="#e0e5ef" stop-opacity="0"></stop><stop offset="1" stop-color="#e0e5ef"></stop></linearGradient><linearGradient gradientUnits="objectBoundingBox" id="linearGradient-1" node-id="5" spreadMethod="pad" x1="0.92518216" x2="0.40792233" y1="0.98800004" y2="1"><stop offset="0" stop-color="#e0e5ef" stop-opacity="0"></stop><stop offset="1" stop-color="#e0e5ef"></stop></linearGradient><linearGradient gradientUnits="objectBoundingBox" id="linearGradient-2" node-id="8" spreadMethod="pad" x1="0.92039144" x2="0.4089598" y1="0.98800004" y2="1"><stop offset="0" stop-color="#e0e5ef" stop-opacity="0"></stop><stop offset="1" stop-color="#e0e5ef"></stop></linearGradient><linearGradient gradientUnits="objectBoundingBox" id="linearGradient-3" node-id="11" spreadMethod="pad" x1="1.4458808" x2="0.29515958" y1="0.670017" y2="0.6741977"><stop offset="0" stop-color="#e0e5ef" stop-opacity="0"></stop><stop offset="1" stop-color="#e0e5ef"></stop></linearGradient><linearGradient gradientUnits="objectBoundingBox" id="linearGradient-4" node-id="14" spreadMethod="pad" x1="1.4458808" x2="0.29515958" y1="0.6441399" y2="0.64768434"><stop offset="0" stop-color="#e0e5ef" stop-opacity="0"></stop><stop offset="1" stop-color="#e0e5ef"></stop></linearGradient><linearGradient gradientUnits="objectBoundingBox" id="linearGradient-5" node-id="17" spreadMethod="pad" x1="0.5" x2="0.5" y1="1" y2="-0.11285165"><stop offset="0" stop-color="#a2abb9"></stop><stop offset="1" stop-color="#e7eaf0"></stop></linearGradient><linearGradient gradientUnits="objectBoundingBox" id="linearGradient-6" node-id="20" spreadMethod="pad" x1="0.5" x2="0.5" y1="1" y2="-0.43220368"><stop offset="0" stop-color="#a2abb9"></stop><stop offset="1" stop-color="#e7eaf0"></stop></linearGradient><linearGradient gradientUnits="objectBoundingBox" id="linearGradient2" node-id="109" spreadMethod="pad" x1="0.5" x2="0.5" y1="1" y2="-0.112257995"><stop offset="0" stop-color="#a2abb9"></stop><stop offset="1" stop-color="#e7eaf0"></stop></linearGradient><linearGradient gradientUnits="objectBoundingBox" id="linearGradient3" node-id="116" spreadMethod="pad" x1="0.5" x2="0.5" y1="1" y2="-0.112257995"><stop offset="0" stop-color="#a2abb9"></stop><stop offset="1" stop-color="#e7eaf0"></stop></linearGradient><linearGradient gradientUnits="objectBoundingBox" id="linearGradient4" node-id="123" spreadMethod="pad" x1="0.5" x2="0.5" y1="1" y2="-0.112257995"><stop offset="0" stop-color="#a2abb9"></stop><stop offset="1" stop-color="#e7eaf0"></stop></linearGradient><linearGradient gradientUnits="objectBoundingBox" id="linearGradient5" node-id="130" spreadMethod="pad" x1="0.5" x2="0.5" y1="1" y2="-0.112257995"><stop offset="0" stop-color="#a2abb9"></stop><stop offset="1" stop-color="#e7eaf0"></stop></linearGradient><linearGradient gradientUnits="objectBoundingBox" id="linearGradient6" node-id="137" spreadMethod="pad" x1="0.5" x2="0.5" y1="1" y2="-0.112257995"><stop offset="0" stop-color="#a2abb9"></stop><stop offset="1" stop-color="#e7eaf0"></stop></linearGradient><linearGradient gradientUnits="objectBoundingBox" id="linearGradient7" node-id="144" spreadMethod="pad" x1="0.5" x2="0.5" y1="1" y2="-0.112257995"><stop offset="0" stop-color="#a2abb9"></stop><stop offset="1" stop-color="#e7eaf0"></stop></linearGradient><linearGradient gradientUnits="objectBoundingBox" id="linearGradient8" node-id="151" spreadMethod="pad" x1="0.5" x2="0.5" y1="1" y2="-0.112257995"><stop offset="0" stop-color="#a2abb9"></stop><stop offset="1" stop-color="#e7eaf0"></stop></linearGradient><linearGradient gradientUnits="objectBoundingBox" id="linearGradient9" node-id="158" spreadMethod="pad" x1="0.5" x2="0.5" y1="1" y2="-0.112257995"><stop offset="0" stop-color="#a2abb9"></stop><stop offset="1" stop-color="#e7eaf0"></stop></linearGradient><linearGradient gradientUnits="objectBoundingBox" id="linearGradient10" node-id="165" spreadMethod="pad" x1="0.5" x2="0.5" y1="1" y2="-0.112257995"><stop offset="0" stop-color="#a2abb9"></stop><stop offset="1" stop-color="#e7eaf0"></stop></linearGradient><linearGradient gradientUnits="objectBoundingBox" id="linearGradient11" node-id="172" spreadMethod="pad" x1="0.5" x2="0.5" y1="1" y2="-0.112257995"><stop offset="0" stop-color="#a2abb9"></stop><stop offset="1" stop-color="#e7eaf0"></stop></linearGradient><linearGradient gradientUnits="objectBoundingBox" id="linearGradient12" node-id="179" spreadMethod="pad" x1="0.5" x2="0.5" y1="1" y2="-0.112257995"><stop offset="0" stop-color="#a2abb9"></stop><stop offset="1" stop-color="#e7eaf0"></stop></linearGradient><linearGradient gradientUnits="objectBoundingBox" id="linearGradient13" node-id="186" spreadMethod="pad" x1="0.5" x2="0.5" y1="1" y2="-0.112257995"><stop offset="0" stop-color="#a2abb9"></stop><stop offset="1" stop-color="#e7eaf0"></stop></linearGradient><linearGradient gradientUnits="objectBoundingBox" id="linearGradient14" node-id="193" spreadMethod="pad" x1="0.5" x2="0.5" y1="1" y2="-0.112257995"><stop offset="0" stop-color="#a2abb9"></stop><stop offset="1" stop-color="#e7eaf0"></stop></linearGradient><linearGradient gradientUnits="objectBoundingBox" id="linearGradient15" node-id="200" spreadMethod="pad" x1="0.5" x2="0.5" y1="1" y2="-0.112257995"><stop offset="0" stop-color="#a2abb9"></stop><stop offset="1" stop-color="#e7eaf0"></stop></linearGradient><linearGradient gradientUnits="objectBoundingBox" id="linearGradient16" node-id="207" spreadMethod="pad" x1="0.5" x2="0.5" y1="1" y2="-0.112257995"><stop offset="0" stop-color="#a2abb9"></stop><stop offset="1" stop-color="#e7eaf0"></stop></linearGradient><linearGradient gradientUnits="objectBoundingBox" id="linearGradient-7" node-id="23" spreadMethod="pad" x1="0.5" x2="0.5" y1="1" y2="-0.112257995"><stop offset="0" stop-color="#a2abb9"></stop><stop offset="1" stop-color="#e7eaf0"></stop></linearGradient><linearGradient gradientUnits="objectBoundingBox" id="linearGradient-8" node-id="26" spreadMethod="pad" x1="0.5" x2="0.5" y1="1" y2="-0.112257995"><stop offset="0" stop-color="#a2abb9"></stop><stop offset="1" stop-color="#e7eaf0"></stop></linearGradient></defs><g node-id="225"><path d="M 314.40 66.00 L 324.60 66.20 L 334.70 66.90 L 344.60 68.00 L 354.30 69.50 L 363.90 71.40 L 373.40 73.70 L 382.70 76.40 L 391.90 79.50 L 400.80 83.00 L 409.50 86.80 L 420.30 92.10 L 430.60 97.90 L 440.60 104.20 L 450.20 111.00 L 432.60 111.20 L 430.50 111.80 L 428.40 112.80 L 425.10 115.60 L 422.80 119.50 L 422.20 121.60 L 422.00 125.00 L 422.20 127.40 L 422.80 129.50 L 423.80 131.60 L 426.60 134.90 L 430.50 137.20 L 432.60 137.80 L 435.00 138.00 L 480.20 138.00 L 486.50 145.10 L 492.40 152.40 L 498.10 159.90 L 503.40 167.80 L 524.90 167.80 L 527.40 168.00 L 529.80 168.60 L 531.90 169.70 L 533.90 171.10 L 535.60 172.70 L 537.00 174.70 L 538.00 176.90 L 538.60 179.20 L 538.90 181.80 L 538.30 186.60 L 537.60 188.50 L 536.00 191.00 L 534.00 193.20 L 531.50 194.90 L 528.80 196.00 L 509.00 196.00 L 506.10 196.30 L 503.40 197.00 L 500.90 198.20 L 498.70 199.80 L 496.80 201.70 L 495.20 203.90 L 494.00 206.40 L 493.30 209.10 L 493.00 217.00 L 493.30 219.90 L 494.00 222.60 L 495.20 225.10 L 496.80 227.30 L 498.70 229.20 L 500.90 230.80 L 503.40 232.00 L 506.10 232.70 L 509.00 233.00 L 576.90 233.00 L 581.20 234.80 L 583.10 236.10 L 586.20 239.50 L 588.30 243.70 L 589.00 248.50 L 588.70 252.30 L 588.00 255.00 L 586.80 257.50 L 585.20 259.70 L 583.30 261.60 L 581.10 263.20 L 578.60 264.40 L 575.90 265.10 L 573.00 265.40 L 537.80 265.40 L 538.60 276.10 L 538.90 287.00 L 538.60 297.50 L 537.90 307.80 L 536.70 317.90 L 535.10 327.90 L 532.90 337.70 L 530.40 347.40 L 527.40 356.90 L 524.00 366.20 L 520.20 375.30 L 516.10 384.20 L 511.50 392.90 L 506.50 401.40 L 501.20 409.60 L 495.60 417.50 L 489.60 425.20 L 483.20 432.70 L 476.60 439.80 L 469.60 446.60 L 462.40 453.20 L 454.80 459.40 L 447.00 465.40 L 438.90 470.90 L 430.60 476.10 L 422.00 481.00 L 413.10 485.50 L 404.10 489.70 L 394.80 493.40 L 385.40 496.70 L 375.70 499.60 L 365.80 502.20 L 355.90 504.20 L 345.80 505.90 L 335.50 507.00 L 325.00 507.70 L 314.40 508.00 L 304.40 507.80 L 294.60 507.20 L 285.00 506.10 L 275.50 504.70 L 266.20 502.90 L 254.60 500.10 L 243.30 496.70 L 232.40 492.80 L 221.70 488.30 L 211.20 483.30 L 201.00 477.80 L 191.30 471.80 L 181.80 465.40 L 172.70 458.40 L 164.00 451.10 L 155.60 443.30 L 147.70 435.10 L 140.20 426.50 L 133.20 417.60 L 126.60 408.30 L 120.50 398.60 L 114.90 388.60 L 109.90 378.30 L 105.30 367.80 L 101.30 356.90 L 91.20 356.70 L 89.80 356.10 L 88.50 355.10 L 87.60 353.80 L 87.00 352.40 L 86.70 350.70 L 87.00 348.90 L 87.80 347.20 L 89.00 345.90 L 90.60 345.00 L 103.40 344.80 L 105.50 344.20 L 107.60 343.20 L 110.90 340.40 L 113.20 336.50 L 113.80 334.40 L 114.00 332.00 L 113.80 328.60 L 113.20 326.50 L 112.20 324.40 L 110.90 322.60 L 107.60 319.80 L 105.50 318.80 L 103.40 318.20 L 92.00 317.80 L 69.90 317.80 L 66.30 317.20 L 64.70 316.40 L 62.00 314.20 L 60.20 311.20 L 59.70 309.40 L 59.70 305.70 L 61.00 302.40 L 63.20 299.70 L 66.30 297.90 L 69.90 297.30 L 90.10 297.30 L 89.90 287.00 L 90.10 277.20 L 90.70 267.50 L 91.80 258.00 L 93.20 248.70 L 95.10 239.50 L 97.90 228.00 L 101.40 216.90 L 105.40 206.10 L 109.90 195.50 L 74.00 195.50 L 70.20 195.20 L 66.50 194.50 L 63.10 193.30 L 59.90 191.70 L 56.90 189.70 L 54.20 187.30 L 51.80 184.60 L 49.80 181.70 L 48.20 178.40 L 47.00 175.00 L 46.30 171.40 L 46.00 167.50 L 46.20 162.20 L 46.90 158.70 L 48.10 155.40 L 49.60 152.20 L 51.50 149.30 L 53.70 146.70 L 56.20 144.30 L 59.00 142.30 L 62.10 140.60 L 65.30 139.30 L 68.70 138.50 L 72.40 138.00 L 199.00 138.00 L 202.50 137.40 L 205.50 135.60 L 207.60 133.00 L 208.40 131.50 L 209.00 128.00 L 208.80 126.20 L 208.40 124.50 L 206.60 121.50 L 204.00 119.40 L 202.50 118.60 L 199.00 118.00 L 169.70 118.00 L 170.40 117.40 L 155.80 117.40 L 152.40 117.10 L 149.20 116.20 L 146.30 114.80 L 143.60 112.90 L 141.30 110.70 L 139.40 108.00 L 138.00 105.00 L 137.20 101.90 L 136.80 98.40 L 137.20 93.90 L 138.00 90.70 L 139.40 87.70 L 141.30 85.10 L 143.60 82.80 L 146.30 80.90 L 149.20 79.50 L 152.40 78.70 L 155.80 78.30 L 240.20 78.30 L 257.90 73.00 L 276.30 69.20 L 295.00 66.80 L 314.40 66.00 Z" fill="#f3f3fa" fill-opacity="0.6015942" fill-rule="evenodd" group-id="1" id="背景" node-id="30" stroke="none" target-height="442" target-width="543" target-x="46" target-y="66"></path></g><g node-id="226"><path d="M 180.00 393.40 L 181.00 397.40 L 180.40 400.40 L 179.70 401.80 L 178.20 403.40 L 176.30 404.50 L 157.60 404.90 L 157.80 426.00 L 158.50 438.00 L 145.90 438.00 L 146.30 429.10 L 146.40 406.40 L 145.40 407.20 L 143.10 407.80 L 140.50 407.10 L 138.70 405.10 L 128.80 404.60 L 125.30 403.00 L 123.90 401.70 L 122.90 400.10 L 122.20 398.30 L 122.10 395.40 L 124.50 389.40 L 125.60 385.80 L 128.00 383.00 L 141.80 357.50 L 143.70 354.60 L 145.80 352.20 L 147.40 351.00 L 149.40 350.30 L 151.70 350.00 L 155.60 350.70 L 157.30 351.70 L 160.10 354.40 L 172.10 377.70 L 174.00 378.60 L 175.60 379.80 L 177.00 381.40 L 178.10 383.20 L 178.80 385.20 L 179.00 387.40 L 178.50 390.40 L 180.00 393.40 Z" fill="url(#linearGradient1)" fill-rule="nonzero" group-id="2" id="路径" node-id="32" stroke="none" target-height="88" target-width="58.9" target-x="122.1" target-y="350"></path><path d="M 490.00 393.40 L 491.00 397.40 L 490.40 400.40 L 489.70 401.80 L 488.20 403.40 L 486.30 404.50 L 467.60 404.90 L 467.80 426.00 L 468.50 438.00 L 455.90 438.00 L 456.30 429.10 L 456.40 406.40 L 455.40 407.20 L 453.10 407.80 L 450.50 407.10 L 448.70 405.10 L 438.80 404.60 L 435.30 403.00 L 433.90 401.70 L 432.90 400.10 L 432.20 398.30 L 432.10 395.40 L 434.50 389.40 L 435.60 385.80 L 438.00 383.00 L 451.80 357.50 L 453.70 354.60 L 455.80 352.20 L 457.40 351.00 L 459.40 350.30 L 461.70 350.00 L 465.60 350.70 L 467.30 351.70 L 470.10 354.40 L 482.10 377.70 L 484.00 378.60 L 485.60 379.80 L 487.00 381.40 L 488.10 383.20 L 488.80 385.20 L 489.00 387.40 L 488.50 390.40 L 490.00 393.40 Z" fill="url(#linearGradient-1)" fill-rule="nonzero" group-id="2" id="路径" node-id="33" stroke="none" target-height="88" target-width="58.899994" target-x="432.1" target-y="350"></path><path d="M 453.20 403.00 L 454.00 406.20 L 453.70 408.00 L 453.00 409.60 L 451.80 410.90 L 450.30 411.70 L 435.80 412.00 L 435.90 428.60 L 436.50 438.00 L 426.60 438.00 L 427.00 431.00 L 427.00 413.30 L 425.80 414.00 L 424.40 414.30 L 422.40 413.70 L 421.00 412.20 L 413.30 411.80 L 410.60 410.60 L 408.70 408.30 L 408.20 406.90 L 408.10 404.60 L 410.80 397.10 L 412.70 394.80 L 423.40 374.80 L 426.60 370.70 L 427.80 369.80 L 429.30 369.20 L 431.10 369.00 L 434.20 369.60 L 435.60 370.30 L 437.30 371.80 L 447.10 390.70 L 449.80 392.40 L 451.80 395.00 L 452.40 398.30 L 452.10 400.70 L 453.20 403.00 Z" fill="url(#linearGradient-2)" fill-rule="nonzero" group-id="2" id="路径" node-id="34" stroke="none" target-height="69" target-width="45.899994" target-x="408.1" target-y="369"></path></g><path d="M 284.50 415.00 L 324.70 415.70 L 362.20 417.80 L 396.00 421.10 L 412.30 423.20 L 426.80 425.50 L 439.80 428.00 L 449.30 428.30 L 458.10 429.00 L 466.40 430.10 L 474.60 431.70 L 481.80 433.50 L 488.10 435.60 L 492.80 437.60 L 496.70 439.60 L 502.70 443.70 L 505.10 446.20 L 506.70 448.60 L 507.70 451.00 L 508.00 453.50 L 507.80 455.50 L 506.10 459.40 L 504.60 461.40 L 502.20 463.70 L 499.10 466.00 L 495.10 468.30 L 486.10 472.10 L 480.60 473.80 L 468.90 476.40 L 462.10 477.50 L 452.30 480.20 L 440.70 482.80 L 441.00 486.00 L 440.70 488.80 L 440.10 491.60 L 438.90 494.30 L 437.20 497.10 L 435.00 499.90 L 431.90 502.90 L 428.20 506.00 L 423.60 509.00 L 412.80 514.50 L 400.10 519.30 L 392.70 521.50 L 382.80 523.90 L 372.00 526.00 L 360.30 527.80 L 348.50 529.00 L 336.10 529.70 L 323.00 530.00 L 311.20 529.80 L 300.00 529.20 L 289.30 528.20 L 278.50 526.80 L 268.60 525.10 L 259.30 523.00 L 250.10 520.60 L 241.90 518.00 L 234.60 515.20 L 229.20 512.70 L 220.20 507.60 L 213.10 502.00 L 210.30 499.10 L 208.10 496.10 L 206.60 493.20 L 190.90 491.80 L 162.60 488.60 L 136.80 484.50 L 114.80 479.70 L 105.40 477.10 L 97.50 474.40 L 86.50 469.80 L 82.50 467.60 L 76.90 463.30 L 75.10 461.20 L 73.90 459.30 L 73.20 457.40 L 73.00 455.50 L 73.30 453.50 L 74.10 451.40 L 75.50 449.30 L 77.60 447.10 L 80.60 444.70 L 84.30 442.40 L 89.00 440.00 L 94.80 437.60 L 101.90 435.10 L 111.20 432.30 L 122.10 429.50 L 134.90 426.90 L 162.00 422.50 L 177.80 420.50 L 210.30 417.60 L 246.20 415.70 L 284.50 415.00 Z" fill="#e7eaf0" fill-rule="evenodd" id="形状结合" node-id="35" stroke="none" target-height="115" target-width="435" target-x="73" target-y="415"></path><path d="M 395.00 458.10 L 394.70 459.20 L 393.80 460.30 L 391.90 461.60 L 388.60 463.00 L 383.60 464.50 L 371.20 466.40 L 356.00 467.10 L 340.80 466.40 L 328.40 464.50 L 323.40 463.00 L 320.10 461.60 L 318.20 460.30 L 317.30 459.20 L 317.00 458.10 L 317.30 457.00 L 318.20 455.80 L 320.10 454.60 L 323.40 453.20 L 328.40 451.70 L 340.80 449.80 L 356.00 449.10 L 371.20 449.80 L 383.60 451.70 L 388.60 453.20 L 391.90 454.60 L 393.80 455.80 L 394.70 457.00 L 395.00 458.10 Z" fill="#d1d6e2" fill-rule="nonzero" id="椭圆形" node-id="36" stroke="none" target-height="18" target-width="78" target-x="317" target-y="449.1"></path><path d="M 267.30 450.30 L 248.70 442.40 L 267.30 442.40 L 241.70 421.60 L 280.30 436.00 L 299.00 428.20 L 301.20 442.40 L 339.50 425.90 L 308.50 452.90 L 339.50 452.90 L 317.70 457.80 L 333.80 467.60 L 313.10 461.00 L 355.60 491.20 L 325.20 478.50 L 309.80 472.40 L 301.50 469.70 L 301.20 469.80 L 301.60 471.20 L 303.50 475.10 L 308.50 484.10 L 290.90 474.20 L 287.60 484.10 L 283.70 478.00 L 267.10 486.30 L 258.40 490.20 L 254.60 491.50 L 253.30 491.60 L 253.00 491.20 L 253.40 490.00 L 255.00 487.50 L 259.20 482.60 L 267.30 474.20 L 202.70 481.40 L 262.90 462.90 L 235.60 462.90 L 258.70 456.60 L 200.50 450.30 L 267.30 450.30 Z" fill="#d1d6e2" fill-rule="evenodd" id="路径-14" node-id="37" stroke="none" target-height="70" target-width="155.1" target-x="200.5" target-y="421.6"></path><path d="M 285.30 452.10 L 281.00 449.80 L 285.30 449.80 L 279.40 445.00 L 288.20 448.30 L 292.50 446.50 L 293.00 449.80 L 301.80 446.00 L 294.70 452.10 L 301.80 452.10 L 296.80 453.30 L 300.50 455.50 L 295.70 454.00 L 305.50 460.90 L 293.00 456.00 L 294.70 459.30 L 290.70 457.00 L 289.90 459.30 L 289.00 457.90 L 282.20 461.00 L 282.00 460.90 L 282.50 460.10 L 285.30 457.00 L 270.50 458.70 L 284.30 454.40 L 278.00 454.40 L 283.30 453.00 L 270.10 452.70 L 285.30 452.10 Z" fill="#909aa9" fill-rule="evenodd" id="路径-14备份-2" node-id="38" stroke="none" target-height="16" target-width="35.399994" target-x="270.1" target-y="445"></path><path d="M 445.40 162.30 L 444.60 166.10 L 443.70 167.70 L 441.00 170.50 L 437.20 172.30 L 432.80 173.00 L 393.90 173.00 L 391.50 172.70 L 387.40 171.30 L 384.00 168.90 L 381.80 165.70 L 381.20 163.90 L 381.00 161.80 L 381.80 158.00 L 384.10 154.80 L 387.40 152.30 L 386.90 150.20 L 387.20 148.20 L 388.00 146.40 L 389.40 144.90 L 391.10 143.70 L 393.20 142.90 L 395.60 142.60 L 398.50 143.10 L 400.90 144.30 L 402.90 141.70 L 405.30 139.50 L 408.10 137.60 L 411.30 136.20 L 414.70 135.30 L 418.50 135.00 L 422.00 135.30 L 425.10 136.00 L 428.10 137.20 L 430.80 138.90 L 433.00 140.90 L 434.90 143.10 L 436.30 145.70 L 437.20 148.40 L 437.50 152.30 L 439.70 153.40 L 441.60 154.70 L 443.20 156.30 L 444.40 158.10 L 445.10 160.10 L 445.40 162.30 Z" fill="url(#linearGradient-3)" fill-rule="nonzero" id="路径" node-id="39" stroke="none" target-height="38" target-width="64.399994" target-x="381" target-y="135"></path><path d="M 212.00 208.90 L 211.70 211.50 L 210.90 213.80 L 209.60 216.10 L 207.80 218.00 L 205.70 219.70 L 203.10 221.10 L 200.40 222.10 L 197.40 222.80 L 194.00 223.00 L 138.40 223.00 L 132.00 221.80 L 129.20 220.70 L 126.50 219.30 L 124.30 217.50 L 122.50 215.60 L 121.20 213.40 L 120.30 211.00 L 120.00 208.30 L 120.30 205.70 L 121.20 203.30 L 122.60 201.00 L 124.40 199.00 L 126.60 197.30 L 129.20 195.80 L 128.40 193.00 L 129.10 189.60 L 130.00 188.00 L 132.70 185.50 L 136.40 183.70 L 140.90 183.00 L 145.00 183.60 L 148.40 185.20 L 152.30 180.80 L 154.80 178.80 L 160.20 175.70 L 166.50 173.70 L 173.50 173.00 L 177.30 173.20 L 184.10 174.70 L 190.20 177.50 L 195.10 181.40 L 197.00 183.70 L 198.60 186.20 L 199.70 188.80 L 200.50 191.60 L 200.70 195.80 L 204.00 197.20 L 206.70 198.90 L 208.90 201.00 L 211.20 204.70 L 212.00 208.90 Z" fill="url(#linearGradient-4)" fill-rule="nonzero" id="路径" node-id="40" stroke="none" target-height="50" target-width="92" target-x="120" target-y="173"></path><path d="M 278.20 216.00 L 282.30 216.30 L 285.70 217.00 L 288.70 218.20 L 291.50 219.70 L 293.80 221.50 L 295.80 223.50 L 298.90 228.00 L 299.90 230.30 L 300.90 233.70 L 301.20 236.70 L 304.60 237.50 L 311.60 240.50 L 317.30 244.40 L 319.90 246.80 L 322.20 249.60 L 325.30 255.10 L 326.80 260.60 L 327.00 263.80 L 326.70 267.90 L 325.90 271.50 L 324.80 274.70 L 321.50 280.50 L 316.50 286.00 L 313.60 288.50 L 308.80 292.10 L 301.50 296.60 L 299.10 299.20 L 298.50 301.70 L 298.80 303.00 L 299.60 304.70 L 303.90 310.10 L 305.00 312.30 L 305.30 313.80 L 304.90 314.70 L 304.00 315.40 L 302.20 315.80 L 294.50 315.80 L 294.50 446.40 L 287.90 453.00 L 275.20 453.00 L 263.20 435.10 L 263.20 427.50 L 272.60 421.80 L 272.60 409.60 L 265.70 402.60 L 265.70 387.00 L 271.00 376.80 L 271.00 351.90 L 263.20 344.80 L 263.20 315.80 L 254.30 315.60 L 252.90 315.10 L 252.30 314.40 L 252.10 313.40 L 252.50 312.00 L 253.90 309.90 L 258.20 304.70 L 259.00 302.80 L 259.20 301.00 L 258.70 299.30 L 257.80 297.70 L 256.20 296.00 L 253.70 294.10 L 246.90 290.50 L 243.40 288.20 L 240.10 285.40 L 237.00 282.10 L 233.60 276.80 L 232.30 273.90 L 231.40 270.80 L 231.00 267.40 L 231.10 263.80 L 231.90 259.50 L 233.10 255.60 L 234.70 252.10 L 236.90 248.90 L 239.60 245.90 L 242.80 243.20 L 246.70 240.80 L 251.30 238.60 L 256.60 236.70 L 258.10 231.90 L 259.90 227.80 L 261.80 224.60 L 264.00 221.90 L 266.30 219.80 L 268.90 218.10 L 271.70 217.00 L 274.80 216.20 L 278.20 216.00 Z M 279.50 230.00 L 277.00 230.20 L 274.80 230.80 L 270.80 233.20 L 267.80 236.70 L 266.80 238.80 L 266.20 241.00 L 266.00 243.50 L 266.20 246.00 L 266.80 248.20 L 267.80 250.30 L 270.80 253.80 L 274.80 256.20 L 277.00 256.80 L 279.50 257.00 L 282.00 256.80 L 284.20 256.20 L 288.20 253.80 L 291.20 250.30 L 292.20 248.20 L 292.80 246.00 L 293.00 243.50 L 292.80 241.00 L 292.20 238.80 L 289.80 234.80 L 286.30 231.80 L 284.20 230.80 L 282.00 230.20 L 279.50 230.00 Z" fill="none" id="形状结合" node-id="41" stroke="url(#linearGradient-5)" stroke-linecap="butt" stroke-width="2" target-height="237" target-width="96" target-x="231" target-y="216"></path><path d="M 286.20 216.00 L 290.30 216.30 L 293.70 217.00 L 296.70 218.20 L 299.50 219.70 L 301.80 221.50 L 303.80 223.50 L 306.90 228.00 L 307.90 230.30 L 308.90 233.70 L 309.20 236.70 L 312.60 237.50 L 319.60 240.50 L 325.30 244.40 L 327.90 246.80 L 330.20 249.60 L 333.30 255.10 L 334.80 260.60 L 335.00 263.80 L 334.70 267.90 L 333.90 271.50 L 332.80 274.70 L 329.50 280.50 L 324.50 286.00 L 316.80 292.10 L 309.60 296.60 L 308.20 297.80 L 306.70 300.10 L 306.60 302.40 L 307.00 303.60 L 311.90 310.10 L 313.00 312.30 L 313.30 313.80 L 312.90 314.70 L 312.00 315.40 L 310.20 315.80 L 302.50 315.80 L 302.50 446.40 L 295.90 453.00 L 283.20 453.00 L 271.20 435.10 L 271.20 427.50 L 280.60 421.80 L 280.60 409.60 L 273.70 402.60 L 273.70 387.00 L 279.00 376.80 L 279.00 351.90 L 271.20 344.80 L 271.20 315.80 L 262.30 315.60 L 260.90 315.10 L 260.30 314.40 L 260.10 313.40 L 260.50 312.00 L 261.90 309.90 L 266.20 304.70 L 267.00 302.80 L 267.20 301.00 L 266.70 299.30 L 265.80 297.70 L 264.20 296.00 L 261.70 294.10 L 254.90 290.50 L 251.40 288.20 L 248.10 285.40 L 245.00 282.10 L 241.60 276.80 L 240.30 273.90 L 239.40 270.80 L 239.00 267.40 L 239.10 263.80 L 239.90 259.50 L 241.10 255.60 L 242.70 252.10 L 244.90 248.90 L 247.60 245.90 L 250.80 243.20 L 254.70 240.80 L 259.30 238.60 L 264.60 236.70 L 266.10 231.90 L 267.90 227.80 L 269.80 224.60 L 272.00 221.90 L 274.30 219.80 L 276.90 218.10 L 279.70 217.00 L 282.80 216.20 L 286.20 216.00 Z M 287.50 230.00 L 285.00 230.20 L 282.80 230.80 L 278.80 233.20 L 275.80 236.70 L 274.80 238.80 L 274.20 241.00 L 274.00 243.50 L 274.20 246.00 L 274.80 248.20 L 275.80 250.30 L 278.80 253.80 L 282.80 256.20 L 285.00 256.80 L 287.50 257.00 L 290.00 256.80 L 292.20 256.20 L 296.20 253.80 L 299.20 250.30 L 300.20 248.20 L 300.80 246.00 L 301.00 243.50 L 300.80 241.00 L 300.20 238.80 L 297.80 234.80 L 294.30 231.80 L 292.20 230.80 L 290.00 230.20 L 287.50 230.00 Z" fill="url(#linearGradient-6)" fill-rule="nonzero" id="形状结合备份" node-id="42" stroke="none" target-height="237" target-width="96" target-x="239" target-y="216"></path><g node-id="227"><path d="M 412.00 236.00 L 416.20 236.80 L 419.70 238.80 L 422.40 241.90 L 423.20 243.80 L 424.00 248.00 L 423.20 252.20 L 421.20 255.70 L 418.10 258.40 L 414.20 259.80 L 412.00 260.00 L 409.80 259.80 L 407.80 259.20 L 404.30 257.20 L 401.60 254.10 L 400.80 252.20 L 400.00 248.00 L 400.80 243.80 L 402.80 240.30 L 405.90 237.60 L 407.80 236.80 L 412.00 236.00 Z M 412.00 241.00 L 410.10 241.30 L 408.50 242.00 L 407.10 243.10 L 406.00 244.50 L 405.30 246.10 L 405.00 248.00 L 405.30 249.90 L 406.00 251.50 L 407.10 252.90 L 408.50 254.00 L 410.10 254.70 L 412.00 255.00 L 413.90 254.70 L 415.50 254.00 L 416.90 252.90 L 418.00 251.50 L 418.70 249.90 L 419.00 248.00 L 418.70 246.10 L 418.00 244.50 L 416.90 243.10 L 415.50 242.00 L 413.90 241.30 L 412.00 241.00 Z" fill="url(#linearGradient2)" fill-rule="nonzero" group-id="3" id="形状结合" node-id="44" stroke="none" target-height="24" target-width="24" target-x="400" target-y="236"></path><path d="M 186.00 266.00 L 187.60 266.20 L 189.00 266.80 L 190.20 267.80 L 191.20 269.00 L 191.80 270.40 L 192.00 272.00 L 191.80 273.60 L 191.20 275.00 L 189.00 277.20 L 187.60 277.80 L 186.00 278.00 L 183.00 277.20 L 180.80 275.00 L 180.00 272.00 L 180.20 270.40 L 180.80 269.00 L 181.80 267.80 L 183.00 266.80 L 184.40 266.20 L 186.00 266.00 Z M 186.00 268.50 L 184.60 268.80 L 183.50 269.50 L 182.80 270.60 L 182.50 272.00 L 182.80 273.40 L 183.50 274.50 L 184.60 275.20 L 186.00 275.50 L 187.40 275.20 L 188.50 274.50 L 189.20 273.40 L 189.50 272.00 L 189.20 270.60 L 188.50 269.50 L 187.40 268.80 L 186.00 268.50 Z" fill="url(#linearGradient3)" fill-rule="nonzero" group-id="3" id="形状结合备份-2" node-id="45" stroke="none" target-height="12" target-width="12" target-x="180" target-y="266"></path><path d="M 392.00 345.00 L 393.60 345.30 L 394.80 346.20 L 395.70 347.40 L 396.00 349.00 L 395.70 350.60 L 394.80 351.80 L 393.60 352.70 L 392.00 353.00 L 390.40 352.70 L 389.20 351.80 L 388.30 350.60 L 388.00 349.00 L 388.30 347.40 L 389.20 346.20 L 390.40 345.30 L 392.00 345.00 Z M 392.00 346.70 L 390.40 347.40 L 389.70 349.00 L 390.40 350.60 L 392.00 351.30 L 393.60 350.60 L 394.30 349.00 L 393.60 347.40 L 392.00 346.70 Z" fill="url(#linearGradient4)" fill-rule="nonzero" group-id="3" id="形状结合备份-7" node-id="46" stroke="none" target-height="8" target-width="8" target-x="388" target-y="345"></path><path d="M 268.00 165.00 L 269.20 165.20 L 270.10 165.90 L 270.80 166.80 L 271.00 168.00 L 271.00 176.00 L 279.00 176.00 L 280.20 176.20 L 281.10 176.90 L 281.80 177.80 L 282.00 179.00 L 281.80 180.20 L 281.10 181.10 L 280.20 181.80 L 279.00 182.00 L 271.00 182.00 L 271.00 190.00 L 270.80 191.20 L 270.10 192.10 L 269.20 192.80 L 268.00 193.00 L 266.80 192.80 L 265.90 192.10 L 265.20 191.20 L 265.00 190.00 L 265.00 182.00 L 257.00 182.00 L 255.80 181.80 L 254.90 181.10 L 254.20 180.20 L 254.00 179.00 L 254.20 177.80 L 254.90 176.90 L 255.80 176.20 L 257.00 176.00 L 265.00 176.00 L 265.00 168.00 L 265.20 166.80 L 265.90 165.90 L 266.80 165.20 L 268.00 165.00 Z" fill="url(#linearGradient5)" fill-rule="nonzero" group-id="3" id="形状结合" node-id="47" stroke="none" target-height="28" target-width="28" target-x="254" target-y="165"></path><path d="M 348.00 212.00 L 348.80 212.20 L 349.80 213.20 L 350.00 219.00 L 355.80 219.20 L 356.80 220.20 L 357.00 221.00 L 356.80 221.80 L 355.80 222.80 L 350.00 223.00 L 349.80 228.80 L 348.80 229.80 L 348.00 230.00 L 347.20 229.80 L 346.20 228.80 L 346.00 223.00 L 340.20 222.80 L 339.20 221.80 L 339.00 221.00 L 339.20 220.20 L 340.20 219.20 L 346.00 219.00 L 346.20 213.20 L 347.20 212.20 L 348.00 212.00 Z" fill="url(#linearGradient6)" fill-rule="nonzero" group-id="3" id="形状结合备份-3" node-id="48" stroke="none" target-height="18" target-width="18" target-x="339" target-y="212"></path><path d="M 363.00 288.00 L 363.80 288.20 L 364.80 289.20 L 365.00 295.00 L 370.80 295.20 L 371.80 296.20 L 372.00 297.00 L 371.80 297.80 L 370.80 298.80 L 365.00 299.00 L 364.80 304.80 L 363.80 305.80 L 363.00 306.00 L 362.20 305.80 L 361.20 304.80 L 361.00 299.00 L 355.20 298.80 L 354.20 297.80 L 354.00 297.00 L 354.20 296.20 L 355.20 295.20 L 361.00 295.00 L 361.20 289.20 L 362.20 288.20 L 363.00 288.00 Z" fill="url(#linearGradient7)" fill-rule="nonzero" group-id="3" id="形状结合备份-4" node-id="49" stroke="none" target-height="18" target-width="18" target-x="354" target-y="288"></path><path d="M 200.00 330.00 L 200.90 330.20 L 202.00 331.40 L 202.20 337.80 L 208.60 338.00 L 209.80 339.10 L 210.00 340.00 L 209.80 340.90 L 208.60 342.00 L 202.20 342.20 L 202.20 347.80 L 202.00 348.60 L 200.90 349.80 L 199.10 349.80 L 198.00 348.60 L 197.80 342.20 L 191.40 342.00 L 190.20 340.90 L 190.00 340.00 L 190.20 339.10 L 191.40 338.00 L 197.80 337.80 L 198.00 331.40 L 199.10 330.20 L 200.00 330.00 Z" fill="url(#linearGradient8)" fill-rule="nonzero" group-id="3" id="形状结合备份-5" node-id="50" stroke="none" target-height="19.799988" target-width="20" target-x="190" target-y="330"></path><path d="M 245.00 378.00 L 245.70 378.10 L 246.60 379.10 L 246.80 384.20 L 251.90 384.40 L 252.90 385.30 L 253.00 386.00 L 252.90 386.70 L 251.90 387.60 L 246.80 387.80 L 246.80 392.20 L 246.60 392.90 L 245.70 393.90 L 244.30 393.90 L 243.40 392.90 L 243.20 387.80 L 238.10 387.60 L 237.10 386.70 L 237.00 386.00 L 237.10 385.30 L 238.10 384.40 L 243.20 384.20 L 243.40 379.10 L 244.30 378.10 L 245.00 378.00 Z" fill="url(#linearGradient9)" fill-rule="nonzero" group-id="3" id="形状结合备份-6" node-id="51" stroke="none" target-height="15.899994" target-width="16" target-x="237" target-y="378"></path></g><g node-id="228"><path d="M 412.00 236.00 L 416.20 236.80 L 419.70 238.80 L 422.40 241.90 L 423.20 243.80 L 424.00 248.00 L 423.20 252.20 L 421.20 255.70 L 418.10 258.40 L 414.20 259.80 L 412.00 260.00 L 409.80 259.80 L 407.80 259.20 L 404.30 257.20 L 401.60 254.10 L 400.80 252.20 L 400.00 248.00 L 400.80 243.80 L 402.80 240.30 L 405.90 237.60 L 407.80 236.80 L 412.00 236.00 Z M 412.00 241.00 L 410.10 241.30 L 408.50 242.00 L 407.10 243.10 L 406.00 244.50 L 405.30 246.10 L 405.00 248.00 L 405.30 249.90 L 406.00 251.50 L 407.10 252.90 L 408.50 254.00 L 410.10 254.70 L 412.00 255.00 L 413.90 254.70 L 415.50 254.00 L 416.90 252.90 L 418.00 251.50 L 418.70 249.90 L 419.00 248.00 L 418.70 246.10 L 418.00 244.50 L 416.90 243.10 L 415.50 242.00 L 413.90 241.30 L 412.00 241.00 Z" fill="url(#linearGradient10)" fill-rule="nonzero" group-id="4" id="形状结合" node-id="53" stroke="none" target-height="24" target-width="24" target-x="400" target-y="236"></path><path d="M 186.00 266.00 L 187.60 266.20 L 189.00 266.80 L 190.20 267.80 L 191.20 269.00 L 191.80 270.40 L 192.00 272.00 L 191.80 273.60 L 191.20 275.00 L 189.00 277.20 L 187.60 277.80 L 186.00 278.00 L 183.00 277.20 L 180.80 275.00 L 180.00 272.00 L 180.20 270.40 L 180.80 269.00 L 181.80 267.80 L 183.00 266.80 L 184.40 266.20 L 186.00 266.00 Z M 186.00 268.50 L 184.60 268.80 L 183.50 269.50 L 182.80 270.60 L 182.50 272.00 L 182.80 273.40 L 183.50 274.50 L 184.60 275.20 L 186.00 275.50 L 187.40 275.20 L 188.50 274.50 L 189.20 273.40 L 189.50 272.00 L 189.20 270.60 L 188.50 269.50 L 187.40 268.80 L 186.00 268.50 Z" fill="url(#linearGradient11)" fill-rule="nonzero" group-id="4" id="形状结合备份-2" node-id="54" stroke="none" target-height="12" target-width="12" target-x="180" target-y="266"></path><path d="M 392.00 345.00 L 393.60 345.30 L 394.80 346.20 L 395.70 347.40 L 396.00 349.00 L 395.70 350.60 L 394.80 351.80 L 393.60 352.70 L 392.00 353.00 L 390.40 352.70 L 389.20 351.80 L 388.30 350.60 L 388.00 349.00 L 388.30 347.40 L 389.20 346.20 L 390.40 345.30 L 392.00 345.00 Z M 392.00 346.70 L 390.40 347.40 L 389.70 349.00 L 390.40 350.60 L 392.00 351.30 L 393.60 350.60 L 394.30 349.00 L 393.60 347.40 L 392.00 346.70 Z" fill="url(#linearGradient12)" fill-rule="nonzero" group-id="4" id="形状结合备份-7" node-id="55" stroke="none" target-height="8" target-width="8" target-x="388" target-y="345"></path><path d="M 268.00 165.00 L 269.20 165.20 L 270.10 165.90 L 270.80 166.80 L 271.00 168.00 L 271.00 176.00 L 279.00 176.00 L 280.20 176.20 L 281.10 176.90 L 281.80 177.80 L 282.00 179.00 L 281.80 180.20 L 281.10 181.10 L 280.20 181.80 L 279.00 182.00 L 271.00 182.00 L 271.00 190.00 L 270.80 191.20 L 270.10 192.10 L 269.20 192.80 L 268.00 193.00 L 266.80 192.80 L 265.90 192.10 L 265.20 191.20 L 265.00 190.00 L 265.00 182.00 L 257.00 182.00 L 255.80 181.80 L 254.90 181.10 L 254.20 180.20 L 254.00 179.00 L 254.20 177.80 L 254.90 176.90 L 255.80 176.20 L 257.00 176.00 L 265.00 176.00 L 265.00 168.00 L 265.20 166.80 L 265.90 165.90 L 266.80 165.20 L 268.00 165.00 Z" fill="url(#linearGradient13)" fill-rule="nonzero" group-id="4" id="形状结合" node-id="56" stroke="none" target-height="28" target-width="28" target-x="254" target-y="165"></path><path d="M 348.00 212.00 L 348.80 212.20 L 349.80 213.20 L 350.00 219.00 L 355.80 219.20 L 356.80 220.20 L 357.00 221.00 L 356.80 221.80 L 355.80 222.80 L 350.00 223.00 L 349.80 228.80 L 348.80 229.80 L 348.00 230.00 L 347.20 229.80 L 346.20 228.80 L 346.00 223.00 L 340.20 222.80 L 339.20 221.80 L 339.00 221.00 L 339.20 220.20 L 340.20 219.20 L 346.00 219.00 L 346.20 213.20 L 347.20 212.20 L 348.00 212.00 Z" fill="url(#linearGradient14)" fill-rule="nonzero" group-id="4" id="形状结合备份-3" node-id="57" stroke="none" target-height="18" target-width="18" target-x="339" target-y="212"></path><path d="M 363.00 288.00 L 363.80 288.20 L 364.80 289.20 L 365.00 295.00 L 370.80 295.20 L 371.80 296.20 L 372.00 297.00 L 371.80 297.80 L 370.80 298.80 L 365.00 299.00 L 364.80 304.80 L 363.80 305.80 L 363.00 306.00 L 362.20 305.80 L 361.20 304.80 L 361.00 299.00 L 355.20 298.80 L 354.20 297.80 L 354.00 297.00 L 354.20 296.20 L 355.20 295.20 L 361.00 295.00 L 361.20 289.20 L 362.20 288.20 L 363.00 288.00 Z" fill="url(#linearGradient15)" fill-rule="nonzero" group-id="4" id="形状结合备份-4" node-id="58" stroke="none" target-height="18" target-width="18" target-x="354" target-y="288"></path><path d="M 200.00 330.00 L 200.90 330.20 L 202.00 331.40 L 202.20 337.80 L 208.60 338.00 L 209.80 339.10 L 210.00 340.00 L 209.80 340.90 L 208.60 342.00 L 202.20 342.20 L 202.20 347.80 L 202.00 348.60 L 200.90 349.80 L 199.10 349.80 L 198.00 348.60 L 197.80 342.20 L 191.40 342.00 L 190.20 340.90 L 190.00 340.00 L 190.20 339.10 L 191.40 338.00 L 197.80 337.80 L 198.00 331.40 L 199.10 330.20 L 200.00 330.00 Z" fill="url(#linearGradient16)" fill-rule="nonzero" group-id="4" id="形状结合备份-5" node-id="59" stroke="none" target-height="19.799988" target-width="20" target-x="190" target-y="330"></path><path d="M 245.00 378.00 L 245.70 378.10 L 246.60 379.10 L 246.80 384.20 L 251.90 384.40 L 252.90 385.30 L 253.00 386.00 L 252.90 386.70 L 251.90 387.60 L 246.80 387.80 L 246.80 392.20 L 246.60 392.90 L 245.70 393.90 L 244.30 393.90 L 243.40 392.90 L 243.20 387.80 L 238.10 387.60 L 237.10 386.70 L 237.00 386.00 L 237.10 385.30 L 238.10 384.40 L 243.20 384.20 L 243.40 379.10 L 244.30 378.10 L 245.00 378.00 Z" fill="url(#linearGradient-7)" fill-rule="nonzero" group-id="4" id="形状结合备份-6" node-id="60" stroke="none" target-height="15.899994" target-width="16" target-x="237" target-y="378"></path></g><path d="M 388.50 457.00 L 323.50 457.00 L 321.70 456.80 L 320.20 456.10 L 318.90 455.10 L 317.90 453.80 L 317.20 452.30 L 317.00 450.50 L 317.00 405.30 L 317.20 403.50 L 317.90 402.00 L 318.90 400.70 L 320.20 399.70 L 321.70 399.00 L 330.00 398.80 L 330.20 382.30 L 330.90 379.00 L 332.00 375.80 L 333.60 372.80 L 335.40 370.10 L 337.60 367.60 L 340.10 365.40 L 342.90 363.50 L 345.90 362.00 L 349.10 360.90 L 352.40 360.20 L 356.00 360.00 L 359.60 360.20 L 362.90 360.90 L 366.10 362.00 L 369.10 363.50 L 371.90 365.40 L 374.40 367.60 L 376.60 370.10 L 378.40 372.80 L 380.00 375.80 L 381.10 379.00 L 381.80 382.30 L 382.00 385.90 L 382.00 398.80 L 390.30 399.00 L 391.80 399.70 L 393.10 400.70 L 394.10 402.00 L 394.80 403.50 L 395.00 405.30 L 395.00 450.50 L 394.80 452.30 L 394.10 453.80 L 393.10 455.10 L 391.80 456.10 L 390.30 456.80 L 388.50 457.00 Z M 352.70 430.50 L 352.70 440.80 L 353.00 442.10 L 353.70 443.10 L 354.70 443.80 L 356.00 444.10 L 357.30 443.80 L 358.30 443.10 L 359.00 442.10 L 359.30 440.80 L 359.30 430.50 L 361.10 429.70 L 363.90 427.10 L 364.90 425.40 L 365.50 423.50 L 365.70 421.40 L 365.60 419.70 L 364.40 416.50 L 362.90 414.60 L 360.90 413.10 L 357.80 411.90 L 356.00 411.70 L 352.60 412.30 L 351.10 413.10 L 349.10 414.60 L 347.60 416.50 L 346.90 418.00 L 346.20 421.40 L 346.50 423.50 L 347.10 425.40 L 349.40 428.50 L 352.70 430.50 Z M 369.00 385.90 L 368.20 381.30 L 367.20 379.30 L 364.40 376.00 L 360.50 373.70 L 358.40 373.20 L 356.00 372.90 L 351.50 373.70 L 347.60 376.00 L 344.80 379.30 L 343.80 381.30 L 343.20 383.50 L 343.00 385.90 L 343.00 398.80 L 369.00 398.80 L 369.00 385.90 Z" fill="url(#linearGradient-8)" fill-rule="nonzero" group-id="5" id="形状" node-id="62" stroke="none" target-height="97" target-width="78" target-x="317" target-y="360"></path></svg>