<?xml version="1.0" standalone="no"?><!DOCTYPE svg PUBLIC "-//W3C//DTD SVG 1.1//EN" "http://www.w3.org/Graphics/SVG/1.1/DTD/svg11.dtd"><svg height="600" node-id="1" sillyvg="true" template-height="600" template-width="600" version="1.1" viewBox="0 0 600 600" width="600" xmlns="http://www.w3.org/2000/svg" xmlns:xlink="http://www.w3.org/1999/xlink"><defs node-id="55"><linearGradient gradientUnits="objectBoundingBox" id="linearGradient1" node-id="57" spreadMethod="pad" x1="0.9340618" x2="0.40599933" y1="0.98800004" y2="1"><stop offset="0" stop-color="#e0e5ef" stop-opacity="0"></stop><stop offset="1" stop-color="#e0e5ef"></stop></linearGradient><linearGradient gradientUnits="objectBoundingBox" id="linearGradient-1" node-id="5" spreadMethod="pad" x1="0.9340618" x2="0.40599933" y1="0.98800004" y2="1"><stop offset="0" stop-color="#e0e5ef" stop-opacity="0"></stop><stop offset="1" stop-color="#e0e5ef"></stop></linearGradient><linearGradient gradientUnits="objectBoundingBox" id="linearGradient-2" node-id="8" spreadMethod="pad" x1="0.92518216" x2="0.40792233" y1="0.98800004" y2="1"><stop offset="0" stop-color="#e0e5ef" stop-opacity="0"></stop><stop offset="1" stop-color="#e0e5ef"></stop></linearGradient><linearGradient gradientUnits="objectBoundingBox" id="linearGradient-3" node-id="11" spreadMethod="pad" x1="-0.44588077" x2="0.7048404" y1="0.66910326" y2="0.67326146"><stop offset="0" stop-color="#e0e5ef" stop-opacity="0"></stop><stop offset="1" stop-color="#e0e5ef"></stop></linearGradient><linearGradient gradientUnits="objectBoundingBox" id="linearGradient-4" node-id="14" spreadMethod="pad" x1="-0.44588077" x2="0.7048404" y1="0.669094" y2="0.6732521"><stop offset="0" stop-color="#e0e5ef" stop-opacity="0"></stop><stop offset="1" stop-color="#e0e5ef"></stop></linearGradient><linearGradient gradientUnits="objectBoundingBox" id="linearGradient-5" node-id="17" spreadMethod="pad" x1="0.5" x2="0.5" y1="1.1648777" y2="-0.14316311"><stop offset="0" stop-color="#a2abb9"></stop><stop offset="1" stop-color="#e7eaf0"></stop></linearGradient><linearGradient gradientUnits="objectBoundingBox" id="linearGradient-6" node-id="20" spreadMethod="pad" x1="-0.11482012" x2="1.073257" y1="0.5851561" y2="0.43230763"><stop offset="0" stop-color="#d1d6e2"></stop><stop offset="1" stop-color="#c0c7d2"></stop></linearGradient><linearGradient gradientUnits="objectBoundingBox" id="linearGradient-7" node-id="23" spreadMethod="pad" x1="0.5" x2="0.5" y1="1.1648777" y2="-0.14316311"><stop offset="0" stop-color="#a2abb9"></stop><stop offset="1" stop-color="#e7eaf0"></stop></linearGradient><linearGradient gradientUnits="objectBoundingBox" id="linearGradient-8" node-id="26" spreadMethod="pad" x1="0.49999997" x2="0.49999997" y1="1.1648775" y2="-0.1431631"><stop offset="0" stop-color="#a2abb9"></stop><stop offset="1" stop-color="#e7eaf0"></stop></linearGradient></defs><g node-id="111"><path d="M 297.40 77.00 L 307.60 77.20 L 317.70 77.90 L 327.60 79.00 L 337.30 80.50 L 346.90 82.40 L 356.40 84.70 L 365.70 87.40 L 374.90 90.50 L 383.80 94.00 L 392.50 97.80 L 403.30 103.10 L 413.60 108.90 L 423.60 115.20 L 433.20 122.00 L 415.60 122.20 L 413.50 122.80 L 411.40 123.80 L 408.10 126.60 L 405.80 130.50 L 405.20 132.60 L 405.00 136.00 L 405.20 138.40 L 405.80 140.50 L 406.80 142.60 L 409.60 145.90 L 413.50 148.20 L 415.60 148.80 L 418.00 149.00 L 463.20 149.00 L 469.50 156.10 L 475.40 163.40 L 481.10 170.90 L 486.40 178.80 L 507.90 178.80 L 510.40 179.00 L 512.80 179.60 L 514.90 180.70 L 516.90 182.10 L 518.60 183.70 L 520.00 185.70 L 521.00 187.90 L 521.60 190.20 L 521.90 192.80 L 521.30 197.60 L 520.60 199.50 L 519.00 202.00 L 517.00 204.20 L 514.50 205.90 L 511.80 207.00 L 492.00 207.00 L 489.10 207.30 L 486.40 208.00 L 483.90 209.20 L 481.70 210.80 L 479.80 212.70 L 478.20 214.90 L 477.00 217.40 L 476.30 220.10 L 476.00 228.00 L 476.30 230.90 L 477.00 233.60 L 478.20 236.10 L 479.80 238.30 L 481.70 240.20 L 483.90 241.80 L 486.40 243.00 L 489.10 243.70 L 492.00 244.00 L 559.90 244.00 L 564.20 245.80 L 566.10 247.10 L 569.20 250.50 L 571.30 254.70 L 572.00 259.50 L 571.70 263.30 L 571.00 266.00 L 569.80 268.50 L 568.20 270.70 L 566.30 272.60 L 564.10 274.20 L 561.60 275.40 L 558.90 276.10 L 556.00 276.40 L 520.80 276.40 L 521.60 287.10 L 521.90 298.00 L 521.60 308.50 L 520.90 318.80 L 519.70 328.90 L 518.10 338.90 L 515.90 348.70 L 513.40 358.40 L 510.40 367.90 L 507.00 377.20 L 503.20 386.30 L 499.10 395.20 L 494.50 403.90 L 489.50 412.40 L 484.20 420.60 L 478.60 428.50 L 472.60 436.20 L 466.20 443.70 L 459.60 450.80 L 452.60 457.60 L 445.40 464.20 L 437.80 470.40 L 430.00 476.40 L 421.90 481.90 L 413.60 487.10 L 405.00 492.00 L 396.10 496.50 L 387.10 500.70 L 377.80 504.40 L 368.40 507.70 L 358.70 510.60 L 348.80 513.20 L 338.90 515.20 L 328.80 516.90 L 318.50 518.00 L 308.00 518.70 L 297.40 519.00 L 287.40 518.80 L 277.60 518.20 L 268.00 517.10 L 258.50 515.70 L 249.20 513.90 L 237.60 511.10 L 226.30 507.70 L 215.40 503.80 L 204.70 499.30 L 194.20 494.30 L 184.00 488.80 L 174.30 482.80 L 164.80 476.40 L 155.70 469.40 L 147.00 462.10 L 138.60 454.30 L 130.70 446.10 L 123.20 437.50 L 116.20 428.60 L 109.60 419.30 L 103.50 409.60 L 97.90 399.60 L 92.90 389.30 L 88.30 378.80 L 84.30 367.90 L 74.20 367.70 L 72.80 367.10 L 71.50 366.10 L 70.60 364.80 L 70.00 363.40 L 69.70 361.70 L 70.00 359.90 L 70.80 358.20 L 72.00 356.90 L 73.60 356.00 L 86.40 355.80 L 88.50 355.20 L 90.60 354.20 L 93.90 351.40 L 96.20 347.50 L 96.80 345.40 L 97.00 343.00 L 96.80 339.60 L 96.20 337.50 L 95.20 335.40 L 92.40 332.10 L 90.60 330.80 L 88.50 329.80 L 86.40 329.20 L 75.00 328.80 L 52.90 328.80 L 49.30 328.20 L 47.70 327.40 L 45.00 325.20 L 43.20 322.20 L 42.70 320.40 L 42.70 316.70 L 44.00 313.40 L 46.20 310.70 L 49.30 308.90 L 52.90 308.30 L 73.10 308.30 L 72.90 298.00 L 73.10 288.20 L 73.70 278.50 L 74.80 269.00 L 76.20 259.70 L 78.10 250.50 L 80.90 239.00 L 84.40 227.90 L 88.40 217.10 L 92.90 206.50 L 57.00 206.50 L 53.20 206.20 L 49.50 205.50 L 46.10 204.30 L 42.90 202.70 L 39.90 200.70 L 37.20 198.30 L 34.80 195.60 L 32.80 192.70 L 31.20 189.40 L 30.00 186.00 L 29.30 182.40 L 29.00 178.50 L 29.20 173.20 L 29.90 169.70 L 31.10 166.40 L 32.60 163.20 L 34.50 160.30 L 36.70 157.70 L 39.20 155.30 L 42.00 153.30 L 45.10 151.60 L 48.30 150.30 L 51.70 149.50 L 55.40 149.00 L 182.00 149.00 L 185.50 148.40 L 188.50 146.60 L 190.60 144.00 L 191.40 142.50 L 192.00 139.00 L 191.80 137.20 L 191.40 135.50 L 189.60 132.50 L 187.00 130.40 L 185.50 129.60 L 182.00 129.00 L 152.70 129.00 L 153.40 128.40 L 138.80 128.40 L 135.40 128.10 L 132.20 127.20 L 129.30 125.80 L 126.60 123.90 L 124.30 121.70 L 122.40 119.00 L 121.00 116.00 L 120.20 112.90 L 119.80 109.40 L 120.20 104.90 L 121.00 101.70 L 122.40 98.70 L 124.30 96.10 L 126.60 93.80 L 129.30 91.90 L 132.20 90.50 L 135.40 89.70 L 138.80 89.30 L 223.20 89.30 L 240.90 84.00 L 259.30 80.20 L 278.00 77.80 L 297.40 77.00 Z" fill="#f3f3fa" fill-opacity="0.6015942" fill-rule="evenodd" group-id="1" id="背景" node-id="30" stroke="none" target-height="442" target-width="543" target-x="29" target-y="77"></path></g><path d="M 284.50 415.00 L 324.70 415.70 L 362.20 417.80 L 396.00 421.10 L 412.30 423.20 L 426.80 425.50 L 439.80 428.00 L 449.30 428.30 L 458.10 429.00 L 466.40 430.10 L 474.60 431.70 L 481.80 433.50 L 488.10 435.60 L 492.80 437.60 L 496.70 439.60 L 502.70 443.70 L 505.10 446.20 L 506.70 448.60 L 507.70 451.00 L 508.00 453.50 L 507.80 455.50 L 506.10 459.40 L 504.60 461.40 L 502.20 463.70 L 499.10 466.00 L 495.10 468.30 L 486.10 472.10 L 480.60 473.80 L 468.90 476.40 L 462.10 477.50 L 452.30 480.20 L 440.70 482.80 L 441.00 486.00 L 440.70 488.80 L 440.10 491.60 L 438.90 494.30 L 437.20 497.10 L 435.00 499.90 L 431.90 502.90 L 428.20 506.00 L 423.60 509.00 L 412.80 514.50 L 400.10 519.30 L 392.70 521.50 L 382.80 523.90 L 372.00 526.00 L 360.30 527.80 L 348.50 529.00 L 336.10 529.70 L 323.00 530.00 L 311.20 529.80 L 300.00 529.20 L 289.30 528.20 L 278.50 526.80 L 268.60 525.10 L 259.30 523.00 L 250.10 520.60 L 241.90 518.00 L 234.60 515.20 L 229.20 512.70 L 220.20 507.60 L 213.10 502.00 L 210.30 499.10 L 208.10 496.10 L 206.60 493.20 L 190.90 491.80 L 162.60 488.60 L 136.80 484.50 L 114.80 479.70 L 105.40 477.10 L 97.50 474.40 L 86.50 469.80 L 82.50 467.60 L 76.90 463.30 L 75.10 461.20 L 73.90 459.30 L 73.20 457.40 L 73.00 455.50 L 73.30 453.50 L 74.10 451.40 L 75.50 449.30 L 77.60 447.10 L 80.60 444.70 L 84.30 442.40 L 89.00 440.00 L 94.80 437.60 L 101.90 435.10 L 111.20 432.30 L 122.10 429.50 L 134.90 426.90 L 162.00 422.50 L 177.80 420.50 L 210.30 417.60 L 246.20 415.70 L 284.50 415.00 Z" fill="#e7eaf0" fill-rule="evenodd" id="形状结合" node-id="31" stroke="none" target-height="115" target-width="435" target-x="73" target-y="415"></path><path d="M 333.00 466.10 L 332.70 467.20 L 331.90 468.40 L 330.30 469.60 L 327.30 471.00 L 322.90 472.50 L 311.90 474.40 L 298.50 475.10 L 285.10 474.40 L 274.10 472.50 L 269.70 471.00 L 266.70 469.60 L 265.10 468.40 L 264.30 467.20 L 264.00 466.10 L 264.30 465.00 L 265.10 463.80 L 266.70 462.60 L 269.70 461.20 L 274.10 459.70 L 285.10 457.80 L 298.50 457.10 L 311.90 457.80 L 322.90 459.70 L 327.30 461.20 L 330.30 462.60 L 331.90 463.80 L 332.70 465.00 L 333.00 466.10 Z" fill="#d1d6e2" fill-rule="nonzero" id="椭圆形" node-id="32" stroke="none" target-height="18" target-width="69" target-x="264" target-y="457.1"></path><g node-id="112"><path d="M 463.30 400.60 L 464.00 403.40 L 463.80 405.00 L 463.10 406.50 L 462.00 407.60 L 460.60 408.40 L 447.40 408.70 L 447.50 423.60 L 448.00 432.00 L 439.00 432.00 L 439.30 425.70 L 439.40 409.80 L 438.20 410.50 L 437.00 410.70 L 435.20 410.20 L 433.90 408.80 L 426.80 408.50 L 424.90 407.70 L 423.40 406.40 L 422.60 405.30 L 422.20 404.10 L 422.10 402.00 L 424.60 395.30 L 426.30 393.20 L 436.10 375.20 L 438.90 371.50 L 441.50 370.20 L 443.10 370.00 L 445.30 370.30 L 447.20 371.20 L 448.70 372.50 L 457.70 389.50 L 460.20 391.00 L 461.90 393.40 L 462.60 396.40 L 462.30 398.50 L 463.30 400.60 Z" fill="url(#linearGradient1)" fill-rule="nonzero" group-id="2" id="路径" node-id="34" stroke="none" target-height="62" target-width="41.899994" target-x="422.1" target-y="370"></path><path d="M 503.30 420.60 L 504.00 423.40 L 503.80 425.00 L 503.10 426.50 L 502.00 427.60 L 500.60 428.40 L 487.40 428.70 L 487.50 443.60 L 488.00 452.00 L 479.00 452.00 L 479.30 445.70 L 479.40 429.80 L 478.20 430.50 L 477.00 430.70 L 475.20 430.20 L 473.90 428.80 L 466.80 428.50 L 464.90 427.70 L 463.40 426.40 L 462.60 425.30 L 462.20 424.10 L 462.10 422.00 L 464.60 415.30 L 466.30 413.20 L 476.10 395.20 L 478.90 391.50 L 481.50 390.20 L 483.10 390.00 L 485.30 390.30 L 487.20 391.20 L 488.70 392.50 L 497.70 409.50 L 500.20 411.00 L 501.90 413.40 L 502.60 416.40 L 502.30 418.50 L 503.30 420.60 Z" fill="url(#linearGradient-1)" fill-rule="nonzero" group-id="2" id="路径" node-id="35" stroke="none" target-height="62" target-width="41.899994" target-x="462.1" target-y="390"></path><path d="M 150.00 413.40 L 151.00 417.40 L 150.40 420.40 L 149.70 421.80 L 148.20 423.40 L 146.30 424.50 L 127.60 424.90 L 127.80 446.00 L 128.50 458.00 L 115.90 458.00 L 116.30 449.10 L 116.40 426.40 L 115.40 427.20 L 113.10 427.80 L 110.50 427.10 L 108.70 425.10 L 98.80 424.60 L 95.30 423.00 L 93.90 421.70 L 92.90 420.10 L 92.20 418.30 L 92.10 415.40 L 94.50 409.40 L 95.60 405.80 L 98.00 403.00 L 111.80 377.50 L 113.70 374.60 L 115.80 372.20 L 117.40 371.00 L 119.40 370.30 L 121.70 370.00 L 125.60 370.70 L 127.30 371.70 L 130.10 374.40 L 142.10 397.70 L 144.00 398.60 L 145.60 399.80 L 147.00 401.40 L 148.10 403.20 L 148.80 405.20 L 149.00 407.40 L 148.50 410.40 L 150.00 413.40 Z" fill="url(#linearGradient-2)" fill-rule="nonzero" group-id="2" id="路径" node-id="36" stroke="none" target-height="88" target-width="58.9" target-x="92.1" target-y="370"></path></g><g node-id="113"><path d="M 116.10 214.00 L 123.40 214.00 L 123.70 210.30 L 124.40 206.90 L 125.50 203.70 L 127.10 200.60 L 129.00 197.80 L 131.20 195.20 L 133.70 193.00 L 136.50 191.10 L 139.60 189.60 L 142.90 188.40 L 146.30 187.70 L 149.90 187.50 L 153.60 187.70 L 157.00 188.40 L 160.30 189.60 L 163.30 191.10 L 166.10 193.00 L 168.70 195.20 L 170.90 197.80 L 172.80 200.60 L 174.40 203.70 L 175.50 206.90 L 176.20 210.30 L 176.40 214.00 L 181.80 214.00 L 184.00 214.20 L 186.00 214.80 L 189.60 217.10 L 192.30 220.50 L 193.80 224.80 L 194.00 227.20 L 193.20 231.90 L 192.30 233.90 L 189.60 237.40 L 186.00 239.60 L 184.00 240.20 L 181.80 240.50 L 116.10 240.50 L 113.90 240.20 L 111.90 239.60 L 108.30 237.40 L 105.60 233.90 L 104.10 229.60 L 103.90 227.20 L 104.10 224.80 L 105.60 220.50 L 108.30 217.10 L 111.90 214.80 L 113.90 214.20 L 116.10 214.00 Z" fill="url(#linearGradient-3)" fill-rule="nonzero" group-id="3" id="路径" node-id="38" stroke="none" target-height="53" target-width="90.1" target-x="103.9" target-y="187.5"></path><path d="M 347.30 138.60 L 352.60 138.60 L 352.90 135.20 L 353.70 132.00 L 355.10 129.00 L 357.00 126.40 L 359.30 124.10 L 362.00 122.20 L 364.90 120.80 L 368.10 120.00 L 371.60 119.60 L 375.00 120.00 L 378.20 120.80 L 381.10 122.20 L 383.80 124.10 L 386.10 126.40 L 388.00 129.00 L 389.40 132.00 L 390.20 135.20 L 390.60 138.60 L 394.40 138.60 L 397.40 139.20 L 398.80 139.90 L 400.60 141.40 L 401.90 143.30 L 402.80 145.60 L 403.10 148.10 L 402.80 150.70 L 401.90 152.90 L 400.60 154.90 L 398.80 156.30 L 396.00 157.50 L 347.30 157.60 L 344.30 157.00 L 342.90 156.30 L 341.10 154.90 L 339.80 152.90 L 338.90 150.70 L 338.60 148.10 L 338.90 145.60 L 339.80 143.30 L 341.10 141.40 L 342.90 139.90 L 345.70 138.80 L 347.30 138.60 Z" fill="url(#linearGradient-4)" fill-rule="nonzero" group-id="3" id="路径" node-id="39" stroke="none" target-height="38.000008" target-width="64.5" target-x="338.6" target-y="119.6"></path><g node-id="116"><path d="M 351.50 323.40 L 278.80 323.40 L 276.60 323.60 L 275.00 324.10 L 273.80 325.00 L 273.00 326.20 L 272.40 327.80 L 272.20 330.00 L 272.40 332.10 L 273.00 333.70 L 273.80 334.90 L 275.00 335.80 L 276.60 336.40 L 278.80 336.60 L 351.50 336.60 L 353.60 336.40 L 355.20 335.80 L 356.40 334.90 L 357.30 333.70 L 357.90 332.10 L 358.10 330.00 L 357.90 327.80 L 357.30 326.20 L 356.40 325.00 L 355.20 324.10 L 353.60 323.60 L 351.50 323.40 Z" fill="#ffffff" fill-rule="nonzero" group-id="3,6" id="路径" node-id="41" stroke="none" target-height="13.200012" target-width="85.899994" target-x="272.2" target-y="323.4"></path><path d="M 351.50 356.40 L 298.60 356.40 L 296.50 356.60 L 294.90 357.20 L 293.70 358.10 L 292.80 359.30 L 292.20 360.90 L 292.00 363.00 L 292.20 365.20 L 292.80 366.80 L 293.70 368.00 L 294.90 368.80 L 296.50 369.40 L 298.60 369.60 L 351.50 369.60 L 353.60 369.40 L 355.20 368.80 L 356.40 368.00 L 357.30 366.80 L 357.90 365.20 L 358.10 363.00 L 357.90 360.90 L 357.30 359.30 L 356.40 358.10 L 355.20 357.20 L 353.60 356.60 L 351.50 356.40 Z" fill="#ffffff" fill-rule="nonzero" group-id="3,6" id="路径" node-id="42" stroke="none" target-height="13.200012" target-width="66.100006" target-x="292" target-y="356.4"></path><path d="M 201.00 349.90 L 201.40 357.60 L 202.30 365.10 L 203.80 372.40 L 205.80 379.40 L 208.40 386.30 L 211.50 392.80 L 215.00 399.10 L 219.10 405.00 L 223.50 410.70 L 228.40 415.90 L 233.60 420.80 L 239.30 425.30 L 245.20 429.30 L 251.50 432.80 L 258.00 435.90 L 264.90 438.50 L 271.90 440.60 L 279.20 442.00 L 286.70 442.90 L 294.40 443.30 L 302.20 442.90 L 309.70 442.00 L 316.90 440.60 L 324.00 438.50 L 330.80 435.90 L 337.40 432.80 L 343.60 429.30 L 349.60 425.30 L 355.20 420.80 L 360.50 415.90 L 365.30 410.70 L 369.80 405.00 L 373.80 399.10 L 377.40 392.80 L 380.50 386.30 L 383.10 379.40 L 385.10 372.40 L 386.60 365.10 L 387.50 357.60 L 387.80 349.90 L 387.50 342.10 L 386.60 334.60 L 385.10 327.40 L 383.10 320.30 L 380.50 313.50 L 377.40 306.90 L 373.80 300.70 L 369.80 294.70 L 365.30 289.10 L 360.50 283.80 L 355.20 279.00 L 349.60 274.50 L 343.60 270.50 L 337.40 266.90 L 330.80 263.80 L 324.00 261.20 L 316.90 259.20 L 309.70 257.70 L 302.20 256.80 L 294.40 256.50 L 286.70 256.80 L 279.20 257.70 L 271.90 259.20 L 264.90 261.20 L 258.00 263.80 L 251.50 266.90 L 245.20 270.50 L 239.30 274.50 L 233.60 279.00 L 228.40 283.80 L 223.50 289.10 L 219.10 294.70 L 215.00 300.70 L 211.50 306.90 L 208.40 313.50 L 205.80 320.30 L 203.80 327.40 L 202.30 334.60 L 201.40 342.10 L 201.00 349.90 Z" fill="url(#linearGradient-5)" fill-rule="nonzero" group-id="3,6" id="椭圆形" node-id="43" stroke="none" target-height="186.79999" target-width="186.79999" target-x="201" target-y="256.5"></path><g node-id="117"><path d="M 246.20 297.90 L 247.00 299.50 L 248.30 300.80 L 250.20 302.00 L 254.80 303.20 L 260.80 303.20 L 267.50 301.80 L 273.90 299.20 L 278.90 295.80 L 282.00 292.20 L 283.00 290.20 L 283.30 288.30 L 283.10 286.60 L 282.30 285.00 L 281.00 283.60 L 279.10 282.50 L 276.90 281.80 L 274.40 281.30 L 268.40 281.30 L 261.70 282.70 L 255.30 285.30 L 250.40 288.70 L 247.20 292.30 L 246.20 294.30 L 245.90 296.10 L 246.20 297.90 Z" fill="#e7eaf0" fill-rule="nonzero" group-id="3,6,7" id="椭圆形" node-id="44" stroke="none" target-height="21.900024" target-width="37.399994" target-x="245.9" target-y="281.3"></path></g><path d="M 292.00 333.70 L 292.40 337.50 L 293.30 340.90 L 294.80 344.10 L 296.90 347.00 L 299.30 349.40 L 302.20 351.40 L 305.30 353.00 L 308.80 353.90 L 312.50 354.20 L 316.30 353.90 L 319.70 353.00 L 322.90 351.40 L 325.70 349.40 L 328.20 347.00 L 330.20 344.10 L 331.70 340.90 L 332.70 337.50 L 333.00 333.70 L 332.70 330.00 L 331.70 326.60 L 330.20 323.40 L 328.20 320.50 L 325.70 318.10 L 322.90 316.00 L 319.70 314.50 L 316.30 313.60 L 312.50 313.20 L 308.80 313.60 L 305.30 314.50 L 302.20 316.00 L 299.30 318.10 L 296.90 320.50 L 294.80 323.40 L 293.30 326.60 L 292.40 330.00 L 292.00 333.70 Z" fill="#b7c0cc" fill-rule="evenodd" group-id="3,6" id="椭圆形" node-id="45" stroke="none" target-height="41" target-width="41" target-x="292" target-y="313.2"></path><g node-id="118"><path d="M 348.70 301.80 L 348.00 302.80 L 347.70 304.10 L 347.80 305.70 L 349.40 309.30 L 351.40 311.40 L 353.80 312.80 L 356.60 313.40 L 357.80 313.10 L 358.90 312.50 L 359.50 311.50 L 359.90 310.20 L 359.40 307.40 L 358.10 305.00 L 356.10 302.90 L 353.70 301.50 L 350.90 300.90 L 349.70 301.20 L 348.70 301.80 Z" fill="#e7eaf0" fill-rule="nonzero" group-id="3,6,8" id="椭圆形" node-id="46" stroke="none" target-height="12.5" target-width="12.199982" target-x="347.7" target-y="300.9"></path></g><path d="M 202.50 366.00 L 203.60 371.80 L 197.40 376.20 L 192.60 380.10 L 188.80 383.60 L 186.10 386.70 L 183.90 389.70 L 182.60 392.20 L 182.00 394.30 L 182.00 396.00 L 182.30 397.50 L 183.30 399.30 L 184.90 400.90 L 187.10 402.40 L 190.00 403.70 L 194.10 404.90 L 199.20 405.90 L 205.50 406.40 L 211.80 406.60 L 227.00 406.00 L 239.20 404.70 L 252.70 402.70 L 266.40 400.10 L 280.70 396.80 L 295.10 393.10 L 309.40 388.80 L 323.60 384.00 L 337.50 378.70 L 351.10 372.90 L 363.80 367.00 L 375.90 360.80 L 386.50 354.80 L 399.10 346.60 L 404.00 342.80 L 408.70 338.80 L 412.00 335.20 L 414.40 332.10 L 415.80 329.40 L 416.40 327.20 L 416.40 325.20 L 415.90 323.40 L 414.30 321.60 L 412.20 320.10 L 409.50 318.90 L 405.20 317.50 L 400.10 316.60 L 390.00 315.80 L 381.40 315.70 L 378.80 310.10 L 387.00 310.00 L 400.30 310.90 L 406.50 312.00 L 411.40 313.40 L 415.30 315.10 L 418.00 316.80 L 420.10 318.60 L 421.60 320.60 L 422.50 322.70 L 422.90 324.90 L 422.90 327.20 L 422.30 329.60 L 421.30 332.30 L 419.60 335.30 L 417.20 338.50 L 414.00 342.00 L 410.00 345.80 L 405.00 349.90 L 398.20 354.80 L 390.20 360.00 L 380.70 365.50 L 371.00 370.50 L 360.30 375.60 L 348.50 380.70 L 336.50 385.50 L 323.70 390.10 L 310.20 394.50 L 296.50 398.50 L 283.40 402.00 L 270.80 404.80 L 258.10 407.30 L 246.40 409.20 L 235.60 410.50 L 224.70 411.40 L 215.10 411.70 L 206.80 411.50 L 200.30 411.00 L 194.90 410.10 L 190.30 409.00 L 186.50 407.70 L 183.40 406.20 L 181.00 404.60 L 179.10 402.90 L 177.80 401.00 L 176.90 399.00 L 176.50 396.80 L 176.60 394.50 L 177.10 392.00 L 178.20 389.30 L 180.20 385.90 L 183.10 382.20 L 187.10 378.10 L 196.40 370.30 L 202.50 366.00 Z" fill="url(#linearGradient-6)" fill-rule="nonzero" group-id="3,6" id="路径" node-id="47" stroke="none" target-height="101.70001" target-width="246.4" target-x="176.5" target-y="310"></path><path d="M 215.00 372.50 L 215.70 376.50 L 216.60 378.30 L 219.10 381.30 L 222.50 383.30 L 226.50 384.00 L 230.50 383.30 L 233.90 381.30 L 236.40 378.30 L 237.80 374.60 L 237.80 370.40 L 237.30 368.50 L 235.30 365.10 L 232.30 362.60 L 230.50 361.70 L 226.50 361.00 L 222.50 361.70 L 219.10 363.70 L 216.60 366.70 L 215.70 368.50 L 215.00 372.50 Z" fill="#b7c0cc" fill-rule="evenodd" group-id="3,6" id="椭圆形" node-id="48" stroke="none" target-height="23" target-width="22.800003" target-x="215" target-y="361"></path><path d="M 290.00 380.00 L 290.30 381.90 L 291.00 383.50 L 292.10 384.90 L 293.50 386.00 L 295.10 386.70 L 297.00 387.00 L 298.90 386.70 L 300.50 386.00 L 301.90 384.90 L 303.00 383.50 L 303.70 381.90 L 304.00 380.00 L 303.70 378.10 L 303.00 376.50 L 301.90 375.10 L 300.50 374.00 L 298.90 373.30 L 297.00 373.00 L 295.10 373.30 L 293.50 374.00 L 292.10 375.10 L 291.00 376.50 L 290.30 378.10 L 290.00 380.00 Z" fill="#b7c0cc" fill-rule="evenodd" group-id="3,6" id="椭圆形" node-id="49" stroke="none" target-height="14" target-width="14" target-x="290" target-y="373"></path></g></g><g node-id="114"><path d="M 377.80 254.10 L 382.90 249.00 L 387.00 252.90 L 388.60 253.80 L 392.20 254.80 L 395.80 254.40 L 399.20 252.80 L 400.80 251.50 L 404.60 247.40 L 405.60 245.70 L 406.60 242.20 L 406.30 238.50 L 405.60 236.80 L 403.40 233.60 L 400.20 231.40 L 396.60 230.40 L 393.00 230.80 L 389.60 232.40 L 385.50 236.20 L 380.40 231.10 L 385.50 226.40 L 388.30 224.80 L 391.20 223.80 L 394.20 223.20 L 397.30 223.20 L 400.30 223.80 L 403.20 224.80 L 405.90 226.40 L 408.50 228.50 L 410.60 231.10 L 412.20 233.80 L 413.20 236.70 L 413.80 239.70 L 413.80 242.80 L 413.20 245.80 L 412.20 248.70 L 410.60 251.50 L 408.40 254.00 L 403.70 258.50 L 401.30 259.90 L 398.80 261.00 L 396.20 261.60 L 390.80 261.80 L 388.20 261.20 L 385.60 260.30 L 383.10 259.00 L 377.70 264.40 L 372.60 259.30 L 377.80 254.10 Z M 370.10 261.80 L 375.20 266.90 L 370.00 272.10 L 364.90 267.00 L 370.10 261.80 Z" fill="url(#linearGradient-7)" fill-rule="nonzero" group-id="4" id="形状" node-id="51" stroke="none" target-height="48.90001" target-width="48.899994" target-x="364.9" target-y="223.2"></path></g><path d="M 340.50 231.90 L 341.80 226.90 L 346.50 227.80 L 348.50 227.60 L 350.30 226.80 L 351.80 225.60 L 353.00 224.00 L 353.90 221.90 L 354.90 217.20 L 354.60 215.20 L 353.90 213.40 L 352.70 211.80 L 351.10 210.60 L 349.10 209.80 L 346.90 209.50 L 344.90 209.80 L 343.10 210.50 L 341.60 211.70 L 340.40 213.30 L 338.80 217.90 L 333.80 216.60 L 335.30 211.70 L 336.50 209.80 L 339.60 206.60 L 343.60 204.70 L 345.80 204.30 L 348.10 204.30 L 350.40 204.70 L 352.70 205.60 L 354.70 206.70 L 357.80 209.90 L 359.60 213.90 L 360.00 216.10 L 360.00 218.40 L 359.60 220.80 L 358.20 225.30 L 356.10 228.60 L 354.70 230.00 L 351.40 232.00 L 347.60 233.00 L 345.50 233.00 L 344.10 238.40 L 339.10 237.00 L 340.50 231.90 Z M 338.40 239.50 L 343.40 240.90 L 342.10 246.00 L 337.10 244.60 L 338.40 239.50 Z" fill="url(#linearGradient-8)" fill-rule="nonzero" group-id="5" id="形状" node-id="53" stroke="none" target-height="41.699997" target-width="26.200012" target-x="333.8" target-y="204.3"></path></svg>