<?xml version="1.0" standalone="no"?><!DOCTYPE svg PUBLIC "-//W3C//DTD SVG 1.1//EN" "http://www.w3.org/Graphics/SVG/1.1/DTD/svg11.dtd"><svg height="600" node-id="1" sillyvg="true" template-height="600" template-width="600" version="1.1" viewBox="0 0 600 600" width="600" xmlns="http://www.w3.org/2000/svg" xmlns:xlink="http://www.w3.org/1999/xlink"><defs node-id="91"><linearGradient gradientUnits="objectBoundingBox" id="linearGradient-1" node-id="5" spreadMethod="pad" x1="1.4458808" x2="0.29515958" y1="0.66910326" y2="0.67326146"><stop offset="0" stop-color="#e0e5ef" stop-opacity="0"></stop><stop offset="1" stop-color="#e0e5ef"></stop></linearGradient><linearGradient gradientUnits="objectBoundingBox" id="linearGradient-2" node-id="8" spreadMethod="pad" x1="1.4458808" x2="0.29515958" y1="0.669094" y2="0.6732521"><stop offset="0" stop-color="#e0e5ef" stop-opacity="0"></stop><stop offset="1" stop-color="#e0e5ef"></stop></linearGradient><linearGradient gradientUnits="objectBoundingBox" id="linearGradient1" node-id="105" spreadMethod="pad" x1="0.9340618" x2="0.40599933" y1="0.98800004" y2="1"><stop offset="0" stop-color="#e0e5ef" stop-opacity="0"></stop><stop offset="1" stop-color="#e0e5ef"></stop></linearGradient><linearGradient gradientUnits="objectBoundingBox" id="linearGradient-3" node-id="11" spreadMethod="pad" x1="0.9340618" x2="0.40599933" y1="0.98800004" y2="1"><stop offset="0" stop-color="#e0e5ef" stop-opacity="0"></stop><stop offset="1" stop-color="#e0e5ef"></stop></linearGradient><linearGradient gradientUnits="objectBoundingBox" id="linearGradient-4" node-id="14" spreadMethod="pad" x1="0.92518216" x2="0.40792233" y1="0.98800004" y2="1"><stop offset="0" stop-color="#e0e5ef" stop-opacity="0"></stop><stop offset="1" stop-color="#e0e5ef"></stop></linearGradient><linearGradient gradientUnits="objectBoundingBox" id="linearGradient-6" node-id="20" spreadMethod="pad" x1="0.5" x2="-0.31214738" y1="0.45695648" y2="0.25809148"><stop offset="0" stop-color="#e8ebf1" stop-opacity="0.23774004"></stop><stop offset="1" stop-color="#a2abb9"></stop></linearGradient><linearGradient gradientUnits="objectBoundingBox" id="linearGradient-7" node-id="23" spreadMethod="pad" x1="0.5" x2="0.513666" y1="0.5399116" y2="0.47956058"><stop offset="0" stop-color="#a2abb9"></stop><stop offset="1" stop-color="#e7eaf0"></stop></linearGradient><linearGradient gradientUnits="objectBoundingBox" id="linearGradient2" node-id="136" spreadMethod="pad" x1="0.5" x2="0.5" y1="3.1184886" y2="-0.14316311"><stop offset="0" stop-color="#a2abb9"></stop><stop offset="1" stop-color="#e7eaf0"></stop></linearGradient><linearGradient gradientUnits="objectBoundingBox" id="linearGradient-8" node-id="26" spreadMethod="pad" x1="0.5" x2="0.5" y1="3.1184886" y2="-0.14316311"><stop offset="0" stop-color="#a2abb9"></stop><stop offset="1" stop-color="#e7eaf0"></stop></linearGradient><linearGradient gradientUnits="objectBoundingBox" id="linearGradient-12" node-id="32" spreadMethod="pad" x1="0.5" x2="0.50899553" y1="1.1972669" y2="0"><stop offset="0" stop-color="#a2abb9"></stop><stop offset="1" stop-color="#e7eaf0"></stop></linearGradient><linearGradient gradientUnits="objectBoundingBox" id="linearGradient-13" node-id="35" spreadMethod="pad" x1="0.5" x2="0.50899553" y1="1.1972669" y2="0"><stop offset="0" stop-color="#a2abb9"></stop><stop offset="1" stop-color="#e7eaf0"></stop></linearGradient><linearGradient gradientUnits="objectBoundingBox" id="linearGradient-14" node-id="38" spreadMethod="pad" x1="0.5" x2="0.513666" y1="0.60488844" y2="0.424786"><stop offset="0" stop-color="#a2abb9"></stop><stop offset="1" stop-color="#e7eaf0"></stop></linearGradient></defs><path d="M 0.00 0.00 L 600.00 0.00 L 600.00 600.00 L 0.00 600.00 Z" fill="#ffffff" fill-rule="evenodd" node-id="169" stroke="none" target-height="600" target-width="600" target-x="0" target-y="0"></path><g node-id="243"><path d="M 297.40 77.00 L 307.60 77.20 L 317.70 77.90 L 327.60 79.00 L 337.30 80.50 L 346.90 82.40 L 356.40 84.70 L 365.70 87.40 L 374.90 90.50 L 383.80 94.00 L 392.50 97.80 L 403.30 103.10 L 413.60 108.90 L 423.60 115.20 L 433.20 122.00 L 415.60 122.20 L 413.50 122.80 L 411.40 123.80 L 408.10 126.60 L 405.80 130.50 L 405.20 132.60 L 405.00 136.00 L 405.20 138.40 L 405.80 140.50 L 406.80 142.60 L 409.60 145.90 L 413.50 148.20 L 415.60 148.80 L 418.00 149.00 L 463.20 149.00 L 469.50 156.10 L 475.40 163.40 L 481.10 170.90 L 486.40 178.80 L 507.90 178.80 L 510.40 179.00 L 512.80 179.60 L 514.90 180.70 L 516.90 182.10 L 518.60 183.70 L 520.00 185.70 L 521.00 187.90 L 521.60 190.20 L 521.90 192.80 L 521.30 197.60 L 520.60 199.50 L 519.00 202.00 L 517.00 204.20 L 514.50 205.90 L 511.80 207.00 L 492.00 207.00 L 489.10 207.30 L 486.40 208.00 L 483.90 209.20 L 481.70 210.80 L 479.80 212.70 L 478.20 214.90 L 477.00 217.40 L 476.30 220.10 L 476.00 228.00 L 476.30 230.90 L 477.00 233.60 L 478.20 236.10 L 479.80 238.30 L 481.70 240.20 L 483.90 241.80 L 486.40 243.00 L 489.10 243.70 L 492.00 244.00 L 559.90 244.00 L 564.20 245.80 L 566.10 247.10 L 569.20 250.50 L 571.30 254.70 L 572.00 259.50 L 571.70 263.30 L 571.00 266.00 L 569.80 268.50 L 568.20 270.70 L 566.30 272.60 L 564.10 274.20 L 561.60 275.40 L 558.90 276.10 L 556.00 276.40 L 520.80 276.40 L 521.60 287.10 L 521.90 298.00 L 521.60 308.50 L 520.90 318.80 L 519.70 328.90 L 518.10 338.90 L 515.90 348.70 L 513.40 358.40 L 510.40 367.90 L 507.00 377.20 L 503.20 386.30 L 499.10 395.20 L 494.50 403.90 L 489.50 412.40 L 484.20 420.60 L 478.60 428.50 L 472.60 436.20 L 466.20 443.70 L 459.60 450.80 L 452.60 457.60 L 445.40 464.20 L 437.80 470.40 L 430.00 476.40 L 421.90 481.90 L 413.60 487.10 L 405.00 492.00 L 396.10 496.50 L 387.10 500.70 L 377.80 504.40 L 368.40 507.70 L 358.70 510.60 L 348.80 513.20 L 338.90 515.20 L 328.80 516.90 L 318.50 518.00 L 308.00 518.70 L 297.40 519.00 L 287.40 518.80 L 277.60 518.20 L 268.00 517.10 L 258.50 515.70 L 249.20 513.90 L 237.60 511.10 L 226.30 507.70 L 215.40 503.80 L 204.70 499.30 L 194.20 494.30 L 184.00 488.80 L 174.30 482.80 L 164.80 476.40 L 155.70 469.40 L 147.00 462.10 L 138.60 454.30 L 130.70 446.10 L 123.20 437.50 L 116.20 428.60 L 109.60 419.30 L 103.50 409.60 L 97.90 399.60 L 92.90 389.30 L 88.30 378.80 L 84.30 367.90 L 74.20 367.70 L 72.80 367.10 L 71.50 366.10 L 70.60 364.80 L 70.00 363.40 L 69.70 361.70 L 70.00 359.90 L 70.80 358.20 L 72.00 356.90 L 73.60 356.00 L 86.40 355.80 L 88.50 355.20 L 90.60 354.20 L 93.90 351.40 L 96.20 347.50 L 96.80 345.40 L 97.00 343.00 L 96.80 339.60 L 96.20 337.50 L 95.20 335.40 L 92.40 332.10 L 90.60 330.80 L 88.50 329.80 L 86.40 329.20 L 75.00 328.80 L 52.90 328.80 L 49.30 328.20 L 47.70 327.40 L 45.00 325.20 L 43.20 322.20 L 42.70 320.40 L 42.70 316.70 L 44.00 313.40 L 46.20 310.70 L 49.30 308.90 L 52.90 308.30 L 73.10 308.30 L 72.90 298.00 L 73.10 288.20 L 73.70 278.50 L 74.80 269.00 L 76.20 259.70 L 78.10 250.50 L 80.90 239.00 L 84.40 227.90 L 88.40 217.10 L 92.90 206.50 L 57.00 206.50 L 53.20 206.20 L 49.50 205.50 L 46.10 204.30 L 42.90 202.70 L 39.90 200.70 L 37.20 198.30 L 34.80 195.60 L 32.80 192.70 L 31.20 189.40 L 30.00 186.00 L 29.30 182.40 L 29.00 178.50 L 29.20 173.20 L 29.90 169.70 L 31.10 166.40 L 32.60 163.20 L 34.50 160.30 L 36.70 157.70 L 39.20 155.30 L 42.00 153.30 L 45.10 151.60 L 48.30 150.30 L 51.70 149.50 L 55.40 149.00 L 182.00 149.00 L 185.50 148.40 L 188.50 146.60 L 190.60 144.00 L 191.40 142.50 L 192.00 139.00 L 191.80 137.20 L 191.40 135.50 L 189.60 132.50 L 187.00 130.40 L 185.50 129.60 L 182.00 129.00 L 152.70 129.00 L 153.40 128.40 L 138.80 128.40 L 135.40 128.10 L 132.20 127.20 L 129.30 125.80 L 126.60 123.90 L 124.30 121.70 L 122.40 119.00 L 121.00 116.00 L 120.20 112.90 L 119.80 109.40 L 120.20 104.90 L 121.00 101.70 L 122.40 98.70 L 124.30 96.10 L 126.60 93.80 L 129.30 91.90 L 132.20 90.50 L 135.40 89.70 L 138.80 89.30 L 223.20 89.30 L 240.90 84.00 L 259.30 80.20 L 278.00 77.80 L 297.40 77.00 Z" fill="#f3f3fa" fill-opacity="0.6015942" fill-rule="evenodd" group-id="1" id="背景" node-id="43" stroke="none" target-height="442" target-width="543" target-x="29" target-y="77"></path></g><path d="M 181.80 214.00 L 174.50 214.00 L 174.20 210.30 L 173.50 206.90 L 172.40 203.70 L 170.80 200.60 L 169.00 197.80 L 166.70 195.20 L 164.20 193.00 L 161.40 191.10 L 158.30 189.60 L 155.00 188.40 L 151.60 187.70 L 148.00 187.50 L 144.30 187.70 L 140.90 188.40 L 137.70 189.60 L 134.60 191.10 L 131.80 193.00 L 129.20 195.20 L 127.00 197.80 L 125.10 200.60 L 123.60 203.70 L 122.40 206.90 L 121.70 210.30 L 121.50 214.00 L 116.10 214.00 L 113.90 214.20 L 111.90 214.80 L 110.00 215.80 L 106.80 218.70 L 104.70 222.60 L 103.90 227.20 L 104.10 229.60 L 105.60 233.90 L 106.80 235.80 L 110.00 238.70 L 111.90 239.60 L 113.90 240.20 L 116.10 240.50 L 181.80 240.50 L 184.00 240.20 L 186.00 239.60 L 189.60 237.40 L 192.30 233.90 L 193.80 229.60 L 194.00 227.20 L 193.80 224.80 L 192.30 220.50 L 189.60 217.10 L 186.00 214.80 L 184.00 214.20 L 181.80 214.00 Z" fill="url(#linearGradient-1)" fill-rule="nonzero" id="路径" node-id="44" stroke="none" target-height="53" target-width="90.1" target-x="103.9" target-y="187.5"></path><path d="M 368.90 138.60 L 363.70 138.60 L 363.30 135.20 L 362.50 132.00 L 361.10 129.00 L 359.20 126.40 L 356.90 124.10 L 354.20 122.20 L 351.30 120.80 L 348.10 120.00 L 344.70 119.60 L 341.20 120.00 L 338.00 120.80 L 335.10 122.20 L 332.40 124.10 L 330.10 126.40 L 328.30 129.00 L 326.80 132.00 L 326.00 135.20 L 325.70 138.60 L 321.80 138.60 L 318.80 139.20 L 317.40 139.90 L 315.70 141.40 L 314.30 143.30 L 313.40 145.60 L 313.10 148.10 L 313.40 150.70 L 314.30 152.90 L 315.70 154.90 L 317.40 156.30 L 320.20 157.50 L 368.90 157.60 L 372.00 157.00 L 373.30 156.30 L 375.10 154.90 L 376.50 152.90 L 377.30 150.70 L 377.60 148.10 L 377.30 145.60 L 376.40 143.30 L 375.10 141.40 L 373.30 139.90 L 370.50 138.80 L 368.90 138.60 Z" fill="url(#linearGradient-2)" fill-rule="nonzero" id="路径" node-id="45" stroke="none" target-height="38.000008" target-width="64.5" target-x="313.1" target-y="119.6"></path><path d="M 284.50 415.00 L 324.70 415.70 L 362.20 417.80 L 396.00 421.10 L 412.30 423.20 L 426.80 425.50 L 439.80 428.00 L 449.30 428.30 L 458.10 429.00 L 466.40 430.10 L 474.60 431.70 L 481.80 433.50 L 488.10 435.60 L 492.80 437.60 L 496.70 439.60 L 502.70 443.70 L 505.10 446.20 L 506.70 448.60 L 507.70 451.00 L 508.00 453.50 L 507.80 455.50 L 506.10 459.40 L 504.60 461.40 L 502.20 463.70 L 499.10 466.00 L 495.10 468.30 L 486.10 472.10 L 480.60 473.80 L 468.90 476.40 L 462.10 477.50 L 452.30 480.20 L 440.70 482.80 L 441.00 486.00 L 440.70 488.80 L 440.10 491.60 L 438.90 494.30 L 437.20 497.10 L 435.00 499.90 L 431.90 502.90 L 428.20 506.00 L 423.60 509.00 L 412.80 514.50 L 400.10 519.30 L 392.70 521.50 L 382.80 523.90 L 372.00 526.00 L 360.30 527.80 L 348.50 529.00 L 336.10 529.70 L 323.00 530.00 L 311.20 529.80 L 300.00 529.20 L 289.30 528.20 L 278.50 526.80 L 268.60 525.10 L 259.30 523.00 L 250.10 520.60 L 241.90 518.00 L 234.60 515.20 L 229.20 512.70 L 220.20 507.60 L 213.10 502.00 L 210.30 499.10 L 208.10 496.10 L 206.60 493.20 L 190.90 491.80 L 162.60 488.60 L 136.80 484.50 L 114.80 479.70 L 105.40 477.10 L 97.50 474.40 L 86.50 469.80 L 82.50 467.60 L 76.90 463.30 L 75.10 461.20 L 73.90 459.30 L 73.20 457.40 L 73.00 455.50 L 73.30 453.50 L 74.10 451.40 L 75.50 449.30 L 77.60 447.10 L 80.60 444.70 L 84.30 442.40 L 89.00 440.00 L 94.80 437.60 L 101.90 435.10 L 111.20 432.30 L 122.10 429.50 L 134.90 426.90 L 162.00 422.50 L 177.80 420.50 L 210.30 417.60 L 246.20 415.70 L 284.50 415.00 Z" fill="#e7eaf0" fill-rule="evenodd" id="形状结合" node-id="46" stroke="none" target-height="115" target-width="435" target-x="73" target-y="415"></path><g node-id="244"><path d="M 463.30 400.60 L 464.00 403.40 L 463.80 405.00 L 463.10 406.50 L 462.00 407.60 L 460.60 408.40 L 447.40 408.70 L 447.50 423.60 L 448.00 432.00 L 439.00 432.00 L 439.30 425.70 L 439.40 409.80 L 438.20 410.50 L 437.00 410.70 L 435.20 410.20 L 433.90 408.80 L 426.80 408.50 L 424.90 407.70 L 423.40 406.40 L 422.60 405.30 L 422.20 404.10 L 422.10 402.00 L 424.60 395.30 L 426.30 393.20 L 436.10 375.20 L 438.90 371.50 L 441.50 370.20 L 443.10 370.00 L 445.30 370.30 L 447.20 371.20 L 448.70 372.50 L 457.70 389.50 L 460.20 391.00 L 461.90 393.40 L 462.60 396.40 L 462.30 398.50 L 463.30 400.60 Z" fill="url(#linearGradient1)" fill-rule="nonzero" group-id="2" id="路径" node-id="48" stroke="none" target-height="62" target-width="41.899994" target-x="422.1" target-y="370"></path><path d="M 503.30 420.60 L 504.00 423.40 L 503.80 425.00 L 503.10 426.50 L 502.00 427.60 L 500.60 428.40 L 487.40 428.70 L 487.50 443.60 L 488.00 452.00 L 479.00 452.00 L 479.30 445.70 L 479.40 429.80 L 478.20 430.50 L 477.00 430.70 L 475.20 430.20 L 473.90 428.80 L 466.80 428.50 L 464.90 427.70 L 463.40 426.40 L 462.60 425.30 L 462.20 424.10 L 462.10 422.00 L 464.60 415.30 L 466.30 413.20 L 476.10 395.20 L 478.90 391.50 L 481.50 390.20 L 483.10 390.00 L 485.30 390.30 L 487.20 391.20 L 488.70 392.50 L 497.70 409.50 L 500.20 411.00 L 501.90 413.40 L 502.60 416.40 L 502.30 418.50 L 503.30 420.60 Z" fill="url(#linearGradient-3)" fill-rule="nonzero" group-id="2" id="路径" node-id="49" stroke="none" target-height="62" target-width="41.899994" target-x="462.1" target-y="390"></path><path d="M 150.00 413.40 L 151.00 417.40 L 150.40 420.40 L 149.70 421.80 L 148.20 423.40 L 146.30 424.50 L 127.60 424.90 L 127.80 446.00 L 128.50 458.00 L 115.90 458.00 L 116.30 449.10 L 116.40 426.40 L 115.40 427.20 L 113.10 427.80 L 110.50 427.10 L 108.70 425.10 L 98.80 424.60 L 95.30 423.00 L 93.90 421.70 L 92.90 420.10 L 92.20 418.30 L 92.10 415.40 L 94.50 409.40 L 95.60 405.80 L 98.00 403.00 L 111.80 377.50 L 113.70 374.60 L 115.80 372.20 L 117.40 371.00 L 119.40 370.30 L 121.70 370.00 L 125.60 370.70 L 127.30 371.70 L 130.10 374.40 L 142.10 397.70 L 144.00 398.60 L 145.60 399.80 L 147.00 401.40 L 148.10 403.20 L 148.80 405.20 L 149.00 407.40 L 148.50 410.40 L 150.00 413.40 Z" fill="url(#linearGradient-4)" fill-rule="nonzero" group-id="2" id="路径" node-id="50" stroke="none" target-height="88" target-width="58.9" target-x="92.1" target-y="370"></path></g><g node-id="245"><g node-id="246"><path d="M 188.00 445.60 L 380.20 558.00 L 521.00 466.40 L 340.20 402.00 Z" fill="url(#linearGradient-6)" fill-opacity="0.5" fill-rule="nonzero" group-id="3,4" id="Path-10" node-id="52" stroke="none" target-height="156" target-width="333" target-x="188" target-y="402"></path></g><path d="M 209.20 325.00 L 183.00 363.00 L 397.00 363.00 L 370.40 325.00 Z" fill="url(#linearGradient-7)" fill-rule="nonzero" group-id="3" id="Path-7" node-id="53" stroke="none" target-height="38" target-width="214" target-x="183" target-y="325"></path><path d="M 259.00 333.00 L 322.00 333.00 L 323.60 333.30 L 324.80 334.20 L 325.70 335.40 L 326.00 337.00 L 325.70 338.60 L 324.80 339.80 L 323.60 340.70 L 322.00 341.00 L 259.00 341.00 L 257.40 340.70 L 256.20 339.80 L 255.30 338.60 L 255.00 337.00 L 255.30 335.40 L 256.20 334.20 L 257.40 333.30 L 259.00 333.00 Z" fill="#ffffff" fill-rule="evenodd" group-id="3" id="Rectangle" node-id="54" stroke="none" target-height="8" target-width="71" target-x="255" target-y="333"></path><path d="M 209.50 325.00 L 211.00 363.00 L 183.00 363.00 Z" fill="url(#linearGradient2)" fill-rule="nonzero" group-id="3" id="Path-8" node-id="55" stroke="none" target-height="38" target-width="28" target-x="183" target-y="325"></path><g node-id="247"><path d="M 370.50 325.00 L 369.00 363.00 L 397.00 363.00 Z" fill="url(#linearGradient-8)" fill-rule="nonzero" group-id="3,5" id="Path-8-Copy" node-id="56" stroke="none" target-height="38" target-width="28" target-x="369" target-y="325"></path></g><g node-id="248"><path d="M 296.00 247.00 L 300.80 246.20 L 305.00 244.00 L 308.30 240.60 L 309.50 238.60 L 310.90 234.00 L 325.00 234.00 L 327.10 234.30 L 329.00 235.10 L 330.70 236.30 L 331.90 238.00 L 332.70 239.90 L 333.00 242.00 L 333.00 376.00 L 332.70 378.10 L 331.90 380.00 L 330.70 381.70 L 329.00 382.90 L 327.10 383.70 L 325.00 384.00 L 310.70 384.00 L 309.10 379.70 L 307.90 377.80 L 304.70 374.80 L 300.60 372.70 L 298.40 372.20 L 293.60 372.20 L 289.30 373.60 L 285.60 376.20 L 282.90 379.70 L 281.30 384.00 L 267.00 384.00 L 264.90 383.70 L 263.00 382.90 L 261.30 381.70 L 260.10 380.00 L 259.30 378.10 L 259.00 376.00 L 259.00 242.00 L 259.30 239.90 L 260.10 238.00 L 261.30 236.30 L 263.00 235.10 L 264.90 234.30 L 267.00 234.00 L 281.10 234.00 L 282.50 238.60 L 283.70 240.60 L 287.00 244.00 L 291.20 246.20 L 296.00 247.00 Z" fill="#d9dfe8" fill-rule="evenodd" group-id="3,6" id="形状结合" node-id="58" stroke="none" target-height="150" target-width="74" target-x="259" target-y="234"></path><path d="M 267.00 257.00 L 325.00 257.00 L 325.00 362.00 L 267.00 362.00 Z" fill="#ffffff" fill-rule="evenodd" group-id="3,6" id="矩形" node-id="59" stroke="none" target-height="105" target-width="58" target-x="267" target-y="257"></path><g node-id="253"><g node-id="256"><path d="M 304.80 288.60 L 305.60 290.50 L 307.50 291.30 L 309.50 290.50 L 310.20 288.60 L 309.50 286.70 L 307.50 285.90 L 305.60 286.70 L 304.80 288.60 Z M 282.90 279.70 L 301.10 282.10 L 301.10 284.60 L 282.90 284.60 L 282.90 292.00 L 286.30 293.60 L 286.30 289.20 L 301.10 289.20 L 301.10 291.70 L 304.60 293.20 L 304.60 282.50 L 310.20 283.10 L 310.20 278.40 L 304.60 277.80 L 304.60 273.60 L 301.10 273.60 L 301.10 277.60 L 282.90 274.90 L 282.90 279.70 Z M 282.10 268.40 L 284.10 273.00 L 305.40 273.00 L 309.90 274.50 L 309.90 269.50 L 299.90 266.10 L 299.90 268.40 L 282.10 268.40 Z M 290.30 319.40 L 290.30 323.90 L 294.10 322.60 L 294.10 317.90 L 293.50 318.20 L 293.50 312.30 L 294.70 312.30 L 294.70 318.40 L 297.30 323.00 L 305.40 323.00 L 305.30 312.30 L 306.50 312.30 L 306.50 322.50 L 309.10 323.90 L 309.10 312.30 L 310.00 312.30 L 310.00 307.70 L 309.10 307.70 L 309.10 296.80 L 306.50 296.80 L 306.50 307.70 L 305.30 307.70 L 305.40 297.10 L 294.70 297.10 L 294.70 307.70 L 293.50 307.70 L 293.50 296.80 L 290.70 296.80 L 290.70 318.00 L 292.00 318.70 L 290.30 319.40 Z M 301.30 307.70 L 301.30 301.70 L 302.70 301.70 L 302.70 307.70 L 301.30 307.70 Z M 297.30 318.40 L 297.40 312.30 L 298.60 312.30 L 298.60 316.10 L 301.30 317.50 L 301.30 312.30 L 302.70 312.30 L 302.70 318.40 L 297.30 318.40 Z M 297.40 307.70 L 297.40 301.70 L 298.60 301.70 L 298.60 307.70 L 297.40 307.70 Z M 282.70 316.50 L 285.70 317.80 L 285.70 313.80 L 287.30 314.90 L 288.60 314.90 L 290.10 313.70 L 290.40 312.40 L 289.70 310.50 L 288.60 309.90 L 286.90 309.90 L 285.70 311.00 L 285.70 308.30 L 289.70 308.30 L 289.70 303.80 L 282.70 303.80 L 282.70 316.50 Z M 282.40 319.20 L 283.90 323.60 L 289.70 323.60 L 289.70 319.20 L 282.40 319.20 Z M 282.30 297.20 L 283.90 301.60 L 289.60 301.60 L 289.60 297.20 L 282.30 297.20 Z M 292.30 333.90 L 296.90 339.90 L 292.30 346.10 L 292.30 354.20 L 297.60 346.20 L 297.60 352.50 L 300.60 354.00 L 300.60 342.20 L 302.00 342.20 L 302.00 352.60 L 305.10 354.00 L 305.10 342.20 L 309.90 342.20 L 309.90 337.30 L 305.10 337.30 L 305.10 326.70 L 302.00 326.70 L 302.00 337.30 L 300.60 337.30 L 300.60 326.70 L 297.60 326.70 L 297.60 333.80 L 292.30 326.00 L 292.30 333.90 Z M 305.80 349.90 L 309.80 354.20 L 309.80 348.30 L 305.80 344.00 L 305.80 349.90 Z M 305.80 336.30 L 309.80 332.20 L 309.80 326.30 L 305.80 330.40 L 305.80 336.30 Z M 282.70 348.30 L 286.60 353.10 L 291.10 353.10 L 291.10 326.80 L 288.00 326.80 L 288.00 332.00 L 282.80 326.50 L 282.80 333.00 L 288.00 338.30 L 288.00 348.20 L 285.90 348.20 L 285.80 339.00 L 282.80 339.00 L 282.70 348.30 Z" fill="#c5b0b0" fill-rule="nonzero" group-id="3,6,11,14" node-id="202" stroke="none" target-height="88.100006" target-width="28.100006" target-x="282.1" target-y="266.1"></path></g><path d="M 304.80 288.60 L 305.60 290.50 L 307.50 291.30 L 309.50 290.50 L 310.20 288.60 L 309.50 286.70 L 307.50 285.90 L 305.60 286.70 L 304.80 288.60 Z M 282.90 279.70 L 301.10 282.10 L 301.10 284.60 L 282.90 284.60 L 282.90 292.00 L 286.30 293.60 L 286.30 289.20 L 301.10 289.20 L 301.10 291.70 L 304.60 293.20 L 304.60 282.50 L 310.20 283.10 L 310.20 278.40 L 304.60 277.80 L 304.60 273.60 L 301.10 273.60 L 301.10 277.60 L 282.90 274.90 L 282.90 279.70 Z M 282.10 268.40 L 284.10 273.00 L 305.40 273.00 L 309.90 274.50 L 309.90 269.50 L 299.90 266.10 L 299.90 268.40 L 282.10 268.40 Z M 290.30 319.40 L 290.30 323.90 L 294.10 322.60 L 294.10 317.90 L 293.50 318.20 L 293.50 312.30 L 294.70 312.30 L 294.70 318.40 L 297.30 323.00 L 305.40 323.00 L 305.30 312.30 L 306.50 312.30 L 306.50 322.50 L 309.10 323.90 L 309.10 312.30 L 310.00 312.30 L 310.00 307.70 L 309.10 307.70 L 309.10 296.80 L 306.50 296.80 L 306.50 307.70 L 305.30 307.70 L 305.40 297.10 L 294.70 297.10 L 294.70 307.70 L 293.50 307.70 L 293.50 296.80 L 290.70 296.80 L 290.70 318.00 L 292.00 318.70 L 290.30 319.40 Z M 301.30 307.70 L 301.30 301.70 L 302.70 301.70 L 302.70 307.70 L 301.30 307.70 Z M 297.30 318.40 L 297.40 312.30 L 298.60 312.30 L 298.60 316.10 L 301.30 317.50 L 301.30 312.30 L 302.70 312.30 L 302.70 318.40 L 297.30 318.40 Z M 297.40 307.70 L 297.40 301.70 L 298.60 301.70 L 298.60 307.70 L 297.40 307.70 Z M 282.70 316.50 L 285.70 317.80 L 285.70 313.80 L 287.30 314.90 L 288.60 314.90 L 290.10 313.70 L 290.40 312.40 L 289.70 310.50 L 288.60 309.90 L 286.90 309.90 L 285.70 311.00 L 285.70 308.30 L 289.70 308.30 L 289.70 303.80 L 282.70 303.80 L 282.70 316.50 Z M 282.40 319.20 L 283.90 323.60 L 289.70 323.60 L 289.70 319.20 L 282.40 319.20 Z M 282.30 297.20 L 283.90 301.60 L 289.60 301.60 L 289.60 297.20 L 282.30 297.20 Z M 292.30 333.90 L 296.90 339.90 L 292.30 346.10 L 292.30 354.20 L 297.60 346.20 L 297.60 352.50 L 300.60 354.00 L 300.60 342.20 L 302.00 342.20 L 302.00 352.60 L 305.10 354.00 L 305.10 342.20 L 309.90 342.20 L 309.90 337.30 L 305.10 337.30 L 305.10 326.70 L 302.00 326.70 L 302.00 337.30 L 300.60 337.30 L 300.60 326.70 L 297.60 326.70 L 297.60 333.80 L 292.30 326.00 L 292.30 333.90 Z M 305.80 349.90 L 309.80 354.20 L 309.80 348.30 L 305.80 344.00 L 305.80 349.90 Z M 305.80 336.30 L 309.80 332.20 L 309.80 326.30 L 305.80 330.40 L 305.80 336.30 Z M 282.70 348.30 L 286.60 353.10 L 291.10 353.10 L 291.10 326.80 L 288.00 326.80 L 288.00 332.00 L 282.80 326.50 L 282.80 333.00 L 288.00 338.30 L 288.00 348.20 L 285.90 348.20 L 285.80 339.00 L 282.80 339.00 L 282.70 348.30 Z" fill="#d9dfe8" fill-rule="nonzero" group-id="3,6,11,15" node-id="207" stroke="none" target-height="88.100006" target-width="28.100006" target-x="282.1" target-y="266.1"></path></g></g><g node-id="249"><path d="M 221.00 265.30 L 224.80 262.20 L 227.30 258.20 L 228.40 253.70 L 228.50 251.30 L 227.40 246.60 L 239.60 239.50 L 241.60 238.70 L 243.70 238.50 L 245.70 238.70 L 247.60 239.50 L 249.20 240.80 L 250.50 242.50 L 317.50 358.50 L 318.40 360.50 L 318.60 362.60 L 318.30 364.60 L 317.60 366.50 L 316.30 368.10 L 314.60 369.50 L 302.20 376.60 L 298.70 373.70 L 296.70 372.70 L 292.40 371.60 L 287.90 371.90 L 285.70 372.50 L 281.50 374.90 L 278.50 378.30 L 276.60 382.40 L 276.00 386.80 L 276.80 391.30 L 264.40 398.50 L 262.40 399.30 L 260.30 399.50 L 258.30 399.30 L 256.40 398.50 L 254.80 397.20 L 253.50 395.50 L 186.50 279.50 L 185.60 277.50 L 185.40 275.40 L 185.70 273.40 L 186.40 271.50 L 187.70 269.90 L 189.40 268.50 L 201.60 261.50 L 205.10 264.80 L 207.20 265.90 L 211.70 267.20 L 216.40 267.00 L 221.00 265.30 Z" fill="#d9dfe8" fill-rule="evenodd" group-id="3,7" id="形状结合" node-id="64" stroke="none" target-height="161" target-width="133.20001" target-x="185.4" target-y="238.5"></path><path d="M 200.90 288.50 L 251.10 259.50 L 303.60 350.40 L 253.40 379.40 Z" fill="#ffffff" fill-rule="evenodd" group-id="3,7" id="矩形" node-id="65" stroke="none" target-height="119.899994" target-width="102.70001" target-x="200.9" target-y="259.5"></path><g node-id="254"><g node-id="258"><path d="M 249.40 296.90 L 251.10 298.20 L 253.10 297.90 L 254.40 296.20 L 254.10 294.20 L 252.50 292.90 L 250.40 293.20 L 249.10 294.90 L 249.40 296.90 Z M 226.10 300.20 L 243.00 293.20 L 244.20 295.30 L 228.50 304.40 L 232.20 310.80 L 235.90 310.50 L 233.70 306.70 L 246.60 299.30 L 247.80 301.40 L 251.60 301.00 L 246.30 291.80 L 251.30 289.50 L 249.00 285.40 L 243.90 287.70 L 241.80 284.00 L 238.70 285.80 L 240.70 289.20 L 223.60 296.00 L 226.10 300.20 Z M 219.60 290.80 L 223.70 293.80 L 242.10 283.20 L 246.70 282.20 L 244.20 277.90 L 233.90 279.90 L 235.00 281.90 L 219.60 290.80 Z M 252.30 330.80 L 254.50 334.70 L 257.20 331.70 L 254.80 327.70 L 254.40 328.20 L 251.50 323.10 L 252.50 322.50 L 255.60 327.80 L 260.10 330.40 L 267.10 326.40 L 261.70 317.20 L 262.80 316.60 L 267.90 325.40 L 270.80 325.40 L 265.00 315.30 L 265.80 314.90 L 263.50 310.90 L 262.70 311.30 L 257.20 301.80 L 255.00 303.10 L 260.50 312.60 L 259.40 313.20 L 254.20 304.00 L 244.90 309.30 L 250.20 318.50 L 249.20 319.10 L 243.70 309.70 L 241.30 311.10 L 251.90 329.50 L 253.40 329.40 L 252.30 330.80 Z M 255.90 315.20 L 252.90 310.10 L 254.10 309.40 L 257.10 314.50 L 255.90 315.20 Z M 257.80 326.50 L 254.80 321.20 L 256.00 320.60 L 257.80 323.80 L 260.80 323.70 L 258.20 319.20 L 259.40 318.50 L 262.50 323.80 L 257.80 326.50 Z M 252.50 317.20 L 249.50 312.00 L 250.70 311.40 L 253.60 316.50 L 252.50 317.20 Z M 244.20 332.20 L 247.50 331.80 L 245.50 328.30 L 247.40 328.50 L 248.50 327.80 L 249.20 326.00 L 248.90 324.70 L 247.30 323.50 L 246.00 323.50 L 244.60 324.30 L 244.10 325.90 L 242.80 323.50 L 246.20 321.60 L 243.90 317.60 L 237.80 321.10 L 244.20 332.20 Z M 245.30 334.60 L 248.80 337.70 L 253.80 334.80 L 251.60 331.00 L 245.30 334.60 Z M 234.30 315.60 L 237.80 318.70 L 242.70 315.80 L 240.50 312.00 L 234.30 315.60 Z M 261.20 342.40 L 268.20 345.30 L 267.40 353.00 L 271.40 360.00 L 272.00 350.40 L 275.10 355.90 L 278.40 355.70 L 272.60 345.50 L 273.80 344.80 L 279.00 353.70 L 282.30 353.40 L 276.50 343.20 L 280.70 340.80 L 278.20 336.60 L 274.00 339.00 L 268.70 329.80 L 266.10 331.30 L 271.40 340.50 L 270.10 341.20 L 264.80 332.00 L 262.20 333.50 L 265.80 339.70 L 257.30 335.50 L 261.20 342.40 Z M 280.90 349.50 L 286.60 351.20 L 283.60 346.10 L 278.00 344.50 L 280.90 349.50 Z M 274.10 337.80 L 275.60 332.20 L 272.60 327.10 L 271.20 332.70 L 274.10 337.80 Z M 260.20 359.70 L 265.90 361.90 L 269.80 359.60 L 256.70 336.80 L 254.00 338.40 L 256.60 342.90 L 249.30 340.80 L 252.50 346.40 L 259.80 348.40 L 264.70 356.90 L 262.80 358.00 L 258.20 350.10 L 255.60 351.60 L 260.20 359.70 Z" fill="#c5b0b0" fill-rule="nonzero" group-id="3,7,12,16" node-id="219" stroke="none" target-height="84" target-width="67" target-x="219.6" target-y="277.9"></path></g><path d="M 249.40 296.90 L 251.10 298.20 L 253.10 297.90 L 254.40 296.20 L 254.10 294.20 L 252.50 292.90 L 250.40 293.20 L 249.10 294.90 L 249.40 296.90 Z M 226.10 300.20 L 243.00 293.20 L 244.20 295.30 L 228.50 304.40 L 232.20 310.80 L 235.90 310.50 L 233.70 306.70 L 246.60 299.30 L 247.80 301.40 L 251.60 301.00 L 246.30 291.80 L 251.30 289.50 L 249.00 285.40 L 243.90 287.70 L 241.80 284.00 L 238.70 285.80 L 240.70 289.20 L 223.60 296.00 L 226.10 300.20 Z M 219.60 290.80 L 223.70 293.80 L 242.10 283.20 L 246.70 282.20 L 244.20 277.90 L 233.90 279.90 L 235.00 281.90 L 219.60 290.80 Z M 252.30 330.80 L 254.50 334.70 L 257.20 331.70 L 254.80 327.70 L 254.40 328.20 L 251.50 323.10 L 252.50 322.50 L 255.60 327.80 L 260.10 330.40 L 267.10 326.40 L 261.70 317.20 L 262.80 316.60 L 267.90 325.40 L 270.80 325.40 L 265.00 315.30 L 265.80 314.90 L 263.50 310.90 L 262.70 311.30 L 257.20 301.80 L 255.00 303.10 L 260.50 312.60 L 259.40 313.20 L 254.20 304.00 L 244.90 309.30 L 250.20 318.50 L 249.20 319.10 L 243.70 309.70 L 241.30 311.10 L 251.90 329.50 L 253.40 329.40 L 252.30 330.80 Z M 255.90 315.20 L 252.90 310.10 L 254.10 309.40 L 257.10 314.50 L 255.90 315.20 Z M 257.80 326.50 L 254.80 321.20 L 256.00 320.60 L 257.80 323.80 L 260.80 323.70 L 258.20 319.20 L 259.40 318.50 L 262.50 323.80 L 257.80 326.50 Z M 252.50 317.20 L 249.50 312.00 L 250.70 311.40 L 253.60 316.50 L 252.50 317.20 Z M 244.20 332.20 L 247.50 331.80 L 245.50 328.30 L 247.40 328.50 L 248.50 327.80 L 249.20 326.00 L 248.90 324.70 L 247.30 323.50 L 246.00 323.50 L 244.60 324.30 L 244.10 325.90 L 242.80 323.50 L 246.20 321.60 L 243.90 317.60 L 237.80 321.10 L 244.20 332.20 Z M 245.30 334.60 L 248.80 337.70 L 253.80 334.80 L 251.60 331.00 L 245.30 334.60 Z M 234.30 315.60 L 237.80 318.70 L 242.70 315.80 L 240.50 312.00 L 234.30 315.60 Z M 261.20 342.40 L 268.20 345.30 L 267.40 353.00 L 271.40 360.00 L 272.00 350.40 L 275.10 355.90 L 278.40 355.70 L 272.60 345.50 L 273.80 344.80 L 279.00 353.70 L 282.30 353.40 L 276.50 343.20 L 280.70 340.80 L 278.20 336.60 L 274.00 339.00 L 268.70 329.80 L 266.10 331.30 L 271.40 340.50 L 270.10 341.20 L 264.80 332.00 L 262.20 333.50 L 265.80 339.70 L 257.30 335.50 L 261.20 342.40 Z M 280.90 349.50 L 286.60 351.20 L 283.60 346.10 L 278.00 344.50 L 280.90 349.50 Z M 274.10 337.80 L 275.60 332.20 L 272.60 327.10 L 271.20 332.70 L 274.10 337.80 Z M 260.20 359.70 L 265.90 361.90 L 269.80 359.60 L 256.70 336.80 L 254.00 338.40 L 256.60 342.90 L 249.30 340.80 L 252.50 346.40 L 259.80 348.40 L 264.70 356.90 L 262.80 358.00 L 258.20 350.10 L 255.60 351.60 L 260.20 359.70 Z" fill="#d9dfe8" fill-rule="nonzero" group-id="3,7,12,17" node-id="224" stroke="none" target-height="84" target-width="67" target-x="219.6" target-y="277.9"></path></g></g><g node-id="250"><path d="M 178.20 305.20 L 181.00 301.20 L 182.40 296.70 L 182.30 292.00 L 181.80 289.70 L 179.50 285.50 L 189.50 275.50 L 191.20 274.20 L 193.10 273.40 L 195.10 273.10 L 197.20 273.40 L 199.10 274.20 L 200.80 275.50 L 295.50 370.20 L 296.80 371.90 L 297.60 373.80 L 297.90 375.90 L 297.60 377.90 L 296.80 379.80 L 295.50 381.50 L 285.40 391.60 L 281.30 389.70 L 279.10 389.30 L 274.60 389.40 L 270.30 390.80 L 268.40 392.00 L 265.00 395.40 L 262.90 399.40 L 262.20 403.80 L 262.70 408.30 L 264.60 412.40 L 254.50 422.50 L 252.80 423.80 L 250.90 424.60 L 248.90 424.90 L 246.80 424.60 L 244.90 423.80 L 243.20 422.50 L 148.50 327.80 L 147.20 326.10 L 146.40 324.20 L 146.10 322.10 L 146.40 320.10 L 147.20 318.20 L 148.50 316.50 L 158.50 306.50 L 162.70 308.80 L 165.00 309.30 L 169.70 309.40 L 174.20 308.00 L 178.20 305.20 Z" fill="#d9dfe8" fill-rule="evenodd" group-id="3,8" id="形状结合" node-id="70" stroke="none" target-height="151.79999" target-width="151.79999" target-x="146.1" target-y="273.1"></path><path d="M 164.70 332.70 L 205.70 291.70 L 280.00 366.00 L 239.00 407.00 Z" fill="#ffffff" fill-rule="evenodd" group-id="3,8" id="矩形" node-id="71" stroke="none" target-height="115.29999" target-width="115.3" target-x="164.7" target-y="291.7"></path><g node-id="255"><g node-id="260"><path d="M 213.80 328.30 L 215.70 329.10 L 217.60 328.40 L 218.40 326.40 L 217.60 324.50 L 215.70 323.70 L 213.80 324.50 L 213.00 326.40 L 213.80 328.30 Z M 192.10 337.50 L 206.60 326.40 L 208.40 328.10 L 195.50 341.00 L 200.80 346.20 L 204.20 345.00 L 201.10 341.90 L 211.60 331.40 L 213.40 333.10 L 216.90 331.70 L 209.40 324.20 L 213.70 320.70 L 210.40 317.30 L 206.10 320.90 L 203.10 317.80 L 200.60 320.30 L 203.40 323.10 L 188.70 334.10 L 192.10 337.50 Z M 183.40 330.10 L 188.20 332.00 L 203.20 316.90 L 207.40 314.80 L 203.90 311.30 L 194.40 315.90 L 196.00 317.50 L 183.40 330.10 Z M 225.30 360.30 L 228.50 363.50 L 230.30 359.90 L 227.00 356.60 L 226.70 357.30 L 222.60 353.10 L 223.40 352.30 L 227.70 356.60 L 232.80 357.90 L 238.50 352.30 L 230.90 344.80 L 231.80 343.90 L 239.00 351.10 L 241.80 350.30 L 233.60 342.10 L 234.30 341.40 L 231.00 338.20 L 230.30 338.80 L 222.60 331.10 L 220.80 332.90 L 228.50 340.60 L 227.70 341.50 L 220.20 334.00 L 212.60 341.50 L 220.10 349.00 L 219.30 349.90 L 211.60 342.10 L 209.60 344.10 L 224.60 359.10 L 226.00 358.70 L 225.30 360.30 Z M 224.80 344.30 L 220.60 340.10 L 221.60 339.10 L 225.80 343.40 L 224.80 344.30 Z M 229.60 354.70 L 225.30 350.40 L 226.20 349.50 L 228.90 352.20 L 231.70 351.30 L 228.10 347.60 L 229.10 346.60 L 233.30 350.90 L 229.60 354.70 Z M 222.00 347.10 L 217.80 342.90 L 218.70 342.00 L 222.90 346.20 L 222.00 347.10 Z M 217.90 363.70 L 221.00 362.50 L 218.10 359.70 L 220.00 359.40 L 220.90 358.40 L 221.10 356.50 L 220.50 355.30 L 218.60 354.60 L 217.40 354.90 L 216.20 356.10 L 216.10 357.70 L 214.20 355.80 L 217.10 353.00 L 213.80 349.80 L 208.90 354.70 L 217.90 363.70 Z M 219.60 365.80 L 223.80 367.80 L 227.80 363.80 L 224.70 360.70 L 219.60 365.80 Z M 204.00 350.30 L 208.20 352.30 L 212.20 348.30 L 209.10 345.20 L 204.00 350.30 Z M 237.00 369.20 L 244.50 370.20 L 245.60 377.90 L 251.30 383.60 L 249.40 374.20 L 253.90 378.70 L 257.00 377.60 L 248.70 369.30 L 249.80 368.20 L 257.10 375.60 L 260.20 374.40 L 251.90 366.10 L 255.30 362.60 L 251.90 359.20 L 248.40 362.60 L 240.90 355.10 L 238.80 357.20 L 246.30 364.80 L 245.30 365.80 L 237.70 358.30 L 235.60 360.40 L 240.70 365.40 L 231.40 363.60 L 237.00 369.20 Z M 257.80 371.00 L 263.70 371.20 L 259.60 367.00 L 253.70 366.90 L 257.80 371.00 Z M 248.20 361.40 L 248.20 355.60 L 244.00 351.50 L 244.00 357.20 L 248.20 361.40 Z M 240.40 386.20 L 246.50 386.80 L 249.70 383.60 L 231.10 365.00 L 228.90 367.20 L 232.60 370.90 L 225.00 370.70 L 229.60 375.30 L 237.10 375.30 L 244.10 382.30 L 242.50 383.90 L 236.10 377.40 L 233.90 379.60 L 240.40 386.20 Z" fill="#c5b0b0" fill-rule="nonzero" group-id="3,8,13,18" node-id="236" stroke="none" target-height="75.5" target-width="80.30002" target-x="183.4" target-y="311.3"></path></g><path d="M 213.80 328.30 L 215.70 329.10 L 217.60 328.40 L 218.40 326.40 L 217.60 324.50 L 215.70 323.70 L 213.80 324.50 L 213.00 326.40 L 213.80 328.30 Z M 192.10 337.50 L 206.60 326.40 L 208.40 328.10 L 195.50 341.00 L 200.80 346.20 L 204.20 345.00 L 201.10 341.90 L 211.60 331.40 L 213.40 333.10 L 216.90 331.70 L 209.40 324.20 L 213.70 320.70 L 210.40 317.30 L 206.10 320.90 L 203.10 317.80 L 200.60 320.30 L 203.40 323.10 L 188.70 334.10 L 192.10 337.50 Z M 183.40 330.10 L 188.20 332.00 L 203.20 316.90 L 207.40 314.80 L 203.90 311.30 L 194.40 315.90 L 196.00 317.50 L 183.40 330.10 Z M 225.30 360.30 L 228.50 363.50 L 230.30 359.90 L 227.00 356.60 L 226.70 357.30 L 222.60 353.10 L 223.40 352.30 L 227.70 356.60 L 232.80 357.90 L 238.50 352.30 L 230.90 344.80 L 231.80 343.90 L 239.00 351.10 L 241.80 350.30 L 233.60 342.10 L 234.30 341.40 L 231.00 338.20 L 230.30 338.80 L 222.60 331.10 L 220.80 332.90 L 228.50 340.60 L 227.70 341.50 L 220.20 334.00 L 212.60 341.50 L 220.10 349.00 L 219.30 349.90 L 211.60 342.10 L 209.60 344.10 L 224.60 359.10 L 226.00 358.70 L 225.30 360.30 Z M 224.80 344.30 L 220.60 340.10 L 221.60 339.10 L 225.80 343.40 L 224.80 344.30 Z M 229.60 354.70 L 225.30 350.40 L 226.20 349.50 L 228.90 352.20 L 231.70 351.30 L 228.10 347.60 L 229.10 346.60 L 233.30 350.90 L 229.60 354.70 Z M 222.00 347.10 L 217.80 342.90 L 218.70 342.00 L 222.90 346.20 L 222.00 347.10 Z M 217.90 363.70 L 221.00 362.50 L 218.10 359.70 L 220.00 359.40 L 220.90 358.40 L 221.10 356.50 L 220.50 355.30 L 218.60 354.60 L 217.40 354.90 L 216.20 356.10 L 216.10 357.70 L 214.20 355.80 L 217.10 353.00 L 213.80 349.80 L 208.90 354.70 L 217.90 363.70 Z M 219.60 365.80 L 223.80 367.80 L 227.80 363.80 L 224.70 360.70 L 219.60 365.80 Z M 204.00 350.30 L 208.20 352.30 L 212.20 348.30 L 209.10 345.20 L 204.00 350.30 Z M 237.00 369.20 L 244.50 370.20 L 245.60 377.90 L 251.30 383.60 L 249.40 374.20 L 253.90 378.70 L 257.00 377.60 L 248.70 369.30 L 249.80 368.20 L 257.10 375.60 L 260.20 374.40 L 251.90 366.10 L 255.30 362.60 L 251.90 359.20 L 248.40 362.60 L 240.90 355.10 L 238.80 357.20 L 246.30 364.80 L 245.30 365.80 L 237.70 358.30 L 235.60 360.40 L 240.70 365.40 L 231.40 363.60 L 237.00 369.20 Z M 257.80 371.00 L 263.70 371.20 L 259.60 367.00 L 253.70 366.90 L 257.80 371.00 Z M 248.20 361.40 L 248.20 355.60 L 244.00 351.50 L 244.00 357.20 L 248.20 361.40 Z M 240.40 386.20 L 246.50 386.80 L 249.70 383.60 L 231.10 365.00 L 228.90 367.20 L 232.60 370.90 L 225.00 370.70 L 229.60 375.30 L 237.10 375.30 L 244.10 382.30 L 242.50 383.90 L 236.10 377.40 L 233.90 379.60 L 240.40 386.20 Z" fill="#d9dfe8" fill-rule="nonzero" group-id="3,8,13,19" node-id="241" stroke="none" target-height="75.5" target-width="80.30002" target-x="183.4" target-y="311.3"></path></g></g><g node-id="251"><path d="M 311.00 290.00 L 389.00 290.00 L 390.60 290.30 L 391.80 291.20 L 392.70 292.40 L 393.00 294.00 L 393.00 392.00 L 392.70 393.60 L 391.80 394.80 L 390.60 395.70 L 389.00 396.00 L 311.00 396.00 L 309.40 395.70 L 308.20 394.80 L 307.30 393.60 L 307.00 392.00 L 307.00 294.00 L 307.30 292.40 L 308.20 291.20 L 309.40 290.30 L 311.00 290.00 Z" fill="url(#linearGradient-12)" fill-rule="nonzero" group-id="3,9" id="矩形" node-id="76" stroke="none" target-height="106" target-width="86" target-x="307" target-y="290"></path><path d="M 389.00 290.00 L 390.50 290.30 L 391.80 291.10 L 392.60 292.30 L 393.00 293.90 L 392.70 297.70 L 392.00 301.40 L 391.00 304.90 L 389.50 308.30 L 385.50 314.60 L 383.10 317.50 L 380.30 320.10 L 376.20 323.30 L 371.70 325.90 L 366.60 328.10 L 358.70 330.20 L 350.00 331.00 L 341.30 330.20 L 333.30 328.10 L 325.90 324.60 L 319.60 320.00 L 314.30 314.40 L 310.40 308.10 L 308.90 304.70 L 307.90 301.10 L 307.00 293.90 L 307.40 292.30 L 308.20 291.10 L 309.50 290.30 L 311.00 290.00 L 389.00 290.00 Z" fill="#e7eaf0" fill-rule="evenodd" group-id="3,9" id="形状结合" node-id="77" stroke="none" target-height="41" target-width="86" target-x="307" target-y="290"></path><path d="M 367.00 332.00 L 366.70 335.10 L 365.90 337.90 L 364.70 340.60 L 363.00 343.00 L 361.00 345.00 L 358.60 346.70 L 355.90 347.90 L 353.10 348.70 L 350.00 349.00 L 346.90 348.70 L 344.10 347.90 L 341.40 346.70 L 339.00 345.00 L 337.00 343.00 L 335.30 340.60 L 334.10 337.90 L 333.30 335.10 L 333.00 332.00 L 333.30 328.90 L 334.10 326.10 L 335.30 323.40 L 337.00 321.00 L 339.00 319.00 L 341.40 317.30 L 344.10 316.10 L 346.90 315.30 L 350.00 315.00 L 353.10 315.30 L 355.90 316.10 L 358.60 317.30 L 361.00 319.00 L 363.00 321.00 L 364.70 323.40 L 365.90 326.10 L 366.70 328.90 L 367.00 332.00 Z" fill="#d9dfe8" fill-rule="evenodd" group-id="3,9" id="椭圆形" node-id="78" stroke="none" target-height="34" target-width="34" target-x="333" target-y="315"></path><path d="M 351.50 342.00 L 351.50 338.40 L 355.50 338.40 L 355.50 336.80 L 351.50 336.80 L 351.50 334.80 L 355.50 334.80 L 355.50 333.20 L 352.40 333.20 L 357.00 324.90 L 353.60 324.90 L 350.00 332.10 L 346.40 324.90 L 343.00 324.90 L 347.60 333.20 L 344.50 333.20 L 344.50 334.80 L 348.50 334.80 L 348.50 336.80 L 344.50 336.80 L 344.50 338.40 L 348.50 338.40 L 348.50 342.00 Z" fill="#ffffff" fill-rule="nonzero" group-id="3,9" id="¥" node-id="79" stroke="none" target-height="17.100006" target-width="14" target-x="343" target-y="324.9"></path></g><g node-id="252"><path d="M 269.00 318.00 L 331.00 318.00 L 332.60 318.30 L 333.80 319.20 L 334.70 320.40 L 335.00 322.00 L 335.00 400.30 L 334.70 401.80 L 333.80 403.10 L 332.60 404.00 L 331.00 404.30 L 269.00 404.30 L 267.40 404.00 L 266.20 403.10 L 265.30 401.80 L 265.00 400.30 L 265.00 322.00 L 265.30 320.40 L 266.20 319.20 L 267.40 318.30 L 269.00 318.00 Z" fill="url(#linearGradient-13)" fill-rule="nonzero" group-id="3,10" id="矩形" node-id="81" stroke="none" target-height="86.29999" target-width="70" target-x="265" target-y="318"></path><path d="M 331.00 318.00 L 332.50 318.30 L 333.70 319.10 L 334.60 320.20 L 335.00 321.70 L 334.50 325.80 L 333.50 329.60 L 332.00 333.30 L 329.90 336.70 L 327.40 339.80 L 324.40 342.70 L 321.10 345.20 L 317.50 347.30 L 313.40 349.00 L 309.20 350.30 L 304.70 351.10 L 300.00 351.40 L 295.30 351.10 L 290.80 350.30 L 286.60 349.00 L 282.50 347.30 L 278.90 345.20 L 275.60 342.70 L 272.60 339.80 L 270.10 336.70 L 268.00 333.30 L 266.50 329.60 L 265.50 325.80 L 265.00 321.70 L 265.40 320.20 L 266.30 319.10 L 267.50 318.30 L 269.00 318.00 L 331.00 318.00 Z" fill="#e7eaf0" fill-rule="evenodd" group-id="3,10" id="形状结合" node-id="82" stroke="none" target-height="33.399994" target-width="70" target-x="265" target-y="318"></path><path d="M 313.80 352.20 L 313.60 354.70 L 313.00 357.00 L 311.90 359.20 L 310.60 361.10 L 307.00 364.10 L 304.80 365.20 L 302.50 365.80 L 300.00 366.00 L 297.50 365.80 L 295.20 365.20 L 293.00 364.10 L 291.10 362.80 L 288.10 359.20 L 287.00 357.00 L 286.40 354.70 L 286.20 352.20 L 286.40 349.70 L 287.00 347.30 L 288.10 345.20 L 289.40 343.30 L 293.00 340.20 L 295.20 339.20 L 297.50 338.60 L 300.00 338.30 L 302.50 338.60 L 304.80 339.20 L 307.00 340.20 L 308.90 341.60 L 311.90 345.20 L 313.00 347.30 L 313.60 349.70 L 313.80 352.20 Z" fill="#d9dfe8" fill-rule="evenodd" group-id="3,10" id="椭圆形" node-id="83" stroke="none" target-height="27.700012" target-width="27.599976" target-x="286.2" target-y="338.3"></path><path d="M 301.20 360.30 L 301.20 357.40 L 304.50 357.40 L 304.50 356.10 L 301.20 356.10 L 301.20 354.50 L 304.50 354.50 L 304.50 353.20 L 302.00 353.20 L 305.70 346.40 L 302.90 346.40 L 300.00 352.30 L 297.10 346.40 L 294.30 346.40 L 298.00 353.20 L 295.50 353.20 L 295.50 354.50 L 298.80 354.50 L 298.80 356.10 L 295.50 356.10 L 295.50 357.40 L 298.80 357.40 L 298.80 360.30 Z" fill="#ffffff" fill-rule="nonzero" group-id="3,10" id="¥" node-id="84" stroke="none" target-height="13.899994" target-width="11.400024" target-x="294.3" target-y="346.4"></path></g><path d="M 183.00 363.00 L 397.00 363.00 L 390.20 446.00 L 189.80 446.00 Z" fill="url(#linearGradient-14)" fill-rule="nonzero" group-id="3" id="Rectangle" node-id="85" stroke="none" target-height="83" target-width="214" target-x="183" target-y="363"></path><path d="M 251.00 375.00 L 329.00 375.00 L 330.60 375.30 L 331.80 376.20 L 332.70 377.40 L 333.00 379.00 L 332.70 380.60 L 331.80 381.80 L 330.60 382.70 L 329.00 383.00 L 251.00 383.00 L 249.40 382.70 L 248.20 381.80 L 247.30 380.60 L 247.00 379.00 L 247.30 377.40 L 248.20 376.20 L 249.40 375.30 L 251.00 375.00 Z" fill="#ffffff" fill-rule="evenodd" group-id="3" id="Rectangle" node-id="86" stroke="none" target-height="8" target-width="86" target-x="247" target-y="375"></path><path d="M 290.00 424.00 L 279.50 429.50 L 278.70 429.80 L 277.30 429.30 L 276.80 428.70 L 276.60 427.40 L 278.60 415.70 L 270.10 407.40 L 269.50 406.00 L 270.00 404.60 L 271.20 404.00 L 282.90 402.30 L 288.20 391.60 L 289.40 390.60 L 290.90 390.70 L 291.80 391.60 L 297.10 402.30 L 308.80 404.00 L 310.10 404.80 L 310.50 406.30 L 309.90 407.40 L 301.40 415.70 L 303.40 427.40 L 303.40 428.20 L 302.50 429.40 L 301.80 429.70 L 300.50 429.50 L 290.00 424.00 Z" fill="#e7eaf0" fill-rule="evenodd" group-id="3" id="Star" node-id="87" stroke="none" target-height="39.19998" target-width="41" target-x="269.5" target-y="390.6"></path></g><path d="M 376.00 270.00 L 375.70 272.70 L 375.10 275.20 L 374.00 277.60 L 372.50 279.70 L 370.70 281.50 L 368.60 283.00 L 366.20 284.10 L 363.70 284.70 L 361.00 285.00 L 358.30 284.70 L 355.80 284.10 L 353.40 283.00 L 351.30 281.50 L 349.50 279.70 L 348.00 277.60 L 346.90 275.20 L 346.30 272.70 L 346.00 270.00 L 346.30 267.30 L 346.90 264.80 L 348.00 262.40 L 349.50 260.30 L 351.30 258.50 L 353.40 257.00 L 355.80 255.90 L 358.30 255.30 L 361.00 255.00 L 363.70 255.30 L 366.20 255.90 L 368.60 257.00 L 370.70 258.50 L 372.50 260.30 L 374.00 262.40 L 375.10 264.80 L 375.70 267.30 L 376.00 270.00 Z" fill="#d9dfe8" fill-rule="evenodd" id="椭圆形" node-id="88" stroke="none" target-height="30" target-width="30" target-x="346" target-y="255"></path><path d="M 360.00 273.70 L 360.00 271.60 L 362.20 271.30 L 363.10 270.60 L 363.80 269.70 L 364.00 268.40 L 363.80 266.00 L 363.10 265.00 L 362.20 264.40 L 361.00 264.10 L 359.80 264.40 L 358.90 265.00 L 358.20 266.00 L 358.00 268.40 L 356.00 268.40 L 356.20 265.80 L 357.50 263.50 L 359.60 262.20 L 361.00 262.00 L 363.50 262.70 L 365.30 264.60 L 366.00 267.30 L 365.70 270.20 L 364.90 271.70 L 363.60 272.90 L 362.00 273.60 L 362.00 275.80 L 360.00 275.80 L 360.00 273.70 Z M 360.00 276.90 L 362.00 276.90 L 362.00 279.00 L 360.00 279.00 L 360.00 276.90 Z" fill="#ffffff" fill-rule="nonzero" id="形状" node-id="89" stroke="none" target-height="17" target-width="10" target-x="356" target-y="262"></path></svg>