<?xml version="1.0" standalone="no"?><!DOCTYPE svg PUBLIC "-//W3C//DTD SVG 1.1//EN" "http://www.w3.org/Graphics/SVG/1.1/DTD/svg11.dtd"><svg height="600" node-id="1" sillyvg="true" template-height="600" template-width="600" version="1.1" viewBox="0 0 600 600" width="600" xmlns="http://www.w3.org/2000/svg" xmlns:xlink="http://www.w3.org/1999/xlink"><defs node-id="61"><linearGradient gradientUnits="objectBoundingBox" id="linearGradient-1" node-id="5" spreadMethod="pad" x1="1.4458808" x2="0.29515958" y1="0.670017" y2="0.6741977"><stop offset="0" stop-color="#e0e5ef" stop-opacity="0"></stop><stop offset="1" stop-color="#e0e5ef"></stop></linearGradient><linearGradient gradientUnits="objectBoundingBox" id="linearGradient1" node-id="69" spreadMethod="pad" x1="0.92518216" x2="0.40792233" y1="0.98800004" y2="1"><stop offset="0" stop-color="#e0e5ef" stop-opacity="0"></stop><stop offset="1" stop-color="#e0e5ef"></stop></linearGradient><linearGradient gradientUnits="objectBoundingBox" id="linearGradient-2" node-id="8" spreadMethod="pad" x1="0.92518216" x2="0.40792233" y1="0.98800004" y2="1"><stop offset="0" stop-color="#e0e5ef" stop-opacity="0"></stop><stop offset="1" stop-color="#e0e5ef"></stop></linearGradient><linearGradient gradientUnits="objectBoundingBox" id="linearGradient-3" node-id="11" spreadMethod="pad" x1="0.92039144" x2="0.4089598" y1="0.98800004" y2="1"><stop offset="0" stop-color="#e0e5ef" stop-opacity="0"></stop><stop offset="1" stop-color="#e0e5ef"></stop></linearGradient><linearGradient gradientUnits="objectBoundingBox" id="linearGradient-4" node-id="14" spreadMethod="pad" x1="1.4458808" x2="0.29515958" y1="0.6441399" y2="0.64768434"><stop offset="0" stop-color="#e0e5ef" stop-opacity="0"></stop><stop offset="1" stop-color="#e0e5ef"></stop></linearGradient><linearGradient gradientUnits="objectBoundingBox" id="linearGradient-5" node-id="17" spreadMethod="pad" x1="0.40643752" x2="-0.24688987" y1="0.46454304" y2="0.32832006"><stop offset="0" stop-color="#e8ebf1" stop-opacity="0.23774004"></stop><stop offset="1" stop-color="#a2abb9"></stop></linearGradient><linearGradient gradientUnits="objectBoundingBox" id="linearGradient-6" node-id="20" spreadMethod="pad" x1="0.67341614" x2="0" y1="0.60766894" y2="0.38396627"><stop offset="0" stop-color="#a2abb9"></stop><stop offset="1" stop-color="#e7eaf0"></stop></linearGradient><linearGradient gradientUnits="objectBoundingBox" id="linearGradient-7" node-id="23" spreadMethod="pad" x1="0.51146674" x2="0.4669388" y1="1.0695688" y2="-0.113818474"><stop offset="0" stop-color="#a2abb9"></stop><stop offset="1" stop-color="#e7eaf0"></stop></linearGradient><linearGradient gradientUnits="objectBoundingBox" id="linearGradient-8" node-id="26" spreadMethod="pad" x1="0.8857836" x2="0.5" y1="0.80587554" y2="0.17197725"><stop offset="0" stop-color="#a2abb9"></stop><stop offset="1" stop-color="#e7eaf0"></stop></linearGradient><linearGradient gradientUnits="objectBoundingBox" id="linearGradient-9" node-id="29" spreadMethod="pad" x1="0.67300355" x2="0.40584758" y1="0.5658871" y2="0.2248948"><stop offset="0" stop-color="#a2abb9"></stop><stop offset="1" stop-color="#e7eaf0"></stop></linearGradient><linearGradient gradientUnits="objectBoundingBox" id="linearGradient-10" node-id="32" spreadMethod="pad" x1="1" x2="0.5" y1="1.5294299" y2="0.044890743"><stop offset="0" stop-color="#a2abb9"></stop><stop offset="1" stop-color="#e7eaf0"></stop></linearGradient><linearGradient gradientUnits="objectBoundingBox" id="linearGradient-11" node-id="35" spreadMethod="pad" x1="1.9968365" x2="0" y1="1.8234166" y2="0"><stop offset="0" stop-color="#a2abb9"></stop><stop offset="1" stop-color="#e7eaf0"></stop></linearGradient><linearGradient gradientUnits="objectBoundingBox" id="linearGradient-12" node-id="38" spreadMethod="pad" x1="0.5" x2="0.5" y1="1" y2="-0.3008045"><stop offset="0" stop-color="#a2abb9"></stop><stop offset="1" stop-color="#e7eaf0"></stop></linearGradient></defs><g node-id="141"><path d="M 297.40 77.00 L 307.60 77.20 L 317.70 77.90 L 327.60 79.00 L 337.30 80.50 L 346.90 82.40 L 356.40 84.70 L 365.70 87.40 L 374.90 90.50 L 383.80 94.00 L 392.50 97.80 L 403.30 103.10 L 413.60 108.90 L 423.60 115.20 L 433.20 122.00 L 415.60 122.20 L 413.50 122.80 L 411.40 123.80 L 408.10 126.60 L 405.80 130.50 L 405.20 132.60 L 405.00 136.00 L 405.20 138.40 L 405.80 140.50 L 406.80 142.60 L 409.60 145.90 L 413.50 148.20 L 415.60 148.80 L 418.00 149.00 L 463.20 149.00 L 469.50 156.10 L 475.40 163.40 L 481.10 170.90 L 486.40 178.80 L 507.90 178.80 L 510.40 179.00 L 512.80 179.60 L 514.90 180.70 L 516.90 182.10 L 518.60 183.70 L 520.00 185.70 L 521.00 187.90 L 521.60 190.20 L 521.90 192.80 L 521.30 197.60 L 520.60 199.50 L 519.00 202.00 L 517.00 204.20 L 514.50 205.90 L 511.80 207.00 L 492.00 207.00 L 489.10 207.30 L 486.40 208.00 L 483.90 209.20 L 481.70 210.80 L 479.80 212.70 L 478.20 214.90 L 477.00 217.40 L 476.30 220.10 L 476.00 228.00 L 476.30 230.90 L 477.00 233.60 L 478.20 236.10 L 479.80 238.30 L 481.70 240.20 L 483.90 241.80 L 486.40 243.00 L 489.10 243.70 L 492.00 244.00 L 559.90 244.00 L 564.20 245.80 L 566.10 247.10 L 569.20 250.50 L 571.30 254.70 L 572.00 259.50 L 571.70 263.30 L 571.00 266.00 L 569.80 268.50 L 568.20 270.70 L 566.30 272.60 L 564.10 274.20 L 561.60 275.40 L 558.90 276.10 L 556.00 276.40 L 520.80 276.40 L 521.60 287.10 L 521.90 298.00 L 521.60 308.50 L 520.90 318.80 L 519.70 328.90 L 518.10 338.90 L 515.90 348.70 L 513.40 358.40 L 510.40 367.90 L 507.00 377.20 L 503.20 386.30 L 499.10 395.20 L 494.50 403.90 L 489.50 412.40 L 484.20 420.60 L 478.60 428.50 L 472.60 436.20 L 466.20 443.70 L 459.60 450.80 L 452.60 457.60 L 445.40 464.20 L 437.80 470.40 L 430.00 476.40 L 421.90 481.90 L 413.60 487.10 L 405.00 492.00 L 396.10 496.50 L 387.10 500.70 L 377.80 504.40 L 368.40 507.70 L 358.70 510.60 L 348.80 513.20 L 338.90 515.20 L 328.80 516.90 L 318.50 518.00 L 308.00 518.70 L 297.40 519.00 L 287.40 518.80 L 277.60 518.20 L 268.00 517.10 L 258.50 515.70 L 249.20 513.90 L 237.60 511.10 L 226.30 507.70 L 215.40 503.80 L 204.70 499.30 L 194.20 494.30 L 184.00 488.80 L 174.30 482.80 L 164.80 476.40 L 155.70 469.40 L 147.00 462.10 L 138.60 454.30 L 130.70 446.10 L 123.20 437.50 L 116.20 428.60 L 109.60 419.30 L 103.50 409.60 L 97.90 399.60 L 92.90 389.30 L 88.30 378.80 L 84.30 367.90 L 74.20 367.70 L 72.80 367.10 L 71.50 366.10 L 70.60 364.80 L 70.00 363.40 L 69.70 361.70 L 70.00 359.90 L 70.80 358.20 L 72.00 356.90 L 73.60 356.00 L 86.40 355.80 L 88.50 355.20 L 90.60 354.20 L 93.90 351.40 L 96.20 347.50 L 96.80 345.40 L 97.00 343.00 L 96.80 339.60 L 96.20 337.50 L 95.20 335.40 L 92.40 332.10 L 90.60 330.80 L 88.50 329.80 L 86.40 329.20 L 75.00 328.80 L 52.90 328.80 L 49.30 328.20 L 47.70 327.40 L 45.00 325.20 L 43.20 322.20 L 42.70 320.40 L 42.70 316.70 L 44.00 313.40 L 46.20 310.70 L 49.30 308.90 L 52.90 308.30 L 73.10 308.30 L 72.90 298.00 L 73.10 288.20 L 73.70 278.50 L 74.80 269.00 L 76.20 259.70 L 78.10 250.50 L 80.90 239.00 L 84.40 227.90 L 88.40 217.10 L 92.90 206.50 L 57.00 206.50 L 53.20 206.20 L 49.50 205.50 L 46.10 204.30 L 42.90 202.70 L 39.90 200.70 L 37.20 198.30 L 34.80 195.60 L 32.80 192.70 L 31.20 189.40 L 30.00 186.00 L 29.30 182.40 L 29.00 178.50 L 29.20 173.20 L 29.90 169.70 L 31.10 166.40 L 32.60 163.20 L 34.50 160.30 L 36.70 157.70 L 39.20 155.30 L 42.00 153.30 L 45.10 151.60 L 48.30 150.30 L 51.70 149.50 L 55.40 149.00 L 182.00 149.00 L 185.50 148.40 L 188.50 146.60 L 190.60 144.00 L 191.40 142.50 L 192.00 139.00 L 191.80 137.20 L 191.40 135.50 L 189.60 132.50 L 187.00 130.40 L 185.50 129.60 L 182.00 129.00 L 152.70 129.00 L 153.40 128.40 L 138.80 128.40 L 135.40 128.10 L 132.20 127.20 L 129.30 125.80 L 126.60 123.90 L 124.30 121.70 L 122.40 119.00 L 121.00 116.00 L 120.20 112.90 L 119.80 109.40 L 120.20 104.90 L 121.00 101.70 L 122.40 98.70 L 124.30 96.10 L 126.60 93.80 L 129.30 91.90 L 132.20 90.50 L 135.40 89.70 L 138.80 89.30 L 223.20 89.30 L 240.90 84.00 L 259.30 80.20 L 278.00 77.80 L 297.40 77.00 Z" fill="#f3f3fa" fill-opacity="0.6015942" fill-rule="evenodd" group-id="1" id="背景" node-id="42" stroke="none" target-height="442" target-width="543" target-x="29" target-y="77"></path></g><path d="M 445.40 162.30 L 444.60 166.10 L 443.70 167.70 L 441.00 170.50 L 437.20 172.30 L 432.80 173.00 L 393.90 173.00 L 391.50 172.70 L 387.40 171.30 L 384.00 168.90 L 381.80 165.70 L 381.20 163.90 L 381.00 161.80 L 381.80 158.00 L 384.10 154.80 L 387.40 152.30 L 386.90 150.20 L 387.20 148.20 L 388.00 146.40 L 389.40 144.90 L 391.10 143.70 L 393.20 142.90 L 395.60 142.60 L 398.50 143.10 L 400.90 144.30 L 402.90 141.70 L 405.30 139.50 L 408.10 137.60 L 411.30 136.20 L 414.70 135.30 L 418.50 135.00 L 422.00 135.30 L 425.10 136.00 L 428.10 137.20 L 430.80 138.90 L 433.00 140.90 L 434.90 143.10 L 436.30 145.70 L 437.20 148.40 L 437.50 152.30 L 439.70 153.40 L 441.60 154.70 L 443.20 156.30 L 444.40 158.10 L 445.10 160.10 L 445.40 162.30 Z" fill="url(#linearGradient-1)" fill-rule="nonzero" id="路径" node-id="43" stroke="none" target-height="38" target-width="64.399994" target-x="381" target-y="135"></path><g node-id="142"><path d="M 180.00 393.40 L 181.00 397.40 L 180.40 400.40 L 179.70 401.80 L 178.20 403.40 L 176.30 404.50 L 157.60 404.90 L 157.80 426.00 L 158.50 438.00 L 145.90 438.00 L 146.30 429.10 L 146.40 406.40 L 145.40 407.20 L 143.10 407.80 L 140.50 407.10 L 138.70 405.10 L 128.80 404.60 L 125.30 403.00 L 123.90 401.70 L 122.90 400.10 L 122.20 398.30 L 122.10 395.40 L 124.50 389.40 L 125.60 385.80 L 128.00 383.00 L 141.80 357.50 L 143.70 354.60 L 145.80 352.20 L 147.40 351.00 L 149.40 350.30 L 151.70 350.00 L 155.60 350.70 L 157.30 351.70 L 160.10 354.40 L 172.10 377.70 L 174.00 378.60 L 175.60 379.80 L 177.00 381.40 L 178.10 383.20 L 178.80 385.20 L 179.00 387.40 L 178.50 390.40 L 180.00 393.40 Z" fill="url(#linearGradient1)" fill-rule="nonzero" group-id="2" id="路径" node-id="45" stroke="none" target-height="88" target-width="58.9" target-x="122.1" target-y="350"></path><path d="M 490.00 393.40 L 491.00 397.40 L 490.40 400.40 L 489.70 401.80 L 488.20 403.40 L 486.30 404.50 L 467.60 404.90 L 467.80 426.00 L 468.50 438.00 L 455.90 438.00 L 456.30 429.10 L 456.40 406.40 L 455.40 407.20 L 453.10 407.80 L 450.50 407.10 L 448.70 405.10 L 438.80 404.60 L 435.30 403.00 L 433.90 401.70 L 432.90 400.10 L 432.20 398.30 L 432.10 395.40 L 434.50 389.40 L 435.60 385.80 L 438.00 383.00 L 451.80 357.50 L 453.70 354.60 L 455.80 352.20 L 457.40 351.00 L 459.40 350.30 L 461.70 350.00 L 465.60 350.70 L 467.30 351.70 L 470.10 354.40 L 482.10 377.70 L 484.00 378.60 L 485.60 379.80 L 487.00 381.40 L 488.10 383.20 L 488.80 385.20 L 489.00 387.40 L 488.50 390.40 L 490.00 393.40 Z" fill="url(#linearGradient-2)" fill-rule="nonzero" group-id="2" id="路径" node-id="46" stroke="none" target-height="88" target-width="58.899994" target-x="432.1" target-y="350"></path><path d="M 453.20 403.00 L 454.00 406.20 L 453.70 408.00 L 453.00 409.60 L 451.80 410.90 L 450.30 411.70 L 435.80 412.00 L 435.90 428.60 L 436.50 438.00 L 426.60 438.00 L 427.00 431.00 L 427.00 413.30 L 425.80 414.00 L 424.40 414.30 L 422.40 413.70 L 421.00 412.20 L 413.30 411.80 L 410.60 410.60 L 408.70 408.30 L 408.20 406.90 L 408.10 404.60 L 410.80 397.10 L 412.70 394.80 L 423.40 374.80 L 426.60 370.70 L 427.80 369.80 L 429.30 369.20 L 431.10 369.00 L 434.20 369.60 L 435.60 370.30 L 437.30 371.80 L 447.10 390.70 L 449.80 392.40 L 451.80 395.00 L 452.40 398.30 L 452.10 400.70 L 453.20 403.00 Z" fill="url(#linearGradient-3)" fill-rule="nonzero" group-id="2" id="路径" node-id="47" stroke="none" target-height="69" target-width="45.899994" target-x="408.1" target-y="369"></path></g><path d="M 284.50 415.00 L 324.70 415.70 L 362.20 417.80 L 396.00 421.10 L 412.30 423.20 L 426.80 425.50 L 439.80 428.00 L 449.30 428.30 L 458.10 429.00 L 466.40 430.10 L 474.60 431.70 L 481.80 433.50 L 488.10 435.60 L 492.80 437.60 L 496.70 439.60 L 502.70 443.70 L 505.10 446.20 L 506.70 448.60 L 507.70 451.00 L 508.00 453.50 L 507.80 455.50 L 506.10 459.40 L 504.60 461.40 L 502.20 463.70 L 499.10 466.00 L 495.10 468.30 L 486.10 472.10 L 480.60 473.80 L 468.90 476.40 L 462.10 477.50 L 452.30 480.20 L 440.70 482.80 L 441.00 486.00 L 440.70 488.80 L 440.10 491.60 L 438.90 494.30 L 437.20 497.10 L 435.00 499.90 L 431.90 502.90 L 428.20 506.00 L 423.60 509.00 L 412.80 514.50 L 400.10 519.30 L 392.70 521.50 L 382.80 523.90 L 372.00 526.00 L 360.30 527.80 L 348.50 529.00 L 336.10 529.70 L 323.00 530.00 L 311.20 529.80 L 300.00 529.20 L 289.30 528.20 L 278.50 526.80 L 268.60 525.10 L 259.30 523.00 L 250.10 520.60 L 241.90 518.00 L 234.60 515.20 L 229.20 512.70 L 220.20 507.60 L 213.10 502.00 L 210.30 499.10 L 208.10 496.10 L 206.60 493.20 L 190.90 491.80 L 162.60 488.60 L 136.80 484.50 L 114.80 479.70 L 105.40 477.10 L 97.50 474.40 L 86.50 469.80 L 82.50 467.60 L 76.90 463.30 L 75.10 461.20 L 73.90 459.30 L 73.20 457.40 L 73.00 455.50 L 73.30 453.50 L 74.10 451.40 L 75.50 449.30 L 77.60 447.10 L 80.60 444.70 L 84.30 442.40 L 89.00 440.00 L 94.80 437.60 L 101.90 435.10 L 111.20 432.30 L 122.10 429.50 L 134.90 426.90 L 162.00 422.50 L 177.80 420.50 L 210.30 417.60 L 246.20 415.70 L 284.50 415.00 Z" fill="#e7eaf0" fill-rule="evenodd" id="形状结合" node-id="48" stroke="none" target-height="115" target-width="435" target-x="73" target-y="415"></path><path d="M 214.00 170.90 L 213.70 173.50 L 212.90 175.80 L 211.60 178.10 L 209.80 180.00 L 207.70 181.70 L 205.10 183.10 L 202.40 184.10 L 199.40 184.80 L 196.00 185.00 L 140.40 185.00 L 134.00 183.80 L 131.20 182.70 L 128.50 181.30 L 126.30 179.50 L 124.50 177.60 L 123.20 175.40 L 122.30 173.00 L 122.00 170.30 L 122.30 167.70 L 123.20 165.30 L 124.60 163.00 L 126.40 161.00 L 128.60 159.30 L 131.20 157.80 L 130.40 155.00 L 131.10 151.60 L 132.00 150.00 L 134.70 147.50 L 138.40 145.70 L 142.90 145.00 L 147.00 145.60 L 150.40 147.20 L 154.30 142.80 L 156.80 140.80 L 162.20 137.70 L 168.50 135.70 L 175.50 135.00 L 179.30 135.20 L 186.10 136.70 L 192.20 139.50 L 197.10 143.40 L 199.00 145.70 L 200.60 148.20 L 201.70 150.80 L 202.50 153.60 L 202.70 157.80 L 206.00 159.20 L 208.70 160.90 L 210.90 163.00 L 213.20 166.70 L 214.00 170.90 Z" fill="url(#linearGradient-4)" fill-rule="nonzero" id="路径" node-id="49" stroke="none" target-height="50" target-width="92" target-x="122" target-y="135"></path><g node-id="143"><g node-id="144"><path d="M 527.00 520.50 L 400.00 555.30 L 303.50 470.50 L 359.00 462.00 Z" fill="url(#linearGradient-5)" fill-opacity="0.5" fill-rule="nonzero" group-id="3,4" id="路径" node-id="51" stroke="none" target-height="93.29999" target-width="223.5" target-x="303.5" target-y="462"></path></g><path d="M 325.50 443.10 L 334.20 443.40 L 346.70 445.00 L 353.90 447.00 L 356.90 448.40 L 360.00 451.00 L 360.00 464.10 L 359.70 465.20 L 358.90 466.40 L 357.30 467.60 L 354.40 469.00 L 350.10 470.40 L 339.30 472.30 L 333.00 472.90 L 325.50 473.10 L 318.40 472.90 L 306.00 471.50 L 301.10 470.50 L 296.70 469.00 L 293.70 467.60 L 292.10 466.40 L 291.30 465.20 L 291.00 464.10 L 291.00 451.00 L 294.10 448.40 L 297.10 447.00 L 300.40 445.90 L 309.20 444.20 L 316.80 443.40 L 325.50 443.10 Z" fill="url(#linearGradient-6)" fill-rule="nonzero" group-id="3" id="形状结合" node-id="52" stroke="none" target-height="30" target-width="69" target-x="291" target-y="443.1"></path><path d="M 327.20 448.90 L 332.00 451.60 L 339.20 448.90 L 339.20 381.60 L 327.20 381.60 Z" fill="#a2abb9" fill-rule="nonzero" group-id="3" id="路径" node-id="53" stroke="none" target-height="70" target-width="12" target-x="327.2" target-y="381.6"></path><path d="M 313.50 381.30 L 331.50 381.30 L 331.50 451.30 L 313.50 451.30 Z" fill="url(#linearGradient-7)" fill-rule="nonzero" group-id="3" id="矩形" node-id="54" stroke="none" target-height="70" target-width="18" target-x="313.5" target-y="381.3"></path><path d="M 348.90 256.20 L 354.10 261.90 L 358.70 267.70 L 362.80 273.80 L 366.30 280.20 L 369.20 286.80 L 371.70 293.60 L 373.60 300.40 L 374.90 307.40 L 375.70 314.50 L 376.00 321.60 L 375.70 328.60 L 374.90 335.70 L 373.60 342.70 L 371.70 349.60 L 369.20 356.30 L 366.30 362.90 L 362.80 369.30 L 358.70 375.40 L 354.10 381.30 L 348.90 386.90 L 343.30 392.10 L 337.40 396.70 L 331.30 400.80 L 324.90 404.30 L 318.30 407.20 L 311.60 409.70 L 304.70 411.60 L 297.70 412.90 L 290.60 413.70 L 283.60 414.00 L 276.50 413.70 L 269.40 412.90 L 262.40 411.60 L 255.60 409.70 L 248.80 407.20 L 242.20 404.30 L 235.80 400.80 L 229.70 396.70 L 223.90 392.10 L 218.20 386.90 L 212.60 380.80 L 209.70 377.10 L 208.50 374.50 L 207.60 371.60 L 207.10 368.40 L 207.00 364.70 L 207.50 359.90 L 208.50 354.50 L 210.30 348.50 L 212.60 342.60 L 215.50 336.30 L 219.10 329.60 L 227.60 316.30 L 238.30 302.60 L 250.90 288.90 L 264.60 276.30 L 278.30 265.60 L 291.60 257.10 L 298.30 253.50 L 304.60 250.60 L 310.50 248.30 L 316.50 246.50 L 321.90 245.50 L 326.70 245.00 L 330.40 245.10 L 333.60 245.60 L 336.50 246.50 L 339.10 247.70 L 342.80 250.60 L 348.90 256.20 Z" fill="url(#linearGradient-8)" fill-rule="nonzero" group-id="3" id="路径" node-id="55" stroke="none" target-height="169" target-width="169" target-x="207" target-y="245"></path><g node-id="145"><path d="M 340.60 251.10 L 341.60 254.50 L 342.00 257.80 L 341.90 261.60 L 341.40 265.80 L 340.10 271.30 L 338.10 277.40 L 335.30 284.20 L 332.10 290.70 L 328.20 297.70 L 323.60 305.00 L 313.20 319.40 L 300.70 334.10 L 286.50 348.20 L 279.00 354.90 L 271.70 360.80 L 264.70 366.00 L 257.40 370.80 L 250.60 374.80 L 244.30 378.10 L 237.80 381.00 L 232.00 382.90 L 226.80 384.20 L 222.80 384.70 L 219.30 384.80 L 216.20 384.40 L 213.50 383.70 L 210.90 382.50 L 208.80 380.90 L 207.00 378.90 L 205.60 376.30 L 204.20 371.60 L 204.00 368.50 L 204.50 361.30 L 205.50 357.00 L 207.10 351.60 L 209.30 345.60 L 215.60 332.80 L 224.10 319.30 L 234.20 305.70 L 246.10 291.90 L 259.40 278.70 L 268.40 270.80 L 276.90 264.10 L 285.00 258.30 L 297.50 250.80 L 308.20 245.90 L 313.80 244.00 L 318.70 242.70 L 323.00 242.10 L 326.80 242.10 L 330.00 242.40 L 332.70 243.20 L 335.00 244.30 L 337.00 245.80 L 338.70 247.60 L 340.60 251.10 Z" fill="url(#linearGradient-9)" fill-rule="nonzero" group-id="3,5" id="路径" node-id="56" stroke="none" target-height="142.69998" target-width="138" target-x="204" target-y="242.1"></path></g><g node-id="146"><path d="M 310.00 323.40 L 295.00 340.30 L 248.00 292.50 L 254.20 286.10 Z" fill="url(#linearGradient-10)" fill-rule="nonzero" group-id="3,6" id="路径" node-id="57" stroke="none" target-height="54.19998" target-width="62" target-x="248" target-y="286.1"></path></g><g node-id="147"><path d="M 256.30 281.50 L 255.90 285.60 L 254.10 289.10 L 251.30 291.80 L 249.60 292.80 L 245.60 293.80 L 241.60 293.30 L 238.00 291.60 L 235.30 288.80 L 233.70 285.20 L 233.40 281.00 L 233.80 279.00 L 235.50 275.50 L 238.30 272.80 L 240.10 271.80 L 244.00 270.80 L 248.10 271.30 L 249.90 272.00 L 253.10 274.30 L 255.30 277.50 L 256.30 281.50 Z" fill="url(#linearGradient-11)" fill-rule="nonzero" group-id="3,7" id="椭圆形" node-id="58" stroke="none" target-height="23" target-width="22.899994" target-x="233.4" target-y="270.8"></path></g><path d="M 221.80 274.20 L 219.50 273.60 L 217.70 271.80 L 217.10 269.40 L 217.10 264.70 L 212.30 264.70 L 209.90 264.10 L 208.20 262.30 L 207.60 260.00 L 208.20 257.60 L 209.90 255.90 L 212.30 255.20 L 217.10 255.20 L 217.10 250.50 L 217.70 248.10 L 219.40 246.40 L 221.80 245.70 L 224.20 246.40 L 225.90 248.10 L 226.50 250.50 L 226.50 255.20 L 231.30 255.20 L 233.70 255.90 L 235.40 257.60 L 236.00 260.00 L 235.40 262.40 L 233.70 264.10 L 231.30 264.70 L 226.60 264.70 L 226.60 269.50 L 225.90 271.80 L 224.20 273.60 L 221.80 274.20 Z M 193.10 270.90 L 190.00 270.80 L 187.30 269.20 L 186.40 268.00 L 185.80 266.50 L 185.30 262.50 L 185.30 258.50 L 185.70 254.60 L 186.40 250.70 L 187.60 246.90 L 189.10 243.20 L 191.00 239.80 L 195.10 234.40 L 200.30 230.00 L 203.30 228.10 L 207.00 226.40 L 211.40 224.90 L 215.90 223.90 L 221.30 223.30 L 227.60 223.20 L 230.60 224.20 L 232.60 226.40 L 233.20 227.80 L 233.30 229.40 L 233.10 231.00 L 231.50 233.60 L 228.90 235.00 L 222.10 235.30 L 217.70 235.80 L 213.80 236.80 L 210.40 238.10 L 207.50 239.70 L 204.90 241.70 L 202.70 244.00 L 200.80 246.90 L 199.30 250.00 L 198.20 253.30 L 197.50 256.60 L 197.30 260.10 L 197.70 265.20 L 197.40 266.70 L 196.80 268.10 L 195.80 269.40 L 194.60 270.30 L 193.10 270.90 Z M 225.70 214.10 L 219.00 214.50 L 213.00 215.40 L 207.60 216.60 L 202.70 218.30 L 198.30 220.30 L 194.40 222.70 L 190.80 225.40 L 187.60 228.50 L 184.80 232.00 L 182.50 235.60 L 179.20 243.00 L 177.40 249.90 L 176.70 254.80 L 176.40 264.40 L 175.90 265.90 L 175.10 267.20 L 173.90 268.30 L 172.40 269.00 L 170.90 269.30 L 169.30 269.20 L 167.80 268.70 L 166.50 267.80 L 165.50 266.60 L 164.80 265.20 L 164.50 263.60 L 164.40 259.10 L 165.00 251.40 L 167.00 241.60 L 168.80 236.40 L 171.40 230.90 L 173.40 227.30 L 178.70 220.30 L 182.10 217.00 L 185.70 214.00 L 189.60 211.40 L 193.80 209.00 L 198.50 207.00 L 204.30 205.00 L 210.70 203.50 L 217.80 202.50 L 225.40 202.10 L 227.00 202.20 L 228.50 202.80 L 229.70 203.70 L 230.70 205.00 L 231.40 206.40 L 231.60 208.00 L 231.40 209.50 L 230.90 211.00 L 229.90 212.30 L 228.70 213.20 L 227.30 213.90 L 225.70 214.10 Z" fill="url(#linearGradient-12)" fill-rule="nonzero" group-id="3,8" id="形状" node-id="59" stroke="none" target-height="72.100006" target-width="71.600006" target-x="164.4" target-y="202.1"></path></g></svg>