<?xml version="1.0" standalone="no"?><!DOCTYPE svg PUBLIC "-//W3C//DTD SVG 1.1//EN" "http://www.w3.org/Graphics/SVG/1.1/DTD/svg11.dtd"><svg height="600" node-id="1" sillyvg="true" template-height="600" template-width="600" version="1.1" viewBox="0 0 600 600" width="600" xmlns="http://www.w3.org/2000/svg" xmlns:xlink="http://www.w3.org/1999/xlink"><defs node-id="75"><linearGradient gradientUnits="objectBoundingBox" id="linearGradient-1" node-id="5" spreadMethod="pad" x1="1.4458808" x2="0.29515958" y1="0.66910326" y2="0.67326146"><stop offset="0" stop-color="#e0e5ef" stop-opacity="0"></stop><stop offset="1" stop-color="#e0e5ef"></stop></linearGradient><linearGradient gradientUnits="objectBoundingBox" id="linearGradient-2" node-id="8" spreadMethod="pad" x1="1.4458808" x2="0.29515958" y1="0.669094" y2="0.6732521"><stop offset="0" stop-color="#e0e5ef" stop-opacity="0"></stop><stop offset="1" stop-color="#e0e5ef"></stop></linearGradient><linearGradient gradientUnits="objectBoundingBox" id="linearGradient1" node-id="89" spreadMethod="pad" x1="0.9340618" x2="0.40599933" y1="0.98800004" y2="1"><stop offset="0" stop-color="#e0e5ef" stop-opacity="0"></stop><stop offset="1" stop-color="#e0e5ef"></stop></linearGradient><linearGradient gradientUnits="objectBoundingBox" id="linearGradient-3" node-id="11" spreadMethod="pad" x1="0.9340618" x2="0.40599933" y1="0.98800004" y2="1"><stop offset="0" stop-color="#e0e5ef" stop-opacity="0"></stop><stop offset="1" stop-color="#e0e5ef"></stop></linearGradient><linearGradient gradientUnits="objectBoundingBox" id="linearGradient-4" node-id="14" spreadMethod="pad" x1="0.92518216" x2="0.40792233" y1="0.98800004" y2="1"><stop offset="0" stop-color="#e0e5ef" stop-opacity="0"></stop><stop offset="1" stop-color="#e0e5ef"></stop></linearGradient><linearGradient gradientUnits="objectBoundingBox" id="linearGradient2" node-id="108" spreadMethod="pad" x1="0.5" x2="0.5" y1="1" y2="-0.112257995"><stop offset="0" stop-color="#a2abb9"></stop><stop offset="1" stop-color="#e7eaf0"></stop></linearGradient><linearGradient gradientUnits="objectBoundingBox" id="linearGradient3" node-id="115" spreadMethod="pad" x1="0.5" x2="0.5" y1="1" y2="-0.112257995"><stop offset="0" stop-color="#a2abb9"></stop><stop offset="1" stop-color="#e7eaf0"></stop></linearGradient><linearGradient gradientUnits="objectBoundingBox" id="linearGradient4" node-id="122" spreadMethod="pad" x1="0.5" x2="0.5" y1="1" y2="-0.112257995"><stop offset="0" stop-color="#a2abb9"></stop><stop offset="1" stop-color="#e7eaf0"></stop></linearGradient><linearGradient gradientUnits="objectBoundingBox" id="linearGradient5" node-id="129" spreadMethod="pad" x1="0.5" x2="0.5" y1="1" y2="-0.112257995"><stop offset="0" stop-color="#a2abb9"></stop><stop offset="1" stop-color="#e7eaf0"></stop></linearGradient><linearGradient gradientUnits="objectBoundingBox" id="linearGradient6" node-id="136" spreadMethod="pad" x1="0.5" x2="0.5" y1="1" y2="-0.112257995"><stop offset="0" stop-color="#a2abb9"></stop><stop offset="1" stop-color="#e7eaf0"></stop></linearGradient><linearGradient gradientUnits="objectBoundingBox" id="linearGradient7" node-id="143" spreadMethod="pad" x1="0.5" x2="0.5" y1="1" y2="-0.112257995"><stop offset="0" stop-color="#a2abb9"></stop><stop offset="1" stop-color="#e7eaf0"></stop></linearGradient><linearGradient gradientUnits="objectBoundingBox" id="linearGradient8" node-id="150" spreadMethod="pad" x1="0.5" x2="0.5" y1="1" y2="-0.112257995"><stop offset="0" stop-color="#a2abb9"></stop><stop offset="1" stop-color="#e7eaf0"></stop></linearGradient><linearGradient gradientUnits="objectBoundingBox" id="linearGradient-5" node-id="17" spreadMethod="pad" x1="0.5" x2="0.5" y1="1" y2="-0.112257995"><stop offset="0" stop-color="#a2abb9"></stop><stop offset="1" stop-color="#e7eaf0"></stop></linearGradient><linearGradient gradientUnits="objectBoundingBox" id="linearGradient-6" node-id="20" spreadMethod="pad" x1="0.78152144" x2="0.28390646" y1="1.4571377" y2="-0.035801638"><stop offset="0" stop-color="#a2abb9"></stop><stop offset="1" stop-color="#e7eaf0"></stop></linearGradient><linearGradient gradientUnits="objectBoundingBox" id="linearGradient-7" node-id="23" spreadMethod="pad" x1="1.2255373" x2="0" y1="1.2584579" y2="-0.2222626"><stop offset="0" stop-color="#a2abb9"></stop><stop offset="1" stop-color="#e7eaf0"></stop></linearGradient><linearGradient gradientUnits="objectBoundingBox" id="linearGradient-8" node-id="26" spreadMethod="pad" x1="1.2591225" x2="-0.26322043" y1="1.2391844" y2="-0.50652736"><stop offset="0" stop-color="#a2abb9"></stop><stop offset="1" stop-color="#e7eaf0"></stop></linearGradient><linearGradient gradientUnits="objectBoundingBox" id="linearGradient9" node-id="181" spreadMethod="pad" x1="0.5" x2="0.5" y1="1" y2="-0.268682"><stop offset="0" stop-color="#a2abb9"></stop><stop offset="1" stop-color="#e7eaf0"></stop></linearGradient><linearGradient gradientUnits="objectBoundingBox" id="linearGradient-9" node-id="29" spreadMethod="pad" x1="0.5" x2="0.5" y1="1" y2="-0.268682"><stop offset="0" stop-color="#a2abb9"></stop><stop offset="1" stop-color="#e7eaf0"></stop></linearGradient></defs><path d="M 0.00 0.00 L 600.00 0.00 L 600.00 600.00 L 0.00 600.00 Z" fill="#ffffff" fill-rule="evenodd" node-id="196" stroke="none" target-height="600" target-width="600" target-x="0" target-y="0"></path><g node-id="198"><path d="M 297.40 77.00 L 307.60 77.20 L 317.70 77.90 L 327.60 79.00 L 337.30 80.50 L 346.90 82.40 L 356.40 84.70 L 365.70 87.40 L 374.90 90.50 L 383.80 94.00 L 392.50 97.80 L 403.30 103.10 L 413.60 108.90 L 423.60 115.20 L 433.20 122.00 L 415.60 122.20 L 413.50 122.80 L 411.40 123.80 L 408.10 126.60 L 405.80 130.50 L 405.20 132.60 L 405.00 136.00 L 405.20 138.40 L 405.80 140.50 L 406.80 142.60 L 409.60 145.90 L 413.50 148.20 L 415.60 148.80 L 418.00 149.00 L 463.20 149.00 L 469.50 156.10 L 475.40 163.40 L 481.10 170.90 L 486.40 178.80 L 507.90 178.80 L 510.40 179.00 L 512.80 179.60 L 514.90 180.70 L 516.90 182.10 L 518.60 183.70 L 520.00 185.70 L 521.00 187.90 L 521.60 190.20 L 521.90 192.80 L 521.30 197.60 L 520.60 199.50 L 519.00 202.00 L 517.00 204.20 L 514.50 205.90 L 511.80 207.00 L 492.00 207.00 L 489.10 207.30 L 486.40 208.00 L 483.90 209.20 L 481.70 210.80 L 479.80 212.70 L 478.20 214.90 L 477.00 217.40 L 476.30 220.10 L 476.00 228.00 L 476.30 230.90 L 477.00 233.60 L 478.20 236.10 L 479.80 238.30 L 481.70 240.20 L 483.90 241.80 L 486.40 243.00 L 489.10 243.70 L 492.00 244.00 L 559.90 244.00 L 564.20 245.80 L 566.10 247.10 L 569.20 250.50 L 571.30 254.70 L 572.00 259.50 L 571.70 263.30 L 571.00 266.00 L 569.80 268.50 L 568.20 270.70 L 566.30 272.60 L 564.10 274.20 L 561.60 275.40 L 558.90 276.10 L 556.00 276.40 L 520.80 276.40 L 521.60 287.10 L 521.90 298.00 L 521.60 308.50 L 520.90 318.80 L 519.70 328.90 L 518.10 338.90 L 515.90 348.70 L 513.40 358.40 L 510.40 367.90 L 507.00 377.20 L 503.20 386.30 L 499.10 395.20 L 494.50 403.90 L 489.50 412.40 L 484.20 420.60 L 478.60 428.50 L 472.60 436.20 L 466.20 443.70 L 459.60 450.80 L 452.60 457.60 L 445.40 464.20 L 437.80 470.40 L 430.00 476.40 L 421.90 481.90 L 413.60 487.10 L 405.00 492.00 L 396.10 496.50 L 387.10 500.70 L 377.80 504.40 L 368.40 507.70 L 358.70 510.60 L 348.80 513.20 L 338.90 515.20 L 328.80 516.90 L 318.50 518.00 L 308.00 518.70 L 297.40 519.00 L 287.40 518.80 L 277.60 518.20 L 268.00 517.10 L 258.50 515.70 L 249.20 513.90 L 237.60 511.10 L 226.30 507.70 L 215.40 503.80 L 204.70 499.30 L 194.20 494.30 L 184.00 488.80 L 174.30 482.80 L 164.80 476.40 L 155.70 469.40 L 147.00 462.10 L 138.60 454.30 L 130.70 446.10 L 123.20 437.50 L 116.20 428.60 L 109.60 419.30 L 103.50 409.60 L 97.90 399.60 L 92.90 389.30 L 88.30 378.80 L 84.30 367.90 L 74.20 367.70 L 72.80 367.10 L 71.50 366.10 L 70.60 364.80 L 70.00 363.40 L 69.70 361.70 L 70.00 359.90 L 70.80 358.20 L 72.00 356.90 L 73.60 356.00 L 86.40 355.80 L 88.50 355.20 L 90.60 354.20 L 93.90 351.40 L 96.20 347.50 L 96.80 345.40 L 97.00 343.00 L 96.80 339.60 L 96.20 337.50 L 95.20 335.40 L 92.40 332.10 L 90.60 330.80 L 88.50 329.80 L 86.40 329.20 L 75.00 328.80 L 52.90 328.80 L 49.30 328.20 L 47.70 327.40 L 45.00 325.20 L 43.20 322.20 L 42.70 320.40 L 42.70 316.70 L 44.00 313.40 L 46.20 310.70 L 49.30 308.90 L 52.90 308.30 L 73.10 308.30 L 72.90 298.00 L 73.10 288.20 L 73.70 278.50 L 74.80 269.00 L 76.20 259.70 L 78.10 250.50 L 80.90 239.00 L 84.40 227.90 L 88.40 217.10 L 92.90 206.50 L 57.00 206.50 L 53.20 206.20 L 49.50 205.50 L 46.10 204.30 L 42.90 202.70 L 39.90 200.70 L 37.20 198.30 L 34.80 195.60 L 32.80 192.70 L 31.20 189.40 L 30.00 186.00 L 29.30 182.40 L 29.00 178.50 L 29.20 173.20 L 29.90 169.70 L 31.10 166.40 L 32.60 163.20 L 34.50 160.30 L 36.70 157.70 L 39.20 155.30 L 42.00 153.30 L 45.10 151.60 L 48.30 150.30 L 51.70 149.50 L 55.40 149.00 L 182.00 149.00 L 185.50 148.40 L 188.50 146.60 L 190.60 144.00 L 191.40 142.50 L 192.00 139.00 L 191.80 137.20 L 191.40 135.50 L 189.60 132.50 L 187.00 130.40 L 185.50 129.60 L 182.00 129.00 L 152.70 129.00 L 153.40 128.40 L 138.80 128.40 L 135.40 128.10 L 132.20 127.20 L 129.30 125.80 L 126.60 123.90 L 124.30 121.70 L 122.40 119.00 L 121.00 116.00 L 120.20 112.90 L 119.80 109.40 L 120.20 104.90 L 121.00 101.70 L 122.40 98.70 L 124.30 96.10 L 126.60 93.80 L 129.30 91.90 L 132.20 90.50 L 135.40 89.70 L 138.80 89.30 L 223.20 89.30 L 240.90 84.00 L 259.30 80.20 L 278.00 77.80 L 297.40 77.00 Z" fill="#f3f3fa" fill-opacity="0.6015942" fill-rule="evenodd" group-id="1" id="背景" node-id="34" stroke="none" target-height="442" target-width="543" target-x="29" target-y="77"></path></g><path d="M 181.80 214.00 L 174.50 214.00 L 174.20 210.30 L 173.50 206.90 L 172.40 203.70 L 170.80 200.60 L 169.00 197.80 L 166.70 195.20 L 164.20 193.00 L 161.40 191.10 L 158.30 189.60 L 155.00 188.40 L 151.60 187.70 L 148.00 187.50 L 144.30 187.70 L 140.90 188.40 L 137.70 189.60 L 134.60 191.10 L 131.80 193.00 L 129.20 195.20 L 127.00 197.80 L 125.10 200.60 L 123.60 203.70 L 122.40 206.90 L 121.70 210.30 L 121.50 214.00 L 116.10 214.00 L 113.90 214.20 L 111.90 214.80 L 110.00 215.80 L 106.80 218.70 L 104.70 222.60 L 103.90 227.20 L 104.10 229.60 L 105.60 233.90 L 106.80 235.80 L 110.00 238.70 L 111.90 239.60 L 113.90 240.20 L 116.10 240.50 L 181.80 240.50 L 184.00 240.20 L 186.00 239.60 L 189.60 237.40 L 192.30 233.90 L 193.80 229.60 L 194.00 227.20 L 193.80 224.80 L 192.30 220.50 L 189.60 217.10 L 186.00 214.80 L 184.00 214.20 L 181.80 214.00 Z" fill="url(#linearGradient-1)" fill-rule="nonzero" id="路径" node-id="35" stroke="none" target-height="53" target-width="90.1" target-x="103.9" target-y="187.5"></path><path d="M 368.90 138.60 L 363.70 138.60 L 363.30 135.20 L 362.50 132.00 L 361.10 129.00 L 359.20 126.40 L 356.90 124.10 L 354.20 122.20 L 351.30 120.80 L 348.10 120.00 L 344.70 119.60 L 341.20 120.00 L 338.00 120.80 L 335.10 122.20 L 332.40 124.10 L 330.10 126.40 L 328.30 129.00 L 326.80 132.00 L 326.00 135.20 L 325.70 138.60 L 321.80 138.60 L 318.80 139.20 L 317.40 139.90 L 315.70 141.40 L 314.30 143.30 L 313.40 145.60 L 313.10 148.10 L 313.40 150.70 L 314.30 152.90 L 315.70 154.90 L 317.40 156.30 L 320.20 157.50 L 368.90 157.60 L 372.00 157.00 L 373.30 156.30 L 375.10 154.90 L 376.50 152.90 L 377.30 150.70 L 377.60 148.10 L 377.30 145.60 L 376.40 143.30 L 375.10 141.40 L 373.30 139.90 L 370.50 138.80 L 368.90 138.60 Z" fill="url(#linearGradient-2)" fill-rule="nonzero" id="路径" node-id="36" stroke="none" target-height="38.000008" target-width="64.5" target-x="313.1" target-y="119.6"></path><path d="M 284.50 415.00 L 324.70 415.70 L 362.20 417.80 L 396.00 421.10 L 412.30 423.20 L 426.80 425.50 L 439.80 428.00 L 449.30 428.30 L 458.10 429.00 L 466.40 430.10 L 474.60 431.70 L 481.80 433.50 L 488.10 435.60 L 492.80 437.60 L 496.70 439.60 L 502.70 443.70 L 505.10 446.20 L 506.70 448.60 L 507.70 451.00 L 508.00 453.50 L 507.80 455.50 L 506.10 459.40 L 504.60 461.40 L 502.20 463.70 L 499.10 466.00 L 495.10 468.30 L 486.10 472.10 L 480.60 473.80 L 468.90 476.40 L 462.10 477.50 L 452.30 480.20 L 440.70 482.80 L 441.00 486.00 L 440.70 488.80 L 440.10 491.60 L 438.90 494.30 L 437.20 497.10 L 435.00 499.90 L 431.90 502.90 L 428.20 506.00 L 423.60 509.00 L 412.80 514.50 L 400.10 519.30 L 392.70 521.50 L 382.80 523.90 L 372.00 526.00 L 360.30 527.80 L 348.50 529.00 L 336.10 529.70 L 323.00 530.00 L 311.20 529.80 L 300.00 529.20 L 289.30 528.20 L 278.50 526.80 L 268.60 525.10 L 259.30 523.00 L 250.10 520.60 L 241.90 518.00 L 234.60 515.20 L 229.20 512.70 L 220.20 507.60 L 213.10 502.00 L 210.30 499.10 L 208.10 496.10 L 206.60 493.20 L 190.90 491.80 L 162.60 488.60 L 136.80 484.50 L 114.80 479.70 L 105.40 477.10 L 97.50 474.40 L 86.50 469.80 L 82.50 467.60 L 76.90 463.30 L 75.10 461.20 L 73.90 459.30 L 73.20 457.40 L 73.00 455.50 L 73.30 453.50 L 74.10 451.40 L 75.50 449.30 L 77.60 447.10 L 80.60 444.70 L 84.30 442.40 L 89.00 440.00 L 94.80 437.60 L 101.90 435.10 L 111.20 432.30 L 122.10 429.50 L 134.90 426.90 L 162.00 422.50 L 177.80 420.50 L 210.30 417.60 L 246.20 415.70 L 284.50 415.00 Z" fill="#e7eaf0" fill-rule="evenodd" id="形状结合" node-id="37" stroke="none" target-height="115" target-width="435" target-x="73" target-y="415"></path><g node-id="199"><path d="M 463.30 400.60 L 464.00 403.40 L 463.80 405.00 L 463.10 406.50 L 462.00 407.60 L 460.60 408.40 L 447.40 408.70 L 447.50 423.60 L 448.00 432.00 L 439.00 432.00 L 439.30 425.70 L 439.40 409.80 L 438.20 410.50 L 437.00 410.70 L 435.20 410.20 L 433.90 408.80 L 426.80 408.50 L 424.90 407.70 L 423.40 406.40 L 422.60 405.30 L 422.20 404.10 L 422.10 402.00 L 424.60 395.30 L 426.30 393.20 L 436.10 375.20 L 438.90 371.50 L 441.50 370.20 L 443.10 370.00 L 445.30 370.30 L 447.20 371.20 L 448.70 372.50 L 457.70 389.50 L 460.20 391.00 L 461.90 393.40 L 462.60 396.40 L 462.30 398.50 L 463.30 400.60 Z" fill="url(#linearGradient1)" fill-rule="nonzero" group-id="2" id="路径" node-id="39" stroke="none" target-height="62" target-width="41.899994" target-x="422.1" target-y="370"></path><path d="M 503.30 420.60 L 504.00 423.40 L 503.80 425.00 L 503.10 426.50 L 502.00 427.60 L 500.60 428.40 L 487.40 428.70 L 487.50 443.60 L 488.00 452.00 L 479.00 452.00 L 479.30 445.70 L 479.40 429.80 L 478.20 430.50 L 477.00 430.70 L 475.20 430.20 L 473.90 428.80 L 466.80 428.50 L 464.90 427.70 L 463.40 426.40 L 462.60 425.30 L 462.20 424.10 L 462.10 422.00 L 464.60 415.30 L 466.30 413.20 L 476.10 395.20 L 478.90 391.50 L 481.50 390.20 L 483.10 390.00 L 485.30 390.30 L 487.20 391.20 L 488.70 392.50 L 497.70 409.50 L 500.20 411.00 L 501.90 413.40 L 502.60 416.40 L 502.30 418.50 L 503.30 420.60 Z" fill="url(#linearGradient-3)" fill-rule="nonzero" group-id="2" id="路径" node-id="40" stroke="none" target-height="62" target-width="41.899994" target-x="462.1" target-y="390"></path><path d="M 150.00 413.40 L 151.00 417.40 L 150.40 420.40 L 149.70 421.80 L 148.20 423.40 L 146.30 424.50 L 127.60 424.90 L 127.80 446.00 L 128.50 458.00 L 115.90 458.00 L 116.30 449.10 L 116.40 426.40 L 115.40 427.20 L 113.10 427.80 L 110.50 427.10 L 108.70 425.10 L 98.80 424.60 L 95.30 423.00 L 93.90 421.70 L 92.90 420.10 L 92.20 418.30 L 92.10 415.40 L 94.50 409.40 L 95.60 405.80 L 98.00 403.00 L 111.80 377.50 L 113.70 374.60 L 115.80 372.20 L 117.40 371.00 L 119.40 370.30 L 121.70 370.00 L 125.60 370.70 L 127.30 371.70 L 130.10 374.40 L 142.10 397.70 L 144.00 398.60 L 145.60 399.80 L 147.00 401.40 L 148.10 403.20 L 148.80 405.20 L 149.00 407.40 L 148.50 410.40 L 150.00 413.40 Z" fill="url(#linearGradient-4)" fill-rule="nonzero" group-id="2" id="路径" node-id="41" stroke="none" target-height="88" target-width="58.9" target-x="92.1" target-y="370"></path></g><path d="M 336.00 466.10 L 335.70 467.20 L 334.90 468.40 L 333.30 469.60 L 330.30 471.00 L 325.90 472.50 L 314.90 474.40 L 301.50 475.10 L 288.10 474.40 L 277.10 472.50 L 272.70 471.00 L 269.70 469.60 L 268.10 468.40 L 267.30 467.20 L 267.00 466.10 L 267.30 465.00 L 268.10 463.80 L 269.70 462.60 L 272.70 461.20 L 277.10 459.70 L 288.10 457.80 L 301.50 457.10 L 314.90 457.80 L 325.90 459.70 L 330.30 461.20 L 333.30 462.60 L 334.90 463.80 L 335.70 465.00 L 336.00 466.10 Z" fill="#d1d6e2" fill-rule="nonzero" id="椭圆形" node-id="42" stroke="none" target-height="18" target-width="69" target-x="267" target-y="457.1"></path><g node-id="200"><path d="M 412.00 276.00 L 416.20 276.80 L 419.70 278.80 L 422.40 281.90 L 423.20 283.80 L 424.00 288.00 L 423.20 292.20 L 421.20 295.70 L 418.10 298.40 L 414.20 299.80 L 412.00 300.00 L 409.80 299.80 L 407.80 299.20 L 404.30 297.20 L 401.60 294.10 L 400.80 292.20 L 400.00 288.00 L 400.80 283.80 L 402.80 280.30 L 405.90 277.60 L 407.80 276.80 L 412.00 276.00 Z M 412.00 281.00 L 410.10 281.30 L 408.50 282.00 L 407.10 283.10 L 406.00 284.50 L 405.30 286.10 L 405.00 288.00 L 405.30 289.90 L 406.00 291.50 L 407.10 292.90 L 408.50 294.00 L 410.10 294.70 L 412.00 295.00 L 413.90 294.70 L 415.50 294.00 L 416.90 292.90 L 418.00 291.50 L 418.70 289.90 L 419.00 288.00 L 418.70 286.10 L 418.00 284.50 L 416.90 283.10 L 415.50 282.00 L 413.90 281.30 L 412.00 281.00 Z" fill="url(#linearGradient2)" fill-opacity="0.3" fill-rule="nonzero" group-id="3" id="形状结合" node-id="44" stroke="none" target-height="24" target-width="24" target-x="400" target-y="276"></path><path d="M 156.00 306.00 L 157.60 306.20 L 159.00 306.80 L 160.20 307.80 L 161.20 309.00 L 161.80 310.40 L 162.00 312.00 L 161.80 313.60 L 161.20 315.00 L 159.00 317.20 L 157.60 317.80 L 156.00 318.00 L 154.40 317.80 L 153.00 317.20 L 150.80 315.00 L 150.20 313.60 L 150.00 312.00 L 150.20 310.40 L 150.80 309.00 L 151.80 307.80 L 153.00 306.80 L 154.40 306.20 L 156.00 306.00 Z M 156.00 308.50 L 154.60 308.80 L 153.50 309.50 L 152.80 310.60 L 152.50 312.00 L 152.80 313.40 L 153.50 314.50 L 154.60 315.20 L 156.00 315.50 L 157.40 315.20 L 158.50 314.50 L 159.20 313.40 L 159.50 312.00 L 159.20 310.60 L 158.50 309.50 L 157.40 308.80 L 156.00 308.50 Z" fill="url(#linearGradient3)" fill-opacity="0.3" fill-rule="nonzero" group-id="3" id="形状结合备份-2" node-id="45" stroke="none" target-height="12" target-width="12" target-x="150" target-y="306"></path><path d="M 402.00 365.00 L 403.60 365.30 L 404.80 366.20 L 405.70 367.40 L 406.00 369.00 L 405.70 370.60 L 404.80 371.80 L 403.60 372.70 L 402.00 373.00 L 400.40 372.70 L 399.20 371.80 L 398.30 370.60 L 398.00 369.00 L 398.30 367.40 L 399.20 366.20 L 400.40 365.30 L 402.00 365.00 Z M 402.00 366.70 L 400.40 367.40 L 399.70 369.00 L 400.40 370.60 L 402.00 371.30 L 403.60 370.60 L 404.30 369.00 L 403.60 367.40 L 402.00 366.70 Z" fill="url(#linearGradient4)" fill-opacity="0.3" fill-rule="nonzero" group-id="3" id="形状结合备份-7" node-id="46" stroke="none" target-height="8" target-width="8" target-x="398" target-y="365"></path><path d="M 268.00 215.00 L 269.20 215.20 L 270.10 215.90 L 270.80 216.80 L 271.00 218.00 L 271.00 226.00 L 279.00 226.00 L 280.20 226.20 L 281.10 226.90 L 281.80 227.80 L 282.00 229.00 L 281.80 230.20 L 281.10 231.10 L 280.20 231.80 L 279.00 232.00 L 271.00 232.00 L 271.00 240.00 L 270.80 241.20 L 270.10 242.10 L 269.20 242.80 L 268.00 243.00 L 266.80 242.80 L 265.90 242.10 L 265.20 241.20 L 265.00 240.00 L 265.00 232.00 L 257.00 232.00 L 255.80 231.80 L 254.90 231.10 L 254.20 230.20 L 254.00 229.00 L 254.20 227.80 L 254.90 226.90 L 255.80 226.20 L 257.00 226.00 L 265.00 226.00 L 265.00 218.00 L 265.20 216.80 L 265.90 215.90 L 266.80 215.20 L 268.00 215.00 Z" fill="url(#linearGradient5)" fill-opacity="0.3" fill-rule="nonzero" group-id="3" id="形状结合" node-id="47" stroke="none" target-height="28" target-width="28" target-x="254" target-y="215"></path><path d="M 348.00 242.00 L 348.80 242.20 L 349.80 243.20 L 350.00 249.00 L 355.80 249.20 L 356.80 250.20 L 357.00 251.00 L 356.80 251.80 L 355.80 252.80 L 350.00 253.00 L 350.00 258.00 L 349.80 258.80 L 348.80 259.80 L 347.20 259.80 L 346.20 258.80 L 346.00 253.00 L 340.20 252.80 L 339.20 251.80 L 339.00 251.00 L 339.20 250.20 L 340.20 249.20 L 346.00 249.00 L 346.20 243.20 L 347.20 242.20 L 348.00 242.00 Z" fill="url(#linearGradient6)" fill-opacity="0.3" fill-rule="nonzero" group-id="3" id="形状结合备份-3" node-id="48" stroke="none" target-height="17.799988" target-width="18" target-x="339" target-y="242"></path><path d="M 443.00 328.00 L 443.80 328.20 L 444.80 329.20 L 445.00 335.00 L 450.80 335.20 L 451.80 336.20 L 452.00 337.00 L 451.80 337.80 L 450.80 338.80 L 445.00 339.00 L 445.00 344.00 L 444.80 344.80 L 443.80 345.80 L 442.20 345.80 L 441.20 344.80 L 441.00 339.00 L 435.20 338.80 L 434.20 337.80 L 434.00 337.00 L 434.20 336.20 L 435.20 335.20 L 441.00 335.00 L 441.20 329.20 L 442.20 328.20 L 443.00 328.00 Z" fill="url(#linearGradient7)" fill-opacity="0.3" fill-rule="nonzero" group-id="3" id="形状结合备份-4" node-id="49" stroke="none" target-height="17.799988" target-width="18" target-x="434" target-y="328"></path><path d="M 170.00 370.00 L 170.90 370.20 L 172.00 371.40 L 172.20 377.80 L 178.60 378.00 L 179.80 379.10 L 180.00 380.00 L 179.80 380.90 L 178.60 382.00 L 172.20 382.20 L 172.20 387.80 L 172.00 388.60 L 170.90 389.80 L 169.10 389.80 L 168.00 388.60 L 167.80 382.20 L 161.40 382.00 L 160.20 380.90 L 160.00 380.00 L 160.20 379.10 L 161.40 378.00 L 167.80 377.80 L 168.00 371.40 L 169.10 370.20 L 170.00 370.00 Z" fill="url(#linearGradient8)" fill-opacity="0.3" fill-rule="nonzero" group-id="3" id="形状结合备份-5" node-id="50" stroke="none" target-height="19.799988" target-width="20" target-x="160" target-y="370"></path><path d="M 215.00 438.00 L 215.70 438.10 L 216.60 439.10 L 216.80 444.20 L 221.90 444.40 L 222.90 445.30 L 223.00 446.00 L 222.90 446.70 L 221.90 447.60 L 216.80 447.80 L 216.60 452.90 L 215.70 453.90 L 215.00 454.00 L 214.30 453.90 L 213.40 452.90 L 213.20 447.80 L 208.10 447.60 L 207.10 446.70 L 207.00 446.00 L 207.10 445.30 L 208.10 444.40 L 213.20 444.20 L 213.40 439.10 L 214.30 438.10 L 215.00 438.00 Z" fill="url(#linearGradient-5)" fill-opacity="0.3" fill-rule="nonzero" group-id="3" id="形状结合备份-6" node-id="51" stroke="none" target-height="16" target-width="16" target-x="207" target-y="438"></path></g><g node-id="201"><path d="M 208.00 282.00 L 339.00 282.00 L 343.20 282.80 L 345.10 283.60 L 348.20 286.30 L 350.20 289.80 L 351.00 294.00 L 351.00 418.00 L 350.20 422.20 L 348.20 425.70 L 345.10 428.40 L 341.20 429.80 L 339.00 430.00 L 208.00 430.00 L 203.80 429.20 L 201.90 428.40 L 198.80 425.70 L 196.80 422.20 L 196.00 418.00 L 196.00 294.00 L 196.80 289.80 L 197.60 287.90 L 200.30 284.80 L 203.80 282.80 L 208.00 282.00 Z" fill="url(#linearGradient-6)" fill-opacity="0.5" fill-rule="nonzero" group-id="4" id="矩形" node-id="53" stroke="none" target-height="148" target-width="155" target-x="196" target-y="282"></path><path d="M 218.00 328.00 L 236.00 328.00 L 236.00 342.00 L 218.00 342.00 Z" fill="#ffffff" fill-opacity="0.5" fill-rule="evenodd" group-id="4" id="矩形" node-id="54" stroke="none" target-height="14" target-width="18" target-x="218" target-y="328"></path><path d="M 242.00 328.00 L 260.00 328.00 L 260.00 342.00 L 242.00 342.00 Z" fill="#ffffff" fill-opacity="0.5" fill-rule="evenodd" group-id="4" id="矩形备份" node-id="55" stroke="none" target-height="14" target-width="18" target-x="242" target-y="328"></path><path d="M 266.00 328.00 L 284.00 328.00 L 284.00 342.00 L 266.00 342.00 Z" fill="#ffffff" fill-opacity="0.5" fill-rule="evenodd" group-id="4" id="矩形备份-2" node-id="56" stroke="none" target-height="14" target-width="18" target-x="266" target-y="328"></path><path d="M 218.00 358.00 L 298.00 358.00 L 298.00 372.00 L 218.00 372.00 Z" fill="#ffffff" fill-opacity="0.5" fill-rule="evenodd" group-id="4" id="矩形备份-3" node-id="57" stroke="none" target-height="14" target-width="80" target-x="218" target-y="358"></path><path d="M 218.00 378.00 L 282.00 378.00 L 282.00 392.00 L 218.00 392.00 Z" fill="#ffffff" fill-opacity="0.5" fill-rule="evenodd" group-id="4" id="矩形备份-4" node-id="58" stroke="none" target-height="14" target-width="64" target-x="218" target-y="378"></path></g><g node-id="202"><path d="M 226.00 302.80 L 226.80 299.20 L 227.80 296.90 L 229.80 294.10 L 231.30 292.90 L 233.10 291.90 L 235.20 291.30 L 243.90 291.00 L 243.90 308.60 L 244.40 311.40 L 246.10 314.70 L 247.70 316.20 L 250.70 317.40 L 261.40 317.60 L 270.70 317.60 L 273.50 317.20 L 276.80 315.50 L 278.30 313.90 L 279.50 310.80 L 279.70 308.60 L 279.70 291.00 L 327.40 291.00 L 327.40 308.80 L 327.70 311.50 L 328.40 313.20 L 329.40 314.80 L 331.00 316.30 L 334.10 317.40 L 354.40 317.60 L 357.10 317.10 L 360.30 315.40 L 361.70 313.80 L 362.90 310.90 L 363.10 291.00 L 371.50 291.20 L 374.90 292.20 L 376.80 293.20 L 378.40 294.70 L 379.70 296.80 L 380.80 300.40 L 381.00 302.90 L 381.00 374.10 L 362.90 391.70 L 345.20 374.20 L 303.50 415.40 L 327.30 439.00 L 238.00 439.00 L 233.80 438.20 L 230.20 436.40 L 228.60 434.90 L 227.30 432.90 L 226.20 429.50 L 226.00 302.80 Z" fill="url(#linearGradient-7)" fill-rule="nonzero" group-id="5" id="路径" node-id="60" stroke="none" target-height="148" target-width="155" target-x="226" target-y="291"></path><path d="M 362.30 457.00 L 321.00 414.90 L 344.70 391.00 L 362.60 408.80 L 380.30 391.00 L 404.00 414.90 Z" fill="url(#linearGradient-8)" fill-rule="nonzero" group-id="5" id="路径" node-id="61" stroke="none" target-height="66" target-width="83" target-x="321" target-y="391"></path><g node-id="203"><path d="M 363.00 415.00 L 359.50 415.60 L 356.50 417.40 L 354.40 419.90 L 353.60 421.50 L 353.00 425.00 L 353.00 425.40 L 356.30 424.90 L 356.60 423.10 L 357.20 421.50 L 358.30 420.20 L 359.60 419.20 L 361.20 418.50 L 363.00 418.30 L 364.80 418.50 L 366.40 419.20 L 367.80 420.20 L 368.80 421.60 L 369.50 423.20 L 369.70 425.00 L 369.50 426.80 L 368.80 428.40 L 367.80 429.70 L 366.40 430.80 L 364.80 431.40 L 363.00 431.70 L 363.00 435.00 L 366.50 434.30 L 368.10 433.60 L 370.60 431.40 L 372.40 428.50 L 373.00 425.00 L 372.40 421.50 L 370.60 418.50 L 368.00 416.40 L 366.50 415.60 L 363.00 415.00 Z" fill="#ffffff" fill-rule="nonzero" group-id="5,6" id="路径" node-id="63" stroke="none" target-height="20" target-width="20" target-x="353" target-y="415"></path><path d="M 353.00 425.00 L 353.50 426.20 L 354.70 426.70 L 355.90 426.20 L 356.40 425.00 L 355.90 423.80 L 354.70 423.30 L 353.50 423.80 L 353.00 425.00 Z" fill="#ffffff" fill-rule="nonzero" group-id="5,6" id="路径" node-id="64" stroke="none" target-height="3.4000244" target-width="3.399994" target-x="353" target-y="423.3"></path><path d="M 363.00 440.10 L 361.80 439.60 L 361.30 438.40 L 361.30 433.40 L 361.50 432.70 L 362.40 431.80 L 363.70 431.80 L 364.60 432.70 L 364.70 433.40 L 364.60 439.10 L 363.70 440.00 L 363.00 440.10 Z" fill="#ffffff" fill-rule="nonzero" group-id="5,6" id="路径" node-id="65" stroke="none" target-height="8.300018" target-width="3.4000244" target-x="361.3" target-y="431.8"></path><path d="M 361.40 443.40 L 361.50 444.10 L 362.40 445.00 L 363.70 445.00 L 364.60 444.10 L 364.60 442.70 L 363.70 441.80 L 362.40 441.80 L 361.50 442.70 L 361.40 443.40 Z" fill="#ffffff" fill-rule="nonzero" group-id="5,6" id="路径" node-id="66" stroke="none" target-height="3.2000122" target-width="3.2000122" target-x="361.4" target-y="441.8"></path></g><path d="M 248.00 335.00 L 266.00 335.00 L 266.00 349.00 L 248.00 349.00 Z" fill="#ffffff" fill-rule="evenodd" group-id="5" id="矩形" node-id="67" stroke="none" target-height="14" target-width="18" target-x="248" target-y="335"></path><path d="M 272.00 335.00 L 290.00 335.00 L 290.00 349.00 L 272.00 349.00 Z" fill="#ffffff" fill-rule="evenodd" group-id="5" id="矩形备份" node-id="68" stroke="none" target-height="14" target-width="18" target-x="272" target-y="335"></path><path d="M 296.00 335.00 L 314.00 335.00 L 314.00 349.00 L 296.00 349.00 Z" fill="#ffffff" fill-rule="evenodd" group-id="5" id="矩形备份-2" node-id="69" stroke="none" target-height="14" target-width="18" target-x="296" target-y="335"></path><path d="M 248.00 365.00 L 328.00 365.00 L 328.00 379.00 L 248.00 379.00 Z" fill="#ffffff" fill-rule="evenodd" group-id="5" id="矩形备份-3" node-id="70" stroke="none" target-height="14" target-width="80" target-x="248" target-y="365"></path><path d="M 248.00 385.00 L 312.00 385.00 L 312.00 399.00 L 248.00 399.00 Z" fill="#ffffff" fill-rule="evenodd" group-id="5" id="矩形备份-4" node-id="71" stroke="none" target-height="14" target-width="64" target-x="248" target-y="385"></path><path d="M 255.00 279.00 L 267.00 279.00 L 267.00 309.00 L 255.00 309.00 Z" fill="url(#linearGradient9)" fill-rule="nonzero" group-id="5" id="路径" node-id="72" stroke="none" target-height="30" target-width="12" target-x="255" target-y="279"></path><path d="M 339.00 279.00 L 351.00 279.00 L 351.00 309.00 L 339.00 309.00 Z" fill="url(#linearGradient-9)" fill-rule="nonzero" group-id="5" id="路径" node-id="73" stroke="none" target-height="30" target-width="12" target-x="339" target-y="279"></path></g></svg>