<?xml version="1.0" standalone="no"?><!DOCTYPE svg PUBLIC "-//W3C//DTD SVG 1.1//EN" "http://www.w3.org/Graphics/SVG/1.1/DTD/svg11.dtd"><svg height="600" node-id="1" sillyvg="true" template-height="600" template-width="600" version="1.1" viewBox="0 0 600 600" width="600" xmlns="http://www.w3.org/2000/svg" xmlns:xlink="http://www.w3.org/1999/xlink"><defs node-id="64"><linearGradient gradientUnits="objectBoundingBox" id="linearGradient-1" node-id="5" spreadMethod="pad" x1="1.4458808" x2="0.29515958" y1="0.66910326" y2="0.67326146"><stop offset="0" stop-color="#e0e5ef" stop-opacity="0"></stop><stop offset="1" stop-color="#e0e5ef"></stop></linearGradient><linearGradient gradientUnits="objectBoundingBox" id="linearGradient-2" node-id="8" spreadMethod="pad" x1="1.4458808" x2="0.29515958" y1="0.669094" y2="0.6732521"><stop offset="0" stop-color="#e0e5ef" stop-opacity="0"></stop><stop offset="1" stop-color="#e0e5ef"></stop></linearGradient><linearGradient gradientUnits="objectBoundingBox" id="linearGradient1" node-id="78" spreadMethod="pad" x1="0.9340618" x2="0.40599933" y1="0.98800004" y2="1"><stop offset="0" stop-color="#e0e5ef" stop-opacity="0"></stop><stop offset="1" stop-color="#e0e5ef"></stop></linearGradient><linearGradient gradientUnits="objectBoundingBox" id="linearGradient-3" node-id="11" spreadMethod="pad" x1="0.9340618" x2="0.40599933" y1="0.98800004" y2="1"><stop offset="0" stop-color="#e0e5ef" stop-opacity="0"></stop><stop offset="1" stop-color="#e0e5ef"></stop></linearGradient><linearGradient gradientUnits="objectBoundingBox" id="linearGradient-4" node-id="14" spreadMethod="pad" x1="0.92518216" x2="0.40792233" y1="0.98800004" y2="1"><stop offset="0" stop-color="#e0e5ef" stop-opacity="0"></stop><stop offset="1" stop-color="#e0e5ef"></stop></linearGradient><linearGradient gradientUnits="objectBoundingBox" id="linearGradient-5" node-id="17" spreadMethod="pad" x1="0.5" x2="0.49820882" y1="1.1972669" y2="0"><stop offset="0" stop-color="#a2abb9"></stop><stop offset="1" stop-color="#e7eaf0"></stop></linearGradient><linearGradient gradientUnits="objectBoundingBox" id="linearGradient-6" node-id="20" spreadMethod="pad" x1="0.5" x2="0.4998011" y1="1.1972669" y2="0"><stop offset="0" stop-color="#a2abb9"></stop><stop offset="1" stop-color="#e7eaf0"></stop></linearGradient><linearGradient gradientUnits="objectBoundingBox" id="linearGradient-7" node-id="23" spreadMethod="pad" x1="0.5" x2="0.513666" y1="1.1849287" y2="0.008847565"><stop offset="0" stop-color="#a2abb9"></stop><stop offset="1" stop-color="#e7eaf0"></stop></linearGradient><linearGradient gradientUnits="objectBoundingBox" id="linearGradient-8" node-id="26" spreadMethod="pad" x1="0.5" x2="0.513666" y1="0.9896268" y2="0.1488957"><stop offset="0" stop-color="#a2abb9"></stop><stop offset="1" stop-color="#e7eaf0"></stop></linearGradient><linearGradient gradientUnits="objectBoundingBox" id="linearGradient-9" node-id="29" spreadMethod="pad" x1="1.097362" x2="-0.055453125" y1="1.0458317" y2="0.06493333"><stop offset="0" stop-color="#a2abb9"></stop><stop offset="1" stop-color="#e7eaf0"></stop></linearGradient><linearGradient gradientUnits="objectBoundingBox" id="linearGradient-10" node-id="32" spreadMethod="pad" x1="0.5" x2="0.040798664" y1="1" y2="-0.28957963"><stop offset="0" stop-color="#a2abb9"></stop><stop offset="1" stop-color="#e7eaf0"></stop></linearGradient></defs><path d="M 0.00 0.00 L 600.00 0.00 L 600.00 600.00 L 0.00 600.00 Z" fill="#ffffff" fill-rule="evenodd" node-id="135" stroke="none" target-height="600" target-width="600" target-x="0" target-y="0"></path><g node-id="137"><path d="M 297.40 77.00 L 307.60 77.20 L 317.70 77.90 L 327.60 79.00 L 337.30 80.50 L 346.90 82.40 L 356.40 84.70 L 365.70 87.40 L 374.90 90.50 L 383.80 94.00 L 392.50 97.80 L 403.30 103.10 L 413.60 108.90 L 423.60 115.20 L 433.20 122.00 L 415.60 122.20 L 413.50 122.80 L 411.40 123.80 L 408.10 126.60 L 405.80 130.50 L 405.20 132.60 L 405.00 136.00 L 405.20 138.40 L 405.80 140.50 L 406.80 142.60 L 409.60 145.90 L 413.50 148.20 L 415.60 148.80 L 418.00 149.00 L 463.20 149.00 L 469.50 156.10 L 475.40 163.40 L 481.10 170.90 L 486.40 178.80 L 507.90 178.80 L 510.40 179.00 L 512.80 179.60 L 514.90 180.70 L 516.90 182.10 L 518.60 183.70 L 520.00 185.70 L 521.00 187.90 L 521.60 190.20 L 521.90 192.80 L 521.30 197.60 L 520.60 199.50 L 519.00 202.00 L 517.00 204.20 L 514.50 205.90 L 511.80 207.00 L 492.00 207.00 L 489.10 207.30 L 486.40 208.00 L 483.90 209.20 L 481.70 210.80 L 479.80 212.70 L 478.20 214.90 L 477.00 217.40 L 476.30 220.10 L 476.00 228.00 L 476.30 230.90 L 477.00 233.60 L 478.20 236.10 L 479.80 238.30 L 481.70 240.20 L 483.90 241.80 L 486.40 243.00 L 489.10 243.70 L 492.00 244.00 L 559.90 244.00 L 564.20 245.80 L 566.10 247.10 L 569.20 250.50 L 571.30 254.70 L 572.00 259.50 L 571.70 263.30 L 571.00 266.00 L 569.80 268.50 L 568.20 270.70 L 566.30 272.60 L 564.10 274.20 L 561.60 275.40 L 558.90 276.10 L 556.00 276.40 L 520.80 276.40 L 521.60 287.10 L 521.90 298.00 L 521.60 308.50 L 520.90 318.80 L 519.70 328.90 L 518.10 338.90 L 515.90 348.70 L 513.40 358.40 L 510.40 367.90 L 507.00 377.20 L 503.20 386.30 L 499.10 395.20 L 494.50 403.90 L 489.50 412.40 L 484.20 420.60 L 478.60 428.50 L 472.60 436.20 L 466.20 443.70 L 459.60 450.80 L 452.60 457.60 L 445.40 464.20 L 437.80 470.40 L 430.00 476.40 L 421.90 481.90 L 413.60 487.10 L 405.00 492.00 L 396.10 496.50 L 387.10 500.70 L 377.80 504.40 L 368.40 507.70 L 358.70 510.60 L 348.80 513.20 L 338.90 515.20 L 328.80 516.90 L 318.50 518.00 L 308.00 518.70 L 297.40 519.00 L 287.40 518.80 L 277.60 518.20 L 268.00 517.10 L 258.50 515.70 L 249.20 513.90 L 237.60 511.10 L 226.30 507.70 L 215.40 503.80 L 204.70 499.30 L 194.20 494.30 L 184.00 488.80 L 174.30 482.80 L 164.80 476.40 L 155.70 469.40 L 147.00 462.10 L 138.60 454.30 L 130.70 446.10 L 123.20 437.50 L 116.20 428.60 L 109.60 419.30 L 103.50 409.60 L 97.90 399.60 L 92.90 389.30 L 88.30 378.80 L 84.30 367.90 L 74.20 367.70 L 72.80 367.10 L 71.50 366.10 L 70.60 364.80 L 70.00 363.40 L 69.70 361.70 L 70.00 359.90 L 70.80 358.20 L 72.00 356.90 L 73.60 356.00 L 86.40 355.80 L 88.50 355.20 L 90.60 354.20 L 93.90 351.40 L 96.20 347.50 L 96.80 345.40 L 97.00 343.00 L 96.80 339.60 L 96.20 337.50 L 95.20 335.40 L 92.40 332.10 L 90.60 330.80 L 88.50 329.80 L 86.40 329.20 L 75.00 328.80 L 52.90 328.80 L 49.30 328.20 L 47.70 327.40 L 45.00 325.20 L 43.20 322.20 L 42.70 320.40 L 42.70 316.70 L 44.00 313.40 L 46.20 310.70 L 49.30 308.90 L 52.90 308.30 L 73.10 308.30 L 72.90 298.00 L 73.10 288.20 L 73.70 278.50 L 74.80 269.00 L 76.20 259.70 L 78.10 250.50 L 80.90 239.00 L 84.40 227.90 L 88.40 217.10 L 92.90 206.50 L 57.00 206.50 L 53.20 206.20 L 49.50 205.50 L 46.10 204.30 L 42.90 202.70 L 39.90 200.70 L 37.20 198.30 L 34.80 195.60 L 32.80 192.70 L 31.20 189.40 L 30.00 186.00 L 29.30 182.40 L 29.00 178.50 L 29.20 173.20 L 29.90 169.70 L 31.10 166.40 L 32.60 163.20 L 34.50 160.30 L 36.70 157.70 L 39.20 155.30 L 42.00 153.30 L 45.10 151.60 L 48.30 150.30 L 51.70 149.50 L 55.40 149.00 L 182.00 149.00 L 185.50 148.40 L 188.50 146.60 L 190.60 144.00 L 191.40 142.50 L 192.00 139.00 L 191.80 137.20 L 191.40 135.50 L 189.60 132.50 L 187.00 130.40 L 185.50 129.60 L 182.00 129.00 L 152.70 129.00 L 153.40 128.40 L 138.80 128.40 L 135.40 128.10 L 132.20 127.20 L 129.30 125.80 L 126.60 123.90 L 124.30 121.70 L 122.40 119.00 L 121.00 116.00 L 120.20 112.90 L 119.80 109.40 L 120.20 104.90 L 121.00 101.70 L 122.40 98.70 L 124.30 96.10 L 126.60 93.80 L 129.30 91.90 L 132.20 90.50 L 135.40 89.70 L 138.80 89.30 L 223.20 89.30 L 240.90 84.00 L 259.30 80.20 L 278.00 77.80 L 297.40 77.00 Z" fill="#f3f3fa" fill-opacity="0.6015942" fill-rule="evenodd" group-id="1" id="背景" node-id="37" stroke="none" target-height="442" target-width="543" target-x="29" target-y="77"></path></g><path d="M 181.80 214.00 L 174.50 214.00 L 174.20 210.30 L 173.50 206.90 L 172.40 203.70 L 170.80 200.60 L 169.00 197.80 L 166.70 195.20 L 164.20 193.00 L 161.40 191.10 L 158.30 189.60 L 155.00 188.40 L 151.60 187.70 L 148.00 187.50 L 144.30 187.70 L 140.90 188.40 L 137.70 189.60 L 134.60 191.10 L 131.80 193.00 L 129.20 195.20 L 127.00 197.80 L 125.10 200.60 L 123.60 203.70 L 122.40 206.90 L 121.70 210.30 L 121.50 214.00 L 116.10 214.00 L 113.90 214.20 L 111.90 214.80 L 110.00 215.80 L 106.80 218.70 L 104.70 222.60 L 103.90 227.20 L 104.10 229.60 L 105.60 233.90 L 106.80 235.80 L 110.00 238.70 L 111.90 239.60 L 113.90 240.20 L 116.10 240.50 L 181.80 240.50 L 184.00 240.20 L 186.00 239.60 L 189.60 237.40 L 192.30 233.90 L 193.80 229.60 L 194.00 227.20 L 193.80 224.80 L 192.30 220.50 L 189.60 217.10 L 186.00 214.80 L 184.00 214.20 L 181.80 214.00 Z" fill="url(#linearGradient-1)" fill-rule="nonzero" id="路径" node-id="38" stroke="none" target-height="53" target-width="90.1" target-x="103.9" target-y="187.5"></path><path d="M 368.90 138.60 L 363.70 138.60 L 363.30 135.20 L 362.50 132.00 L 361.10 129.00 L 359.20 126.40 L 356.90 124.10 L 354.20 122.20 L 351.30 120.80 L 348.10 120.00 L 344.70 119.60 L 341.20 120.00 L 338.00 120.80 L 335.10 122.20 L 332.40 124.10 L 330.10 126.40 L 328.30 129.00 L 326.80 132.00 L 326.00 135.20 L 325.70 138.60 L 321.80 138.60 L 318.80 139.20 L 317.40 139.90 L 315.70 141.40 L 314.30 143.30 L 313.40 145.60 L 313.10 148.10 L 313.40 150.70 L 314.30 152.90 L 315.70 154.90 L 317.40 156.30 L 320.20 157.50 L 368.90 157.60 L 372.00 157.00 L 373.30 156.30 L 375.10 154.90 L 376.50 152.90 L 377.30 150.70 L 377.60 148.10 L 377.30 145.60 L 376.40 143.30 L 375.10 141.40 L 373.30 139.90 L 370.50 138.80 L 368.90 138.60 Z" fill="url(#linearGradient-2)" fill-rule="nonzero" id="路径" node-id="39" stroke="none" target-height="38.000008" target-width="64.5" target-x="313.1" target-y="119.6"></path><path d="M 284.50 415.00 L 324.70 415.70 L 362.20 417.80 L 396.00 421.10 L 412.30 423.20 L 426.80 425.50 L 439.80 428.00 L 449.30 428.30 L 458.10 429.00 L 466.40 430.10 L 474.60 431.70 L 481.80 433.50 L 488.10 435.60 L 492.80 437.60 L 496.70 439.60 L 502.70 443.70 L 505.10 446.20 L 506.70 448.60 L 507.70 451.00 L 508.00 453.50 L 507.80 455.50 L 506.10 459.40 L 504.60 461.40 L 502.20 463.70 L 499.10 466.00 L 495.10 468.30 L 486.10 472.10 L 480.60 473.80 L 468.90 476.40 L 462.10 477.50 L 452.30 480.20 L 440.70 482.80 L 441.00 486.00 L 440.70 488.80 L 440.10 491.60 L 438.90 494.30 L 437.20 497.10 L 435.00 499.90 L 431.90 502.90 L 428.20 506.00 L 423.60 509.00 L 412.80 514.50 L 400.10 519.30 L 392.70 521.50 L 382.80 523.90 L 372.00 526.00 L 360.30 527.80 L 348.50 529.00 L 336.10 529.70 L 323.00 530.00 L 311.20 529.80 L 300.00 529.20 L 289.30 528.20 L 278.50 526.80 L 268.60 525.10 L 259.30 523.00 L 250.10 520.60 L 241.90 518.00 L 234.60 515.20 L 229.20 512.70 L 220.20 507.60 L 213.10 502.00 L 210.30 499.10 L 208.10 496.10 L 206.60 493.20 L 190.90 491.80 L 162.60 488.60 L 136.80 484.50 L 114.80 479.70 L 105.40 477.10 L 97.50 474.40 L 86.50 469.80 L 82.50 467.60 L 76.90 463.30 L 75.10 461.20 L 73.90 459.30 L 73.20 457.40 L 73.00 455.50 L 73.30 453.50 L 74.10 451.40 L 75.50 449.30 L 77.60 447.10 L 80.60 444.70 L 84.30 442.40 L 89.00 440.00 L 94.80 437.60 L 101.90 435.10 L 111.20 432.30 L 122.10 429.50 L 134.90 426.90 L 162.00 422.50 L 177.80 420.50 L 210.30 417.60 L 246.20 415.70 L 284.50 415.00 Z" fill="#e7eaf0" fill-rule="evenodd" id="形状结合" node-id="40" stroke="none" target-height="115" target-width="435" target-x="73" target-y="415"></path><g node-id="138"><path d="M 463.30 400.60 L 464.00 403.40 L 463.80 405.00 L 463.10 406.50 L 462.00 407.60 L 460.60 408.40 L 447.40 408.70 L 447.50 423.60 L 448.00 432.00 L 439.00 432.00 L 439.30 425.70 L 439.40 409.80 L 438.20 410.50 L 437.00 410.70 L 435.20 410.20 L 433.90 408.80 L 426.80 408.50 L 424.90 407.70 L 423.40 406.40 L 422.60 405.30 L 422.20 404.10 L 422.10 402.00 L 424.60 395.30 L 426.30 393.20 L 436.10 375.20 L 438.90 371.50 L 441.50 370.20 L 443.10 370.00 L 445.30 370.30 L 447.20 371.20 L 448.70 372.50 L 457.70 389.50 L 460.20 391.00 L 461.90 393.40 L 462.60 396.40 L 462.30 398.50 L 463.30 400.60 Z" fill="url(#linearGradient1)" fill-rule="nonzero" group-id="2" id="路径" node-id="42" stroke="none" target-height="62" target-width="41.899994" target-x="422.1" target-y="370"></path><path d="M 503.30 420.60 L 504.00 423.40 L 503.80 425.00 L 503.10 426.50 L 502.00 427.60 L 500.60 428.40 L 487.40 428.70 L 487.50 443.60 L 488.00 452.00 L 479.00 452.00 L 479.30 445.70 L 479.40 429.80 L 478.20 430.50 L 477.00 430.70 L 475.20 430.20 L 473.90 428.80 L 466.80 428.50 L 464.90 427.70 L 463.40 426.40 L 462.60 425.30 L 462.20 424.10 L 462.10 422.00 L 464.60 415.30 L 466.30 413.20 L 476.10 395.20 L 478.90 391.50 L 481.50 390.20 L 483.10 390.00 L 485.30 390.30 L 487.20 391.20 L 488.70 392.50 L 497.70 409.50 L 500.20 411.00 L 501.90 413.40 L 502.60 416.40 L 502.30 418.50 L 503.30 420.60 Z" fill="url(#linearGradient-3)" fill-rule="nonzero" group-id="2" id="路径" node-id="43" stroke="none" target-height="62" target-width="41.899994" target-x="462.1" target-y="390"></path><path d="M 150.00 413.40 L 151.00 417.40 L 150.40 420.40 L 149.70 421.80 L 148.20 423.40 L 146.30 424.50 L 127.60 424.90 L 127.80 446.00 L 128.50 458.00 L 115.90 458.00 L 116.30 449.10 L 116.40 426.40 L 115.40 427.20 L 113.10 427.80 L 110.50 427.10 L 108.70 425.10 L 98.80 424.60 L 95.30 423.00 L 93.90 421.70 L 92.90 420.10 L 92.20 418.30 L 92.10 415.40 L 94.50 409.40 L 95.60 405.80 L 98.00 403.00 L 111.80 377.50 L 113.70 374.60 L 115.80 372.20 L 117.40 371.00 L 119.40 370.30 L 121.70 370.00 L 125.60 370.70 L 127.30 371.70 L 130.10 374.40 L 142.10 397.70 L 144.00 398.60 L 145.60 399.80 L 147.00 401.40 L 148.10 403.20 L 148.80 405.20 L 149.00 407.40 L 148.50 410.40 L 150.00 413.40 Z" fill="url(#linearGradient-4)" fill-rule="nonzero" group-id="2" id="路径" node-id="44" stroke="none" target-height="88" target-width="58.9" target-x="92.1" target-y="370"></path></g><g node-id="139"><path d="M 366.10 415.00 L 366.20 420.50 L 367.20 425.90 L 369.20 431.00 L 372.40 435.30 L 373.80 436.30 L 375.30 436.60 L 375.80 435.10 L 376.20 431.80 L 375.10 427.20 L 372.30 421.80 L 368.40 417.00 L 366.10 415.00 Z M 408.50 427.20 L 405.00 425.80 L 401.40 425.00 L 399.00 424.80 L 394.00 425.50 L 391.60 426.50 L 389.50 427.80 L 386.00 431.30 L 383.30 435.70 L 385.50 436.40 L 387.70 436.70 L 392.30 436.10 L 396.50 434.50 L 404.70 430.00 L 408.50 427.20 Z M 387.70 419.50 L 387.30 415.00 L 385.50 410.80 L 382.80 407.30 L 381.10 405.80 L 377.20 403.60 L 377.00 406.70 L 377.20 409.70 L 377.80 412.50 L 378.80 415.20 L 380.20 417.70 L 382.00 420.00 L 384.10 422.10 L 386.50 423.90 L 387.40 421.80 L 387.70 419.50 Z M 421.80 410.00 L 418.50 408.90 L 413.90 408.20 L 409.10 408.00 L 404.10 409.10 L 401.40 410.50 L 398.60 414.10 L 401.90 415.40 L 406.20 416.00 L 410.50 415.60 L 418.70 412.00 L 421.80 410.00 Z M 395.40 393.10 L 392.70 391.50 L 389.80 390.40 L 383.50 389.20 L 385.40 394.30 L 388.70 398.80 L 392.90 402.50 L 396.50 404.70 L 400.40 406.50 L 400.40 404.00 L 399.50 399.10 L 398.50 396.80 L 397.20 394.80 L 395.40 393.10 Z M 428.90 392.50 L 425.00 391.50 L 418.00 392.00 L 415.10 392.90 L 411.50 394.90 L 410.20 396.20 L 407.80 399.60 L 409.80 400.00 L 413.90 399.80 L 422.10 397.10 L 427.00 394.30 L 428.90 392.50 Z M 402.80 377.70 L 398.20 374.90 L 396.60 374.20 L 393.20 374.00 L 393.70 378.10 L 395.50 381.80 L 397.10 384.10 L 401.20 387.90 L 404.80 390.10 L 408.70 391.80 L 408.90 389.50 L 408.50 387.20 L 407.70 384.90 L 405.50 380.90 L 402.80 377.70 Z M 438.40 375.80 L 432.70 374.20 L 429.80 373.90 L 426.90 374.20 L 424.10 374.90 L 421.70 376.00 L 419.00 378.20 L 418.00 379.80 L 419.50 381.10 L 423.20 382.70 L 427.20 383.10 L 429.20 382.90 L 432.20 382.00 L 434.90 380.70 L 437.50 379.00 L 439.80 377.00 L 438.40 375.80 Z M 413.70 363.00 L 411.20 360.90 L 408.50 359.30 L 405.40 358.10 L 402.30 357.50 L 403.40 363.40 L 405.80 367.90 L 410.00 372.00 L 412.20 373.40 L 416.00 374.70 L 418.80 374.70 L 418.30 371.50 L 417.20 368.40 L 415.70 365.60 L 413.70 363.00 Z M 447.50 356.20 L 439.50 355.90 L 437.20 356.10 L 432.80 357.40 L 430.40 358.90 L 428.50 360.70 L 425.10 365.10 L 427.00 365.70 L 430.30 366.00 L 432.80 365.40 L 435.60 364.30 L 444.50 358.80 L 447.90 356.30 L 447.50 356.20 Z M 417.50 343.20 L 415.60 342.20 L 413.60 342.00 L 413.50 346.00 L 414.10 349.60 L 414.70 351.30 L 416.80 355.20 L 418.20 356.80 L 422.50 359.80 L 425.60 361.10 L 425.70 357.70 L 425.10 354.30 L 424.00 351.00 L 422.30 348.10 L 420.10 345.40 L 417.50 343.20 Z M 449.90 341.60 L 447.10 341.10 L 444.30 341.10 L 441.40 341.70 L 438.70 342.80 L 436.30 344.30 L 434.30 346.10 L 430.70 350.50 L 434.20 350.40 L 437.70 349.70 L 441.10 348.50 L 444.20 346.90 L 447.00 344.80 L 449.90 341.60 Z M 421.70 327.80 L 421.10 330.80 L 421.20 334.60 L 422.00 340.20 L 423.40 342.90 L 426.30 346.30 L 429.70 348.00 L 430.80 344.30 L 430.90 342.30 L 430.50 339.40 L 429.40 336.60 L 427.90 334.00 L 426.10 331.70 L 421.70 327.80 Z M 438.80 330.70 L 436.90 333.00 L 435.80 334.90 L 434.60 338.70 L 440.40 337.80 L 442.10 337.20 L 445.30 335.10 L 448.20 331.40 L 449.70 328.50 L 448.40 327.80 L 446.60 327.60 L 444.60 327.80 L 440.60 329.40 L 438.80 330.70 Z M 434.40 323.90 L 432.80 321.40 L 431.20 319.60 L 429.60 318.50 L 428.00 317.80 L 428.10 323.90 L 429.30 328.40 L 431.10 331.60 L 432.30 333.10 L 433.80 334.30 L 435.40 335.00 L 435.90 333.60 L 436.10 329.30 L 434.40 323.90 Z" fill="url(#linearGradient-5)" fill-rule="nonzero" group-id="3" id="形状" node-id="46" stroke="none" target-height="118.900024" target-width="83.79999" target-x="366.1" target-y="317.8"></path><path d="M 358.50 449.60 L 366.70 442.40 L 374.60 434.60 L 382.30 426.10 L 389.70 417.00 L 397.00 407.30 L 404.10 396.80 L 411.00 385.50 L 417.70 373.40 L 424.20 360.50 L 430.40 346.70 L 436.40 332.00 L 433.60 343.50 L 431.40 350.40 L 427.60 360.90 L 422.80 372.40 L 417.30 384.00 L 411.00 396.00 L 401.70 411.50 L 391.30 426.30 L 385.80 433.10 L 380.10 439.50 L 374.10 445.60 L 368.10 450.90 L 361.90 455.50 L 360.60 454.60 L 359.60 453.30 L 358.90 451.70 L 358.50 449.60 Z" fill="url(#linearGradient-6)" fill-rule="nonzero" group-id="3" id="路径-2" node-id="47" stroke="none" target-height="123.5" target-width="77.899994" target-x="358.5" target-y="332"></path></g><g node-id="140"><path d="M 285.00 281.40 L 368.50 361.80 L 370.30 363.90 L 371.60 366.20 L 372.60 368.70 L 373.00 371.30 L 373.10 373.90 L 372.70 376.50 L 371.90 379.10 L 370.60 381.40 L 368.90 383.60 L 322.70 431.20 L 320.60 433.00 L 318.30 434.40 L 315.80 435.30 L 313.20 435.80 L 310.60 435.80 L 308.00 435.40 L 305.50 434.60 L 303.10 433.40 L 301.00 431.60 L 217.50 351.20 L 215.70 349.10 L 214.30 346.80 L 213.40 344.30 L 212.90 341.70 L 212.90 339.10 L 213.30 336.40 L 214.10 333.90 L 215.40 331.60 L 217.10 329.40 L 263.30 281.80 L 265.40 280.00 L 267.60 278.60 L 270.10 277.60 L 272.70 277.10 L 275.20 277.00 L 277.90 277.40 L 280.40 278.20 L 282.70 279.50 L 285.00 281.40 Z" fill="url(#linearGradient-7)" fill-rule="nonzero" group-id="4" id="路径" node-id="49" stroke="none" target-height="158.79999" target-width="160.20001" target-x="212.9" target-y="277"></path><path d="M 236.00 299.30 L 342.70 344.60 L 345.10 345.90 L 347.20 347.50 L 349.00 349.50 L 350.40 351.70 L 351.40 354.10 L 352.00 356.70 L 352.10 359.40 L 351.70 362.10 L 350.90 364.80 L 325.10 425.70 L 323.70 428.10 L 322.10 430.20 L 320.10 431.90 L 317.90 433.30 L 315.50 434.30 L 312.90 434.90 L 310.20 435.10 L 307.60 434.70 L 304.80 433.80 L 198.10 388.50 L 195.60 387.20 L 193.60 385.60 L 191.80 383.60 L 190.40 381.40 L 189.40 379.00 L 188.80 376.40 L 188.70 373.70 L 189.00 371.00 L 189.90 368.30 L 215.70 307.40 L 217.00 305.00 L 218.70 303.00 L 220.70 301.20 L 223.00 299.80 L 225.40 298.80 L 228.00 298.20 L 230.70 298.10 L 233.30 298.40 L 236.00 299.30 Z" fill="url(#linearGradient-8)" fill-rule="nonzero" group-id="4" id="路径" node-id="50" stroke="none" target-height="137" target-width="163.40001" target-x="188.7" target-y="298.1"></path><path d="M 195.90 427.30 L 363.70 427.30 L 385.10 457.30 L 386.90 460.30 L 388.10 463.00 L 388.80 465.40 L 389.00 467.50 L 388.80 469.70 L 388.10 471.50 L 387.00 473.20 L 385.40 474.60 L 383.50 475.70 L 381.20 476.60 L 378.30 477.10 L 374.80 477.30 L 182.80 477.30 L 179.40 477.10 L 176.60 476.60 L 174.30 475.70 L 172.50 474.60 L 171.00 473.20 L 169.90 471.50 L 169.20 469.70 L 169.00 467.50 L 169.20 465.40 L 169.90 463.00 L 171.10 460.30 L 172.90 457.30 L 195.90 427.30 Z" fill="#d1d6e2" fill-rule="nonzero" group-id="4" id="路径" node-id="51" stroke="none" target-height="50" target-width="220" target-x="169" target-y="427.3"></path><path d="M 212.00 344.00 L 360.00 344.00 L 362.90 344.30 L 365.60 345.00 L 368.10 346.20 L 370.30 347.80 L 372.20 349.70 L 373.80 351.90 L 375.00 354.40 L 375.70 357.10 L 376.00 360.00 L 376.00 444.00 L 375.70 446.90 L 375.00 449.60 L 373.80 452.10 L 372.20 454.30 L 370.30 456.20 L 368.10 457.80 L 365.60 459.00 L 362.90 459.70 L 360.00 460.00 L 212.00 460.00 L 209.10 459.70 L 206.40 459.00 L 203.90 457.80 L 201.70 456.20 L 199.80 454.30 L 198.20 452.10 L 197.00 449.60 L 196.30 446.90 L 196.00 444.00 L 196.00 360.00 L 196.30 357.10 L 197.00 354.40 L 198.20 351.90 L 199.80 349.70 L 201.70 347.80 L 203.90 346.20 L 206.40 345.00 L 209.10 344.30 L 212.00 344.00 Z" fill="#c7cdd8" fill-rule="nonzero" group-id="4" id="矩形" node-id="52" stroke="none" target-height="116" target-width="180" target-x="196" target-y="344"></path><path d="M 200.00 344.00 L 348.00 344.00 L 350.90 344.30 L 353.60 345.00 L 356.10 346.20 L 358.30 347.80 L 360.20 349.70 L 361.80 351.90 L 363.00 354.40 L 363.70 357.10 L 364.00 360.00 L 364.00 444.00 L 363.70 446.90 L 363.00 449.60 L 361.80 452.10 L 360.20 454.30 L 358.30 456.20 L 356.10 457.80 L 353.60 459.00 L 350.90 459.70 L 348.00 460.00 L 200.00 460.00 L 197.10 459.70 L 194.40 459.00 L 191.90 457.80 L 189.70 456.20 L 187.80 454.30 L 186.20 452.10 L 185.00 449.60 L 184.30 446.90 L 184.00 444.00 L 184.00 360.00 L 184.30 357.10 L 185.00 354.40 L 186.20 351.90 L 187.80 349.70 L 189.70 347.80 L 191.90 346.20 L 194.40 345.00 L 197.10 344.30 L 200.00 344.00 Z" fill="url(#linearGradient-9)" fill-rule="nonzero" group-id="4" id="矩形备份" node-id="53" stroke="none" target-height="116" target-width="180" target-x="184" target-y="344"></path><path d="M 184.00 364.00 L 364.00 364.00 L 364.00 384.00 L 184.00 384.00 Z" fill="#d1d6e2" fill-rule="nonzero" group-id="4" id="矩形备份-2" node-id="54" stroke="none" target-height="20" target-width="180" target-x="184" target-y="364"></path><path d="M 194.00 394.00 L 284.00 394.00 L 284.00 414.00 L 194.00 414.00 Z" fill="#e7eaf0" fill-rule="evenodd" group-id="4" id="矩形备份-3" node-id="55" stroke="none" target-height="20" target-width="90" target-x="194" target-y="394"></path><path d="M 294.00 394.00 L 354.00 394.00 L 354.00 414.00 L 294.00 414.00 Z" fill="#e7eaf0" fill-rule="evenodd" group-id="4" id="矩形备份-4" node-id="56" stroke="none" target-height="20" target-width="60" target-x="294" target-y="394"></path><path d="M 234.00 426.00 L 354.00 426.00 L 354.00 432.00 L 234.00 432.00 Z" fill="#d1d6e2" fill-rule="nonzero" group-id="4" id="矩形备份-5" node-id="57" stroke="none" target-height="6" target-width="120" target-x="234" target-y="426"></path><path d="M 264.00 440.00 L 354.00 440.00 L 354.00 446.00 L 264.00 446.00 Z" fill="#d1d6e2" fill-rule="nonzero" group-id="4" id="矩形备份-6" node-id="58" stroke="none" target-height="6" target-width="90" target-x="264" target-y="440"></path></g><path d="M 318.60 239.00 L 333.10 242.50 L 345.10 246.00 L 355.10 249.40 L 363.30 252.80 L 369.80 256.10 L 375.00 259.30 L 379.00 262.50 L 382.00 265.50 L 384.20 268.40 L 385.70 271.30 L 386.60 274.20 L 386.80 277.20 L 386.50 280.20 L 385.60 283.40 L 384.00 286.80 L 381.50 290.50 L 378.10 294.50 L 373.50 298.90 L 367.60 303.70 L 333.60 329.20 L 323.90 337.10 L 317.90 342.50 L 312.70 347.70 L 308.30 352.70 L 305.30 356.70 L 302.90 360.50 L 301.10 364.20 L 299.90 367.90 L 299.20 370.90 L 299.00 373.90 L 299.20 376.90 L 299.80 379.90 L 302.20 385.80 L 306.50 391.80 L 309.60 395.10 L 313.50 398.50 L 318.20 402.10 L 324.10 405.90 L 331.30 410.10 L 340.00 414.50 L 348.60 418.00 L 358.70 421.50 L 370.50 424.90 L 384.20 428.40 L 400.00 431.70 L 418.10 435.00" fill="none" id="路径-33" node-id="59" stroke="#d1d6e2" stroke-dasharray="4 4" stroke-linecap="round" stroke-width="1" target-height="196" target-width="119.100006" target-x="299" target-y="239"></path><path d="M 334.20 328.80 L 324.90 336.30 L 317.00 343.40 L 312.10 348.30 L 308.00 353.00 L 304.70 357.50 L 302.60 361.20 L 300.90 364.70 L 299.80 368.10 L 299.20 371.50 L 299.00 374.90 L 299.40 378.30 L 300.40 381.80 L 302.00 385.50 L 304.00 388.70 L 306.80 392.20 L 310.40 395.80 L 315.00 399.70 L 319.70 403.10 L 332.00 410.40 L 340.00 414.50 L 348.60 418.00 L 358.70 421.50 L 370.50 424.90 L 384.20 428.40 L 400.00 431.70 L 418.10 435.00" fill="none" id="路径" node-id="60" stroke="#ffffff" stroke-dasharray="4 4" stroke-linecap="round" stroke-width="1" target-height="106.20001" target-width="119.100006" target-x="299" target-y="328.8"></path><g node-id="141"><path d="M 293.00 232.50 L 284.60 244.60 L 255.80 210.80 L 309.20 209.50 L 301.90 220.70 L 263.10 213.60 L 298.50 226.00 L 305.40 236.40 Z" fill="url(#linearGradient-10)" fill-rule="nonzero" group-id="5" id="路径" node-id="62" stroke="none" target-height="35.100006" target-width="53.40001" target-x="255.8" target-y="209.5"></path></g></svg>