<?xml version="1.0" standalone="no"?><!DOCTYPE svg PUBLIC "-//W3C//DTD SVG 1.1//EN" "http://www.w3.org/Graphics/SVG/1.1/DTD/svg11.dtd"><svg height="600" node-id="1" sillyvg="true" template-height="600" template-width="600" version="1.1" viewBox="0 0 600 600" width="600" xmlns="http://www.w3.org/2000/svg" xmlns:xlink="http://www.w3.org/1999/xlink"><defs node-id="59"><linearGradient gradientUnits="objectBoundingBox" id="linearGradient-1" node-id="5" spreadMethod="pad" x1="1.4458808" x2="0.29515958" y1="0.66910326" y2="0.67326146"><stop offset="0" stop-color="#e0e5ef" stop-opacity="0"></stop><stop offset="1" stop-color="#e0e5ef"></stop></linearGradient><linearGradient gradientUnits="objectBoundingBox" id="linearGradient-2" node-id="8" spreadMethod="pad" x1="1.4458808" x2="0.29515958" y1="0.669094" y2="0.6732521"><stop offset="0" stop-color="#e0e5ef" stop-opacity="0"></stop><stop offset="1" stop-color="#e0e5ef"></stop></linearGradient><linearGradient gradientUnits="objectBoundingBox" id="linearGradient1" node-id="73" spreadMethod="pad" x1="0.9340618" x2="0.40599933" y1="0.98800004" y2="1"><stop offset="0" stop-color="#e0e5ef" stop-opacity="0"></stop><stop offset="1" stop-color="#e0e5ef"></stop></linearGradient><linearGradient gradientUnits="objectBoundingBox" id="linearGradient-3" node-id="11" spreadMethod="pad" x1="0.9340618" x2="0.40599933" y1="0.98800004" y2="1"><stop offset="0" stop-color="#e0e5ef" stop-opacity="0"></stop><stop offset="1" stop-color="#e0e5ef"></stop></linearGradient><linearGradient gradientUnits="objectBoundingBox" id="linearGradient-4" node-id="14" spreadMethod="pad" x1="0.92518216" x2="0.40792233" y1="0.98800004" y2="1"><stop offset="0" stop-color="#e0e5ef" stop-opacity="0"></stop><stop offset="1" stop-color="#e0e5ef"></stop></linearGradient><linearGradient gradientUnits="objectBoundingBox" id="linearGradient-5" node-id="17" spreadMethod="pad" x1="0.5" x2="0.5" y1="1" y2="-0.2185624"><stop offset="0" stop-color="#a2abb9"></stop><stop offset="1" stop-color="#e7eaf0"></stop></linearGradient><linearGradient gradientUnits="objectBoundingBox" id="linearGradient-6" node-id="20" spreadMethod="pad" x1="0.5" x2="0.5" y1="1" y2="-0.268682"><stop offset="0" stop-color="#a2abb9"></stop><stop offset="1" stop-color="#e7eaf0"></stop></linearGradient><linearGradient gradientUnits="objectBoundingBox" id="linearGradient-7" node-id="23" spreadMethod="pad" x1="0.5" x2="0.5" y1="1.261823" y2="-0.20096861"><stop offset="0" stop-color="#a2abb9"></stop><stop offset="1" stop-color="#e7eaf0"></stop></linearGradient><linearGradient gradientUnits="objectBoundingBox" id="linearGradient-8" node-id="26" spreadMethod="pad" x1="1" x2="0" y1="0.39770198" y2="0.8063144"><stop offset="0" stop-color="#a2abb9"></stop><stop offset="1" stop-color="#e7eaf0"></stop></linearGradient><linearGradient gradientUnits="objectBoundingBox" id="linearGradient2" node-id="116" spreadMethod="pad" x1="0.67341614" x2="0" y1="0.683891" y2="0.30182254"><stop offset="0" stop-color="#a2abb9"></stop><stop offset="1" stop-color="#e7eaf0"></stop></linearGradient><linearGradient gradientUnits="objectBoundingBox" id="linearGradient3" node-id="123" spreadMethod="pad" x1="1" x2="0" y1="0.39076242" y2="0.6207257"><stop offset="0" stop-color="#a2abb9"></stop><stop offset="1" stop-color="#e7eaf0"></stop></linearGradient><linearGradient gradientUnits="objectBoundingBox" id="linearGradient-9" node-id="29" spreadMethod="pad" x1="0.67341614" x2="0" y1="0.683891" y2="0.30182254"><stop offset="0" stop-color="#a2abb9"></stop><stop offset="1" stop-color="#e7eaf0"></stop></linearGradient><linearGradient gradientUnits="objectBoundingBox" id="linearGradient-10" node-id="32" spreadMethod="pad" x1="1" x2="0" y1="0.39076242" y2="0.6207257"><stop offset="0" stop-color="#a2abb9"></stop><stop offset="1" stop-color="#e7eaf0"></stop></linearGradient><linearGradient gradientUnits="objectBoundingBox" id="linearGradient-11" node-id="35" spreadMethod="pad" x1="1.1703563" x2="0.063694365" y1="0.45190796" y2="0.5497409"><stop offset="0" stop-color="#a2abb9"></stop><stop offset="1" stop-color="#e7eaf0"></stop></linearGradient></defs><g node-id="147"><path d="M 297.40 77.00 L 307.60 77.20 L 317.70 77.90 L 327.60 79.00 L 337.30 80.50 L 346.90 82.40 L 356.40 84.70 L 365.70 87.40 L 374.90 90.50 L 383.80 94.00 L 392.50 97.80 L 403.30 103.10 L 413.60 108.90 L 423.60 115.20 L 433.20 122.00 L 415.60 122.20 L 413.50 122.80 L 411.40 123.80 L 408.10 126.60 L 405.80 130.50 L 405.20 132.60 L 405.00 136.00 L 405.20 138.40 L 405.80 140.50 L 406.80 142.60 L 409.60 145.90 L 413.50 148.20 L 415.60 148.80 L 418.00 149.00 L 463.20 149.00 L 469.50 156.10 L 475.40 163.40 L 481.10 170.90 L 486.40 178.80 L 507.90 178.80 L 510.40 179.00 L 512.80 179.60 L 514.90 180.70 L 516.90 182.10 L 518.60 183.70 L 520.00 185.70 L 521.00 187.90 L 521.60 190.20 L 521.90 192.80 L 521.30 197.60 L 520.60 199.50 L 519.00 202.00 L 517.00 204.20 L 514.50 205.90 L 511.80 207.00 L 492.00 207.00 L 489.10 207.30 L 486.40 208.00 L 483.90 209.20 L 481.70 210.80 L 479.80 212.70 L 478.20 214.90 L 477.00 217.40 L 476.30 220.10 L 476.00 228.00 L 476.30 230.90 L 477.00 233.60 L 478.20 236.10 L 479.80 238.30 L 481.70 240.20 L 483.90 241.80 L 486.40 243.00 L 489.10 243.70 L 492.00 244.00 L 559.90 244.00 L 564.20 245.80 L 566.10 247.10 L 569.20 250.50 L 571.30 254.70 L 572.00 259.50 L 571.70 263.30 L 571.00 266.00 L 569.80 268.50 L 568.20 270.70 L 566.30 272.60 L 564.10 274.20 L 561.60 275.40 L 558.90 276.10 L 556.00 276.40 L 520.80 276.40 L 521.60 287.10 L 521.90 298.00 L 521.60 308.50 L 520.90 318.80 L 519.70 328.90 L 518.10 338.90 L 515.90 348.70 L 513.40 358.40 L 510.40 367.90 L 507.00 377.20 L 503.20 386.30 L 499.10 395.20 L 494.50 403.90 L 489.50 412.40 L 484.20 420.60 L 478.60 428.50 L 472.60 436.20 L 466.20 443.70 L 459.60 450.80 L 452.60 457.60 L 445.40 464.20 L 437.80 470.40 L 430.00 476.40 L 421.90 481.90 L 413.60 487.10 L 405.00 492.00 L 396.10 496.50 L 387.10 500.70 L 377.80 504.40 L 368.40 507.70 L 358.70 510.60 L 348.80 513.20 L 338.90 515.20 L 328.80 516.90 L 318.50 518.00 L 308.00 518.70 L 297.40 519.00 L 287.40 518.80 L 277.60 518.20 L 268.00 517.10 L 258.50 515.70 L 249.20 513.90 L 237.60 511.10 L 226.30 507.70 L 215.40 503.80 L 204.70 499.30 L 194.20 494.30 L 184.00 488.80 L 174.30 482.80 L 164.80 476.40 L 155.70 469.40 L 147.00 462.10 L 138.60 454.30 L 130.70 446.10 L 123.20 437.50 L 116.20 428.60 L 109.60 419.30 L 103.50 409.60 L 97.90 399.60 L 92.90 389.30 L 88.30 378.80 L 84.30 367.90 L 74.20 367.70 L 72.80 367.10 L 71.50 366.10 L 70.60 364.80 L 70.00 363.40 L 69.70 361.70 L 70.00 359.90 L 70.80 358.20 L 72.00 356.90 L 73.60 356.00 L 86.40 355.80 L 88.50 355.20 L 90.60 354.20 L 93.90 351.40 L 96.20 347.50 L 96.80 345.40 L 97.00 343.00 L 96.80 339.60 L 96.20 337.50 L 95.20 335.40 L 92.40 332.10 L 90.60 330.80 L 88.50 329.80 L 86.40 329.20 L 75.00 328.80 L 52.90 328.80 L 49.30 328.20 L 47.70 327.40 L 45.00 325.20 L 43.20 322.20 L 42.70 320.40 L 42.70 316.70 L 44.00 313.40 L 46.20 310.70 L 49.30 308.90 L 52.90 308.30 L 73.10 308.30 L 72.90 298.00 L 73.10 288.20 L 73.70 278.50 L 74.80 269.00 L 76.20 259.70 L 78.10 250.50 L 80.90 239.00 L 84.40 227.90 L 88.40 217.10 L 92.90 206.50 L 57.00 206.50 L 53.20 206.20 L 49.50 205.50 L 46.10 204.30 L 42.90 202.70 L 39.90 200.70 L 37.20 198.30 L 34.80 195.60 L 32.80 192.70 L 31.20 189.40 L 30.00 186.00 L 29.30 182.40 L 29.00 178.50 L 29.20 173.20 L 29.90 169.70 L 31.10 166.40 L 32.60 163.20 L 34.50 160.30 L 36.70 157.70 L 39.20 155.30 L 42.00 153.30 L 45.10 151.60 L 48.30 150.30 L 51.70 149.50 L 55.40 149.00 L 182.00 149.00 L 185.50 148.40 L 188.50 146.60 L 190.60 144.00 L 191.40 142.50 L 192.00 139.00 L 191.80 137.20 L 191.40 135.50 L 189.60 132.50 L 187.00 130.40 L 185.50 129.60 L 182.00 129.00 L 152.70 129.00 L 153.40 128.40 L 138.80 128.40 L 135.40 128.10 L 132.20 127.20 L 129.30 125.80 L 126.60 123.90 L 124.30 121.70 L 122.40 119.00 L 121.00 116.00 L 120.20 112.90 L 119.80 109.40 L 120.20 104.90 L 121.00 101.70 L 122.40 98.70 L 124.30 96.10 L 126.60 93.80 L 129.30 91.90 L 132.20 90.50 L 135.40 89.70 L 138.80 89.30 L 223.20 89.30 L 240.90 84.00 L 259.30 80.20 L 278.00 77.80 L 297.40 77.00 Z" fill="#f3f3fa" fill-opacity="0.6015942" fill-rule="evenodd" group-id="1" id="背景" node-id="39" stroke="none" target-height="442" target-width="543" target-x="29" target-y="77"></path></g><path d="M 181.80 214.00 L 174.50 214.00 L 174.20 210.30 L 173.50 206.90 L 172.40 203.70 L 170.80 200.60 L 169.00 197.80 L 166.70 195.20 L 164.20 193.00 L 161.40 191.10 L 158.30 189.60 L 155.00 188.40 L 151.60 187.70 L 148.00 187.50 L 144.30 187.70 L 140.90 188.40 L 137.70 189.60 L 134.60 191.10 L 131.80 193.00 L 129.20 195.20 L 127.00 197.80 L 125.10 200.60 L 123.60 203.70 L 122.40 206.90 L 121.70 210.30 L 121.50 214.00 L 116.10 214.00 L 113.90 214.20 L 111.90 214.80 L 110.00 215.80 L 106.80 218.70 L 104.70 222.60 L 103.90 227.20 L 104.10 229.60 L 105.60 233.90 L 106.80 235.80 L 110.00 238.70 L 111.90 239.60 L 113.90 240.20 L 116.10 240.50 L 181.80 240.50 L 184.00 240.20 L 186.00 239.60 L 189.60 237.40 L 192.30 233.90 L 193.80 229.60 L 194.00 227.20 L 193.80 224.80 L 192.30 220.50 L 189.60 217.10 L 186.00 214.80 L 184.00 214.20 L 181.80 214.00 Z" fill="url(#linearGradient-1)" fill-rule="nonzero" id="路径" node-id="40" stroke="none" target-height="53" target-width="90.1" target-x="103.9" target-y="187.5"></path><path d="M 368.90 138.60 L 363.70 138.60 L 363.30 135.20 L 362.50 132.00 L 361.10 129.00 L 359.20 126.40 L 356.90 124.10 L 354.20 122.20 L 351.30 120.80 L 348.10 120.00 L 344.70 119.60 L 341.20 120.00 L 338.00 120.80 L 335.10 122.20 L 332.40 124.10 L 330.10 126.40 L 328.30 129.00 L 326.80 132.00 L 326.00 135.20 L 325.70 138.60 L 321.80 138.60 L 318.80 139.20 L 317.40 139.90 L 315.70 141.40 L 314.30 143.30 L 313.40 145.60 L 313.10 148.10 L 313.40 150.70 L 314.30 152.90 L 315.70 154.90 L 317.40 156.30 L 320.20 157.50 L 368.90 157.60 L 372.00 157.00 L 373.30 156.30 L 375.10 154.90 L 376.50 152.90 L 377.30 150.70 L 377.60 148.10 L 377.30 145.60 L 376.40 143.30 L 375.10 141.40 L 373.30 139.90 L 370.50 138.80 L 368.90 138.60 Z" fill="url(#linearGradient-2)" fill-rule="nonzero" id="路径" node-id="41" stroke="none" target-height="38.000008" target-width="64.5" target-x="313.1" target-y="119.6"></path><path d="M 284.50 415.00 L 324.70 415.70 L 362.20 417.80 L 396.00 421.10 L 412.30 423.20 L 426.80 425.50 L 439.80 428.00 L 449.30 428.30 L 458.10 429.00 L 466.40 430.10 L 474.60 431.70 L 481.80 433.50 L 488.10 435.60 L 492.80 437.60 L 496.70 439.60 L 502.70 443.70 L 505.10 446.20 L 506.70 448.60 L 507.70 451.00 L 508.00 453.50 L 507.80 455.50 L 506.10 459.40 L 504.60 461.40 L 502.20 463.70 L 499.10 466.00 L 495.10 468.30 L 486.10 472.10 L 480.60 473.80 L 468.90 476.40 L 462.10 477.50 L 452.30 480.20 L 440.70 482.80 L 441.00 486.00 L 440.70 488.80 L 440.10 491.60 L 438.90 494.30 L 437.20 497.10 L 435.00 499.90 L 431.90 502.90 L 428.20 506.00 L 423.60 509.00 L 412.80 514.50 L 400.10 519.30 L 392.70 521.50 L 382.80 523.90 L 372.00 526.00 L 360.30 527.80 L 348.50 529.00 L 336.10 529.70 L 323.00 530.00 L 311.20 529.80 L 300.00 529.20 L 289.30 528.20 L 278.50 526.80 L 268.60 525.10 L 259.30 523.00 L 250.10 520.60 L 241.90 518.00 L 234.60 515.20 L 229.20 512.70 L 220.20 507.60 L 213.10 502.00 L 210.30 499.10 L 208.10 496.10 L 206.60 493.20 L 190.90 491.80 L 162.60 488.60 L 136.80 484.50 L 114.80 479.70 L 105.40 477.10 L 97.50 474.40 L 86.50 469.80 L 82.50 467.60 L 76.90 463.30 L 75.10 461.20 L 73.90 459.30 L 73.20 457.40 L 73.00 455.50 L 73.30 453.50 L 74.10 451.40 L 75.50 449.30 L 77.60 447.10 L 80.60 444.70 L 84.30 442.40 L 89.00 440.00 L 94.80 437.60 L 101.90 435.10 L 111.20 432.30 L 122.10 429.50 L 134.90 426.90 L 162.00 422.50 L 177.80 420.50 L 210.30 417.60 L 246.20 415.70 L 284.50 415.00 Z" fill="#e7eaf0" fill-rule="evenodd" id="形状结合" node-id="42" stroke="none" target-height="115" target-width="435" target-x="73" target-y="415"></path><g node-id="148"><path d="M 463.30 400.60 L 464.00 403.40 L 463.80 405.00 L 463.10 406.50 L 462.00 407.60 L 460.60 408.40 L 447.40 408.70 L 447.50 423.60 L 448.00 432.00 L 439.00 432.00 L 439.30 425.70 L 439.40 409.80 L 438.20 410.50 L 437.00 410.70 L 435.20 410.20 L 433.90 408.80 L 426.80 408.50 L 424.90 407.70 L 423.40 406.40 L 422.60 405.30 L 422.20 404.10 L 422.10 402.00 L 424.60 395.30 L 426.30 393.20 L 436.10 375.20 L 438.90 371.50 L 441.50 370.20 L 443.10 370.00 L 445.30 370.30 L 447.20 371.20 L 448.70 372.50 L 457.70 389.50 L 460.20 391.00 L 461.90 393.40 L 462.60 396.40 L 462.30 398.50 L 463.30 400.60 Z" fill="url(#linearGradient1)" fill-rule="nonzero" group-id="2" id="路径" node-id="44" stroke="none" target-height="62" target-width="41.899994" target-x="422.1" target-y="370"></path><path d="M 503.30 420.60 L 504.00 423.40 L 503.80 425.00 L 503.10 426.50 L 502.00 427.60 L 500.60 428.40 L 487.40 428.70 L 487.50 443.60 L 488.00 452.00 L 479.00 452.00 L 479.30 445.70 L 479.40 429.80 L 478.20 430.50 L 477.00 430.70 L 475.20 430.20 L 473.90 428.80 L 466.80 428.50 L 464.90 427.70 L 463.40 426.40 L 462.60 425.30 L 462.20 424.10 L 462.10 422.00 L 464.60 415.30 L 466.30 413.20 L 476.10 395.20 L 478.90 391.50 L 481.50 390.20 L 483.10 390.00 L 485.30 390.30 L 487.20 391.20 L 488.70 392.50 L 497.70 409.50 L 500.20 411.00 L 501.90 413.40 L 502.60 416.40 L 502.30 418.50 L 503.30 420.60 Z" fill="url(#linearGradient-3)" fill-rule="nonzero" group-id="2" id="路径" node-id="45" stroke="none" target-height="62" target-width="41.899994" target-x="462.1" target-y="390"></path><path d="M 150.00 413.40 L 151.00 417.40 L 150.40 420.40 L 149.70 421.80 L 148.20 423.40 L 146.30 424.50 L 127.60 424.90 L 127.80 446.00 L 128.50 458.00 L 115.90 458.00 L 116.30 449.10 L 116.40 426.40 L 115.40 427.20 L 113.10 427.80 L 110.50 427.10 L 108.70 425.10 L 98.80 424.60 L 95.30 423.00 L 93.90 421.70 L 92.90 420.10 L 92.20 418.30 L 92.10 415.40 L 94.50 409.40 L 95.60 405.80 L 98.00 403.00 L 111.80 377.50 L 113.70 374.60 L 115.80 372.20 L 117.40 371.00 L 119.40 370.30 L 121.70 370.00 L 125.60 370.70 L 127.30 371.70 L 130.10 374.40 L 142.10 397.70 L 144.00 398.60 L 145.60 399.80 L 147.00 401.40 L 148.10 403.20 L 148.80 405.20 L 149.00 407.40 L 148.50 410.40 L 150.00 413.40 Z" fill="url(#linearGradient-4)" fill-rule="nonzero" group-id="2" id="路径" node-id="46" stroke="none" target-height="88" target-width="58.9" target-x="92.1" target-y="370"></path></g><g node-id="149"><path d="M 240.00 446.00 L 356.00 446.00 L 358.40 446.20 L 360.50 446.80 L 362.60 447.80 L 365.90 450.60 L 368.20 454.50 L 369.00 459.00 L 368.80 461.40 L 368.20 463.50 L 365.90 467.40 L 362.60 470.20 L 360.50 471.20 L 358.40 471.80 L 356.00 472.00 L 240.00 472.00 L 237.60 471.80 L 235.50 471.20 L 233.40 470.20 L 230.10 467.40 L 227.80 463.50 L 227.20 461.40 L 227.00 459.00 L 227.80 454.50 L 230.10 450.60 L 233.40 447.80 L 235.50 446.80 L 237.60 446.20 L 240.00 446.00 Z" fill="#d1d6e2" fill-rule="nonzero" group-id="3" id="矩形" node-id="48" stroke="none" target-height="26" target-width="142" target-x="227" target-y="446"></path><path d="M 276.20 453.90 L 277.80 453.90 L 279.10 453.30 L 280.20 452.30 L 280.80 450.90 L 282.90 440.10 L 300.80 426.80 L 317.50 439.50 L 319.80 450.90 L 320.70 452.70 L 322.30 453.80 L 324.30 453.90 L 326.10 453.00 L 327.20 451.40 L 327.30 449.40 L 307.70 349.80 L 307.10 348.40 L 306.00 347.40 L 304.70 346.80 L 303.20 346.80 L 302.20 347.10 L 300.70 348.50 L 300.30 349.50 L 299.90 348.50 L 298.40 347.10 L 297.40 346.80 L 295.90 346.80 L 294.50 347.40 L 293.50 348.40 L 292.90 349.80 L 273.20 449.40 L 273.20 450.90 L 273.80 452.30 L 274.80 453.30 L 276.20 453.90 Z M 311.50 409.00 L 300.80 417.10 L 289.20 408.30 L 291.60 395.90 L 308.90 395.90 L 311.50 409.00 Z M 285.10 429.00 L 287.50 416.70 L 294.40 421.90 L 285.10 429.00 Z M 307.20 422.00 L 313.20 417.40 L 315.30 428.10 L 307.20 422.00 Z M 300.30 352.10 L 307.40 388.30 L 293.10 388.30 L 300.30 352.10 Z" fill="url(#linearGradient-5)" fill-rule="nonzero" group-id="3" id="形状" node-id="49" stroke="none" target-height="107.100006" target-width="54.099976" target-x="273.2" target-y="346.8"></path><path d="M 289.00 342.50 L 289.70 346.50 L 291.70 349.90 L 294.70 352.40 L 296.50 353.30 L 300.50 354.00 L 304.50 353.30 L 307.90 351.30 L 310.40 348.30 L 311.80 344.60 L 311.80 340.40 L 311.30 338.50 L 309.30 335.10 L 306.30 332.60 L 304.50 331.70 L 300.50 331.00 L 296.50 331.70 L 293.10 333.70 L 290.60 336.70 L 289.70 338.50 L 289.00 342.50 Z" fill="url(#linearGradient-6)" fill-rule="nonzero" group-id="3" id="路径" node-id="50" stroke="none" target-height="23" target-width="22.799988" target-x="289" target-y="331"></path><path d="M 404.20 343.50 L 403.90 350.60 L 403.30 357.40 L 402.10 364.20 L 400.60 370.80 L 398.60 377.30 L 396.20 383.70 L 393.40 389.80 L 390.20 395.80 L 386.60 401.50 L 382.60 407.00 L 378.30 412.30 L 373.60 417.30 L 372.10 418.40 L 370.40 419.10 L 368.60 419.30 L 366.80 419.10 L 365.20 418.40 L 363.70 417.30 L 362.50 415.80 L 361.90 414.10 L 361.60 412.30 L 361.90 410.60 L 362.50 408.90 L 371.50 398.50 L 378.00 388.80 L 380.80 383.60 L 385.30 372.80 L 388.40 361.40 L 390.00 349.60 L 390.20 343.50 L 389.90 336.70 L 389.20 330.20 L 388.00 323.80 L 386.40 317.60 L 384.30 311.50 L 381.90 305.60 L 379.00 300.00 L 375.80 294.60 L 372.20 289.40 L 368.20 284.60 L 364.00 280.00 L 359.40 275.70 L 354.50 271.70 L 349.40 268.10 L 344.00 264.80 L 338.40 261.90 L 332.60 259.40 L 326.50 257.30 L 320.30 255.60 L 313.90 254.40 L 317.00 247.50 L 312.30 240.10 L 320.00 241.30 L 327.50 243.00 L 334.70 245.30 L 341.70 248.00 L 348.50 251.30 L 355.00 255.00 L 361.10 259.10 L 367.00 263.70 L 372.50 268.70 L 377.60 274.00 L 382.40 279.70 L 386.70 285.80 L 390.70 292.10 L 394.10 298.80 L 397.10 305.60 L 399.60 312.90 L 401.60 320.20 L 403.00 327.70 L 403.90 335.50 L 404.20 343.50 Z M 279.80 241.30 L 284.50 247.50 L 282.10 255.10 L 275.90 256.60 L 270.00 258.50 L 264.30 260.70 L 258.70 263.30 L 253.40 266.30 L 248.30 269.60 L 243.40 273.30 L 238.80 277.30 L 234.50 281.50 L 230.50 286.10 L 226.80 290.90 L 223.40 295.90 L 220.30 301.20 L 217.60 306.70 L 215.30 312.40 L 213.40 318.40 L 211.80 324.40 L 210.70 330.60 L 210.10 337.00 L 209.80 343.50 L 210.00 349.40 L 211.50 360.90 L 214.40 371.90 L 218.60 382.40 L 221.20 387.50 L 227.40 397.00 L 234.80 405.80 L 235.90 407.30 L 236.50 409.00 L 236.70 410.80 L 236.40 412.60 L 235.70 414.20 L 234.60 415.70 L 233.00 416.80 L 231.30 417.50 L 229.60 417.60 L 227.80 417.40 L 226.10 416.70 L 224.70 415.50 L 220.20 410.50 L 216.10 405.30 L 212.40 399.90 L 209.00 394.30 L 206.00 388.50 L 203.30 382.50 L 201.10 376.30 L 199.20 370.00 L 197.70 363.50 L 196.70 357.00 L 196.00 350.30 L 195.80 343.50 L 196.10 335.90 L 196.90 328.50 L 198.20 321.40 L 200.00 314.40 L 202.20 307.50 L 204.90 300.90 L 208.00 294.50 L 211.60 288.40 L 215.50 282.50 L 219.90 277.00 L 224.50 271.70 L 229.50 266.80 L 234.90 262.20 L 240.50 258.00 L 246.40 254.20 L 252.70 250.70 L 259.10 247.70 L 265.70 245.10 L 272.60 243.00 L 279.80 241.30 Z M 369.10 338.40 L 368.80 344.60 L 368.00 350.60 L 366.70 356.50 L 364.80 362.20 L 362.50 367.70 L 359.80 373.00 L 356.50 378.10 L 352.90 382.80 L 348.80 387.30 L 347.30 388.40 L 345.60 389.10 L 343.80 389.30 L 342.00 389.10 L 340.40 388.40 L 338.90 387.30 L 337.70 385.80 L 337.00 384.10 L 336.80 382.30 L 337.10 380.60 L 337.70 378.90 L 342.60 373.30 L 345.80 369.00 L 348.50 364.50 L 350.80 359.60 L 352.70 354.60 L 354.00 349.40 L 354.80 344.00 L 355.10 338.40 L 354.80 332.90 L 354.00 327.60 L 352.70 322.50 L 351.00 317.60 L 348.80 312.90 L 346.20 308.50 L 343.20 304.30 L 339.90 300.40 L 336.20 296.90 L 332.20 293.70 L 327.90 290.90 L 323.30 288.50 L 318.50 286.50 L 313.60 285.00 L 308.40 284.00 L 302.90 283.40 L 301.70 281.00 L 306.90 269.70 L 317.20 271.50 L 326.80 274.70 L 335.70 279.30 L 343.90 285.10 L 348.80 289.50 L 353.20 294.40 L 357.20 299.70 L 362.20 308.40 L 365.90 317.80 L 367.30 322.80 L 368.80 333.00 L 369.10 338.40 Z M 276.20 273.60 L 271.90 287.10 L 274.60 289.50 L 270.30 292.00 L 266.30 294.90 L 262.60 298.00 L 259.10 301.60 L 255.90 305.40 L 253.20 309.40 L 250.80 313.70 L 248.70 318.30 L 247.10 323.10 L 245.90 328.00 L 245.20 333.10 L 244.90 338.40 L 245.20 343.80 L 246.00 349.00 L 247.20 354.10 L 248.90 359.00 L 251.10 363.70 L 253.70 368.20 L 256.70 372.40 L 261.30 378.00 L 261.90 379.60 L 262.10 381.40 L 261.80 383.20 L 261.10 384.80 L 260.00 386.30 L 258.40 387.40 L 256.70 388.10 L 255.00 388.30 L 253.20 388.00 L 251.50 387.30 L 250.10 386.10 L 246.20 381.70 L 242.70 377.00 L 239.70 372.10 L 237.10 366.90 L 234.90 361.50 L 233.20 355.90 L 232.00 350.20 L 231.20 344.40 L 230.90 338.40 L 231.20 332.80 L 231.80 327.40 L 232.90 322.20 L 234.30 317.10 L 236.10 312.10 L 240.80 302.80 L 246.80 294.30 L 254.00 286.90 L 262.20 280.60 L 271.30 275.60 L 276.20 273.60 Z M 286.30 300.00 L 295.50 308.30 L 294.60 312.00 L 291.40 313.10 L 288.60 314.50 L 285.90 316.40 L 283.60 318.60 L 281.60 321.10 L 279.90 323.90 L 278.70 326.90 L 278.00 330.20 L 277.70 333.60 L 278.40 339.00 L 279.80 343.90 L 279.80 345.70 L 279.30 347.40 L 278.40 348.90 L 277.20 350.20 L 275.50 351.20 L 273.70 351.60 L 271.90 351.60 L 270.20 351.10 L 268.60 350.20 L 267.30 349.00 L 266.40 347.30 L 264.90 342.90 L 264.00 338.30 L 263.70 333.60 L 264.50 326.20 L 266.60 319.40 L 268.80 315.10 L 271.40 311.30 L 274.60 307.80 L 278.10 304.70 L 282.00 302.10 L 286.30 300.00 Z M 336.30 333.60 L 336.00 338.20 L 335.20 342.60 L 333.80 346.80 L 332.90 348.50 L 331.60 349.80 L 330.10 350.70 L 328.40 351.20 L 326.60 351.20 L 324.70 350.80 L 323.10 349.90 L 321.80 348.70 L 320.90 347.20 L 320.40 345.50 L 320.30 343.80 L 321.60 339.10 L 322.30 333.60 L 322.10 330.60 L 320.60 325.10 L 319.40 322.60 L 316.00 318.10 L 311.70 314.70 L 309.20 313.30 L 315.30 308.30 L 310.60 298.90 L 314.30 300.30 L 320.90 304.00 L 323.90 306.30 L 329.00 311.80 L 332.90 318.40 L 334.40 321.90 L 335.40 325.60 L 336.00 329.50 L 336.30 333.60 Z" fill="url(#linearGradient-7)" fill-rule="nonzero" group-id="3" id="形状结合" node-id="51" stroke="none" target-height="179.19998" target-width="208.40001" target-x="195.8" target-y="240.1"></path><path d="M 477.80 219.70 L 467.00 220.70 L 457.00 221.00 L 447.70 220.90 L 439.00 220.20 L 430.90 219.00 L 423.40 217.30 L 416.30 215.20 L 409.70 212.60 L 403.60 209.70 L 397.80 206.30 L 392.50 202.50 L 389.50 199.60 L 387.10 196.60 L 385.20 193.40 L 383.80 190.00 L 382.90 186.60 L 382.50 183.10 L 382.50 179.70 L 383.00 176.50 L 383.80 173.50 L 385.10 170.60 L 386.70 168.30 L 388.70 166.30 L 392.20 164.30 L 396.60 163.50 L 400.40 163.80 L 403.80 164.60 L 406.90 165.80 L 409.80 167.60 L 412.30 169.70 L 414.60 172.30 L 416.50 175.30 L 418.20 178.90 L 419.50 182.50 L 420.40 186.60 L 421.00 191.10 L 421.20 196.20 L 420.40 206.30 L 418.10 216.60 L 414.40 226.40 L 412.00 231.10 L 406.60 239.60 L 403.40 243.40 L 400.10 246.60 L 396.60 249.40" fill="none" group-id="3" id="路径-20" node-id="52" stroke="url(#linearGradient-8)" stroke-linecap="round" stroke-width="2" target-height="85.899994" target-width="95.29999" target-x="382.5" target-y="163.5"></path><g node-id="150"><path d="M 393.90 238.40 L 391.50 236.80 L 389.20 235.80 L 387.10 235.50 L 385.00 235.70 L 383.00 236.40 L 380.80 237.70 L 378.60 239.80 L 376.20 242.80 L 372.50 249.90 L 371.10 252.00 L 368.50 254.10 L 366.80 254.80 L 373.20 255.10 L 378.40 254.80 L 382.60 254.00 L 385.90 252.80 L 388.60 251.40 L 390.60 249.50 L 392.10 247.40 L 393.20 244.90 L 393.80 241.90 L 393.90 238.40 Z" fill="url(#linearGradient2)" fill-rule="nonzero" group-id="3,4" id="路径-18" node-id="53" stroke="none" target-height="19.600006" target-width="27.100006" target-x="366.8" target-y="235.5"></path></g><g node-id="151"><path d="M 400.20 231.90 L 399.60 233.40 L 398.30 235.20 L 396.10 237.50 L 392.70 240.30 L 387.70 243.60 L 380.70 247.80" fill="none" group-id="3,5" id="路径-19" node-id="54" stroke="url(#linearGradient3)" stroke-linecap="round" stroke-width="1" target-height="15.900009" target-width="19.5" target-x="380.7" target-y="231.9"></path></g><g node-id="152"><path d="M 185.30 431.60 L 183.40 429.40 L 181.50 427.90 L 179.50 427.00 L 177.50 426.60 L 175.30 426.70 L 172.90 427.40 L 170.10 428.80 L 167.00 431.00 L 161.50 436.80 L 159.50 438.40 L 156.50 439.70 L 154.70 439.90 L 160.80 441.90 L 165.90 443.10 L 170.10 443.50 L 173.60 443.30 L 176.50 442.60 L 179.00 441.40 L 181.10 439.80 L 182.80 437.70 L 184.20 435.00 L 185.30 431.60 Z" fill="url(#linearGradient-9)" fill-rule="nonzero" group-id="3,6" id="路径-18备份" node-id="55" stroke="none" target-height="16.899994" target-width="30.600006" target-x="154.7" target-y="426.6"></path></g><g node-id="153"><path d="M 193.10 427.10 L 192.10 428.40 L 190.40 429.80 L 187.70 431.40 L 183.60 433.10 L 177.80 435.00 L 169.90 437.00" fill="none" group-id="3,7" id="路径-19备份" node-id="56" stroke="url(#linearGradient-10)" stroke-linecap="round" stroke-width="1" target-height="9.899994" target-width="23.200012" target-x="169.9" target-y="427.1"></path></g><path d="M 200.60 404.30 L 192.30 407.80 L 184.80 410.50 L 178.20 412.40 L 172.20 413.70 L 166.90 414.50 L 162.20 414.70" fill="none" group-id="3" id="路径-22" node-id="57" stroke="url(#linearGradient-11)" stroke-linecap="round" stroke-width="2" target-height="10.400024" target-width="38.40001" target-x="162.2" target-y="404.3"></path></g></svg>