<?xml version="1.0" standalone="no"?><!DOCTYPE svg PUBLIC "-//W3C//DTD SVG 1.1//EN" "http://www.w3.org/Graphics/SVG/1.1/DTD/svg11.dtd"><svg height="600" node-id="1" sillyvg="true" template-height="600" template-width="600" version="1.1" viewBox="0 0 600 600" width="600" xmlns="http://www.w3.org/2000/svg" xmlns:xlink="http://www.w3.org/1999/xlink"><defs node-id="84"><linearGradient gradientUnits="objectBoundingBox" id="linearGradient-1" node-id="5" spreadMethod="pad" x1="1.4458808" x2="0.29515958" y1="0.66910326" y2="0.67326146"><stop offset="0" stop-color="#e0e5ef" stop-opacity="0"></stop><stop offset="1" stop-color="#e0e5ef"></stop></linearGradient><linearGradient gradientUnits="objectBoundingBox" id="linearGradient-2" node-id="8" spreadMethod="pad" x1="1.4458808" x2="0.29515958" y1="0.669094" y2="0.6732521"><stop offset="0" stop-color="#e0e5ef" stop-opacity="0"></stop><stop offset="1" stop-color="#e0e5ef"></stop></linearGradient><linearGradient gradientUnits="objectBoundingBox" id="linearGradient1" node-id="98" spreadMethod="pad" x1="0.9340618" x2="0.40599933" y1="0.98800004" y2="1"><stop offset="0" stop-color="#e0e5ef" stop-opacity="0"></stop><stop offset="1" stop-color="#e0e5ef"></stop></linearGradient><linearGradient gradientUnits="objectBoundingBox" id="linearGradient-3" node-id="11" spreadMethod="pad" x1="0.9340618" x2="0.40599933" y1="0.98800004" y2="1"><stop offset="0" stop-color="#e0e5ef" stop-opacity="0"></stop><stop offset="1" stop-color="#e0e5ef"></stop></linearGradient><linearGradient gradientUnits="objectBoundingBox" id="linearGradient-4" node-id="14" spreadMethod="pad" x1="0.92518216" x2="0.40792233" y1="0.98800004" y2="1"><stop offset="0" stop-color="#e0e5ef" stop-opacity="0"></stop><stop offset="1" stop-color="#e0e5ef"></stop></linearGradient><linearGradient gradientUnits="objectBoundingBox" id="linearGradient-5" node-id="17" spreadMethod="pad" x1="0.5" x2="-0.31214738" y1="0.4672858" y2="0.31614316"><stop offset="0" stop-color="#e8ebf1" stop-opacity="0.23774004"></stop><stop offset="1" stop-color="#a2abb9"></stop></linearGradient><linearGradient gradientUnits="objectBoundingBox" id="linearGradient2" node-id="123" spreadMethod="pad" x1="0.6734161" x2="0" y1="0.67453957" y2="0.31190035"><stop offset="0" stop-color="#a2abb9"></stop><stop offset="1" stop-color="#e7eaf0"></stop></linearGradient><linearGradient gradientUnits="objectBoundingBox" id="linearGradient-6" node-id="20" spreadMethod="pad" x1="0.6734161" x2="0" y1="0.67453957" y2="0.31190035"><stop offset="0" stop-color="#a2abb9"></stop><stop offset="1" stop-color="#e7eaf0"></stop></linearGradient><linearGradient gradientUnits="objectBoundingBox" id="linearGradient-7" node-id="23" spreadMethod="pad" x1="0.6734161" x2="0" y1="0.7867443" y2="0.19097844"><stop offset="0" stop-color="#a2abb9"></stop><stop offset="1" stop-color="#e7eaf0"></stop></linearGradient><linearGradient gradientUnits="objectBoundingBox" id="linearGradient-8" node-id="26" spreadMethod="pad" x1="0.57532024" x2="0.28283376" y1="1.0695686" y2="-0.11381847"><stop offset="0" stop-color="#a2abb9"></stop><stop offset="1" stop-color="#e7eaf0"></stop></linearGradient><linearGradient gradientUnits="objectBoundingBox" id="linearGradient-9" node-id="29" spreadMethod="pad" x1="0.58204824" x2="0.26343524" y1="1.0695686" y2="-0.11381847"><stop offset="0" stop-color="#a2abb9"></stop><stop offset="1" stop-color="#e7eaf0"></stop></linearGradient><linearGradient gradientUnits="objectBoundingBox" id="linearGradient-10" node-id="32" spreadMethod="pad" x1="0.6734161" x2="0" y1="0.73810536" y2="0.24339618"><stop offset="0" stop-color="#a2abb9"></stop><stop offset="1" stop-color="#e7eaf0"></stop></linearGradient><linearGradient gradientUnits="objectBoundingBox" id="linearGradient-11" node-id="35" spreadMethod="pad" x1="1" x2="0" y1="0.44092217" y2="0.67689866"><stop offset="0" stop-color="#a2abb9"></stop><stop offset="1" stop-color="#e7eaf0"></stop></linearGradient><linearGradient gradientUnits="objectBoundingBox" id="linearGradient3" node-id="166" spreadMethod="pad" x1="0.67341614" x2="0" y1="0.683891" y2="0.30182254"><stop offset="0" stop-color="#a2abb9"></stop><stop offset="1" stop-color="#e7eaf0"></stop></linearGradient><linearGradient gradientUnits="objectBoundingBox" id="linearGradient4" node-id="173" spreadMethod="pad" x1="1" x2="0" y1="0.39076242" y2="0.6207257"><stop offset="0" stop-color="#a2abb9"></stop><stop offset="1" stop-color="#e7eaf0"></stop></linearGradient><linearGradient gradientUnits="objectBoundingBox" id="linearGradient-12" node-id="38" spreadMethod="pad" x1="0.67341614" x2="0" y1="0.683891" y2="0.30182254"><stop offset="0" stop-color="#a2abb9"></stop><stop offset="1" stop-color="#e7eaf0"></stop></linearGradient><linearGradient gradientUnits="objectBoundingBox" id="linearGradient-13" node-id="41" spreadMethod="pad" x1="1" x2="0" y1="0.39076242" y2="0.6207257"><stop offset="0" stop-color="#a2abb9"></stop><stop offset="1" stop-color="#e7eaf0"></stop></linearGradient><linearGradient gradientUnits="objectBoundingBox" id="linearGradient-14" node-id="44" spreadMethod="pad" x1="1.1703563" x2="0.063694365" y1="0.45190796" y2="0.5497409"><stop offset="0" stop-color="#a2abb9"></stop><stop offset="1" stop-color="#e7eaf0"></stop></linearGradient></defs><path d="M 0.00 0.00 L 600.00 0.00 L 600.00 600.00 L 0.00 600.00 Z" fill="#ffffff" fill-rule="evenodd" node-id="200" stroke="none" target-height="600" target-width="600" target-x="0" target-y="0"></path><g node-id="202"><path d="M 297.40 77.00 L 307.60 77.20 L 317.70 77.90 L 327.60 79.00 L 337.30 80.50 L 346.90 82.40 L 356.40 84.70 L 365.70 87.40 L 374.90 90.50 L 383.80 94.00 L 392.50 97.80 L 403.30 103.10 L 413.60 108.90 L 423.60 115.20 L 433.20 122.00 L 415.60 122.20 L 413.50 122.80 L 411.40 123.80 L 408.10 126.60 L 405.80 130.50 L 405.20 132.60 L 405.00 136.00 L 405.20 138.40 L 405.80 140.50 L 406.80 142.60 L 409.60 145.90 L 413.50 148.20 L 415.60 148.80 L 418.00 149.00 L 463.20 149.00 L 469.50 156.10 L 475.40 163.40 L 481.10 170.90 L 486.40 178.80 L 507.90 178.80 L 510.40 179.00 L 512.80 179.60 L 514.90 180.70 L 516.90 182.10 L 518.60 183.70 L 520.00 185.70 L 521.00 187.90 L 521.60 190.20 L 521.90 192.80 L 521.30 197.60 L 520.60 199.50 L 519.00 202.00 L 517.00 204.20 L 514.50 205.90 L 511.80 207.00 L 492.00 207.00 L 489.10 207.30 L 486.40 208.00 L 483.90 209.20 L 481.70 210.80 L 479.80 212.70 L 478.20 214.90 L 477.00 217.40 L 476.30 220.10 L 476.00 228.00 L 476.30 230.90 L 477.00 233.60 L 478.20 236.10 L 479.80 238.30 L 481.70 240.20 L 483.90 241.80 L 486.40 243.00 L 489.10 243.70 L 492.00 244.00 L 559.90 244.00 L 564.20 245.80 L 566.10 247.10 L 569.20 250.50 L 571.30 254.70 L 572.00 259.50 L 571.70 263.30 L 571.00 266.00 L 569.80 268.50 L 568.20 270.70 L 566.30 272.60 L 564.10 274.20 L 561.60 275.40 L 558.90 276.10 L 556.00 276.40 L 520.80 276.40 L 521.60 287.10 L 521.90 298.00 L 521.60 308.50 L 520.90 318.80 L 519.70 328.90 L 518.10 338.90 L 515.90 348.70 L 513.40 358.40 L 510.40 367.90 L 507.00 377.20 L 503.20 386.30 L 499.10 395.20 L 494.50 403.90 L 489.50 412.40 L 484.20 420.60 L 478.60 428.50 L 472.60 436.20 L 466.20 443.70 L 459.60 450.80 L 452.60 457.60 L 445.40 464.20 L 437.80 470.40 L 430.00 476.40 L 421.90 481.90 L 413.60 487.10 L 405.00 492.00 L 396.10 496.50 L 387.10 500.70 L 377.80 504.40 L 368.40 507.70 L 358.70 510.60 L 348.80 513.20 L 338.90 515.20 L 328.80 516.90 L 318.50 518.00 L 308.00 518.70 L 297.40 519.00 L 287.40 518.80 L 277.60 518.20 L 268.00 517.10 L 258.50 515.70 L 249.20 513.90 L 237.60 511.10 L 226.30 507.70 L 215.40 503.80 L 204.70 499.30 L 194.20 494.30 L 184.00 488.80 L 174.30 482.80 L 164.80 476.40 L 155.70 469.40 L 147.00 462.10 L 138.60 454.30 L 130.70 446.10 L 123.20 437.50 L 116.20 428.60 L 109.60 419.30 L 103.50 409.60 L 97.90 399.60 L 92.90 389.30 L 88.30 378.80 L 84.30 367.90 L 74.20 367.70 L 72.80 367.10 L 71.50 366.10 L 70.60 364.80 L 70.00 363.40 L 69.70 361.70 L 70.00 359.90 L 70.80 358.20 L 72.00 356.90 L 73.60 356.00 L 86.40 355.80 L 88.50 355.20 L 90.60 354.20 L 93.90 351.40 L 96.20 347.50 L 96.80 345.40 L 97.00 343.00 L 96.80 339.60 L 96.20 337.50 L 95.20 335.40 L 92.40 332.10 L 90.60 330.80 L 88.50 329.80 L 86.40 329.20 L 75.00 328.80 L 52.90 328.80 L 49.30 328.20 L 47.70 327.40 L 45.00 325.20 L 43.20 322.20 L 42.70 320.40 L 42.70 316.70 L 44.00 313.40 L 46.20 310.70 L 49.30 308.90 L 52.90 308.30 L 73.10 308.30 L 72.90 298.00 L 73.10 288.20 L 73.70 278.50 L 74.80 269.00 L 76.20 259.70 L 78.10 250.50 L 80.90 239.00 L 84.40 227.90 L 88.40 217.10 L 92.90 206.50 L 57.00 206.50 L 53.20 206.20 L 49.50 205.50 L 46.10 204.30 L 42.90 202.70 L 39.90 200.70 L 37.20 198.30 L 34.80 195.60 L 32.80 192.70 L 31.20 189.40 L 30.00 186.00 L 29.30 182.40 L 29.00 178.50 L 29.20 173.20 L 29.90 169.70 L 31.10 166.40 L 32.60 163.20 L 34.50 160.30 L 36.70 157.70 L 39.20 155.30 L 42.00 153.30 L 45.10 151.60 L 48.30 150.30 L 51.70 149.50 L 55.40 149.00 L 182.00 149.00 L 185.50 148.40 L 188.50 146.60 L 190.60 144.00 L 191.40 142.50 L 192.00 139.00 L 191.80 137.20 L 191.40 135.50 L 189.60 132.50 L 187.00 130.40 L 185.50 129.60 L 182.00 129.00 L 152.70 129.00 L 153.40 128.40 L 138.80 128.40 L 135.40 128.10 L 132.20 127.20 L 129.30 125.80 L 126.60 123.90 L 124.30 121.70 L 122.40 119.00 L 121.00 116.00 L 120.20 112.90 L 119.80 109.40 L 120.20 104.90 L 121.00 101.70 L 122.40 98.70 L 124.30 96.10 L 126.60 93.80 L 129.30 91.90 L 132.20 90.50 L 135.40 89.70 L 138.80 89.30 L 223.20 89.30 L 240.90 84.00 L 259.30 80.20 L 278.00 77.80 L 297.40 77.00 Z" fill="#f3f3fa" fill-opacity="0.6015942" fill-rule="evenodd" group-id="1" id="背景" node-id="49" stroke="none" target-height="442" target-width="543" target-x="29" target-y="77"></path></g><path d="M 181.80 214.00 L 174.50 214.00 L 174.20 210.30 L 173.50 206.90 L 172.40 203.70 L 170.80 200.60 L 169.00 197.80 L 166.70 195.20 L 164.20 193.00 L 161.40 191.10 L 158.30 189.60 L 155.00 188.40 L 151.60 187.70 L 148.00 187.50 L 144.30 187.70 L 140.90 188.40 L 137.70 189.60 L 134.60 191.10 L 131.80 193.00 L 129.20 195.20 L 127.00 197.80 L 125.10 200.60 L 123.60 203.70 L 122.40 206.90 L 121.70 210.30 L 121.50 214.00 L 116.10 214.00 L 113.90 214.20 L 111.90 214.80 L 110.00 215.80 L 106.80 218.70 L 104.70 222.60 L 103.90 227.20 L 104.10 229.60 L 105.60 233.90 L 106.80 235.80 L 110.00 238.70 L 111.90 239.60 L 113.90 240.20 L 116.10 240.50 L 181.80 240.50 L 184.00 240.20 L 186.00 239.60 L 189.60 237.40 L 192.30 233.90 L 193.80 229.60 L 194.00 227.20 L 193.80 224.80 L 192.30 220.50 L 189.60 217.10 L 186.00 214.80 L 184.00 214.20 L 181.80 214.00 Z" fill="url(#linearGradient-1)" fill-rule="nonzero" id="路径" node-id="50" stroke="none" target-height="53" target-width="90.1" target-x="103.9" target-y="187.5"></path><path d="M 368.90 138.60 L 363.70 138.60 L 363.30 135.20 L 362.50 132.00 L 361.10 129.00 L 359.20 126.40 L 356.90 124.10 L 354.20 122.20 L 351.30 120.80 L 348.10 120.00 L 344.70 119.60 L 341.20 120.00 L 338.00 120.80 L 335.10 122.20 L 332.40 124.10 L 330.10 126.40 L 328.30 129.00 L 326.80 132.00 L 326.00 135.20 L 325.70 138.60 L 321.80 138.60 L 318.80 139.20 L 317.40 139.90 L 315.70 141.40 L 314.30 143.30 L 313.40 145.60 L 313.10 148.10 L 313.40 150.70 L 314.30 152.90 L 315.70 154.90 L 317.40 156.30 L 320.20 157.50 L 368.90 157.60 L 372.00 157.00 L 373.30 156.30 L 375.10 154.90 L 376.50 152.90 L 377.30 150.70 L 377.60 148.10 L 377.30 145.60 L 376.40 143.30 L 375.10 141.40 L 373.30 139.90 L 370.50 138.80 L 368.90 138.60 Z" fill="url(#linearGradient-2)" fill-rule="nonzero" id="路径" node-id="51" stroke="none" target-height="38.000008" target-width="64.5" target-x="313.1" target-y="119.6"></path><path d="M 284.50 415.00 L 324.70 415.70 L 362.20 417.80 L 396.00 421.10 L 412.30 423.20 L 426.80 425.50 L 439.80 428.00 L 449.30 428.30 L 458.10 429.00 L 466.40 430.10 L 474.60 431.70 L 481.80 433.50 L 488.10 435.60 L 492.80 437.60 L 496.70 439.60 L 502.70 443.70 L 505.10 446.20 L 506.70 448.60 L 507.70 451.00 L 508.00 453.50 L 507.80 455.50 L 506.10 459.40 L 504.60 461.40 L 502.20 463.70 L 499.10 466.00 L 495.10 468.30 L 486.10 472.10 L 480.60 473.80 L 468.90 476.40 L 462.10 477.50 L 452.30 480.20 L 440.70 482.80 L 441.00 486.00 L 440.70 488.80 L 440.10 491.60 L 438.90 494.30 L 437.20 497.10 L 435.00 499.90 L 431.90 502.90 L 428.20 506.00 L 423.60 509.00 L 412.80 514.50 L 400.10 519.30 L 392.70 521.50 L 382.80 523.90 L 372.00 526.00 L 360.30 527.80 L 348.50 529.00 L 336.10 529.70 L 323.00 530.00 L 311.20 529.80 L 300.00 529.20 L 289.30 528.20 L 278.50 526.80 L 268.60 525.10 L 259.30 523.00 L 250.10 520.60 L 241.90 518.00 L 234.60 515.20 L 229.20 512.70 L 220.20 507.60 L 213.10 502.00 L 210.30 499.10 L 208.10 496.10 L 206.60 493.20 L 190.90 491.80 L 162.60 488.60 L 136.80 484.50 L 114.80 479.70 L 105.40 477.10 L 97.50 474.40 L 86.50 469.80 L 82.50 467.60 L 76.90 463.30 L 75.10 461.20 L 73.90 459.30 L 73.20 457.40 L 73.00 455.50 L 73.30 453.50 L 74.10 451.40 L 75.50 449.30 L 77.60 447.10 L 80.60 444.70 L 84.30 442.40 L 89.00 440.00 L 94.80 437.60 L 101.90 435.10 L 111.20 432.30 L 122.10 429.50 L 134.90 426.90 L 162.00 422.50 L 177.80 420.50 L 210.30 417.60 L 246.20 415.70 L 284.50 415.00 Z" fill="#e7eaf0" fill-rule="evenodd" id="形状结合" node-id="52" stroke="none" target-height="115" target-width="435" target-x="73" target-y="415"></path><g node-id="203"><path d="M 463.30 400.60 L 464.00 403.40 L 463.80 405.00 L 463.10 406.50 L 462.00 407.60 L 460.60 408.40 L 447.40 408.70 L 447.50 423.60 L 448.00 432.00 L 439.00 432.00 L 439.30 425.70 L 439.40 409.80 L 438.20 410.50 L 437.00 410.70 L 435.20 410.20 L 433.90 408.80 L 426.80 408.50 L 424.90 407.70 L 423.40 406.40 L 422.60 405.30 L 422.20 404.10 L 422.10 402.00 L 424.60 395.30 L 426.30 393.20 L 436.10 375.20 L 438.90 371.50 L 441.50 370.20 L 443.10 370.00 L 445.30 370.30 L 447.20 371.20 L 448.70 372.50 L 457.70 389.50 L 460.20 391.00 L 461.90 393.40 L 462.60 396.40 L 462.30 398.50 L 463.30 400.60 Z" fill="url(#linearGradient1)" fill-rule="nonzero" group-id="2" id="路径" node-id="54" stroke="none" target-height="62" target-width="41.899994" target-x="422.1" target-y="370"></path><path d="M 503.30 420.60 L 504.00 423.40 L 503.80 425.00 L 503.10 426.50 L 502.00 427.60 L 500.60 428.40 L 487.40 428.70 L 487.50 443.60 L 488.00 452.00 L 479.00 452.00 L 479.30 445.70 L 479.40 429.80 L 478.20 430.50 L 477.00 430.70 L 475.20 430.20 L 473.90 428.80 L 466.80 428.50 L 464.90 427.70 L 463.40 426.40 L 462.60 425.30 L 462.20 424.10 L 462.10 422.00 L 464.60 415.30 L 466.30 413.20 L 476.10 395.20 L 478.90 391.50 L 481.50 390.20 L 483.10 390.00 L 485.30 390.30 L 487.20 391.20 L 488.70 392.50 L 497.70 409.50 L 500.20 411.00 L 501.90 413.40 L 502.60 416.40 L 502.30 418.50 L 503.30 420.60 Z" fill="url(#linearGradient-3)" fill-rule="nonzero" group-id="2" id="路径" node-id="55" stroke="none" target-height="62" target-width="41.899994" target-x="462.1" target-y="390"></path><path d="M 150.00 413.40 L 151.00 417.40 L 150.40 420.40 L 149.70 421.80 L 148.20 423.40 L 146.30 424.50 L 127.60 424.90 L 127.80 446.00 L 128.50 458.00 L 115.90 458.00 L 116.30 449.10 L 116.40 426.40 L 115.40 427.20 L 113.10 427.80 L 110.50 427.10 L 108.70 425.10 L 98.80 424.60 L 95.30 423.00 L 93.90 421.70 L 92.90 420.10 L 92.20 418.30 L 92.10 415.40 L 94.50 409.40 L 95.60 405.80 L 98.00 403.00 L 111.80 377.50 L 113.70 374.60 L 115.80 372.20 L 117.40 371.00 L 119.40 370.30 L 121.70 370.00 L 125.60 370.70 L 127.30 371.70 L 130.10 374.40 L 142.10 397.70 L 144.00 398.60 L 145.60 399.80 L 147.00 401.40 L 148.10 403.20 L 148.80 405.20 L 149.00 407.40 L 148.50 410.40 L 150.00 413.40 Z" fill="url(#linearGradient-4)" fill-rule="nonzero" group-id="2" id="路径" node-id="56" stroke="none" target-height="88" target-width="58.9" target-x="92.1" target-y="370"></path></g><g node-id="204"><path d="M 238.00 467.00 L 430.20 565.00 L 571.00 485.10 L 390.20 429.00 Z" fill="url(#linearGradient-5)" fill-opacity="0.5" fill-rule="nonzero" group-id="3" id="Path-10" node-id="57" stroke="none" target-height="136" target-width="333" target-x="238" target-y="429"></path></g><g node-id="205"><path d="M 321.30 428.70 L 320.60 432.20 L 318.80 435.10 L 316.20 437.20 L 314.60 437.90 L 311.10 438.50 L 307.60 437.80 L 306.10 437.00 L 303.60 434.80 L 301.90 431.80 L 301.30 428.30 L 302.00 424.80 L 303.80 421.90 L 306.40 419.80 L 308.00 419.10 L 311.50 418.50 L 315.00 419.20 L 317.90 421.00 L 320.00 423.60 L 320.70 425.20 L 321.30 428.70 Z" fill="#d1d6e2" fill-rule="nonzero" group-id="4" id="椭圆形备份-3" node-id="59" stroke="none" target-height="20" target-width="20" target-x="301.3" target-y="418.5"></path><path d="M 209.00 447.70 L 208.30 451.20 L 206.50 454.10 L 203.90 456.30 L 202.30 457.00 L 198.80 457.50 L 195.30 456.80 L 192.40 455.10 L 190.20 452.40 L 189.10 449.20 L 189.20 445.50 L 189.60 443.90 L 191.40 440.90 L 194.10 438.80 L 195.60 438.10 L 199.10 437.50 L 202.60 438.20 L 205.50 440.00 L 207.70 442.60 L 208.40 444.20 L 209.00 447.70 Z" fill="#c7cdd8" fill-rule="nonzero" group-id="4" id="椭圆形备份-4" node-id="60" stroke="none" target-height="20" target-width="19.899994" target-x="189.1" target-y="437.5"></path><path d="M 246.50 432.80 L 313.20 444.00 L 322.90 441.60 L 256.40 430.50 Z" fill="#c7cdd8" fill-rule="nonzero" group-id="4" id="路径-36" node-id="61" stroke="none" target-height="13.5" target-width="76.399994" target-x="246.5" target-y="430.5"></path><path d="M 282.60 426.40 L 349.30 437.60 L 359.10 435.20 L 292.60 424.10 Z" fill="#c7cdd8" fill-rule="nonzero" group-id="4" id="路径-36备份-3" node-id="62" stroke="none" target-height="13.5" target-width="76.5" target-x="282.6" target-y="424.1"></path><path d="M 208.30 439.10 L 275.00 453.30 L 284.80 450.90 L 218.30 436.80 Z" fill="#c7cdd8" fill-rule="nonzero" group-id="4" id="路径-36备份-2" node-id="63" stroke="none" target-height="16.5" target-width="76.499985" target-x="208.3" target-y="436.8"></path><path d="M 318.60 421.50 L 383.90 428.20 L 382.30 423.70 L 317.40 416.70 Z" fill="#c7cdd8" fill-rule="nonzero" group-id="4" id="路径-36备份" node-id="64" stroke="none" target-height="11.5" target-width="66.5" target-x="317.4" target-y="416.7"></path><path d="M 264.00 390.60 L 248.20 428.50 L 253.00 427.70 L 268.70 390.10 Z" fill="#c7cdd8" fill-rule="nonzero" group-id="4" id="路径-30" node-id="65" stroke="none" target-height="38.399994" target-width="20.500015" target-x="248.2" target-y="390.1"></path><path d="M 334.40 384.90 L 317.20 443.30 L 321.90 442.30 L 338.80 384.80 Z" fill="#c7cdd8" fill-rule="nonzero" group-id="4" id="路径-27" node-id="66" stroke="none" target-height="58.5" target-width="21.599976" target-x="317.2" target-y="384.8"></path><path d="M 305.50 387.30 L 312.70 417.30 L 197.50 437.60 L 202.40 441.20 L 318.60 421.50 L 310.00 386.50 Z" fill="#c7cdd8" fill-rule="nonzero" group-id="4" id="路径-31" node-id="67" stroke="none" target-height="54.700012" target-width="121.100006" target-x="197.5" target-y="386.5"></path><path d="M 364.80 382.00 L 383.00 427.30 L 252.10 457.60 L 259.60 460.80 L 390.70 431.00 L 370.50 381.20 Z" fill="#c7cdd8" fill-rule="nonzero" group-id="4" id="路径-32" node-id="68" stroke="none" target-height="79.599976" target-width="138.6" target-x="252.1" target-y="381.2"></path><path d="M 263.60 467.70 L 262.90 471.10 L 261.10 474.10 L 258.50 476.20 L 257.00 476.90 L 253.40 477.50 L 250.00 476.80 L 248.40 476.00 L 245.90 473.80 L 244.20 470.80 L 243.60 467.30 L 244.30 463.80 L 246.10 460.90 L 248.70 458.80 L 250.30 458.10 L 253.80 457.50 L 257.30 458.20 L 260.20 460.00 L 262.30 462.60 L 263.10 464.20 L 263.60 467.70 Z" fill="#c7cdd8" fill-rule="nonzero" group-id="4" id="椭圆形备份-5" node-id="69" stroke="none" target-height="20" target-width="20" target-x="243.6" target-y="457.5"></path><path d="M 392.80 437.50 L 392.20 441.00 L 390.40 443.90 L 387.70 446.00 L 386.20 446.70 L 382.70 447.30 L 379.20 446.60 L 376.30 444.80 L 374.10 442.20 L 373.00 439.00 L 373.00 435.30 L 373.50 433.70 L 375.30 430.70 L 377.90 428.60 L 379.50 427.90 L 383.00 427.30 L 386.50 428.00 L 389.40 429.80 L 391.60 432.40 L 392.30 434.00 L 392.80 437.50 Z" fill="#c7cdd8" fill-rule="nonzero" group-id="4" id="椭圆形备份-2" node-id="70" stroke="none" target-height="20" target-width="19.799988" target-x="373" target-y="427.3"></path><path d="M 399.20 295.80 L 407.10 285.70 L 425.50 283.30 L 427.00 281.70 L 427.70 280.50 L 427.80 279.40 L 427.40 278.40 L 426.50 277.40 L 424.70 276.50 L 403.20 279.30 L 391.90 293.80 L 399.20 295.80 Z" fill="url(#linearGradient2)" fill-rule="nonzero" group-id="4" id="路径-37" node-id="71" stroke="none" target-height="19.299988" target-width="35.899994" target-x="391.9" target-y="276.5"></path><path d="M 338.50 282.70 L 346.40 272.60 L 364.80 270.20 L 366.20 268.70 L 366.90 267.40 L 367.00 266.30 L 366.60 265.40 L 365.70 264.40 L 363.90 263.40 L 342.40 266.20 L 331.10 280.80 L 338.50 282.70 Z" fill="url(#linearGradient-6)" fill-rule="nonzero" group-id="4" id="路径-37备份-2" node-id="72" stroke="none" target-height="19.300018" target-width="35.899994" target-x="331.1" target-y="263.4"></path><path d="M 192.80 318.00 L 332.10 278.70 L 330.70 354.20 L 202.40 374.80 Z" fill="url(#linearGradient-7)" fill-rule="nonzero" group-id="4" id="路径-34" node-id="73" stroke="none" target-height="96.099976" target-width="139.3" target-x="192.8" target-y="278.7"></path><path d="M 332.10 278.70 L 330.60 354.60 L 367.20 382.00 L 399.30 295.40 Z" fill="url(#linearGradient-8)" fill-rule="nonzero" group-id="4" id="路径-35" node-id="74" stroke="none" target-height="103.29999" target-width="68.69998" target-x="330.6" target-y="278.7"></path><path d="M 192.80 317.30 L 198.10 377.00 L 242.80 392.80 L 244.00 328.40 Z" fill="url(#linearGradient-9)" fill-rule="nonzero" group-id="4" id="路径-28" node-id="75" stroke="none" target-height="75.5" target-width="51.199997" target-x="192.8" target-y="317.3"></path><path d="M 244.00 328.40 L 399.30 295.40 L 374.20 382.20 L 242.80 392.80 Z" fill="url(#linearGradient-10)" fill-rule="nonzero" group-id="4" id="路径-29" node-id="76" stroke="none" target-height="97.399994" target-width="156.49998" target-x="242.8" target-y="295.4"></path></g><g node-id="206"><path d="M 299.90 218.20 L 289.90 223.20 L 280.60 227.40 L 271.70 230.90 L 263.40 233.70 L 255.50 235.80 L 248.00 237.30 L 240.90 238.30 L 234.20 238.70 L 227.80 238.60 L 221.80 238.10 L 218.30 237.30 L 215.50 236.20 L 213.00 234.80 L 210.90 233.00 L 209.20 231.10 L 207.90 229.00 L 206.90 226.80 L 206.40 224.50 L 206.30 222.30 L 206.60 220.00 L 207.30 217.80 L 208.50 215.80 L 210.00 214.00 L 212.00 212.40 L 214.50 211.10 L 221.10 209.10 L 224.10 208.80 L 227.00 208.90 L 229.80 209.40 L 232.50 210.30 L 235.00 211.60 L 237.40 213.20 L 241.40 217.50 L 243.20 220.30 L 244.70 223.50 L 246.80 230.30 L 247.70 237.90 L 247.20 245.70 L 246.50 249.60 L 244.20 257.20 L 242.50 260.80 L 238.30 267.20" fill="none" group-id="5" id="路径-20" node-id="77" stroke="url(#linearGradient-11)" stroke-linecap="round" stroke-width="2" target-height="58.40001" target-width="93.59999" target-x="206.3" target-y="208.8"></path></g><g node-id="207"><path d="M 218.90 287.40 L 216.50 285.80 L 214.20 284.80 L 212.10 284.50 L 210.00 284.70 L 208.00 285.40 L 205.80 286.70 L 203.60 288.80 L 201.20 291.80 L 197.50 298.90 L 196.10 301.00 L 193.50 303.10 L 191.80 303.80 L 198.20 304.10 L 203.40 303.80 L 207.60 303.00 L 210.90 301.80 L 213.60 300.40 L 215.60 298.50 L 217.10 296.40 L 218.20 293.90 L 218.80 290.90 L 218.90 287.40 Z" fill="url(#linearGradient3)" fill-rule="nonzero" group-id="6" id="路径-18" node-id="78" stroke="none" target-height="19.600006" target-width="27.09999" target-x="191.8" target-y="284.5"></path></g><g node-id="208"><path d="M 225.20 280.90 L 224.60 282.40 L 223.30 284.20 L 221.10 286.50 L 217.70 289.30 L 212.70 292.60 L 205.70 296.80" fill="none" group-id="7" id="路径-19" node-id="79" stroke="url(#linearGradient4)" stroke-linecap="round" stroke-width="1" target-height="15.899994" target-width="19.5" target-x="205.7" target-y="280.9"></path></g><g node-id="209"><path d="M 438.70 238.90 L 436.30 237.10 L 434.20 236.00 L 432.10 235.50 L 430.00 235.50 L 427.90 236.10 L 425.60 237.30 L 423.30 239.20 L 420.70 242.00 L 416.50 248.90 L 414.90 250.90 L 412.20 252.80 L 410.50 253.30 L 416.90 254.10 L 422.10 254.10 L 426.30 253.70 L 429.70 252.70 L 432.40 251.40 L 434.60 249.80 L 436.30 247.70 L 437.50 245.30 L 438.30 242.40 L 438.70 238.90 Z" fill="url(#linearGradient-12)" fill-rule="nonzero" group-id="8" id="路径-18备份" node-id="80" stroke="none" target-height="18.600006" target-width="28.200012" target-x="410.5" target-y="235.5"></path></g><g node-id="210"><path d="M 445.40 232.80 L 444.70 234.30 L 443.30 236.00 L 440.90 238.10 L 437.30 240.60 L 432.10 243.70 L 424.80 247.30" fill="none" group-id="9" id="路径-19备份" node-id="81" stroke="url(#linearGradient-13)" stroke-linecap="round" stroke-width="1" target-height="14.5" target-width="20.600006" target-x="424.8" target-y="232.8"></path></g><path d="M 448.00 209.00 L 440.60 214.10 L 433.80 218.30 L 427.70 221.60 L 422.20 224.10 L 417.10 225.90 L 412.50 227.10" fill="none" group-id="10" id="路径-22" node-id="82" stroke="url(#linearGradient-14)" stroke-linecap="round" stroke-width="2" target-height="18.100006" target-width="35.5" target-x="412.5" target-y="209"></path></svg>