<?xml version="1.0" standalone="no"?><!DOCTYPE svg PUBLIC "-//W3C//DTD SVG 1.1//EN" "http://www.w3.org/Graphics/SVG/1.1/DTD/svg11.dtd"><svg t="1660652911622" class="icon" viewBox="0 0 1024 1024" version="1.1" xmlns="http://www.w3.org/2000/svg" p-id="1558" xmlns:xlink="http://www.w3.org/1999/xlink" width="200" height="200"><defs><style type="text/css">@font-face { font-family: feedback-iconfont; src: url("//at.alicdn.com/t/font_1031158_u69w8yhxdu.woff2?t=1630033759944") format("woff2"), url("//at.alicdn.com/t/font_1031158_u69w8yhxdu.woff?t=1630033759944") format("woff"), url("//at.alicdn.com/t/font_1031158_u69w8yhxdu.ttf?t=1630033759944") format("truetype"); }
</style></defs><path d="M372.224 831.488h-87.04c-7.168 0-12.8 5.632-12.8 12.8s5.632 12.8 12.8 12.8h87.04c7.168 0 12.8-5.632 12.8-12.8s-5.632-12.8-12.8-12.8zM522.24 831.488H435.2c-7.168 0-12.8 5.632-12.8 12.8s5.632 12.8 12.8 12.8h87.04c7.168 0 12.8-5.632 12.8-12.8s-5.632-12.8-12.8-12.8zM372.224 434.688h-87.04c-7.168 0-12.8 5.632-12.8 12.8s5.632 12.8 12.8 12.8h87.04c7.168 0 12.8-5.632 12.8-12.8s-5.632-12.8-12.8-12.8zM434.688 459.776L522.24 460.8c7.168 0 12.8-5.632 12.8-12.8s-5.632-12.8-12.8-12.8l-87.04-1.024c-7.168 0-12.8 5.632-12.8 12.8s5.12 12.8 12.288 12.8zM372.224 534.016h-87.04c-7.168 0-12.8 5.632-12.8 12.8s5.632 12.8 12.8 12.8h87.04c7.168 0 12.8-5.632 12.8-12.8s-5.632-12.8-12.8-12.8zM434.688 559.104l90.624 0.512c7.168 0 12.8-5.632 12.8-12.8s-5.632-12.8-12.8-12.8l-90.112-0.512c-7.168 0-12.8 5.632-12.8 12.8-0.512 7.168 5.12 12.8 12.288 12.8zM372.224 632.832h-87.04c-7.168 0-12.8 5.632-12.8 12.8s5.632 12.8 12.8 12.8h87.04c7.168 0 12.8-5.632 12.8-12.8s-5.632-12.8-12.8-12.8zM435.2 632.832c-7.168 0-12.8 5.632-12.8 12.8s5.632 12.8 12.8 12.8h66.56c7.168 0 12.8-5.632 12.8-12.8s-5.632-12.8-12.8-12.8H435.2zM372.224 732.16h-87.04c-7.168 0-12.8 5.632-12.8 12.8s5.632 12.8 12.8 12.8h87.04c7.168 0 12.8-5.632 12.8-12.8s-5.632-12.8-12.8-12.8zM529.408 732.16H435.2c-7.168 0-12.8 5.632-12.8 12.8s6.144 12.8 12.8 12.8h93.696c7.168 0 12.8-5.632 12.8-12.8s-5.12-12.8-12.288-12.8z" fill="#02160A" p-id="1559"></path><path d="M975.872 366.08c-17.408-73.728-94.72-312.832-360.448-288.768-150.528 13.824-197.632 124.416-212.992 196.608h-107.52c-18.432 0-33.28 14.848-33.28 33.28v35.328h-18.944c-18.432 0-33.28 14.848-33.28 33.28v272.896H51.2c-7.168 0-12.8 5.632-12.8 12.8s6.144 12.8 12.8 12.8h33.28v247.808H51.2c-7.168 0-12.8 5.632-12.8 12.8s6.144 12.8 12.8 12.8h522.752c18.432 0 33.28-14.848 33.28-33.28v-72.704c18.944 16.384 46.08 24.576 81.408 24.576 14.336 0 30.72-1.536 47.616-4.096 78.336-14.336 139.264-54.272 182.272-119.296 88.064-134.144 67.072-334.336 57.344-376.832zM209.408 922.112H110.592v-247.808H209.92v247.808zM287.232 307.2c0-4.096 3.584-7.68 7.68-7.68h224.768c4.096 0 7.68 3.584 7.68 7.68v35.328H287.232V307.2z m610.304 421.888c-38.4 58.88-94.208 95.232-164.864 108.032-54.272 8.704-92.16 2.56-112.128-17.408-22.528-22.528-16.896-57.344-14.848-69.632a12.3904 12.3904 0 0 0-10.752-14.336 13.1584 13.1584 0 0 0-14.848 10.752c-3.072 20.48-2.56 38.912 1.536 54.272v113.664c0 4.096-3.584 7.68-7.68 7.68H235.008V375.808c0-4.096 3.584-7.68 7.68-7.68h311.808c4.096 0 7.68 3.584 7.68 7.68v111.616c0 7.168 5.632 12.8 12.8 12.8s12.8-5.632 12.8-12.8V375.808c0-18.432-14.848-33.28-33.28-33.28h-1.536V307.2c0-18.432-14.848-33.28-33.28-33.28H428.544c16.896-74.752 64-159.232 189.44-170.496 245.248-22.528 316.928 200.192 332.8 268.8 9.728 39.936 29.696 229.888-53.248 356.864z" fill="#02160A" p-id="1560"></path><path d="M741.376 411.136c-7.168-0.512-13.312 4.096-13.824 11.264-7.168 67.072-25.6 122.368-104.448 221.184-4.608 5.632-3.584 13.824 2.048 17.92 2.56 2.048 5.12 2.56 8.192 2.56 3.584 0 7.68-1.536 10.24-4.608 81.92-103.424 102.4-164.352 109.568-234.496 0-7.168-5.12-13.312-11.776-13.824z" fill="#10A957" p-id="1561"></path><path d="M762.88 243.712c-3.072-2.048-7.68-3.072-11.264-1.536a14.336 14.336 0 0 0-8.192 8.192c-8.704 27.648-49.664 102.912-138.752 189.952-73.728 71.68-119.296 126.976-118.784 178.688 0.512 39.424 23.552 118.272 105.984 134.144 3.072 1.024 18.432 4.096 39.936 4.096 51.2 0 137.728-18.944 182.272-135.68 70.656-187.392-19.968-355.84-51.2-377.856z m27.136 368.64c-56.32 149.504-186.88 117.248-192.512 115.712h-1.024c-82.944-15.872-85.504-108.544-85.504-109.568-0.512-36.864 30.208-81.92 111.104-160.256 76.8-74.752 119.296-142.336 137.216-180.224 30.208 43.008 89.6 179.2 30.72 334.336z" fill="#10A957" p-id="1562"></path></svg>