<?xml version="1.0" standalone="no"?><!DOCTYPE svg PUBLIC "-//W3C//DTD SVG 1.1//EN" "http://www.w3.org/Graphics/SVG/1.1/DTD/svg11.dtd"><svg t="1660643402563" class="icon" viewBox="0 0 1024 1024" version="1.1" xmlns="http://www.w3.org/2000/svg" p-id="626" xmlns:xlink="http://www.w3.org/1999/xlink" width="200" height="200"><defs><style type="text/css">@font-face { font-family: feedback-iconfont; src: url("//at.alicdn.com/t/font_1031158_u69w8yhxdu.woff2?t=1630033759944") format("woff2"), url("//at.alicdn.com/t/font_1031158_u69w8yhxdu.woff?t=1630033759944") format("woff"), url("//at.alicdn.com/t/font_1031158_u69w8yhxdu.ttf?t=1630033759944") format("truetype"); }
</style></defs><path d="M512 928a416 416 0 1 1 416-416 416 416 0 0 1-416 416z m0-768a352 352 0 1 0 352 352A352 352 0 0 0 512 160z" p-id="627"></path><path d="M512 930.56A418.88 418.88 0 1 1 930.56 512 418.88 418.88 0 0 1 512 930.56z m0-832a412.8 412.8 0 1 0 292.48 704A408 408 0 0 0 924.16 512 412.8 412.8 0 0 0 512 99.2z m0 768A355.52 355.52 0 1 1 867.52 512 355.84 355.84 0 0 1 512 866.56z m0-704A349.12 349.12 0 1 0 861.12 512 349.76 349.76 0 0 0 512 162.24z" p-id="628"></path><path d="M427.52 749.76a32 32 0 0 1-32-32V356.8a32 32 0 0 1 64 0v361.6a32 32 0 0 1-32 31.36z" p-id="629"></path><path d="M427.52 752.96a34.24 34.24 0 0 1-34.88-34.56v-361.6a34.88 34.88 0 1 1 69.76 0v361.6a34.24 34.24 0 0 1-34.88 34.56z m0-424.64a27.84 27.84 0 0 0-28.48 28.48v361.6a28.48 28.48 0 0 0 56.96 0v-361.6a27.84 27.84 0 0 0-28.48-28.48z" p-id="630"></path><path d="M576 573.12h-148.48a32 32 0 0 1-32-32v-184.32a32 32 0 0 1 32-32H576a124.16 124.16 0 1 1 0 248z m-117.76-64H576a61.12 61.12 0 1 0 0-121.92h-116.8z" p-id="631"></path><path d="M576 576h-148.48a34.24 34.24 0 0 1-34.88-34.56v-184.64a34.56 34.56 0 0 1 34.88-34.88H576a128 128 0 1 1 0 256z m-149.44-248a27.84 27.84 0 0 0-28.48 28.48v184.96a27.84 27.84 0 0 0 28.48 28.48H576a120.96 120.96 0 0 0 0-241.92zM576 512h-120v-128H576a64 64 0 1 1 0 128z m-114.56-6.4H576a57.92 57.92 0 1 0 0-115.52h-113.6z" p-id="632"></path></svg>