<?xml version="1.0" standalone="no"?><!DOCTYPE svg PUBLIC "-//W3C//DTD SVG 1.1//EN" "http://www.w3.org/Graphics/SVG/1.1/DTD/svg11.dtd"><svg t="1660647753166" class="icon" viewBox="0 0 1025 1024" version="1.1" xmlns="http://www.w3.org/2000/svg" p-id="6263" xmlns:xlink="http://www.w3.org/1999/xlink" width="200.1953125" height="200"><defs><style type="text/css">@font-face { font-family: feedback-iconfont; src: url("//at.alicdn.com/t/font_1031158_u69w8yhxdu.woff2?t=1630033759944") format("woff2"), url("//at.alicdn.com/t/font_1031158_u69w8yhxdu.woff?t=1630033759944") format("woff"), url("//at.alicdn.com/t/font_1031158_u69w8yhxdu.ttf?t=1630033759944") format("truetype"); }
</style></defs><path d="M510.287625 227.745819c-123.29097 0-224.32107 101.0301-224.32107 224.321071 0 123.29097 101.0301 224.32107 224.32107 224.32107 123.29097 0 224.32107-101.0301 224.321071-224.32107 1.712375-123.29097-99.317726-224.32107-224.321071-224.321071z m0 27.397994c17.123746 0 27.397993 11.986622 27.397994 27.397993 0 17.123746-11.986622 27.397993-27.397994 27.397993-17.123746 0-27.397993-11.986622-27.397993-27.397993 0-15.411371 11.986622-27.397993 27.397993-27.397993z m0 380.147157c-83.906355 0-154.113712-70.207358-154.113712-154.113712s70.207358-154.113712 154.113712-154.113713 154.113712 70.207358 154.113713 154.113713c1.712375 83.906355-68.494983 154.113712-154.113713 154.113712z" fill="#1A1A1A" p-id="6264"></path><path d="M996.602007 0H25.685619C11.986622 0 0 11.986622 0 25.685619v972.628762c0 13.698997 11.986622 25.685619 25.685619 25.685619h972.628762c13.698997 0 25.685619-11.986622 25.685619-25.685619V25.685619C1022.287625 11.986622 1010.301003 0 996.602007 0zM606.180602 715.772575l37.672241 97.605351c0 20.548495-17.123746 37.672241-37.672241 37.672241H416.107023c-20.548495 0-37.672241-17.123746-37.67224-37.672241l37.67224-97.605351c-107.879599-39.384615-184.936455-142.12709-184.936454-263.705685 0-154.113712 126.715719-280.829431 280.829431-280.829432s280.829431 126.715719 280.829431 280.829432c0 121.578595-78.769231 224.32107-186.648829 263.705685z" fill="#1A1A1A" p-id="6265"></path><path d="M534.26087 726.046823h-46.234114c-5.137124 0-10.274247 3.424749-10.274248 8.561873L462.341137 804.816054h97.605351l-15.411371-68.494984c0-6.849498-5.137124-10.274247-10.274247-10.274247z" fill="#1A1A1A" p-id="6266"></path></svg>