<?xml version="1.0" encoding="UTF-8"?>
<svg width="1440px" height="1024px" viewBox="0 0 1440 1024" version="1.1" xmlns="http://www.w3.org/2000/svg" xmlns:xlink="http://www.w3.org/1999/xlink">
    <title>BG-3</title>
    <g id="BG-3" stroke="none" stroke-width="1" fill="none" fill-rule="evenodd">
        <rect fill="#FAFEFF" x="0" y="0" width="1440" height="1024"></rect>
        <g id="Interface_BG" transform="translate(1077.000000, 642.000000)" fill-rule="nonzero">
            <circle id="Shape" fill="#CDE2FF" cx="86" cy="86" r="86"></circle>
            <path d="M119.895617,111.421511 L107.124542,98.6482552 C105.967963,97.5013659 104.213603,97.2094569 102.748062,97.9200507 L97.4110427,92.5816041 C105.305533,83.6927668 104.703261,70.1369565 96.0515957,61.9835014 C87.399931,53.8300464 73.8345936,54.0340942 65.4319886,62.4440771 C57.0293836,70.85406 56.8349609,84.4218541 64.9931386,93.0692295 C73.1513164,101.716605 86.7052352,102.309397 95.586972,94.4072764 L100.923733,99.7446908 C100.213517,101.210475 100.505239,102.964934 101.651556,104.121918 L114.422631,116.895173 C115.93842,118.379403 118.366329,118.366584 119.866367,116.866432 C121.366405,115.366279 121.37945,112.937956 119.895617,111.421769 L119.895617,111.421511 Z M81.0387825,94.804726 C73.0381761,94.804726 66.1516396,89.1523108 64.5907215,81.3041096 C63.0298033,73.4559084 67.2292434,65.5978162 74.6208211,62.5355487 C82.0123988,59.4732811 90.5374449,62.0597272 94.9823598,68.7131132 C99.4272746,75.3664991 98.5540805,84.2337537 92.8967902,89.8919952 C89.758611,93.0475858 85.488769,94.8165449 81.0387825,94.804726 L81.0387825,94.804726 Z" id="Shape" fill="#FFFFFF"></path>
        </g>
        <g id="Interface_BG" transform="translate(749.000000, 180.000000)" fill-rule="nonzero">
            <path d="M50,0 L561,0 C588.614237,0 611,22.3857625 611,50 L611,386 C611,413.614237 588.614237,436 561,436 L50,436 C22.3857625,436 0,413.614237 0,386 L0,50 C0,22.3857625 22.3857625,0 50,0 Z" id="Shape" fill="#E3EEFF"></path>
            <path d="M68,88 L209,88 C225.568542,88 239,101.431458 239,118 L239,369 C239,385.568542 225.568542,399 209,399 L68,399 C51.4314575,399 38,385.568542 38,369 L38,118 C38,101.431458 51.4314575,88 68,88 Z" id="Shape" fill="#FAFEFF"></path>
            <path d="M298,88 L549,88 C565.568542,88 579,101.431458 579,118 L579,369 C579,385.568542 565.568542,399 549,399 L298,399 C281.431458,399 268,385.568542 268,369 L268,118 C268,101.431458 281.431458,88 298,88 Z" id="Shape" fill="#FAFEFF"></path>
            <path d="M50,0 L561,0 C588.614237,0 611,22.3857625 611,50 L611,55 L0,55 L0,50 C0,22.3857625 22.3857625,0 50,0 Z" id="Shape" fill="#CDE2FF"></path>
            <circle id="Shape" fill="#FAFEFF" cx="53.5" cy="28.5" r="15.5"></circle>
            <circle id="Shape" fill="#FAFEFF" cx="109.5" cy="28.5" r="15.5"></circle>
        </g>
        <g id="Interface_BG" transform="translate(99.000000, 478.000000)" fill-rule="nonzero">
            <path d="M20,0 L378,0 C389.045695,0 398,8.954305 398,20 L398,120 C398,131.045695 389.045695,140 378,140 L20,140 C8.954305,140 0,131.045695 0,120 L0,20 C0,8.954305 8.954305,0 20,0 Z" id="Shape" fill="#E3EEFF"></path>
            <path d="M20,0 L148,0 L148,140 L20,140 C8.954305,140 0,131.045695 0,120 L0,20 C0,8.954305 8.954305,0 20,0 Z" id="Shape" fill="#CDE2FF"></path>
            <path d="M177.5,37 L361.5,37 C363.985281,37 366,39.0147186 366,41.5 C366,43.9852814 363.985281,46 361.5,46 L177.5,46 C175.014719,46 173,43.9852814 173,41.5 C173,39.0147186 175.014719,37 177.5,37 Z" id="Shape" fill="#FFFFFF"></path>
            <path d="M177.5,66 L361.5,66 C363.985281,66 366,68.0147186 366,70.5 C366,72.9852814 363.985281,75 361.5,75 L177.5,75 C175.014719,75 173,72.9852814 173,70.5 C173,68.0147186 175.014719,66 177.5,66 Z" id="Shape" fill="#FFFFFF"></path>
            <path d="M177.5,95 L361.5,95 C363.985281,95 366,97.0147186 366,99.5 C366,101.985281 363.985281,104 361.5,104 L177.5,104 C175.014719,104 173,101.985281 173,99.5 C173,97.0147186 175.014719,95 177.5,95 Z" id="Shape" fill="#FFFFFF"></path>
        </g>
        <g id="Interface_BG" opacity="0.800000012" transform="translate(254.000000, 184.000000)" fill-rule="nonzero">
            <path d="M20,0 L378,0 C389.045695,0 398,8.954305 398,20 L398,220 C398,231.045695 389.045695,240 378,240 L20,240 C8.954305,240 0,231.045695 0,220 L0,20 C0,8.954305 8.954305,0 20,0 Z" id="Shape" fill="#CDE2FF"></path>
            <path d="M57.5,201 L341.5,201 C343.985281,201 346,203.014719 346,205.5 C346,207.985281 343.985281,210 341.5,210 L57.5,210 C55.0147186,210 53,207.985281 53,205.5 C53,203.014719 55.0147186,201 57.5,201 Z" id="Shape" fill="#FFFFFF"></path>
            <path d="M57.5,201 L163.924242,201 C166.409524,201 168.424242,203.014719 168.424242,205.5 C168.424242,207.985281 166.409524,210 163.924242,210 L57.5,210 C55.0147186,210 53,207.985281 53,205.5 C53,203.014719 55.0147186,201 57.5,201 Z" id="Shape" fill="#E3EEFF"></path>
            <path d="M199.5,162 C170.505051,162 147,138.494949 147,109.5 C147,80.5050506 170.505051,57 199.5,57 C228.494949,57 252,80.5050506 252,109.5 C252,138.494949 228.494949,162 199.5,162 Z M199.5,154.881356 C224.563431,154.881356 244.881356,134.563431 244.881356,109.5 C244.881356,84.4365692 224.563431,64.1186441 199.5,64.1186441 C174.436569,64.1186441 154.118644,84.4365692 154.118644,109.5 C154.118644,134.563431 174.436569,154.881356 199.5,154.881356 Z" id="Shape" fill="#FFFFFF"></path>
            <path d="M194.355413,92.074821 L216.818465,106.78521 C218.204551,107.692917 218.592354,109.552403 217.684647,110.938489 C217.458567,111.283718 217.163694,111.578592 216.818465,111.804672 L194.355413,126.515061 C192.969327,127.422768 191.10984,127.034965 190.202134,125.648879 C189.882252,125.160413 189.711864,124.589216 189.711864,124.00533 L189.711864,94.5845517 C189.711864,92.9276975 191.05501,91.5845517 192.711864,91.5845517 C193.295751,91.5845517 193.866947,91.7549392 194.355413,92.074821 Z" id="Shape" fill="#FFFFFF"></path>
        </g>
        <g id="Interface_BG" transform="translate(176.000000, 672.000000)" fill-rule="nonzero">
            <path d="M20,0 L378,0 C389.045695,0 398,8.954305 398,20 L398,90 C398,101.045695 389.045695,110 378,110 L20,110 C8.954305,110 0,101.045695 0,90 L0,20 C0,8.954305 8.954305,0 20,0 Z" id="Shape" fill="#E3EEFF"></path>
            <circle id="Shape" fill="#CDE2FF" cx="75" cy="55" r="41"></circle>
            <path d="M147.5,37 L371.5,37 C373.985281,37 376,39.0147186 376,41.5 C376,43.9852814 373.985281,46 371.5,46 L147.5,46 C145.014719,46 143,43.9852814 143,41.5 C143,39.0147186 145.014719,37 147.5,37 Z" id="Shape" fill="#FFFFFF"></path>
            <path d="M147.5,66 L371.5,66 C373.985281,66 376,68.0147186 376,70.5 C376,72.9852814 373.985281,75 371.5,75 L147.5,75 C145.014719,75 143,72.9852814 143,70.5 C143,68.0147186 145.014719,66 147.5,66 Z" id="Shape" fill="#FFFFFF"></path>
        </g>
        <g id="Interface_BG" transform="translate(634.000000, 702.000000)" fill-rule="nonzero">
            <path d="M20,0 L378,0 C389.045695,0 398,8.954305 398,20 L398,130 C398,141.045695 389.045695,150 378,150 L20,150 C8.954305,150 0,141.045695 0,130 L0,20 C0,8.954305 8.954305,0 20,0 Z" id="Shape" fill="#E3EEFF"></path>
            <path d="M47.5,37 L351.5,37 C353.985281,37 356,39.0147186 356,41.5 C356,43.9852814 353.985281,46 351.5,46 L47.5,46 C45.0147186,46 43,43.9852814 43,41.5 C43,39.0147186 45.0147186,37 47.5,37 Z" id="Shape" fill="#FFFFFF"></path>
            <path d="M47.5,71 L351.5,71 C353.985281,71 356,73.0147186 356,75.5 C356,77.9852814 353.985281,80 351.5,80 L47.5,80 C45.0147186,80 43,77.9852814 43,75.5 C43,73.0147186 45.0147186,71 47.5,71 Z" id="Shape" fill="#FFFFFF"></path>
            <path d="M47.5,106 L351.5,106 C353.985281,106 356,108.014719 356,110.5 C356,112.985281 353.985281,115 351.5,115 L47.5,115 C45.0147186,115 43,112.985281 43,110.5 C43,108.014719 45.0147186,106 47.5,106 Z" id="Shape" fill="#FFFFFF"></path>
        </g>
    </g>
</svg>