<?xml version="1.0" encoding="UTF-8"?>
<svg width="1440px" height="1024px" viewBox="0 0 1440 1024" version="1.1" xmlns="http://www.w3.org/2000/svg" xmlns:xlink="http://www.w3.org/1999/xlink">
    <title>BG-4</title>
    <g id="BG-4" stroke="none" stroke-width="1" fill="none" fill-rule="evenodd">
        <rect fill="#FAFEFF" x="0" y="0" width="1440" height="1024"></rect>
        <g id="Clouds_BG" transform="translate(156.000000, 221.000000)">
            <path d="M0,311 C1.26901491,295.877664 13.9451989,284 29.39556,284 C29.6214747,284 29.8467962,284.002539 30.0714977,284.007591 C31.3282853,282.588582 32.6743146,281.250429 34.1007934,280.001925 C35.8308338,265.358311 48.286759,254 63.39556,254 C65.469701,254 67.4938462,254.214057 69.4471093,254.621286 C80.711423,241.969045 97.1228564,234 115.39556,234 C134.957227,234 152.385772,243.132977 163.649788,257.367524 C165.53078,257.125039 167.448568,257 169.39556,257 C184.216005,257 197.34429,264.244998 205.431893,275.386472 C208.258646,274.485973 211.27035,274 214.39556,274 C230.68796,274 243.89556,287.2076 243.89556,303.5 C243.89556,306.091637 243.561363,308.605219 242.933714,311 L0,311 L0,311 Z" id="Shape" fill="#CDE2FF" fill-rule="nonzero"></path>
            <path d="M120,451 C121.269015,435.877664 133.945199,424 149.39556,424 C149.621475,424 149.846796,424.002539 150.071498,424.007591 C151.328285,422.588582 152.674315,421.250429 154.100793,420.001925 C155.830834,405.358311 168.286759,394 183.39556,394 C185.469701,394 187.493846,394.214057 189.447109,394.621286 C200.711423,381.969045 217.122856,374 235.39556,374 C254.957227,374 272.385772,383.132977 283.649788,397.367524 C285.53078,397.125039 287.448568,397 289.39556,397 C304.216005,397 317.34429,404.244998 325.431893,415.386472 C328.258646,414.485973 331.27035,414 334.39556,414 C350.68796,414 363.89556,427.2076 363.89556,443.5 C363.89556,446.091637 363.561363,448.605219 362.933714,451 L120,451 L120,451 Z" id="Shape" fill="#F0F6FF"></path>
            <path d="M519,541 C520.669654,521.164209 537.347822,505.584416 557.676,505.584416 C557.973238,505.584416 558.269696,505.587747 558.565337,505.594373 C560.218904,503.733075 561.989887,501.977835 563.866718,500.340187 C566.142947,481.13233 582.531319,466.233766 602.410103,466.233766 C605.139069,466.233766 607.802254,466.514543 610.37218,467.0487 C625.192738,450.452903 646.785407,440 670.826966,440 C696.564425,440 719.495318,451.97962 734.315484,470.650908 C736.790321,470.332843 739.313572,470.168831 741.875247,470.168831 C761.374638,470.168831 778.64764,479.67201 789.288571,494.286151 C793.007755,493.104977 796.970281,492.467532 801.082147,492.467532 C822.518203,492.467532 839.89556,509.791787 839.89556,531.162338 C839.89556,534.561758 839.455854,537.858793 838.630051,541 L519,541 L519,541 Z" id="Shape" fill="#F0F6FF"></path>
            <path d="M884,409 C885.269015,393.877664 897.945199,382 913.39556,382 C913.621475,382 913.846796,382.002539 914.071498,382.007591 C915.328285,380.588582 916.674315,379.250429 918.100793,378.001925 C919.830834,363.358311 932.286759,352 947.39556,352 C949.469701,352 951.493846,352.214057 953.447109,352.621286 C964.711423,339.969045 981.122856,332 999.39556,332 C1018.95723,332 1036.38577,341.132977 1047.64979,355.367524 C1049.53078,355.125039 1051.44857,355 1053.39556,355 C1068.21601,355 1081.34429,362.244998 1089.43189,373.386472 C1092.25865,372.485973 1095.27035,372 1098.39556,372 C1114.68796,372 1127.89556,385.2076 1127.89556,401.5 C1127.89556,404.091637 1127.56136,406.605219 1126.93371,409 L884,409 L884,409 Z" id="Shape" fill="#CDE2FF" fill-rule="nonzero"></path>
            <path d="M766,254 C767.269015,238.877664 779.945199,227 795.39556,227 C795.621475,227 795.846796,227.002539 796.071498,227.007591 C797.328285,225.588582 798.674315,224.250429 800.100793,223.001925 C801.830834,208.358311 814.286759,197 829.39556,197 C831.469701,197 833.493846,197.214057 835.447109,197.621286 C846.711423,184.969045 863.122856,177 881.39556,177 C900.957227,177 918.385772,186.132977 929.649788,200.367524 C931.53078,200.125039 933.448568,200 935.39556,200 C950.216005,200 963.34429,207.244998 971.431893,218.386472 C974.258646,217.485973 977.27035,217 980.39556,217 C996.68796,217 1009.89556,230.2076 1009.89556,246.5 C1009.89556,249.091637 1009.56136,251.605219 1008.93371,254 L766,254 L766,254 Z" id="Shape" fill="#F0F6FF"></path>
            <circle id="Shape" fill="#CDE2FF" fill-rule="nonzero" cx="144.5" cy="53.5" r="53.5"></circle>
        </g>
        <g id="Phone" transform="translate(394.000000, 269.000000)">
            <path d="M12,0 L303,0 C309.627417,0 315,5.372583 315,12 L315,593 C315,599.627417 309.627417,605 303,605 L12,605 C5.372583,605 0,599.627417 0,593 L0,12 C0,5.372583 5.372583,0 12,0 Z" id="Shape" fill="#CDE2FF" fill-rule="nonzero"></path>
            <path d="M89.4941663,14 L96.2268245,28.2109323 C98.2121735,32.4015 102.43426,35.0731707 107.071335,35.0731707 L210.491507,35.0731707 C215.128582,35.0731707 219.350668,32.4015 221.336017,28.2109323 L228.068675,14 L289,14 C295.627417,14 301,19.372583 301,26 L301,578 C301,584.627417 295.627417,590 289,590 L27,590 C20.372583,590 15,584.627417 15,578 L15,26 C15,19.372583 20.372583,14 27,14 L89.4941663,14 Z" id="Path" fill="#F0F6FF"></path>
            <circle id="Shape" fill="#CDE2FF" fill-rule="nonzero" cx="58" cy="83" r="24"></circle>
            <path d="M40,128 C34.4771525,128 30,132.477153 30,138 L30,317.023841 C30,322.546688 34.4771525,327.023841 40,327.023841 L275,327.023841 C280.522847,327.023841 285,322.546688 285,317.023841 L285,138 C285,132.477153 280.522847,128 275,128 L40,128 Z M40,124 L275,124 C282.731986,124 289,130.268014 289,138 L289,317.023841 C289,324.755827 282.731986,331.023841 275,331.023841 L40,331.023841 C32.2680135,331.023841 26,324.755827 26,317.023841 L26,138 C26,130.268014 32.2680135,124 40,124 Z" id="Shape" fill="#CDE2FF" fill-rule="nonzero"></path>
            <path d="M46,366 L71,366 C77.627417,366 83,371.372583 83,378 L83,477.023841 C83,483.651258 77.627417,489.023841 71,489.023841 L46,489.023841 C39.372583,489.023841 34,483.651258 34,477.023841 L34,378 C34,371.372583 39.372583,366 46,366 Z" id="Shape" fill="#CDE2FF" fill-rule="nonzero"></path>
            <path d="M111,416 L136,416 C142.627417,416 148,421.372583 148,428 L148,477.023841 C148,483.651258 142.627417,489.023841 136,489.023841 L111,489.023841 C104.372583,489.023841 99,483.651258 99,477.023841 L99,428 C99,421.372583 104.372583,416 111,416 Z" id="Shape" fill="#CDE2FF" fill-rule="nonzero"></path>
            <path d="M240,426 L265,426 C271.627417,426 277,431.372583 277,438 L277,477.023841 C277,483.651258 271.627417,489.023841 265,489.023841 L240,489.023841 C233.372583,489.023841 228,483.651258 228,477.023841 L228,438 C228,431.372583 233.372583,426 240,426 Z" id="Shape" fill="#CDE2FF" fill-rule="nonzero"></path>
            <path d="M176,376 L201,376 C207.627417,376 213,381.372583 213,388 L213,477.023841 C213,483.651258 207.627417,489.023841 201,489.023841 L176,489.023841 C169.372583,489.023841 164,483.651258 164,477.023841 L164,388 C164,381.372583 169.372583,376 176,376 Z" id="Shape" fill="#CDE2FF" fill-rule="nonzero"></path>
            <path d="" id="Shape" fill-rule="nonzero"></path>
            <path d="M54.7874684,304.904428 C54.2879664,305.889604 53.0843971,306.283321 52.0992213,305.783819 C51.1140454,305.284317 50.7203289,304.080748 51.2198309,303.095572 L87.6336385,231.276029 C93.1281605,220.439094 106.367422,216.108213 117.204357,221.602735 C121.94783,224.007762 125.659516,228.049681 127.652507,232.98047 L136.804899,255.624084 C140.251257,264.150596 149.957186,268.268876 158.483699,264.822518 C163.951368,262.612524 167.842287,257.675379 168.713051,251.842605 L177.941534,190.025981 C179.308814,180.867308 187.841785,174.551137 197.000457,175.918417 C202.696559,176.768777 207.557608,180.483052 209.874796,185.755558 L211.525022,189.510468 C215.52477,198.611456 226.145016,202.746829 235.246004,198.747081 C239.509622,196.873285 242.881025,193.419889 244.651849,189.112486 L262.68854,145.239533 C263.108534,144.217927 264.277182,143.730225 265.298788,144.150219 C266.320394,144.570213 266.808097,145.738861 266.388102,146.760467 L248.351412,190.633419 C246.18707,195.898024 242.066467,200.11884 236.855379,202.409036 C225.731948,207.297617 212.751648,202.243273 207.863067,191.119842 L206.212841,187.364932 C204.44845,183.350254 200.747069,180.52207 196.40985,179.874575 C189.436103,178.833478 182.938788,183.642841 181.897691,190.616588 L172.669208,252.433212 C171.589278,259.667081 166.763719,265.79018 159.982658,268.531039 C149.407985,272.805248 137.370588,267.697714 133.096379,257.123042 L123.943987,234.479429 C122.313358,230.445147 119.276524,227.138122 115.3955,225.170373 C106.528917,220.674855 95.696794,224.218303 91.201276,233.084886 L54.7874684,304.904428 Z" id="Shape" fill="#CDE2FF" fill-rule="nonzero"></path>
            <path d="M35.02844,516.176497 L138.441505,516.176497 C142.323206,516.176497 145.469945,519.323237 145.469945,523.204937 C145.469945,527.086638 142.323206,530.233377 138.441505,530.233377 L35.02844,530.233377 C31.1467398,530.233377 28,527.086638 28,523.204937 C28,519.323237 31.1467398,516.176497 35.02844,516.176497 Z" id="Shape" fill="#CDE2FF" fill-rule="nonzero"></path>
            <path d="M93,68.1764973 L140.469945,68.1764973 C143.231369,68.1764973 145.469945,70.4150735 145.469945,73.1764973 C145.469945,75.937921 143.231369,78.1764973 140.469945,78.1764973 L93,78.1764973 C90.2385763,78.1764973 88,75.937921 88,73.1764973 C88,70.4150735 90.2385763,68.1764973 93,68.1764973 Z" id="Shape" fill="#CDE2FF" fill-rule="nonzero"></path>
            <path d="M93,86.1764973 L180.469945,86.1764973 C183.231369,86.1764973 185.469945,88.4150735 185.469945,91.1764973 C185.469945,93.937921 183.231369,96.1764973 180.469945,96.1764973 L93,96.1764973 C90.2385763,96.1764973 88,93.937921 88,91.1764973 C88,88.4150735 90.2385763,86.1764973 93,86.1764973 Z" id="Shape" fill="#CDE2FF" fill-rule="nonzero"></path>
            <path d="M35.02844,552.724385 L279.97156,552.724385 C283.85326,552.724385 287,555.871125 287,559.752825 C287,563.634526 283.85326,566.781265 279.97156,566.781265 L35.02844,566.781265 C31.1467398,566.781265 28,563.634526 28,559.752825 C28,555.871125 31.1467398,552.724385 35.02844,552.724385 Z" id="Shape" fill="#CDE2FF" fill-rule="nonzero"></path>
        </g>
    </g>
</svg>