<?xml version="1.0" standalone="no"?><!DOCTYPE svg PUBLIC "-//W3C//DTD SVG 1.1//EN" "http://www.w3.org/Graphics/SVG/1.1/DTD/svg11.dtd"><svg t="1675452894135" class="icon" viewBox="0 0 1024 1024" version="1.1" xmlns="http://www.w3.org/2000/svg" p-id="4160" xmlns:xlink="http://www.w3.org/1999/xlink" width="200" height="200"><path d="M619.86 813.46H404.14l-27.06 83.72c-5.43 16.71-23.48 25.74-40.18 20.31-16.24-5.41-25.72-23.45-20.31-40.16l115.99-356.97c-4.51-3.63-9.03-7.23-13.08-11.51l-1.83-2.03c-22.55-23.71-36.55-55.73-36.55-90.72 0-36.12 14.9-69.04 38.38-92.52 23.68-23.68 56.4-38.36 92.49-38.36 36.12 0 69.07 14.67 92.52 38.36 23.92 23.48 38.36 56.4 38.36 92.52 0 36.09-14.44 68.6-38.13 92.52h-0.23l0.23 0.23c-4.27 4.27-8.34 7.88-13.31 11.51L707.2 877.33a31.495 31.495 0 0 1-20.31 40.16c-16.71 5.43-34.52-3.6-39.95-20.31l-27.08-83.72z m-231.5-271.45c-16.71-16.24-30.25-36.1-39.26-57.77-8.57-21.21-13.54-43.99-13.54-68.14 0-48.73 19.85-92.96 51.67-124.57 32.28-32.03 76.04-51.9 124.77-51.9 48.75 0 92.75 19.87 124.8 51.9 31.82 31.61 51.67 75.83 51.67 124.57 0 24.15-4.51 46.93-13.77 68.14l-0.44 1.36c-9.03 21.21-22.34 40.39-38.59 56.4-7.23 7.23-7.23 19.41 0 26.85 7.21 7.46 19.41 7.46 27.08 0.23 19.41-19.41 35.65-42.65 46.49-68.6l0.9-1.57c10.81-25.51 16.68-53.49 16.68-82.81 0-59.13-24.15-112.83-62.94-151.65-39.05-38.79-92.75-62.94-151.88-62.94-59.34 0-113.04 24.15-151.62 62.94-38.82 38.82-63.17 92.52-63.17 151.65 0 29.32 6.31 57.3 17.14 82.81 10.81 26.62 27.52 50.33 47.39 70.17 7.67 7.23 19.85 7.23 26.85-0.23 7.44-7.43 7.44-19.61-0.23-26.84z m320.87-41.52l-24.38 8.8c9.48 3.84 19.86 0 24.38-8.8zM512 688.92h-0.44c-4.74 0-8.8 0-12.18-0.23-4.53 0-8.8-0.46-12.64-0.9-10.4-0.9-19.87 6.77-20.77 17.14-1.13 10.37 6.77 19.85 17.14 20.75 4.97 0.46 9.94 0.69 14.44 0.9 5.2 0.46 9.94 0.46 14 0.46h0.91c4.07 0 9.03 0 14.44-0.46 4.51-0.2 9.03-0.44 13.98-0.9 10.4-0.9 18.07-10.37 17.17-20.75-0.9-10.37-10.4-18.05-20.77-17.14-3.84 0.44-8.11 0.9-12.64 0.9h-0.44c-3.17 0.23-7.23 0.23-11.74 0.23H512zM354.05 638.6c-35.42-25.05-64.51-58.67-84.62-97.49-19.18-37.46-29.99-79.88-29.99-125 0-75.37 30.22-143.51 79.42-192.94h0.46c49.17-49.4 117.33-80.09 192.68-80.09 75.37 0 143.51 30.69 192.71 80.09h0.46c49.19 49.42 79.88 117.56 79.88 192.94 0 45.13-10.84 87.55-30.25 125-20.08 38.82-49.63 72.44-84.85 97.49-8.57 6.1-10.61 18.05-4.51 26.62 6.31 8.57 18.05 10.37 26.62 4.53 40.18-28.67 73.57-67.03 96.35-111.25 22.11-42.65 34.52-91.16 34.52-142.38 0-85.75-34.73-163.36-91.15-219.79-56.19-56.41-134.04-91.39-219.79-91.39s-163.36 34.98-219.76 91.39c-56.43 56.43-91.18 134.04-91.18 219.79 0 51.22 12.64 99.73 34.54 142.38 22.78 44.23 55.94 82.58 96.33 111.25 8.6 5.85 20.77 4.05 26.64-4.53 5.88-8.58 4.08-20.52-4.51-26.62z m137.2-92.98l-74.47 229.95h190.9l-74.91-229.95c-6.77 0.9-13.77 1.59-20.77 1.59-7.21 0-13.98-0.69-20.75-1.59z m68.6-177.14c-12.2-11.95-29.34-19.85-47.85-19.85-18.49 0-35.19 7.9-47.6 19.85-12.18 12.2-19.64 29.11-19.64 47.62 0 18.05 7.23 34.29 18.28 46.49l1.36 1.34c12.41 12.2 29.11 19.64 47.6 19.64 18.51 0 35.65-7.44 47.85-19.64 11.95-12.41 19.41-29.32 19.41-47.83s-7.46-35.42-19.41-47.62z" fill="#717071" p-id="4161"></path></svg>